<svg xmlns="http://www.w3.org/2000/svg" xmlns:xlink="http://www.w3.org/1999/xlink" width="517.897" height="411.921" viewBox="0 0 517.897 411.921">
  <defs>
    <radialGradient id="radial-gradient" cx="-0.095" cy="0.312" r="0.861" gradientTransform="translate(-0.366) scale(1.732 1)" gradientUnits="objectBoundingBox">
      <stop offset="0" stop-color="#274f89"/>
      <stop offset="1" stop-color="#173d7a"/>
    </radialGradient>
    <linearGradient id="linear-gradient" y1="0.5" x2="1.319" y2="0.5" gradientUnits="objectBoundingBox">
      <stop offset="0" stop-color="#d4ecff"/>
      <stop offset="0.239" stop-color="#d0e9fd"/>
      <stop offset="0.46" stop-color="#c5e2f9"/>
      <stop offset="0.675" stop-color="#b2d5f1"/>
      <stop offset="0.884" stop-color="#98c4e7"/>
      <stop offset="1" stop-color="#86b8e0"/>
    </linearGradient>
    <radialGradient id="radial-gradient-2" cx="-1.237" cy="-0.578" r="1.555" gradientTransform="translate(-0.366) scale(1.732 1)" gradientUnits="objectBoundingBox">
      <stop offset="0" stop-color="#699dd1"/>
      <stop offset="0.266" stop-color="#6296cb"/>
      <stop offset="0.641" stop-color="#5084bd"/>
      <stop offset="1" stop-color="#396caa"/>
    </radialGradient>
    <radialGradient id="radial-gradient-3" cx="-0.095" cy="0.312" r="0.861" xlink:href="#radial-gradient"/>
    <radialGradient id="radial-gradient-4" cx="-1.237" cy="-0.578" r="1.555" xlink:href="#radial-gradient-2"/>
    <radialGradient id="radial-gradient-5" cx="-0.095" cy="0.312" r="0.861" xlink:href="#radial-gradient"/>
    <radialGradient id="radial-gradient-6" cx="-1.237" cy="-0.578" r="1.555" xlink:href="#radial-gradient-2"/>
    <radialGradient id="radial-gradient-7" cx="-0.095" cy="0.312" r="0.861" xlink:href="#radial-gradient"/>
    <radialGradient id="radial-gradient-8" cx="-1.237" cy="-0.578" r="1.555" xlink:href="#radial-gradient-2"/>
    <radialGradient id="radial-gradient-9" cx="0.234" cy="0.38" r="0.644" gradientTransform="translate(-0.287) scale(1.574 1)" gradientUnits="objectBoundingBox">
      <stop offset="0" stop-color="#396caa"/>
      <stop offset="1" stop-color="#274f89"/>
    </radialGradient>
    <linearGradient id="linear-gradient-5" x1="0.029" y1="0.235" x2="0.883" y2="0.916" xlink:href="#linear-gradient"/>
    <linearGradient id="linear-gradient-6" x1="-5.118" y1="7.146" x2="-3.992" y2="7.058" gradientUnits="objectBoundingBox">
      <stop offset="0" stop-color="#3919bb"/>
      <stop offset="1" stop-color="#6507fa"/>
    </linearGradient>
    <radialGradient id="radial-gradient-10" cx="0.055" cy="0.064" r="1.056" gradientTransform="translate(-0.02) scale(1.039 1)" xlink:href="#radial-gradient-2"/>
    <linearGradient id="linear-gradient-8" x1="0.131" y1="0.119" x2="0.99" y2="1.006" gradientUnits="objectBoundingBox">
      <stop offset="0" stop-color="#d4ecff"/>
      <stop offset="0.201" stop-color="#d0e9fd"/>
      <stop offset="0.387" stop-color="#c5e2f9"/>
      <stop offset="0.568" stop-color="#b2d5f1"/>
      <stop offset="0.744" stop-color="#98c4e7"/>
      <stop offset="0.842" stop-color="#86b8e0"/>
    </linearGradient>
    <radialGradient id="radial-gradient-11" cx="0.055" cy="0.064" r="1.056" gradientTransform="translate(-0.02) scale(1.039 1)" xlink:href="#radial-gradient-2"/>
  </defs>
  <g id="Grupo_53756" data-name="Grupo 53756" transform="translate(-169.251 -40.072)">
    <g id="Grupo_53756-2" data-name="Grupo 53756" transform="translate(220.09 107.607)" opacity="0.4">
      <path id="Trazado_100471" data-name="Trazado 100471" d="M550.787,139.067l-40.106-23.155,40.1-23.154.354.206,39.751,22.949ZM513.52,115.912l37.266,21.515,37.264-21.514L550.785,94.4Z" transform="translate(-123.839 -92.754)" fill="#fff"/>
      <path id="Trazado_100472" data-name="Trazado 100472" d="M490.431,139.066l-40.1-23.154,40.1-23.155,40.1,23.155Zm-37.264-23.154,37.264,21.514,37.264-21.514L490.431,94.4Z" transform="translate(-140.853 -92.754)" fill="#fff"/>
      <path id="Trazado_100473" data-name="Trazado 100473" d="M520.609,156.489l-.355-.205-39.749-22.949,40.1-23.155,40.1,23.156Zm-37.266-23.154,37.266,21.514,37.264-21.513-37.265-21.515Z" transform="translate(-132.346 -87.843)" fill="#fff"/>
      <path id="Trazado_100474" data-name="Trazado 100474" d="M550.788,173.912l-.355-.205-39.751-22.949,40.1-23.154.354.205,39.751,22.95Zm-37.266-23.154,37.266,21.514,37.264-21.513-37.265-21.516Z" transform="translate(-123.839 -82.931)" fill="#fff"/>
      <path id="Trazado_100475" data-name="Trazado 100475" d="M430.079,139.065l-.355-.205-39.751-22.949,40.1-23.154.354.206,39.751,22.949Zm-37.266-23.154,37.266,21.514,37.264-21.513L430.077,94.4Z" transform="translate(-157.867 -92.754)" fill="#fff"/>
      <path id="Trazado_100476" data-name="Trazado 100476" d="M460.254,156.489l-40.1-23.155,40.1-23.154,40.1,23.155ZM422.99,133.334l37.264,21.515,37.265-21.514-37.265-21.514Z" transform="translate(-149.36 -87.843)" fill="#fff"/>
      <path id="Trazado_100477" data-name="Trazado 100477" d="M490.432,173.912l-.354-.205-39.751-22.949,40.1-23.155.354.205,39.751,22.95Zm-37.265-23.154,37.265,21.514L527.7,150.758l-37.265-21.515Z" transform="translate(-140.853 -82.931)" fill="#fff"/>
      <path id="Trazado_100478" data-name="Trazado 100478" d="M520.61,191.335l-.355-.205-39.749-22.95,40.1-23.154.354.205,39.751,22.949ZM483.344,168.18,520.61,189.7l37.264-21.515-37.265-21.514Z" transform="translate(-132.346 -78.02)" fill="#fff"/>
      <path id="Trazado_100479" data-name="Trazado 100479" d="M550.787,208.758l-.354-.205L510.683,185.6l40.1-23.154,40.1,23.155ZM513.522,185.6l37.265,21.516L588.052,185.6l-37.265-21.515Z" transform="translate(-123.839 -73.108)" fill="#fff"/>
      <path id="Trazado_100480" data-name="Trazado 100480" d="M369.723,139.065l-.354-.205-39.751-22.949,40.1-23.155.355.206,39.749,22.949Zm-37.265-23.154,37.265,21.514,37.264-21.514L369.722,94.4Z" transform="translate(-174.882 -92.755)" fill="#fff"/>
      <path id="Trazado_100481" data-name="Trazado 100481" d="M399.9,156.488l-.355-.205L359.8,133.334l40.1-23.155.354.205L440,133.334Zm-37.265-23.154L399.9,154.848l37.264-21.514L399.9,111.82Z" transform="translate(-166.374 -87.843)" fill="#fff"/>
      <path id="Trazado_100482" data-name="Trazado 100482" d="M430.08,173.911l-.355-.205-39.751-22.949,40.1-23.155,40.1,23.156Zm-37.266-23.154,37.266,21.514,37.262-21.513-37.264-21.517Z" transform="translate(-157.867 -82.931)" fill="#fff"/>
      <path id="Trazado_100483" data-name="Trazado 100483" d="M460.255,191.335l-40.1-23.156,40.1-23.152.355.205,39.749,22.949Zm-37.264-23.156L460.255,189.7,497.52,168.18l-37.266-21.514Z" transform="translate(-149.36 -78.02)" fill="#fff"/>
      <path id="Trazado_100484" data-name="Trazado 100484" d="M490.433,208.758l-.354-.205L450.329,185.6l40.1-23.154.354.205L530.537,185.6ZM453.168,185.6l37.265,21.516L527.7,185.6l-37.265-21.514Z" transform="translate(-140.853 -73.108)" fill="#fff"/>
      <path id="Trazado_100485" data-name="Trazado 100485" d="M520.611,226.181l-.355-.206-39.749-22.949,40.1-23.154.354.205,39.75,22.949Zm-37.266-23.155,37.266,21.514,37.264-21.514L520.61,181.512Z" transform="translate(-132.345 -68.196)" fill="#fff"/>
      <path id="Trazado_100486" data-name="Trazado 100486" d="M550.788,243.6l-.354-.206-39.751-22.949,40.1-23.154.355.205,39.751,22.949Zm-37.265-23.155,37.265,21.514,37.265-21.514-37.266-21.514Z" transform="translate(-123.838 -63.285)" fill="#fff"/>
      <path id="Trazado_100487" data-name="Trazado 100487" d="M309.37,139.064l-.355-.205L269.264,115.91l40.1-23.154.354.206,39.751,22.949ZM272.1,115.91l37.266,21.514,37.264-21.513L309.368,94.4Z" transform="translate(-191.896 -92.755)" fill="#fff"/>
      <path id="Trazado_100488" data-name="Trazado 100488" d="M339.546,156.488l-40.1-23.155,40.1-23.154.355.205,39.751,22.95Zm-37.265-23.155,37.265,21.515,37.265-21.514L339.545,111.82Z" transform="translate(-183.389 -87.843)" fill="#fff"/>
      <path id="Trazado_100489" data-name="Trazado 100489" d="M369.724,173.911l-.354-.205L329.62,150.757l40.1-23.155.354.205,39.751,22.95Zm-37.265-23.154,37.265,21.514,37.264-21.514-37.265-21.515Z" transform="translate(-174.881 -82.931)" fill="#fff"/>
      <path id="Trazado_100490" data-name="Trazado 100490" d="M399.9,191.334l-.355-.205L359.8,168.179l40.1-23.154.354.205,39.751,22.949Zm-37.266-23.155L399.9,189.694l37.264-21.516L399.9,146.665Z" transform="translate(-166.374 -78.02)" fill="#fff"/>
      <path id="Trazado_100491" data-name="Trazado 100491" d="M430.079,208.757l-40.1-23.155,40.1-23.154,40.1,23.155ZM392.814,185.6l37.265,21.516L467.343,185.6l-37.264-21.515Z" transform="translate(-157.867 -73.108)" fill="#fff"/>
      <path id="Trazado_100492" data-name="Trazado 100492" d="M460.256,226.18l-.354-.205-39.751-22.95,40.1-23.152.355.205,39.749,22.949Zm-37.265-23.155,37.265,21.514,37.265-21.513-37.266-21.514Z" transform="translate(-149.36 -68.196)" fill="#fff"/>
      <path id="Trazado_100493" data-name="Trazado 100493" d="M490.434,243.6l-40.1-23.156,40.1-23.152.354.205,39.751,22.949Zm-37.265-23.156,37.265,21.516L527.7,220.449l-37.265-21.514Z" transform="translate(-140.852 -63.285)" fill="#fff"/>
      <path id="Trazado_100494" data-name="Trazado 100494" d="M520.612,261.026l-.355-.205-39.749-22.949,40.1-23.155.354.206,39.751,22.949Zm-37.266-23.154,37.266,21.514,37.264-21.514-37.265-21.514Z" transform="translate(-132.345 -58.373)" fill="#fff"/>
      <path id="Trazado_100495" data-name="Trazado 100495" d="M550.789,278.449l-.354-.205L510.685,255.3l40.1-23.155.355.205,39.751,22.95ZM513.524,255.3l37.265,21.514L588.054,255.3l-37.266-21.514Z" transform="translate(-123.838 -53.462)" fill="#fff"/>
      <path id="Trazado_100496" data-name="Trazado 100496" d="M249.014,139.064l-.354-.205L208.91,115.91l40.1-23.155.354.206,39.751,22.949ZM211.749,115.91l37.265,21.514,37.264-21.514L249.013,94.4Z" transform="translate(-208.91 -92.755)" fill="#fff"/>
      <path id="Trazado_100497" data-name="Trazado 100497" d="M279.192,156.487l-.355-.205-39.749-22.949,40.1-23.155.354.205,39.751,22.95Zm-37.266-23.154,37.266,21.514,37.264-21.514-37.265-21.514Z" transform="translate(-200.403 -87.843)" fill="#fff"/>
      <path id="Trazado_100498" data-name="Trazado 100498" d="M309.371,173.91l-.355-.205-39.751-22.949,40.1-23.155,40.1,23.156ZM272.1,150.756l37.266,21.514,37.264-21.513-37.265-21.517Z" transform="translate(-191.896 -82.932)" fill="#fff"/>
      <path id="Trazado_100499" data-name="Trazado 100499" d="M339.547,191.334l-40.1-23.156,40.1-23.153.355.205,39.749,22.949Zm-37.265-23.156,37.265,21.517,37.265-21.516-37.266-21.514Z" transform="translate(-183.388 -78.02)" fill="#fff"/>
      <path id="Trazado_100500" data-name="Trazado 100500" d="M369.725,208.757l-.354-.205L329.621,185.6l40.1-23.154.354.205L409.829,185.6ZM332.46,185.6l37.265,21.516L406.989,185.6l-37.265-21.514Z" transform="translate(-174.881 -73.108)" fill="#fff"/>
      <path id="Trazado_100501" data-name="Trazado 100501" d="M399.9,226.18l-40.1-23.155,40.1-23.154,40.1,23.154Zm-37.265-23.155L399.9,224.539l37.264-21.514L399.9,181.511Z" transform="translate(-166.374 -68.197)" fill="#fff"/>
      <path id="Trazado_100502" data-name="Trazado 100502" d="M430.081,243.6l-.355-.206-39.751-22.949,40.1-23.154.354.205,39.751,22.949Zm-37.266-23.155,37.266,21.514,37.264-21.514-37.265-21.514Z" transform="translate(-157.867 -63.285)" fill="#fff"/>
      <path id="Trazado_100503" data-name="Trazado 100503" d="M460.257,261.025l-.354-.205-39.751-22.949,40.1-23.155,40.1,23.156Zm-37.265-23.154,37.265,21.514,37.265-21.513-37.266-21.516Z" transform="translate(-149.359 -58.374)" fill="#fff"/>
      <path id="Trazado_100504" data-name="Trazado 100504" d="M490.435,278.449l-40.1-23.155,40.1-23.154.354.205,39.751,22.95ZM453.17,255.294l37.265,21.515L527.7,255.3l-37.265-21.514Z" transform="translate(-140.852 -53.462)" fill="#fff"/>
      <path id="Trazado_100505" data-name="Trazado 100505" d="M520.613,295.872l-.355-.205-39.749-22.949,40.1-23.155.354.205,39.751,22.95Zm-37.266-23.154,37.266,21.514,37.264-21.514L520.612,251.2Z" transform="translate(-132.345 -48.55)" fill="#fff"/>
      <path id="Trazado_100506" data-name="Trazado 100506" d="M550.79,313.295l-.354-.205-39.751-22.95,40.1-23.154.355.205,39.751,22.949ZM513.526,290.14l37.265,21.515,37.265-21.515-37.266-21.514Z" transform="translate(-123.838 -43.638)" fill="#fff"/>
      <path id="Trazado_100507" data-name="Trazado 100507" d="M249.015,173.91l-.354-.205-39.751-22.949,40.1-23.155.354.205,39.751,22.95ZM211.75,150.756l37.265,21.514,37.264-21.514-37.265-21.516Z" transform="translate(-208.91 -82.932)" fill="#fff"/>
      <path id="Trazado_100508" data-name="Trazado 100508" d="M279.193,191.333l-.355-.205-39.749-22.95,40.1-23.154.354.205L319.3,168.178Zm-37.265-23.155,37.265,21.515,37.264-21.515-37.265-21.514Z" transform="translate(-200.402 -78.02)" fill="#fff"/>
      <path id="Trazado_100509" data-name="Trazado 100509" d="M309.37,208.756l-.354-.205L269.266,185.6l40.1-23.154,40.1,23.155ZM272.105,185.6l37.265,21.516L346.635,185.6,309.37,164.087Z" transform="translate(-191.895 -73.108)" fill="#fff"/>
      <path id="Trazado_100510" data-name="Trazado 100510" d="M339.548,226.179l-.354-.205-39.751-22.95,40.1-23.152.355.205,39.749,22.949Zm-37.265-23.155,37.265,21.514,37.265-21.513-37.266-21.514Z" transform="translate(-183.388 -68.197)" fill="#fff"/>
      <path id="Trazado_100511" data-name="Trazado 100511" d="M369.726,243.6l-40.1-23.156,40.1-23.152,40.1,23.154Zm-37.265-23.156,37.265,21.516,37.262-21.514-37.264-21.514Z" transform="translate(-174.881 -63.285)" fill="#fff"/>
      <path id="Trazado_100512" data-name="Trazado 100512" d="M399.9,261.025l-40.1-23.154,40.1-23.155.354.206,39.751,22.949Zm-37.265-23.154L399.9,259.385l37.264-21.514L399.9,216.357Z" transform="translate(-166.373 -58.374)" fill="#fff"/>
      <path id="Trazado_100513" data-name="Trazado 100513" d="M430.082,278.448l-.355-.205-39.751-22.949,40.1-23.155.354.205,39.751,22.95Zm-37.266-23.154,37.266,21.514,37.264-21.514L430.08,233.78Z" transform="translate(-157.867 -53.462)" fill="#fff"/>
      <path id="Trazado_100514" data-name="Trazado 100514" d="M460.258,295.871l-.354-.205-39.751-22.949,40.1-23.155,40.1,23.156Zm-37.265-23.154,37.265,21.514,37.265-21.513L460.257,251.2Z" transform="translate(-149.359 -48.55)" fill="#fff"/>
      <path id="Trazado_100515" data-name="Trazado 100515" d="M490.436,313.294l-.354-.205-39.751-22.95,40.1-23.152.354.205,39.751,22.949Zm-37.265-23.155,37.265,21.515L527.7,290.14l-37.265-21.514Z" transform="translate(-140.852 -43.638)" fill="#fff"/>
      <path id="Trazado_100516" data-name="Trazado 100516" d="M520.614,330.718l-40.1-23.156,40.1-23.152.354.205,39.75,22.949Zm-37.266-23.156,37.266,21.516,37.264-21.514-37.265-21.514Z" transform="translate(-132.345 -38.727)" fill="#fff"/>
      <path id="Trazado_100517" data-name="Trazado 100517" d="M550.791,348.141l-.354-.206-39.751-22.949,40.1-23.154.355.205L590.9,324.986Zm-37.265-23.155L550.791,346.5l37.265-21.514L550.79,303.472Z" transform="translate(-123.837 -33.815)" fill="#fff"/>
      <path id="Trazado_100518" data-name="Trazado 100518" d="M249.016,208.756l-40.1-23.156,40.1-23.152.354.205L289.12,185.6ZM211.751,185.6l37.265,21.517L286.28,185.6l-37.265-21.514Z" transform="translate(-208.909 -73.108)" fill="#fff"/>
      <path id="Trazado_100519" data-name="Trazado 100519" d="M279.194,226.179l-.355-.205-39.749-22.95,40.1-23.154.354.205L319.3,203.024Zm-37.265-23.155,37.265,21.514,37.264-21.514L279.193,181.51Z" transform="translate(-200.402 -68.197)" fill="#fff"/>
      <path id="Trazado_100520" data-name="Trazado 100520" d="M309.371,243.6l-.354-.206-39.751-22.949,40.1-23.154.355.205,39.751,22.949Zm-37.265-23.155,37.265,21.514,37.265-21.514L309.37,198.933Z" transform="translate(-191.895 -63.285)" fill="#fff"/>
      <path id="Trazado_100521" data-name="Trazado 100521" d="M339.549,261.024l-.354-.205L299.445,237.87l40.1-23.155,40.1,23.156ZM302.284,237.87l37.265,21.514,37.265-21.513-37.266-21.516Z" transform="translate(-183.388 -58.374)" fill="#fff"/>
      <path id="Trazado_100522" data-name="Trazado 100522" d="M369.726,278.447l-40.1-23.154,40.1-23.154,40.1,23.155Zm-37.264-23.154,37.264,21.514,37.264-21.513L369.726,233.78Z" transform="translate(-174.88 -53.462)" fill="#fff"/>
      <path id="Trazado_100523" data-name="Trazado 100523" d="M399.9,295.871l-40.1-23.155,40.1-23.154.354.205,39.751,22.95Zm-37.266-23.155L399.9,294.231l37.264-21.514L399.9,251.2Z" transform="translate(-166.373 -48.55)" fill="#fff"/>
      <path id="Trazado_100524" data-name="Trazado 100524" d="M430.081,313.294l-.354-.205-39.751-22.95,40.1-23.154.354.205,39.751,22.949Zm-37.265-23.155,37.265,21.516,37.265-21.516-37.265-21.514Z" transform="translate(-157.866 -43.639)" fill="#fff"/>
      <path id="Trazado_100525" data-name="Trazado 100525" d="M460.259,330.717l-.354-.205-39.751-22.95,40.1-23.154.355.205,39.749,22.949Zm-37.265-23.155,37.265,21.514,37.265-21.514-37.266-21.514Z" transform="translate(-149.359 -38.727)" fill="#fff"/>
      <path id="Trazado_100526" data-name="Trazado 100526" d="M490.437,348.14l-.354-.206-39.751-22.949,40.1-23.154,40.1,23.155Zm-37.265-23.155L490.437,346.5,527.7,324.986l-37.265-21.516Z" transform="translate(-140.852 -33.815)" fill="#fff"/>
      <path id="Trazado_100527" data-name="Trazado 100527" d="M249.017,243.6l-40.1-23.156,40.1-23.152.354.205,39.751,22.949Zm-37.265-23.156,37.265,21.516,37.264-21.514-37.265-21.514Z" transform="translate(-208.909 -63.285)" fill="#fff"/>
      <path id="Trazado_100528" data-name="Trazado 100528" d="M279.2,261.024l-.355-.205L239.091,237.87l40.1-23.155.354.206L319.3,237.87ZM241.929,237.87,279.2,259.384l37.264-21.514-37.265-21.514Z" transform="translate(-200.402 -58.374)" fill="#fff"/>
      <path id="Trazado_100529" data-name="Trazado 100529" d="M309.374,278.447l-.355-.205-39.751-22.949,40.1-23.155.355.205,39.751,22.95Zm-37.266-23.154,37.266,21.514,37.264-21.514-37.266-21.514Z" transform="translate(-191.895 -53.462)" fill="#fff"/>
      <path id="Trazado_100530" data-name="Trazado 100530" d="M339.549,295.87l-40.1-23.154,40.1-23.155,40.1,23.155Zm-37.264-23.154,37.264,21.514,37.265-21.514L339.549,251.2Z" transform="translate(-183.387 -48.551)" fill="#fff"/>
      <path id="Trazado_100531" data-name="Trazado 100531" d="M369.727,313.293l-.354-.205-39.751-22.95,40.1-23.154,40.1,23.155Zm-37.265-23.155,37.265,21.516,37.264-21.514-37.265-21.515Z" transform="translate(-174.88 -43.639)" fill="#fff"/>
      <path id="Trazado_100532" data-name="Trazado 100532" d="M399.905,330.717l-40.1-23.156,40.1-23.153.354.205,39.751,22.949Zm-37.266-23.156,37.266,21.515,37.264-21.514L399.9,286.048Z" transform="translate(-166.373 -38.727)" fill="#fff"/>
      <path id="Trazado_100533" data-name="Trazado 100533" d="M430.082,348.14l-.354-.206-39.751-22.949,40.1-23.154.355.205,39.751,22.949Zm-37.265-23.155L430.082,346.5l37.265-21.514-37.266-21.514Z" transform="translate(-157.866 -33.815)" fill="#fff"/>
      <path id="Trazado_100534" data-name="Trazado 100534" d="M249.018,278.446l-.354-.205-39.751-22.949,40.1-23.154.354.205,39.751,22.95Zm-37.265-23.154,37.265,21.514,37.264-21.513-37.265-21.514Z" transform="translate(-208.909 -53.462)" fill="#fff"/>
      <path id="Trazado_100535" data-name="Trazado 100535" d="M279.2,295.87l-40.1-23.155,40.1-23.154.354.205,39.751,22.95ZM241.93,272.715,279.2,294.23l37.264-21.514L279.2,251.2Z" transform="translate(-200.402 -48.551)" fill="#fff"/>
      <path id="Trazado_100536" data-name="Trazado 100536" d="M309.375,313.293l-.355-.205-39.751-22.95,40.1-23.154,40.1,23.154Zm-37.266-23.155,37.266,21.516,37.262-21.516-37.264-21.514Z" transform="translate(-191.894 -43.639)" fill="#fff"/>
      <path id="Trazado_100537" data-name="Trazado 100537" d="M339.55,330.716l-40.1-23.155,40.1-23.154.355.205,39.749,22.949Zm-37.264-23.155,37.264,21.515,37.265-21.515-37.266-21.514Z" transform="translate(-183.387 -38.727)" fill="#fff"/>
      <path id="Trazado_100538" data-name="Trazado 100538" d="M369.728,348.139l-.354-.205-39.751-22.95,40.1-23.154,40.1,23.155Zm-37.265-23.155L369.728,346.5l37.264-21.513L369.727,303.47Z" transform="translate(-174.88 -33.816)" fill="#fff"/>
      <path id="Trazado_100539" data-name="Trazado 100539" d="M249.019,313.292l-.354-.205-39.751-22.95,40.1-23.154,40.1,23.155Zm-37.265-23.155,37.265,21.515,37.264-21.514-37.265-21.516Z" transform="translate(-208.909 -43.639)" fill="#fff"/>
      <path id="Trazado_100540" data-name="Trazado 100540" d="M279.2,330.715l-.355-.205-39.749-22.95,40.1-23.152.354.205L319.3,307.561ZM241.931,307.56,279.2,329.075l37.264-21.514L279.2,286.047Z" transform="translate(-200.401 -38.727)" fill="#fff"/>
      <path id="Trazado_100541" data-name="Trazado 100541" d="M309.374,348.139l-40.1-23.156,40.1-23.152,40.1,23.154Zm-37.265-23.156L309.374,346.5l37.264-21.514L309.374,303.47Z" transform="translate(-191.894 -33.816)" fill="#fff"/>
      <path id="Trazado_100542" data-name="Trazado 100542" d="M249.02,348.138l-.354-.205-39.751-22.95,40.1-23.154.354.205,39.751,22.949Zm-37.265-23.155L249.02,346.5l37.264-21.514-37.265-21.514Z" transform="translate(-208.908 -33.816)" fill="#fff"/>
    </g>
    <path id="Trazado_100543" data-name="Trazado 100543" d="M220.479,246.6a13.574,13.574,0,0,0-2.186,1.6c-.3-9.835-7.407-13.746-16.148-8.7-7.12,4.111-13.152,12.911-15.314,21.537a9.657,9.657,0,0,0-6.04,1.5c-6.374,3.679-11.54,12.628-11.54,19.986s5.166,10.341,11.54,6.662l39.688-22.914c4.7-2.716,8.52-9.323,8.52-14.756S225.183,243.88,220.479,246.6Z" transform="translate(0 55.597)" fill="#fff"/>
    <g id="Grupo_53757" data-name="Grupo 53757" transform="translate(520.883 338.769)">
      <path id="Trazado_100544" data-name="Trazado 100544" d="M451.039,292.143a8.269,8.269,0,0,1-3.742,6.48c-2.066,1.194-3.742.227-3.742-2.16a8.273,8.273,0,0,1,3.742-6.481C449.363,288.789,451.039,289.756,451.039,292.143Z" transform="translate(-443.555 -268.462)" fill="#fff"/>
      <path id="Trazado_100545" data-name="Trazado 100545" d="M460.5,286.679a8.27,8.27,0,0,1-3.742,6.481c-2.066,1.192-3.742.226-3.742-2.16a8.269,8.269,0,0,1,3.742-6.481C458.826,283.326,460.5,284.293,460.5,286.679Z" transform="translate(-440.888 -270.002)" fill="#fff"/>
      <path id="Trazado_100546" data-name="Trazado 100546" d="M469.962,281.216a8.271,8.271,0,0,1-3.742,6.481c-2.066,1.193-3.742.226-3.742-2.16a8.271,8.271,0,0,1,3.742-6.481C468.286,277.863,469.962,278.831,469.962,281.216Z" transform="translate(-438.221 -271.542)" fill="#fff"/>
      <path id="Trazado_100547" data-name="Trazado 100547" d="M479.424,275.753a8.271,8.271,0,0,1-3.742,6.481c-2.066,1.194-3.742.227-3.742-2.16a8.273,8.273,0,0,1,3.742-6.481C477.748,272.4,479.424,273.368,479.424,275.753Z" transform="translate(-435.553 -273.082)" fill="#fff"/>
    </g>
    <g id="Grupo_53758" data-name="Grupo 53758" transform="translate(346.187 408.787)">
      <path id="Trazado_100548" data-name="Trazado 100548" d="M314.761,344.32a8.269,8.269,0,0,1-3.742,6.481c-2.066,1.194-3.742.227-3.742-2.16a8.273,8.273,0,0,1,3.742-6.481C313.085,340.967,314.761,341.935,314.761,344.32Z" transform="translate(-307.277 -323.771)" fill="#fff"/>
      <path id="Trazado_100549" data-name="Trazado 100549" d="M322.814,339.671a8.271,8.271,0,0,1-3.742,6.481c-2.066,1.193-3.742.226-3.742-2.16a8.271,8.271,0,0,1,3.742-6.481C321.138,336.318,322.814,337.286,322.814,339.671Z" transform="translate(-305.007 -325.081)" fill="#fff"/>
      <path id="Trazado_100550" data-name="Trazado 100550" d="M314.761,335.022a8.269,8.269,0,0,1-3.742,6.481c-2.066,1.193-3.742.227-3.742-2.16a8.273,8.273,0,0,1,3.742-6.481C313.085,331.669,314.761,332.637,314.761,335.022Z" transform="translate(-307.277 -326.392)" fill="#fff"/>
      <path id="Trazado_100551" data-name="Trazado 100551" d="M322.814,330.373a8.271,8.271,0,0,1-3.742,6.481c-2.066,1.193-3.742.226-3.742-2.16a8.271,8.271,0,0,1,3.742-6.481C321.138,327.02,322.814,327.988,322.814,330.373Z" transform="translate(-305.007 -327.702)" fill="#fff"/>
    </g>
    <g id="Grupo_53759" data-name="Grupo 53759" transform="translate(311.518 115.936)">
      <path id="Trazado_100552" data-name="Trazado 100552" d="M287.716,112.63l-7.484,4.321V108.31l7.484-4.321Z" transform="translate(-280.232 -97.917)" fill="#fff"/>
      <path id="Trazado_100553" data-name="Trazado 100553" d="M295.819,107.894l-7.484,4.321v-8.641l7.484-4.321Z" transform="translate(-277.948 -99.252)" fill="#fff"/>
      <path id="Trazado_100554" data-name="Trazado 100554" d="M287.767,121.376l-7.484,4.321v-8.641l7.484-4.321Z" transform="translate(-280.218 -95.452)" fill="#fff"/>
      <path id="Trazado_100555" data-name="Trazado 100555" d="M295.819,116.727l-7.484,4.321v-8.641l7.484-4.321Z" transform="translate(-277.948 -96.762)" fill="#fff"/>
    </g>
    <path id="Trazado_100556" data-name="Trazado 100556" d="M538.929,44.941a14.321,14.321,0,0,0-3.655,3.141c-.172-7.207-5.343-10.087-11.713-6.41a21.282,21.282,0,0,0-5.629,4.911c-2.836-4.955-8.709-6.106-15.516-2.175-9.572,5.526-17.333,18.967-17.333,30.02a20.6,20.6,0,0,0,.174,2.583,6.538,6.538,0,0,0-4.853.979c-4.58,2.645-8.294,9.076-8.294,14.364s3.714,7.432,8.294,4.788l58.524-33.79A17.619,17.619,0,0,0,546.9,49.543C546.9,44.459,543.334,42.4,538.929,44.941Z" transform="translate(85.378)" fill="#fff" opacity="0.2"/>
    <path id="Trazado_100557" data-name="Trazado 100557" d="M547.065,52.108a14.33,14.33,0,0,0-3.656,3.142c-.172-7.207-5.343-10.087-11.711-6.41a21.286,21.286,0,0,0-5.63,4.911c-2.834-4.956-8.708-6.106-15.516-2.177-9.572,5.528-17.331,18.967-17.331,30.02a20.617,20.617,0,0,0,.173,2.584,6.533,6.533,0,0,0-4.853.979c-4.58,2.645-8.293,9.076-8.293,14.364s3.712,7.432,8.293,4.788l58.525-33.79a17.622,17.622,0,0,0,7.973-13.809C555.039,51.628,551.468,49.566,547.065,52.108Z" transform="translate(87.671 2.021)" fill="#fff" opacity="0.5"/>
    <path id="Trazado_100558" data-name="Trazado 100558" d="M555.2,59.278a14.3,14.3,0,0,0-3.656,3.142c-.172-7.208-5.343-10.087-11.713-6.411a21.309,21.309,0,0,0-5.629,4.912c-2.836-4.956-8.709-6.107-15.516-2.177-9.572,5.526-17.333,18.967-17.333,30.02a20.633,20.633,0,0,0,.174,2.584,6.532,6.532,0,0,0-4.853.979c-4.58,2.645-8.294,9.075-8.294,14.364s3.714,7.432,8.294,4.788L555.2,77.69a17.621,17.621,0,0,0,7.972-13.809C563.173,58.8,559.6,56.736,555.2,59.278Z" transform="translate(89.965 4.042)" fill="#fff"/>
    <path id="Trazado_100559" data-name="Trazado 100559" d="M275.768,268a1.81,1.81,0,0,1-1.81-1.81V243.007a1.809,1.809,0,0,1,.905-1.568l20.08-11.592a1.81,1.81,0,0,1,2.715,1.567V254.6a1.812,1.812,0,0,1-.905,1.568l-20.08,11.592A1.811,1.811,0,0,1,275.768,268Zm1.81-23.95v19.005l16.46-9.5V234.548Zm18.27,10.548h0Z" transform="translate(29.517 53.43)" fill="#fff"/>
    <g id="Grupo_53761" data-name="Grupo 53761" transform="translate(260.335 342.118)">
      <g id="Grupo_53760" data-name="Grupo 53760">
        <path id="Trazado_100560" data-name="Trazado 100560" d="M270.981,355.2l-28.959-16.72,28.958-16.719,28.959,16.72Z" transform="translate(-239.821 -262.708)" fill="#7dc3ea"/>
        <path id="Trazado_100561" data-name="Trazado 100561" d="M271.466,348.094a2.2,2.2,0,0,1-1.1-.295l-28.96-16.72a2.2,2.2,0,0,1,0-3.814l28.958-16.719a2.2,2.2,0,0,1,2.2,0l28.96,16.719a2.2,2.2,0,0,1,0,3.814L272.565,347.8A2.2,2.2,0,0,1,271.466,348.094Zm-24.556-18.922,24.556,14.178,24.555-14.178L271.464,315Z" transform="translate(-240.305 -265.953)" fill="#fff"/>
        <path id="Trazado_100562" data-name="Trazado 100562" d="M293.571,322.174l-28.958,16.719V305.456l28.958-16.719Z" transform="translate(-233.453 -272.018)" fill="url(#radial-gradient)"/>
        <path id="Trazado_100563" data-name="Trazado 100563" d="M270.981,309.132l-28.958-16.719,28.957-16.718,28.958,16.719Z" transform="translate(-239.821 -275.695)" fill="url(#linear-gradient)"/>
        <path id="Trazado_100564" data-name="Trazado 100564" d="M270.981,338.893l-28.958-16.719V288.737l28.958,16.719Z" transform="translate(-239.821 -272.018)" fill="url(#radial-gradient-2)"/>
      </g>
      <path id="Trazado_100565" data-name="Trazado 100565" d="M258.258,316.856l-8.1-4.676v-9.352l8.1,4.676Z" transform="translate(-237.527 -268.046)" fill="#fff"/>
    </g>
    <g id="Grupo_53763" data-name="Grupo 53763" transform="translate(584.582 162.015)">
      <g id="Grupo_53762" data-name="Grupo 53762" transform="translate(0)">
        <path id="Trazado_100566" data-name="Trazado 100566" d="M523.923,214.705l-28.959-16.719,28.958-16.719,28.959,16.719Z" transform="translate(-492.762 -122.211)" fill="#7dc3ea"/>
        <path id="Trazado_100567" data-name="Trazado 100567" d="M524.408,207.6a2.205,2.205,0,0,1-1.1-.295l-28.96-16.719a2.2,2.2,0,0,1,0-3.814l28.958-16.719a2.2,2.2,0,0,1,2.2,0l28.96,16.719a2.2,2.2,0,0,1,0,3.814L525.508,207.3A2.2,2.2,0,0,1,524.408,207.6Zm-24.556-18.921,24.556,14.177,24.554-14.177L524.407,174.5Z" transform="translate(-493.246 -125.456)" fill="#fff"/>
        <path id="Trazado_100568" data-name="Trazado 100568" d="M546.513,181.677,517.555,198.4V164.959l28.958-16.719Z" transform="translate(-486.393 -131.522)" fill="url(#radial-gradient-3)"/>
        <path id="Trazado_100569" data-name="Trazado 100569" d="M523.923,168.636l-28.958-16.719L523.922,135.2l28.958,16.719Z" transform="translate(-492.762 -135.198)" fill="url(#linear-gradient)"/>
        <path id="Trazado_100570" data-name="Trazado 100570" d="M523.923,198.4l-28.958-16.719V148.24l28.958,16.719Z" transform="translate(-492.762 -131.522)" fill="url(#radial-gradient-4)"/>
      </g>
      <path id="Trazado_100571" data-name="Trazado 100571" d="M511.2,176.36l-8.1-4.676v-9.352l8.1,4.676Z" transform="translate(-490.468 -127.549)" fill="#fff"/>
      <path id="Trazado_100572" data-name="Trazado 100572" d="M511.237,149.366l8.043-4.773,8.155,4.579-8.043,4.773Z" transform="translate(-488.174 -132.55)" fill="#fff"/>
    </g>
    <g id="Grupo_53765" data-name="Grupo 53765" transform="translate(584.582 342.118)">
      <g id="Grupo_53764" data-name="Grupo 53764" transform="translate(0)">
        <path id="Trazado_100573" data-name="Trazado 100573" d="M523.923,355.2l-28.959-16.72,28.958-16.719,28.959,16.72Z" transform="translate(-492.762 -262.708)" fill="#7dc3ea"/>
        <path id="Trazado_100574" data-name="Trazado 100574" d="M524.408,348.094a2.206,2.206,0,0,1-1.1-.295l-28.96-16.72a2.2,2.2,0,0,1,0-3.814l28.958-16.719a2.2,2.2,0,0,1,2.2,0l28.96,16.719a2.2,2.2,0,0,1,0,3.814L525.508,347.8A2.205,2.205,0,0,1,524.408,348.094ZM499.85,329.172l24.557,14.178,24.555-14.178L524.407,315Z" transform="translate(-493.246 -265.953)" fill="#fff"/>
        <path id="Trazado_100575" data-name="Trazado 100575" d="M546.513,322.174l-28.958,16.719V305.456l28.958-16.719Z" transform="translate(-486.393 -272.018)" fill="url(#radial-gradient-5)"/>
        <path id="Trazado_100576" data-name="Trazado 100576" d="M523.923,309.132l-28.958-16.719,28.957-16.718,28.958,16.719Z" transform="translate(-492.762 -275.695)" fill="url(#linear-gradient)"/>
        <path id="Trazado_100577" data-name="Trazado 100577" d="M523.923,338.893l-28.958-16.719V288.737l28.958,16.719Z" transform="translate(-492.762 -272.018)" fill="url(#radial-gradient-6)"/>
      </g>
      <path id="Trazado_100578" data-name="Trazado 100578" d="M511.2,316.856l-8.1-4.676v-9.352l8.1,4.676Z" transform="translate(-490.468 -268.046)" fill="#fff"/>
    </g>
    <g id="Grupo_53767" data-name="Grupo 53767" transform="translate(260.335 162.015)">
      <g id="Grupo_53766" data-name="Grupo 53766">
        <path id="Trazado_100579" data-name="Trazado 100579" d="M270.981,214.705l-28.959-16.719,28.958-16.719,28.959,16.719Z" transform="translate(-239.821 -122.211)" fill="#7dc3ea"/>
        <path id="Trazado_100580" data-name="Trazado 100580" d="M271.466,207.6a2.2,2.2,0,0,1-1.1-.295l-28.96-16.719a2.2,2.2,0,0,1,0-3.814l28.958-16.719a2.2,2.2,0,0,1,2.2,0l28.96,16.719a2.2,2.2,0,0,1,0,3.814L272.565,207.3A2.2,2.2,0,0,1,271.466,207.6Zm-24.555-18.921,24.555,14.177,24.554-14.177L271.464,174.5Z" transform="translate(-240.305 -125.456)" fill="#fff"/>
        <path id="Trazado_100581" data-name="Trazado 100581" d="M293.571,181.677,264.613,198.4V164.959l28.958-16.719Z" transform="translate(-233.453 -131.522)" fill="url(#radial-gradient-7)"/>
        <path id="Trazado_100582" data-name="Trazado 100582" d="M270.981,168.636l-28.958-16.719L270.98,135.2l28.958,16.719Z" transform="translate(-239.821 -135.198)" fill="url(#linear-gradient)"/>
        <path id="Trazado_100583" data-name="Trazado 100583" d="M270.981,198.4l-28.958-16.719V148.24l28.958,16.719Z" transform="translate(-239.821 -131.522)" fill="url(#radial-gradient-8)"/>
      </g>
      <path id="Trazado_100584" data-name="Trazado 100584" d="M258.258,176.36l-8.1-4.676v-9.352l8.1,4.676Z" transform="translate(-237.527 -127.549)" fill="#fff"/>
    </g>
    <rect id="Rectángulo_5141" data-name="Rectángulo 5141" width="97.242" height="4.403" transform="matrix(0.866, -0.5, 0.5, 0.866, 515.53, 250.979)" fill="#fff"/>
    <g id="Grupo_53785" data-name="Grupo 53785" transform="translate(367.178 48.217)">
      <path id="Trazado_100585" data-name="Trazado 100585" d="M402.488,320.6,328.22,277.725c-2.721-1.572-2.379-4.316.763-6.13L407.7,226.029c3.143-1.815,7.9-2.011,10.619-.441l74.268,42.88c2.722,1.572,2.381,4.316-.763,6.13l-78.717,45.565C409.965,321.977,405.211,322.175,402.488,320.6Z" transform="translate(-322.882 3.782)" fill="#7dc3ea"/>
      <path id="Trazado_100586" data-name="Trazado 100586" d="M407.6,310.81a11.628,11.628,0,0,1-5.722-1.346L327.6,266.586a5.341,5.341,0,0,1-2.938-4.57c0-2.057,1.349-4.016,3.7-5.375l78.717-45.563c3.81-2.2,9.44-2.395,12.822-.442l74.268,42.88a5.335,5.335,0,0,1,2.938,4.569c0,2.059-1.347,4.017-3.7,5.374l-78.715,45.564A14.506,14.506,0,0,1,407.6,310.81Zm-3.521-5.158c2.04,1.177,5.972.97,8.417-.441l78.715-45.564c1.1-.636,1.5-1.283,1.5-1.563,0-.165-.228-.461-.736-.756L417.7,214.45c-2.04-1.178-5.972-.972-8.417.441l-78.715,45.563c-1.1.636-1.5,1.283-1.5,1.563,0,.164.228.463.738.756Z" transform="translate(-323.366 -0.514)" fill="#fff"/>
      <g id="Grupo_53784" data-name="Grupo 53784">
        <g id="Grupo_53783" data-name="Grupo 53783">
          <g id="Grupo_53778" data-name="Grupo 53778">
            <g id="Grupo_53770" data-name="Grupo 53770">
              <g id="Grupo_53769" data-name="Grupo 53769">
                <g id="Grupo_53768" data-name="Grupo 53768">
                  <path id="Trazado_100587" data-name="Trazado 100587" d="M404.3,134.38s-40.775,3.884-65.332,5.771l65.136,185.508,86.158-49.693.041-.024.154-.088,0-.006c1.078-.679,1.76-2.161,1.76-4.253V90.275a13.141,13.141,0,0,0-1.5-5.788Z" transform="translate(-319.334 -35.696)" fill="url(#radial-gradient-9)"/>
                  <path id="Trazado_100588" data-name="Trazado 100588" d="M490.8,90.809,415.027,47.063a3.425,3.425,0,0,0-3.451-.3h0l-86.5,49.906,4.075,15.083,21.69,61.772,4.083,2.356L494.641,95.214A10.68,10.68,0,0,0,490.8,90.809Z" transform="translate(-323.252 -46.426)" fill="url(#linear-gradient-5)"/>
                  <path id="Trazado_100589" data-name="Trazado 100589" d="M404.757,325.256l-75.77-43.746c-2.947-1.7-5.335-6.265-5.335-10.194V90c0-3.928,2.388-5.734,5.335-4.033l75.77,43.746c2.947,1.7,5.335,6.265,5.335,10.194V321.222C410.092,325.151,407.7,326.957,404.757,325.256Z" transform="translate(-323.652 -35.461)" fill="#5793ce"/>
                  <path id="Trazado_100590" data-name="Trazado 100590" d="M405.774,129,330,85.251c-1.706-.984-3.221-.788-4.2.309a3.945,3.945,0,0,1,2.573.6l75.77,43.746c2.947,1.7,5.335,6.265,5.335,10.194V321.422a5.536,5.536,0,0,1-1.138,3.725c1.647-.26,2.763-1.951,2.763-4.635V139.191C411.109,135.262,408.721,130.7,405.774,129Z" transform="translate(-323.045 -35.661)" fill="#fff"/>
                  <path id="Trazado_100591" data-name="Trazado 100591" d="M398.795,312.277l-66.237-38.242c-2.575-1.488-4.664-5.478-4.664-8.912V96.729c0-3.434,2.088-5.014,4.664-3.527l66.237,38.242c2.575,1.488,4.664,5.478,4.664,8.912V308.751C403.458,312.185,401.37,313.764,398.795,312.277Z" transform="translate(-322.456 -33.397)" fill="url(#linear-gradient-6)"/>
                  <path id="Trazado_100592" data-name="Trazado 100592" d="M398.795,312.277l-66.237-38.242c-2.575-1.488-4.664-5.478-4.664-8.912V96.729c0-3.434,2.088-5.014,4.664-3.527l66.237,38.242c2.575,1.488,4.664,5.478,4.664,8.912V308.751C403.458,312.185,401.37,313.764,398.795,312.277Z" transform="translate(-322.456 -33.397)" fill="url(#linear-gradient-6)"/>
                  <path id="Trazado_100593" data-name="Trazado 100593" d="M398.795,312.277l-66.237-38.242c-2.575-1.488-4.664-5.478-4.664-8.912V96.729c0-3.434,2.088-5.014,4.664-3.527l66.237,38.242c2.575,1.488,4.664,5.478,4.664,8.912V308.751C403.458,312.185,401.37,313.764,398.795,312.277Z" transform="translate(-322.456 -33.397)" fill="#173d7a"/>
                  <path id="Trazado_100594" data-name="Trazado 100594" d="M400.959,311l-66.237-38.243c-2.575-1.487-4.664-5.476-4.664-8.911V95.455a5.387,5.387,0,0,1,.669-2.811c-1.665-.013-2.833,1.516-2.833,4.084V265.123c0,3.434,2.088,7.424,4.664,8.912l66.237,38.242c1.7.979,3.179.622,3.994-.715A3.756,3.756,0,0,1,400.959,311Z" transform="translate(-322.456 -33.397)" fill="#396caa"/>
                </g>
              </g>
            </g>
            <g id="Grupo_53772" data-name="Grupo 53772" transform="translate(12.453 66.58)">
              <g id="Grupo_53771" data-name="Grupo 53771" transform="translate(0)">
                <path id="Trazado_100595" data-name="Trazado 100595" d="M397.252,206.792l-24.619-14.214-39.266,22.67,68.549,39.576V215.7C401.916,212.269,399.827,208.279,397.252,206.792Z" transform="translate(-333.367 -71.805)" fill="#173d7a"/>
                <path id="Trazado_100596" data-name="Trazado 100596" d="M397.252,179.874,372.633,165.66l-39.266,22.671,68.549,39.576V188.786C401.916,185.351,399.827,181.361,397.252,179.874Z" transform="translate(-333.367 -79.393)" fill="#173d7a"/>
                <path id="Trazado_100597" data-name="Trazado 100597" d="M397.252,152.956l-24.619-14.215-39.266,22.67,68.549,39.578V161.868C401.916,158.432,399.827,154.443,397.252,152.956Z" transform="translate(-333.367 -86.982)" fill="#173d7a"/>
                <path id="Trazado_100598" data-name="Trazado 100598" d="M397.252,126.037l-24.619-14.214-39.266,22.67,68.549,39.578V134.95C401.916,131.514,399.827,127.524,397.252,126.037Z" transform="translate(-333.367 -94.57)" fill="#173d7a"/>
                <path id="Trazado_100599" data-name="Trazado 100599" d="M397.252,129.831l-54.5-31.467-9.381,5.416,68.549,39.578v-4.614C401.916,135.309,399.827,131.318,397.252,129.831Z" transform="translate(-333.367 -98.364)" fill="#173d7a"/>
              </g>
              <path id="Trazado_100600" data-name="Trazado 100600" d="M401.916,142.167l-68.549-39.577V124.4l68.549,39.577Z" transform="translate(-333.367 -97.173)" fill="#5793ce"/>
              <path id="Trazado_100601" data-name="Trazado 100601" d="M401.916,169.085l-68.549-39.577v21.81l68.549,39.577Z" transform="translate(-333.367 -89.584)" fill="#5793ce"/>
              <path id="Trazado_100602" data-name="Trazado 100602" d="M401.916,196l-68.549-39.577v21.81l68.549,39.577Z" transform="translate(-333.367 -81.996)" fill="#5793ce"/>
              <path id="Trazado_100603" data-name="Trazado 100603" d="M401.916,222.921l-68.549-39.577v21.81l68.549,39.577Z" transform="translate(-333.367 -74.408)" fill="#5793ce"/>
              <path id="Trazado_100604" data-name="Trazado 100604" d="M401.916,249.839l-68.549-39.577v21.81l68.549,39.577Z" transform="translate(-333.367 -66.819)" fill="#5793ce"/>
            </g>
            <g id="Grupo_53773" data-name="Grupo 53773" transform="translate(20.686 82.605)">
              <path id="Trazado_100605" data-name="Trazado 100605" d="M394.06,153.872l-51.631-29.811a6.321,6.321,0,0,1-2.639-5.043v-5.84c0-1.943,1.182-2.837,2.639-2l51.631,29.809a6.323,6.323,0,0,1,2.639,5.044v5.84C396.7,153.819,395.517,154.713,394.06,153.872Z" transform="translate(-339.789 -110.865)" fill="#173d7a"/>
              <path id="Trazado_100606" data-name="Trazado 100606" d="M345.037,122.943A6.323,6.323,0,0,1,342.4,117.9v-5.84a3.74,3.74,0,0,1,.1-.84l-.067-.038c-1.457-.841-2.639.051-2.639,2v5.84a6.321,6.321,0,0,0,2.639,5.043L394.06,153.87a1.58,1.58,0,0,0,2.543-1.156Z" transform="translate(-339.789 -110.865)" fill="#06033e" opacity="0.3"/>
              <path id="Trazado_100607" data-name="Trazado 100607" d="M376.523,136.439,345.453,118.5a2.226,2.226,0,0,1-.929-1.774h0c0-.683.417-1,.929-.7l31.07,17.939a2.222,2.222,0,0,1,.928,1.774h0C377.451,136.421,377.036,136.735,376.523,136.439Z" transform="translate(-338.454 -109.442)" fill="#fff"/>
            </g>
            <g id="Grupo_53774" data-name="Grupo 53774" transform="translate(20.686 116.899)">
              <path id="Trazado_100608" data-name="Trazado 100608" d="M394.06,180.624l-51.631-29.811a6.321,6.321,0,0,1-2.639-5.043v-5.84c0-1.943,1.182-2.837,2.639-2l51.631,29.809a6.323,6.323,0,0,1,2.639,5.044v5.84C396.7,180.571,395.517,181.465,394.06,180.624Z" transform="translate(-339.789 -137.617)" fill="#173d7a"/>
              <path id="Trazado_100609" data-name="Trazado 100609" d="M345.037,149.7a6.323,6.323,0,0,1-2.639-5.043v-5.84a3.74,3.74,0,0,1,.1-.84l-.067-.038c-1.457-.841-2.639.053-2.639,2v5.84a6.319,6.319,0,0,0,2.639,5.043l51.631,29.811a1.581,1.581,0,0,0,2.543-1.158Z" transform="translate(-339.789 -137.617)" fill="#06033e" opacity="0.3"/>
              <path id="Trazado_100610" data-name="Trazado 100610" d="M376.523,163.191l-31.07-17.938a2.226,2.226,0,0,1-.929-1.774h0c0-.683.417-1,.929-.7l31.07,17.939a2.224,2.224,0,0,1,.928,1.774h0C377.451,163.173,377.036,163.487,376.523,163.191Z" transform="translate(-338.454 -136.194)" fill="#fff"/>
            </g>
            <g id="Grupo_53775" data-name="Grupo 53775" transform="translate(20.686 151.512)">
              <path id="Trazado_100611" data-name="Trazado 100611" d="M394.06,207.624l-51.631-29.809a6.323,6.323,0,0,1-2.639-5.044v-5.84c0-1.943,1.182-2.837,2.639-1.995l51.631,29.809a6.321,6.321,0,0,1,2.639,5.043v5.84C396.7,207.573,395.517,208.465,394.06,207.624Z" transform="translate(-339.789 -164.619)" fill="#173d7a"/>
              <path id="Trazado_100612" data-name="Trazado 100612" d="M345.037,176.7a6.319,6.319,0,0,1-2.639-5.043v-5.84a3.74,3.74,0,0,1,.1-.84l-.067-.037c-1.457-.842-2.639.051-2.639,1.995v5.84a6.323,6.323,0,0,0,2.639,5.044l51.631,29.809a1.581,1.581,0,0,0,2.543-1.156Z" transform="translate(-339.789 -164.619)" fill="#06033e" opacity="0.3"/>
              <path id="Trazado_100613" data-name="Trazado 100613" d="M376.523,190.193l-31.07-17.939a2.224,2.224,0,0,1-.929-1.774h0c0-.683.417-1,.929-.7l31.07,17.938a2.224,2.224,0,0,1,.928,1.774h0C377.451,190.175,377.036,190.489,376.523,190.193Z" transform="translate(-338.454 -163.195)" fill="#d4ecff"/>
            </g>
            <g id="Grupo_53776" data-name="Grupo 53776" transform="translate(20.686 186.444)">
              <path id="Trazado_100614" data-name="Trazado 100614" d="M394.06,234.874l-51.631-29.809a6.321,6.321,0,0,1-2.639-5.043v-5.84c0-1.945,1.182-2.837,2.639-2L394.06,222a6.323,6.323,0,0,1,2.639,5.044v5.84C396.7,234.823,395.517,235.717,394.06,234.874Z" transform="translate(-339.789 -191.869)" fill="#173d7a"/>
              <path id="Trazado_100615" data-name="Trazado 100615" d="M345.037,203.947A6.323,6.323,0,0,1,342.4,198.9v-5.842a3.737,3.737,0,0,1,.1-.838l-.067-.038c-1.457-.841-2.639.051-2.639,2v5.84a6.321,6.321,0,0,0,2.639,5.043l51.631,29.809a1.58,1.58,0,0,0,2.543-1.156Z" transform="translate(-339.789 -191.869)" fill="#06033e" opacity="0.3"/>
              <path id="Trazado_100616" data-name="Trazado 100616" d="M376.523,217.443l-31.07-17.938a2.225,2.225,0,0,1-.929-1.774h0c0-.685.417-1,.929-.7l31.07,17.939a2.222,2.222,0,0,1,.928,1.774h0C377.451,217.425,377.036,217.739,376.523,217.443Z" transform="translate(-338.454 -190.446)" fill="#ff2c9c"/>
            </g>
            <g id="Grupo_53777" data-name="Grupo 53777" transform="translate(20.686 220.685)">
              <path id="Trazado_100617" data-name="Trazado 100617" d="M394.06,261.585l-51.631-29.809a6.323,6.323,0,0,1-2.639-5.044v-5.84c0-1.943,1.182-2.837,2.639-1.995l51.631,29.809a6.321,6.321,0,0,1,2.639,5.043v5.84C396.7,261.534,395.517,262.428,394.06,261.585Z" transform="translate(-339.789 -218.58)" fill="#173d7a"/>
              <path id="Trazado_100618" data-name="Trazado 100618" d="M345.037,230.657a6.319,6.319,0,0,1-2.639-5.043v-5.84a3.74,3.74,0,0,1,.1-.84l-.067-.037c-1.457-.842-2.639.051-2.639,1.995v5.84a6.323,6.323,0,0,0,2.639,5.044l51.631,29.809a1.581,1.581,0,0,0,2.543-1.156Z" transform="translate(-339.789 -218.58)" fill="#06033e" opacity="0.3"/>
              <path id="Trazado_100619" data-name="Trazado 100619" d="M376.523,244.154l-31.07-17.939a2.224,2.224,0,0,1-.929-1.774h0c0-.683.417-1,.929-.7l31.07,17.938a2.224,2.224,0,0,1,.928,1.774h0C377.451,244.136,377.036,244.45,376.523,244.154Z" transform="translate(-338.454 -217.157)" fill="#d4ecff"/>
            </g>
            <path id="Trazado_100620" data-name="Trazado 100620" d="M333.367,102.589l5.4,3.117v21.81l-5.4-3.116Z" transform="translate(-320.913 -30.593)" fill="#173d7a" opacity="0.5"/>
            <path id="Trazado_100621" data-name="Trazado 100621" d="M333.367,129.508l5.4,3.117v21.81l-5.4-3.116Z" transform="translate(-320.913 -23.005)" fill="#173d7a" opacity="0.5"/>
            <path id="Trazado_100622" data-name="Trazado 100622" d="M333.367,156.426l5.4,3.116v21.81l-5.4-3.117Z" transform="translate(-320.913 -15.416)" fill="#173d7a" opacity="0.5"/>
            <path id="Trazado_100623" data-name="Trazado 100623" d="M333.367,183.344l5.4,3.117v21.81l-5.4-3.117Z" transform="translate(-320.913 -7.828)" fill="#173d7a" opacity="0.5"/>
            <path id="Trazado_100624" data-name="Trazado 100624" d="M333.367,210.262l5.4,3.117v21.81l-5.4-3.117Z" transform="translate(-320.913 -0.24)" fill="#173d7a" opacity="0.5"/>
          </g>
          <ellipse id="Elipse_4062" data-name="Elipse 4062" cx="0.892" cy="1.546" rx="0.892" ry="1.546" transform="matrix(0.866, -0.5, 0.5, 0.866, 62.238, 110.233)" fill="#d4ecff"/>
          <path id="Trazado_100625" data-name="Trazado 100625" d="M378.357,136.141c0,.7-.49.979-1.093.632a2.415,2.415,0,0,1-1.092-1.893c0-.7.488-.979,1.092-.631A2.416,2.416,0,0,1,378.357,136.141Z" transform="translate(-308.847 -21.71)" fill="#ff2c9c"/>
          <path id="Trazado_100626" data-name="Trazado 100626" d="M381.971,138.228c0,.7-.488.979-1.092.631a2.414,2.414,0,0,1-1.093-1.892c0-.7.49-.979,1.093-.631A2.413,2.413,0,0,1,381.971,138.228Z" transform="translate(-307.828 -21.122)" fill="#d4ecff"/>
          <path id="Trazado_100627" data-name="Trazado 100627" d="M374.742,160.959c0,.7-.49.979-1.092.631a2.416,2.416,0,0,1-1.093-1.892c0-.7.49-.981,1.093-.632A2.418,2.418,0,0,1,374.742,160.959Z" transform="translate(-309.866 -14.714)" fill="#ff2c9c"/>
          <path id="Trazado_100628" data-name="Trazado 100628" d="M378.357,163.046c0,.7-.49.979-1.093.631a2.415,2.415,0,0,1-1.092-1.893c0-.7.488-.979,1.092-.631A2.416,2.416,0,0,1,378.357,163.046Z" transform="translate(-308.847 -14.126)" fill="#d4ecff"/>
          <path id="Trazado_100629" data-name="Trazado 100629" d="M381.971,165.133c0,.7-.488.979-1.092.631a2.416,2.416,0,0,1-1.093-1.893c0-.7.49-.979,1.093-.631A2.415,2.415,0,0,1,381.971,165.133Z" transform="translate(-307.828 -13.538)" fill="#fff"/>
          <path id="Trazado_100630" data-name="Trazado 100630" d="M374.742,188.067c0,.7-.49.979-1.092.631a2.416,2.416,0,0,1-1.093-1.893c0-.7.49-.979,1.093-.631A2.418,2.418,0,0,1,374.742,188.067Z" transform="translate(-309.866 -7.072)" fill="#fff"/>
          <path id="Trazado_100631" data-name="Trazado 100631" d="M378.357,190.154c0,.7-.49.979-1.093.631a2.415,2.415,0,0,1-1.092-1.893c0-.7.488-.979,1.092-.631A2.416,2.416,0,0,1,378.357,190.154Z" transform="translate(-308.847 -6.484)" fill="#ff2c9c"/>
          <path id="Trazado_100632" data-name="Trazado 100632" d="M381.971,192.241c0,.7-.488.979-1.092.631a2.416,2.416,0,0,1-1.093-1.893c0-.7.49-.979,1.093-.631A2.415,2.415,0,0,1,381.971,192.241Z" transform="translate(-307.828 -5.896)" fill="#fff"/>
          <path id="Trazado_100633" data-name="Trazado 100633" d="M374.742,214.78c0,.7-.49.979-1.092.631a2.416,2.416,0,0,1-1.093-1.893c0-.7.49-.979,1.093-.631A2.418,2.418,0,0,1,374.742,214.78Z" transform="translate(-309.866 0.458)" fill="#fff"/>
          <path id="Trazado_100634" data-name="Trazado 100634" d="M378.357,216.867c0,.7-.49.979-1.093.631a2.415,2.415,0,0,1-1.092-1.893c0-.7.488-.979,1.092-.631A2.416,2.416,0,0,1,378.357,216.867Z" transform="translate(-308.847 1.046)" fill="#d4ecff"/>
          <path id="Trazado_100635" data-name="Trazado 100635" d="M381.971,218.954c0,.7-.488.979-1.092.631a2.416,2.416,0,0,1-1.093-1.893c0-.7.49-.979,1.093-.631A2.415,2.415,0,0,1,381.971,218.954Z" transform="translate(-307.828 1.635)" fill="#d4ecff"/>
          <path id="Trazado_100636" data-name="Trazado 100636" d="M374.742,241.857c0,.7-.49.979-1.092.631a2.414,2.414,0,0,1-1.093-1.892c0-.7.49-.979,1.093-.632A2.418,2.418,0,0,1,374.742,241.857Z" transform="translate(-309.866 8.091)" fill="#fff"/>
          <path id="Trazado_100637" data-name="Trazado 100637" d="M378.357,243.944c0,.7-.49.979-1.093.631a2.414,2.414,0,0,1-1.092-1.892c0-.7.488-.979,1.092-.632A2.416,2.416,0,0,1,378.357,243.944Z" transform="translate(-308.847 8.68)" fill="#ff2c9c"/>
          <path id="Trazado_100638" data-name="Trazado 100638" d="M381.971,246.031c0,.7-.488.979-1.092.631a2.416,2.416,0,0,1-1.093-1.893c0-.7.49-.979,1.093-.631A2.415,2.415,0,0,1,381.971,246.031Z" transform="translate(-307.828 9.268)" fill="#d4ecff"/>
          <g id="Grupo_53779" data-name="Grupo 53779" transform="translate(97.853 73.452)">
            <path id="Trazado_100639" data-name="Trazado 100639" d="M399.986,295.56v-154.4l.319-.183,64.526-37.255v154.4l-.319.183ZM401.264,141.9V293.344l62.289-35.963V105.939Z" transform="translate(-399.986 -103.725)" fill="#173d7a"/>
          </g>
          <g id="Grupo_53782" data-name="Grupo 53782" transform="translate(113.484 117.071)">
            <path id="Trazado_100640" data-name="Trazado 100640" d="M444.631,163.6,415.7,180.3c-1.943,1.122-3.519-.069-3.519-2.661V161.6c0-2.591,1.575-5.6,3.519-6.724l28.933-16.7c1.945-1.122,3.52.069,3.52,2.661v16.042C448.152,159.468,446.576,162.477,444.631,163.6Z" transform="translate(-412.18 -137.752)" fill="#173d7a"/>
            <path id="Trazado_100641" data-name="Trazado 100641" d="M445.276,137.863a4.648,4.648,0,0,1,.262,1.609v16.042c0,2.591-1.575,5.6-3.52,6.724l-28.933,16.7a3.379,3.379,0,0,1-.7.31,2.051,2.051,0,0,0,3.257,1.052l28.933-16.7c1.945-1.123,3.519-4.133,3.519-6.724V140.835C448.093,138.563,446.884,137.369,445.276,137.863Z" transform="translate(-412.122 -137.751)" fill="#5793ce"/>
            <g id="Grupo_53781" data-name="Grupo 53781" transform="translate(5.447 8.802)">
              <g id="Grupo_53780" data-name="Grupo 53780" transform="translate(0 7.253)">
                <path id="Trazado_100642" data-name="Trazado 100642" d="M433.586,150.408c.535-.309.968-.058.968.56v3.653a2.142,2.142,0,0,1-.968,1.678c-.535.309-.969.058-.969-.56v-3.653A2.143,2.143,0,0,1,433.586,150.408Z" transform="translate(-411.866 -150.276)" fill="#fff"/>
                <path id="Trazado_100643" data-name="Trazado 100643" d="M430.348,152.634c.535-.309.969-.059.969.559v3.2a2.143,2.143,0,0,1-.969,1.678c-.535.309-.968.059-.968-.559v-3.2A2.142,2.142,0,0,1,430.348,152.634Z" transform="translate(-412.778 -149.648)" fill="#d4ecff"/>
                <path id="Trazado_100644" data-name="Trazado 100644" d="M427.11,151.72c.536-.309.969-.058.969.56v6.765a2.137,2.137,0,0,1-.969,1.677c-.535.309-.968.059-.968-.559V153.4A2.142,2.142,0,0,1,427.11,151.72Z" transform="translate(-413.691 -149.906)" fill="#ff2c9c"/>
                <path id="Trazado_100645" data-name="Trazado 100645" d="M423.873,150.549c.535-.309.968-.059.968.559v10.663a2.142,2.142,0,0,1-.968,1.678c-.536.309-.969.058-.969-.56V152.226A2.139,2.139,0,0,1,423.873,150.549Z" transform="translate(-414.604 -150.236)" fill="#d4ecff"/>
                <path id="Trazado_100646" data-name="Trazado 100646" d="M420.635,153.29c.535-.309.968-.058.968.56v9.544a2.142,2.142,0,0,1-.968,1.678c-.536.309-.969.059-.969-.559v-9.545A2.14,2.14,0,0,1,420.635,153.29Z" transform="translate(-415.517 -149.463)" fill="#d4ecff"/>
                <path id="Trazado_100647" data-name="Trazado 100647" d="M417.4,158.562c.536-.309.969-.059.969.559v5.184a2.137,2.137,0,0,1-.969,1.677c-.535.309-.968.059-.968-.559v-5.184A2.139,2.139,0,0,1,417.4,158.562Z" transform="translate(-416.429 -147.977)" fill="#fff"/>
              </g>
              <path id="Trazado_100648" data-name="Trazado 100648" d="M432.63,149.33c0,.608.427.854.952.55a2.107,2.107,0,0,0,.952-1.65c0-.606-.427-.852-.952-.55A2.108,2.108,0,0,0,432.63,149.33Z" transform="translate(-411.862 -143.791)" fill="#ff2c9c"/>
              <ellipse id="Elipse_4063" data-name="Elipse 4063" cx="1.347" cy="0.778" rx="1.347" ry="0.778" transform="matrix(0.5, -0.866, 0.866, 0.5, 20.374, 2.333)" fill="#fff"/>
            </g>
          </g>
        </g>
      </g>
    </g>
    <rect id="Rectángulo_5142" data-name="Rectángulo 5142" width="4.404" height="85.418" transform="translate(613.541 93.316)" fill="#fff"/>
    <g id="Grupo_53788" data-name="Grupo 53788" transform="translate(400.112 348.038)">
      <path id="Trazado_100649" data-name="Trazado 100649" d="M397.378,373.3l-44.241-25.542c-2.715-1.568-2.375-4.306.76-6.116l42.718-24.664c3.135-1.81,7.879-2.006,10.594-.44l44.241,25.543c2.715,1.568,2.375,4.306-.76,6.116l-42.718,24.664C404.836,374.668,400.093,374.864,397.378,373.3Z" transform="translate(-348.79 -270.4)" fill="#7dc3ea"/>
      <path id="Trazado_100650" data-name="Trazado 100650" d="M402.555,366.53a11.9,11.9,0,0,1-5.88-1.406h0l-44.24-25.543a5.636,5.636,0,0,1-3.091-4.833c0-2.169,1.4-4.224,3.85-5.635l42.719-24.663c3.952-2.284,9.585-2.474,13.1-.44l44.244,25.543a5.629,5.629,0,0,1,3.088,4.83c0,2.169-1.4,4.224-3.851,5.637l-42.717,24.664A14.717,14.717,0,0,1,402.555,366.53Zm-3.369-5.758c1.954,1.125,5.726.92,8.081-.44l42.718-24.664c1.074-.619,1.332-1.181,1.338-1.286a1.622,1.622,0,0,0-.576-.478L406.5,308.361c-1.948-1.125-5.724-.92-8.08.44l-42.718,24.663c-1.074.62-1.331,1.181-1.337,1.286a1.588,1.588,0,0,0,.577.479l44.241,25.543Z" transform="translate(-349.343 -274.029)" fill="#fff"/>
      <path id="Trazado_100651" data-name="Trazado 100651" d="M453.268,320.282h0V305.017L419.04,305l-11.832-6.831c-2.715-1.568-7.458-1.37-10.594.44l-11.037,6.372-34.26-.019v15.7a3.069,3.069,0,0,0,1.819,2.838l44.241,25.543c2.715,1.568,7.458,1.37,10.594-.44l42.718-24.664C452.5,322.893,453.369,321.541,453.268,320.282Z" transform="translate(-348.789 -275.578)" fill="#396caa"/>
      <path id="Trazado_100652" data-name="Trazado 100652" d="M402.293,297.115a12.208,12.208,0,0,0-5.679,1.49l-11.037,6.372-34.26-.019v15.7a3.069,3.069,0,0,0,1.819,2.838l44.241,25.543a9.593,9.593,0,0,0,4.916,1.05Z" transform="translate(-348.789 -275.576)" fill="url(#radial-gradient-10)"/>
      <path id="Trazado_100653" data-name="Trazado 100653" d="M355.194,303.236l-3.878,0v15.7a3.069,3.069,0,0,0,1.819,2.838l2.059,1.188Z" transform="translate(-348.789 -273.851)" fill="#d4ecff"/>
      <path id="Trazado_100654" data-name="Trazado 100654" d="M387.778,341.821a12.069,12.069,0,0,0,8.467-.1V323.9h-8.467Z" transform="translate(-338.508 -268.025)" fill="#5793ce"/>
      <path id="Trazado_100655" data-name="Trazado 100655" d="M397.378,338.132,353.137,312.59c-2.715-1.568-2.375-4.306.76-6.117l42.718-24.663c3.135-1.81,7.879-2.007,10.594-.44l44.241,25.543c2.715,1.568,2.375,4.306-.76,6.116l-42.718,24.663C404.836,339.5,400.093,339.7,397.378,338.132Z" transform="translate(-348.79 -280.313)" fill="url(#linear-gradient-8)"/>
      <path id="Trazado_100656" data-name="Trazado 100656" d="M450.69,303.911l-42.718,24.664c-3.136,1.81-7.879,2.007-10.594.44l-44.241-25.543a4.1,4.1,0,0,1-1.355-1.2c-.933,1.5-.509,3.13,1.355,4.206l44.241,25.543c2.715,1.568,7.458,1.372,10.594-.44l42.718-24.663c2.436-1.406,3.177-3.371,2.115-4.915A5.913,5.913,0,0,1,450.69,303.911Z" transform="translate(-348.79 -274.199)" fill="#fff"/>
      <g id="Grupo_53786" data-name="Grupo 53786" transform="translate(84.633 40.818)">
        <path id="Trazado_100657" data-name="Trazado 100657" d="M418.938,318.609a3.952,3.952,0,0,1-1.787,3.1c-.987.569-1.787.108-1.787-1.032a3.952,3.952,0,0,1,1.787-3.1C418.138,317.007,418.938,317.469,418.938,318.609Z" transform="translate(-415.364 -310.694)" fill="#d4ecff"/>
        <path id="Trazado_100658" data-name="Trazado 100658" d="M423.423,316.02a3.947,3.947,0,0,1-1.787,3.095c-.987.57-1.787.108-1.787-1.032a3.949,3.949,0,0,1,1.787-3.095C422.623,314.418,423.423,314.88,423.423,316.02Z" transform="translate(-414.1 -311.424)" fill="#d4ecff"/>
        <path id="Trazado_100659" data-name="Trazado 100659" d="M427.908,313.429a3.952,3.952,0,0,1-1.787,3.1c-.987.569-1.787.108-1.787-1.032a3.948,3.948,0,0,1,1.787-3.095C427.108,311.828,427.908,312.29,427.908,313.429Z" transform="translate(-412.835 -312.154)" fill="#d4ecff"/>
      </g>
      <g id="Grupo_53787" data-name="Grupo 53787" transform="translate(29.644 14.927)">
        <path id="Trazado_100660" data-name="Trazado 100660" d="M394.028,319.014l-20.7-11.954c-1.27-.733-1.111-2.014.355-2.861l19.99-11.541a5.513,5.513,0,0,1,4.958-.206l20.7,11.952c1.272.735,1.111,2.015-.355,2.863l-19.99,11.541A5.51,5.51,0,0,1,394.028,319.014Z" transform="translate(-372.468 -291.957)" fill="#5793ce"/>
        <path id="Trazado_100661" data-name="Trazado 100661" d="M391.489,306.08l-2.865-1.655c-.176-.1-.154-.278.05-.395l2.765-1.6a.761.761,0,0,1,.686-.028l2.865,1.654c.176.1.154.278-.05.4l-2.765,1.6A.761.761,0,0,1,391.489,306.08Z" transform="translate(-367.947 -289.031)" fill="#d4ecff"/>
        <path id="Trazado_100662" data-name="Trazado 100662" d="M373.326,307.06l.058.035c.1-.069.186-.14.3-.205l19.99-11.541a5.509,5.509,0,0,1,4.958-.205l20.644,11.918c1.17-.838,1.232-1.979.058-2.657l-20.7-11.952a5.513,5.513,0,0,0-4.958.206L373.681,304.2C372.214,305.047,372.055,306.327,373.326,307.06Z" transform="translate(-372.468 -291.957)" fill="#396caa"/>
      </g>
    </g>
    <g id="Grupo_53791" data-name="Grupo 53791" transform="translate(562.241 235.336)">
      <path id="Trazado_100663" data-name="Trazado 100663" d="M523.852,285.379l-44.241-25.543c-2.715-1.568-2.375-4.306.76-6.116l42.718-24.664c3.136-1.81,7.879-2.006,10.594-.438l44.241,25.542c2.715,1.568,2.375,4.306-.76,6.116L534.446,284.94C531.31,286.75,526.567,286.947,523.852,285.379Z" transform="translate(-475.266 -182.482)" fill="#7dc3ea"/>
      <path id="Trazado_100664" data-name="Trazado 100664" d="M529.029,278.612a11.891,11.891,0,0,1-5.88-1.406h0l-44.241-25.543a5.633,5.633,0,0,1-3.088-4.832c0-2.169,1.4-4.224,3.851-5.635l42.717-24.664c3.955-2.284,9.589-2.473,13.106-.44l44.242,25.543a5.63,5.63,0,0,1,3.088,4.831c0,2.169-1.4,4.224-3.851,5.637l-42.716,24.663A14.729,14.729,0,0,1,529.029,278.612Zm-3.369-5.758c1.952,1.124,5.726.919,8.084-.44l42.716-24.663c1.074-.62,1.332-1.181,1.338-1.286a1.619,1.619,0,0,0-.576-.479l-44.242-25.543c-1.95-1.124-5.725-.919-8.08.44l-42.718,24.664c-1.074.62-1.332,1.181-1.338,1.286a1.61,1.61,0,0,0,.576.478l44.242,25.543Z" transform="translate(-475.818 -186.112)" fill="#fff"/>
      <path id="Trazado_100665" data-name="Trazado 100665" d="M579.742,232.364h0V217.1l-34.228-.019-11.832-6.831c-2.715-1.566-7.458-1.37-10.594.44l-11.039,6.374-34.259-.019v15.7a3.069,3.069,0,0,0,1.819,2.837l44.241,25.543c2.715,1.568,7.458,1.37,10.594-.44l42.718-24.663C578.971,234.975,579.843,233.623,579.742,232.364Z" transform="translate(-475.264 -187.66)" fill="#396caa"/>
      <path id="Trazado_100666" data-name="Trazado 100666" d="M528.767,209.2a12.222,12.222,0,0,0-5.679,1.49l-11.039,6.374-34.259-.019v15.7a3.069,3.069,0,0,0,1.819,2.837l44.241,25.543a9.581,9.581,0,0,0,4.916,1.05Z" transform="translate(-475.264 -187.659)" fill="url(#radial-gradient-11)"/>
      <path id="Trazado_100667" data-name="Trazado 100667" d="M481.668,215.317H477.79v15.7a3.069,3.069,0,0,0,1.819,2.837l2.059,1.188Z" transform="translate(-475.264 -185.934)" fill="#d4ecff"/>
      <path id="Trazado_100668" data-name="Trazado 100668" d="M514.252,253.9a12.069,12.069,0,0,0,8.467-.1V235.982h-8.467Z" transform="translate(-464.983 -180.108)" fill="#5793ce"/>
      <path id="Trazado_100669" data-name="Trazado 100669" d="M523.852,250.214l-44.241-25.542c-2.715-1.568-2.375-4.306.76-6.116l42.718-24.664c3.136-1.81,7.879-2.006,10.594-.438L577.924,219c2.715,1.568,2.375,4.306-.76,6.116l-42.718,24.664C531.31,251.586,526.567,251.782,523.852,250.214Z" transform="translate(-475.266 -192.395)" fill="url(#linear-gradient-8)"/>
      <path id="Trazado_100670" data-name="Trazado 100670" d="M577.164,215.994l-42.718,24.663c-3.135,1.81-7.879,2.007-10.594.44l-44.241-25.543a4.1,4.1,0,0,1-1.355-1.2c-.933,1.5-.51,3.129,1.355,4.206L523.852,244.1c2.715,1.568,7.458,1.372,10.594-.438L577.164,219c2.436-1.406,3.177-3.371,2.115-4.914A5.934,5.934,0,0,1,577.164,215.994Z" transform="translate(-475.265 -186.281)" fill="#fff"/>
      <g id="Grupo_53789" data-name="Grupo 53789" transform="translate(84.631 40.818)">
        <path id="Trazado_100671" data-name="Trazado 100671" d="M545.412,230.69a3.951,3.951,0,0,1-1.787,3.1c-.987.569-1.787.108-1.787-1.032a3.947,3.947,0,0,1,1.787-3.095C544.612,229.089,545.412,229.552,545.412,230.69Z" transform="translate(-541.838 -222.777)" fill="#d4ecff"/>
        <path id="Trazado_100672" data-name="Trazado 100672" d="M549.9,228.1a3.947,3.947,0,0,1-1.787,3.095c-.987.57-1.787.109-1.787-1.031a3.952,3.952,0,0,1,1.787-3.1C549.1,226.5,549.9,226.962,549.9,228.1Z" transform="translate(-540.574 -223.507)" fill="#d4ecff"/>
        <path id="Trazado_100673" data-name="Trazado 100673" d="M554.382,225.513a3.948,3.948,0,0,1-1.787,3.095c-.987.57-1.787.108-1.787-1.032a3.947,3.947,0,0,1,1.787-3.095C553.582,223.911,554.382,224.373,554.382,225.513Z" transform="translate(-539.309 -224.237)" fill="#d4ecff"/>
      </g>
      <g id="Grupo_53790" data-name="Grupo 53790" transform="translate(29.643 14.927)">
        <path id="Trazado_100674" data-name="Trazado 100674" d="M520.5,231.1l-20.7-11.952c-1.27-.735-1.111-2.015.355-2.862l19.99-11.541a5.508,5.508,0,0,1,4.958-.205l20.7,11.952c1.272.733,1.111,2.015-.355,2.861l-19.99,11.542A5.514,5.514,0,0,1,520.5,231.1Z" transform="translate(-498.942 -204.039)" fill="#5793ce"/>
        <path id="Trazado_100675" data-name="Trazado 100675" d="M517.963,218.162l-2.865-1.654c-.176-.1-.154-.279.05-.4l2.765-1.6a.765.765,0,0,1,.686-.028l2.865,1.654c.176.1.154.279-.05.4l-2.765,1.6A.765.765,0,0,1,517.963,218.162Z" transform="translate(-494.421 -201.113)" fill="#d4ecff"/>
        <path id="Trazado_100676" data-name="Trazado 100676" d="M499.8,219.144l.058.033a3.549,3.549,0,0,1,.3-.2l19.99-11.542a5.516,5.516,0,0,1,4.958-.205l20.644,11.919c1.17-.838,1.232-1.981.058-2.657l-20.7-11.952a5.508,5.508,0,0,0-4.958.205l-19.99,11.541C498.688,217.128,498.529,218.409,499.8,219.144Z" transform="translate(-498.942 -204.039)" fill="#396caa"/>
      </g>
    </g>
    <g id="Grupo_53794" data-name="Grupo 53794" transform="translate(237.993 235.336)">
      <path id="Trazado_100677" data-name="Trazado 100677" d="M270.91,285.379l-44.241-25.543c-2.715-1.568-2.375-4.306.76-6.116l42.718-24.664c3.136-1.81,7.879-2.006,10.594-.438l44.241,25.542c2.715,1.568,2.374,4.306-.76,6.116L281.5,284.94C278.368,286.75,273.625,286.947,270.91,285.379Z" transform="translate(-222.324 -182.482)" fill="#7dc3ea"/>
      <path id="Trazado_100678" data-name="Trazado 100678" d="M276.087,278.612a11.889,11.889,0,0,1-5.879-1.406h0l-44.242-25.543a5.633,5.633,0,0,1-3.088-4.832c0-2.169,1.4-4.224,3.851-5.635l42.717-24.664c3.955-2.284,9.587-2.473,13.1-.44l44.242,25.543a5.634,5.634,0,0,1,3.089,4.831c0,2.169-1.4,4.224-3.85,5.637l-42.718,24.663A14.717,14.717,0,0,1,276.087,278.612Zm-3.368-5.758c1.95,1.124,5.722.919,8.081-.44l42.718-24.663c1.073-.619,1.331-1.181,1.337-1.286a1.616,1.616,0,0,0-.577-.479l-44.241-25.543c-1.95-1.124-5.725-.919-8.08.44l-42.718,24.664c-1.074.62-1.332,1.181-1.338,1.286a1.594,1.594,0,0,0,.576.478l44.244,25.543Z" transform="translate(-222.876 -186.112)" fill="#fff"/>
      <path id="Trazado_100679" data-name="Trazado 100679" d="M326.8,232.364h0V217.1l-34.229-.019-11.831-6.831c-2.715-1.566-7.458-1.37-10.594.44l-11.038,6.374-34.259-.019v15.7a3.069,3.069,0,0,0,1.819,2.837l44.241,25.543c2.715,1.568,7.458,1.37,10.594-.44L324.22,236.02C326.029,234.975,326.9,233.623,326.8,232.364Z" transform="translate(-222.322 -187.66)" fill="#396caa"/>
      <path id="Trazado_100680" data-name="Trazado 100680" d="M275.825,209.2a12.223,12.223,0,0,0-5.679,1.49l-11.038,6.374-34.259-.019v15.7a3.069,3.069,0,0,0,1.819,2.837l44.241,25.543a9.581,9.581,0,0,0,4.916,1.05Z" transform="translate(-222.322 -187.659)" fill="url(#radial-gradient-11)"/>
      <path id="Trazado_100681" data-name="Trazado 100681" d="M228.725,215.317h-3.876v15.7a3.069,3.069,0,0,0,1.819,2.837l2.057,1.188Z" transform="translate(-222.322 -185.934)" fill="#d4ecff"/>
      <path id="Trazado_100682" data-name="Trazado 100682" d="M261.31,253.9a12.069,12.069,0,0,0,8.467-.1V235.982H261.31Z" transform="translate(-212.041 -180.108)" fill="#5793ce"/>
      <path id="Trazado_100683" data-name="Trazado 100683" d="M270.91,250.214l-44.241-25.542c-2.715-1.568-2.375-4.306.76-6.116l42.718-24.664c3.136-1.81,7.879-2.006,10.594-.438L324.982,219c2.715,1.568,2.374,4.306-.76,6.116L281.5,249.776C278.368,251.586,273.625,251.782,270.91,250.214Z" transform="translate(-222.324 -192.395)" fill="url(#linear-gradient-8)"/>
      <path id="Trazado_100684" data-name="Trazado 100684" d="M324.222,215.994,281.5,240.657c-3.134,1.81-7.877,2.007-10.592.44l-44.241-25.543a4.083,4.083,0,0,1-1.355-1.2c-.933,1.5-.51,3.129,1.355,4.206L270.91,244.1c2.715,1.568,7.458,1.372,10.592-.438L324.222,219c2.436-1.406,3.175-3.371,2.115-4.914A5.935,5.935,0,0,1,324.222,215.994Z" transform="translate(-222.324 -186.281)" fill="#fff"/>
      <g id="Grupo_53792" data-name="Grupo 53792" transform="translate(84.631 40.818)">
        <path id="Trazado_100685" data-name="Trazado 100685" d="M292.47,230.69a3.952,3.952,0,0,1-1.787,3.1c-.987.569-1.787.108-1.787-1.032a3.947,3.947,0,0,1,1.787-3.095C291.67,229.089,292.47,229.552,292.47,230.69Z" transform="translate(-288.896 -222.777)" fill="#d4ecff"/>
        <path id="Trazado_100686" data-name="Trazado 100686" d="M296.955,228.1a3.947,3.947,0,0,1-1.787,3.095c-.987.57-1.787.109-1.787-1.031a3.952,3.952,0,0,1,1.787-3.1C296.155,226.5,296.955,226.962,296.955,228.1Z" transform="translate(-287.632 -223.507)" fill="#d4ecff"/>
        <path id="Trazado_100687" data-name="Trazado 100687" d="M301.44,225.513a3.947,3.947,0,0,1-1.787,3.095c-.987.57-1.787.108-1.787-1.032a3.947,3.947,0,0,1,1.787-3.095C300.64,223.911,301.44,224.373,301.44,225.513Z" transform="translate(-286.367 -224.237)" fill="#d4ecff"/>
      </g>
      <g id="Grupo_53793" data-name="Grupo 53793" transform="translate(29.642 14.927)">
        <path id="Trazado_100688" data-name="Trazado 100688" d="M267.559,231.1l-20.7-11.952c-1.272-.735-1.111-2.015.355-2.862L267.2,204.74a5.506,5.506,0,0,1,4.957-.205l20.7,11.952c1.27.733,1.111,2.015-.355,2.861l-19.991,11.542A5.514,5.514,0,0,1,267.559,231.1Z" transform="translate(-245.999 -204.039)" fill="#5793ce"/>
        <path id="Trazado_100689" data-name="Trazado 100689" d="M265.021,218.162l-2.865-1.654c-.176-.1-.154-.279.05-.4l2.765-1.6a.765.765,0,0,1,.686-.028l2.865,1.654c.176.1.153.279-.05.4l-2.765,1.6A.765.765,0,0,1,265.021,218.162Z" transform="translate(-241.478 -201.113)" fill="#d4ecff"/>
        <path id="Trazado_100690" data-name="Trazado 100690" d="M246.858,219.144l.058.033a3.348,3.348,0,0,1,.3-.2l19.99-11.542a5.514,5.514,0,0,1,4.957-.205L292.8,219.145c1.172-.838,1.233-1.981.059-2.657l-20.7-11.952a5.506,5.506,0,0,0-4.957.205l-19.99,11.541C245.746,217.128,245.586,218.409,246.858,219.144Z" transform="translate(-245.999 -204.039)" fill="#396caa"/>
      </g>
    </g>
  </g>
</svg>
