<svg xmlns="http://www.w3.org/2000/svg" width="48" height="48" viewBox="0 0 48 48">
  <g id="Grupo_56406" data-name="Grupo 56406" transform="translate(-232 -232)">
    <path id="Trazado_103228" data-name="Trazado 103228" d="M247.484,244.387c1.109,0,10.839-.087,10.839-3.1s-9.73-3.1-10.839-3.1-10.839.086-10.839,3.1S246.374,244.387,247.484,244.387Zm0-4.645c5.364,0,8.693.955,9.247,1.548-.555.594-3.884,1.549-9.247,1.549s-8.693-.955-9.247-1.549C238.791,240.7,242.119,239.742,247.484,239.742Z" fill="#4dd0e1"/>
    <path id="Trazado_103229" data-name="Trazado 103229" d="M280,242.839V232H269.161v4.645h-4.645v12.387h-1.548V241.29c0-4.022-7.978-6.193-15.484-6.193S232,237.268,232,241.29v13.936c0,2.843,4.233,5.133,10.839,5.918v6.511a2.332,2.332,0,0,1-.237,1.022l-.65-3.248a5,5,0,0,0-4.893-4.01,1.962,1.962,0,0,0-1.632,3.051l.8,1.2a3.448,3.448,0,0,1,.551,1.483l.454,3.624a5.446,5.446,0,0,0,1.545,3.161l1.743,1.742V280h13.936v-4.387l1.238-1.652a5.451,5.451,0,0,0,1.084-3.251V260.645a2.4,2.4,0,0,0-.04-.4c3.975-1.14,6.234-2.947,6.234-5.02v-4.645h1.548v12.387h4.645v4.645H280V256.774H269.161v4.645h-3.1V250.581h3.1v4.645H280V244.387H269.161v4.645h-3.1V238.194h3.1v4.645Zm-31.757,12.379v.009a2.308,2.308,0,0,0-.76.141v-3.239c5.5,0,11.255-1.168,13.936-3.375v1.827c0,2.118-5.294,4.487-13.176,4.637Zm-.759-18.573c8.212,0,13.935,2.448,13.935,4.645s-5.723,4.645-13.935,4.645-13.936-2.448-13.936-4.645S239.272,236.645,247.484,236.645Zm-13.936,7.463c2.681,2.208,8.433,3.376,13.936,3.376s11.254-1.168,13.935-3.376v1.827c0,2.2-5.723,4.646-13.935,4.646a2.317,2.317,0,0,0-4.617-.283c-6.055-.749-9.319-2.765-9.319-4.363Zm0,4.621c1.79,1.495,5.048,2.62,9.291,3.125v3.087c-6.037-.753-9.291-2.766-9.291-4.36Zm0,6.5v-1.852c1.79,1.5,5.047,2.621,9.291,3.125v3.086C236.8,258.834,233.548,256.821,233.548,255.226Zm21.678,15.484a3.894,3.894,0,0,1-.774,2.322L252.9,275.1v3.355H242.065v-3.418l-2.2-2.2a3.9,3.9,0,0,1-1.1-2.258l-.454-3.624a5,5,0,0,0-.8-2.15l-.8-1.194a.41.41,0,0,1-.07-.23.415.415,0,0,1,.414-.414,3.451,3.451,0,0,1,3.375,2.766l1,4.976h1.888l.661-1.323a3.911,3.911,0,0,0,.408-1.731V250.581a.774.774,0,1,1,1.548,0v19.354h1.549V257.548a.774.774,0,1,1,1.548,0v12.387h1.549V259.1a.774.774,0,0,1,1.548,0v10.838h1.548v-9.29a.774.774,0,0,1,1.549,0Zm.7-11.848a2.276,2.276,0,0,0-2.334-.369,2.3,2.3,0,0,0-3.1-1.548,2.461,2.461,0,0,0-.086-.276c5.386-.367,9.092-1.692,11.014-3.325v1.882c0,1.329-2.145,2.737-5.5,3.636Zm14.788-.539h7.742v7.742H270.71Zm0-12.388h7.742v7.742H270.71Zm0-12.387h7.742v7.742H270.71Z" fill="#4dd0e1"/>
    <path id="Trazado_103230" data-name="Trazado 103230" d="M272.258,235.1H276.9v1.548h-4.645Z" fill="#4dd0e1"/>
    <path id="Trazado_103231" data-name="Trazado 103231" d="M272.258,238.194H276.9v1.548h-4.645Z" fill="#4dd0e1"/>
    <path id="Trazado_103232" data-name="Trazado 103232" d="M272.258,247.484H276.9v1.548h-4.645Z" fill="#4dd0e1"/>
    <path id="Trazado_103233" data-name="Trazado 103233" d="M272.258,250.581H276.9v1.548h-4.645Z" fill="#4dd0e1"/>
    <path id="Trazado_103234" data-name="Trazado 103234" d="M272.258,259.871H276.9v1.548h-4.645Z" fill="#4dd0e1"/>
    <path id="Trazado_103235" data-name="Trazado 103235" d="M272.258,262.968H276.9v1.548h-4.645Z" fill="#4dd0e1"/>
  </g>
</svg>
