<svg xmlns="http://www.w3.org/2000/svg" xmlns:xlink="http://www.w3.org/1999/xlink" width="326.937" height="205.412" viewBox="0 0 326.937 205.412">
  <defs>
    <linearGradient id="linear-gradient" y1="0.5" x2="1" y2="0.5" gradientUnits="objectBoundingBox">
      <stop offset="0" stop-color="#dafdfe"/>
      <stop offset="1" stop-color="#e9fdfd"/>
    </linearGradient>
    <linearGradient id="linear-gradient-2" x1="0" y1="0.5" x2="1" y2="0.5" xlink:href="#linear-gradient"/>
    <linearGradient id="linear-gradient-3" x1="0" y1="0.5" x2="1" y2="0.5" xlink:href="#linear-gradient"/>
    <linearGradient id="linear-gradient-13" x1="0" y1="0.5" x2="1" y2="0.5" xlink:href="#linear-gradient"/>
    <linearGradient id="linear-gradient-29" x1="0" y1="0.5" x2="1" y2="0.5" xlink:href="#linear-gradient"/>
    <linearGradient id="linear-gradient-35" x1="0.568" y1="-0.623" x2="0.476" y2="1.585" gradientUnits="objectBoundingBox">
      <stop offset="0" stop-color="#001f5d"/>
      <stop offset="1" stop-color="#0f3e91"/>
    </linearGradient>
    <linearGradient id="linear-gradient-36" x1="0.521" y1="-0.256" x2="0.489" y2="0.817" xlink:href="#linear-gradient-35"/>
    <linearGradient id="linear-gradient-37" x1="0.954" y1="-1.094" x2="0.694" y2="-0.185" gradientUnits="objectBoundingBox">
      <stop offset="0" stop-color="#4096e2"/>
      <stop offset="1" stop-color="#4faeff"/>
    </linearGradient>
    <linearGradient id="linear-gradient-39" x1="0.596" y1="-4.149" x2="0.534" y2="-0.956" xlink:href="#linear-gradient-35"/>
    <linearGradient id="linear-gradient-40" x1="0.475" y1="0.106" x2="0.217" y2="1.195" gradientUnits="objectBoundingBox">
      <stop offset="0" stop-color="#ffea38"/>
      <stop offset="1" stop-color="#ffd874"/>
    </linearGradient>
    <linearGradient id="linear-gradient-41" x1="0.598" y1="0.395" x2="0.33" y2="-0.501" xlink:href="#linear-gradient-40"/>
    <linearGradient id="linear-gradient-42" x1="0.703" y1="-4.358" x2="0.64" y2="-2.807" xlink:href="#linear-gradient-40"/>
    <linearGradient id="linear-gradient-43" x1="1.771" y1="-2.074" x2="1.269" y2="-1.058" gradientUnits="objectBoundingBox">
      <stop offset="0" stop-color="#f6dc17"/>
      <stop offset="1" stop-color="#fec01c"/>
    </linearGradient>
    <linearGradient id="linear-gradient-44" x1="14.926" y1="-43.313" x2="7.855" y2="-21.842" gradientUnits="objectBoundingBox">
      <stop offset="0" stop-color="#ffd874"/>
      <stop offset="1" stop-color="#ffb744"/>
    </linearGradient>
    <linearGradient id="linear-gradient-45" x1="0.888" y1="-9.436" x2="0.676" y2="-4.004" xlink:href="#linear-gradient-44"/>
    <linearGradient id="linear-gradient-46" x1="1.091" y1="-2.859" x2="0.809" y2="-1.257" xlink:href="#linear-gradient-40"/>
    <linearGradient id="linear-gradient-47" x1="1.522" y1="-1.57" x2="1.02" y2="-0.554" xlink:href="#linear-gradient-43"/>
    <linearGradient id="linear-gradient-48" x1="14.457" y1="-41.888" x2="7.385" y2="-20.417" xlink:href="#linear-gradient-44"/>
    <linearGradient id="linear-gradient-49" x1="0.874" y1="-9.075" x2="0.662" y2="-3.643" xlink:href="#linear-gradient-44"/>
    <linearGradient id="linear-gradient-50" x1="1.046" y1="-2.603" x2="0.764" y2="-1.001" xlink:href="#linear-gradient-40"/>
    <linearGradient id="linear-gradient-51" x1="1.273" y1="-1.066" x2="0.771" y2="-0.05" xlink:href="#linear-gradient-43"/>
    <linearGradient id="linear-gradient-52" x1="13.997" y1="-40.462" x2="6.921" y2="-18.992" xlink:href="#linear-gradient-44"/>
    <linearGradient id="linear-gradient-53" x1="0.86" y1="-8.715" x2="0.648" y2="-3.282" xlink:href="#linear-gradient-44"/>
    <linearGradient id="linear-gradient-54" x1="1.001" y1="-2.347" x2="0.719" y2="-0.745" xlink:href="#linear-gradient-40"/>
    <linearGradient id="linear-gradient-55" x1="1.41" y1="-1.092" x2="0.997" y2="-0.369" xlink:href="#linear-gradient-43"/>
    <linearGradient id="linear-gradient-56" x1="1.746" y1="-30.596" x2="1.367" y2="-21.121" xlink:href="#linear-gradient-44"/>
    <linearGradient id="linear-gradient-57" x1="0.529" y1="-6.15" x2="0.519" y2="-3.793" xlink:href="#linear-gradient-44"/>
    <linearGradient id="linear-gradient-58" x1="1.488" y1="-5.114" x2="1.256" y2="-3.795" xlink:href="#linear-gradient-40"/>
    <clipPath id="clip-path">
      <path id="Trazado_114679" data-name="Trazado 114679" d="M1306.411,806.288a9.332,9.332,0,1,0,9.332,9.332A9.332,9.332,0,0,0,1306.411,806.288Zm0,14.649a5.316,5.316,0,1,1,5.317-5.317A5.317,5.317,0,0,1,1306.411,820.937Z" fill="#bdfbfa"/>
    </clipPath>
    <linearGradient id="linear-gradient-59" x1="1.788" y1="-7.48" x2="1.308" y2="-4.509" gradientUnits="objectBoundingBox">
      <stop offset="0" stop-color="#feda38"/>
      <stop offset="1" stop-color="#ffc642"/>
    </linearGradient>
    <clipPath id="clip-path-2">
      <path id="Trazado_114682" data-name="Trazado 114682" d="M1329.16,806.288a9.332,9.332,0,1,0,9.332,9.332A9.332,9.332,0,0,0,1329.16,806.288Zm0,14.649a5.316,5.316,0,1,1,5.316-5.317A5.316,5.316,0,0,1,1329.16,820.937Z" fill="#bdfbfa"/>
    </clipPath>
    <linearGradient id="linear-gradient-60" x1="0" y1="0.5" x2="1" y2="0.5" xlink:href="#linear-gradient-59"/>
    <clipPath id="clip-path-3">
      <path id="Trazado_114684" data-name="Trazado 114684" d="M1351.908,806.288a9.332,9.332,0,1,0,9.332,9.332A9.332,9.332,0,0,0,1351.908,806.288Zm0,14.649a5.316,5.316,0,1,1,5.317-5.317A5.316,5.316,0,0,1,1351.908,820.937Z" fill="#bdfbfa"/>
    </clipPath>
    <linearGradient id="linear-gradient-62" x1="135.081" y1="11.466" x2="135.16" y2="-4.665" xlink:href="#linear-gradient-35"/>
    <linearGradient id="linear-gradient-63" x1="137.444" y1="-21.292" x2="137.749" y2="-17.029" xlink:href="#linear-gradient-35"/>
    <linearGradient id="linear-gradient-64" x1="477.902" y1="0.5" x2="478.902" y2="0.5" gradientUnits="objectBoundingBox">
      <stop offset="0" stop-color="#ffaf8e"/>
      <stop offset="1" stop-color="#fecfb1"/>
    </linearGradient>
    <linearGradient id="linear-gradient-65" x1="351.682" y1="7.407" x2="351.887" y2="-3.74" xlink:href="#linear-gradient-35"/>
    <linearGradient id="linear-gradient-66" x1="237.303" y1="-12.011" x2="237.83" y2="-9.418" xlink:href="#linear-gradient-35"/>
    <linearGradient id="linear-gradient-67" x1="399.97" y1="0.5" x2="400.97" y2="0.5" xlink:href="#linear-gradient-64"/>
    <linearGradient id="linear-gradient-68" x1="50.363" y1="1.193" x2="52.027" y2="0.002" xlink:href="#linear-gradient-35"/>
    <linearGradient id="linear-gradient-69" x1="58.579" y1="-2.115" x2="57.4" y2="-2.76" xlink:href="#linear-gradient-37"/>
    <linearGradient id="linear-gradient-70" x1="0.5" y1="-11.544" x2="0.5" y2="-4.078" gradientUnits="objectBoundingBox">
      <stop offset="0" stop-color="#001a39"/>
      <stop offset="1" stop-color="#001c56"/>
    </linearGradient>
    <linearGradient id="linear-gradient-71" x1="240.653" y1="8.916" x2="244.29" y2="7.832" xlink:href="#linear-gradient-64"/>
    <linearGradient id="linear-gradient-72" x1="129.763" y1="-3.616" x2="127.162" y2="-4.737" xlink:href="#linear-gradient-37"/>
    <linearGradient id="linear-gradient-73" x1="171.47" y1="-5.203" x2="167.987" y2="-6.519" xlink:href="#linear-gradient-37"/>
    <linearGradient id="linear-gradient-74" x1="142.644" y1="0.5" x2="143.644" y2="0.5" xlink:href="#linear-gradient-64"/>
    <linearGradient id="linear-gradient-75" x1="192.928" y1="-0.004" x2="192.913" y2="1.888" xlink:href="#linear-gradient-64"/>
    <linearGradient id="linear-gradient-76" x1="0.258" y1="0.73" x2="-0.849" y2="2.068" gradientUnits="objectBoundingBox">
      <stop offset="0" stop-color="#feda38"/>
      <stop offset="1" stop-color="#ffaf8e"/>
    </linearGradient>
    <linearGradient id="linear-gradient-77" x1="26.671" y1="0.5" x2="27.671" y2="0.5" gradientUnits="objectBoundingBox">
      <stop offset="0" stop-color="#feda38"/>
      <stop offset="1" stop-color="#ffb116"/>
    </linearGradient>
    <linearGradient id="linear-gradient-78" x1="0.626" y1="-0.895" x2="0.52" y2="0.264" xlink:href="#linear-gradient-64"/>
    <linearGradient id="linear-gradient-79" x1="3.228" y1="0.286" x2="1.579" y2="0.421" xlink:href="#linear-gradient-64"/>
    <linearGradient id="linear-gradient-80" x1="0.916" y1="-0.406" x2="0.239" y2="0.778" xlink:href="#linear-gradient-35"/>
    <linearGradient id="linear-gradient-81" x1="426.519" y1="736.824" x2="429.81" y2="734.468" xlink:href="#linear-gradient-64"/>
    <linearGradient id="linear-gradient-82" x1="170.519" y1="41.703" x2="173.097" y2="36.459" xlink:href="#linear-gradient-64"/>
    <linearGradient id="linear-gradient-83" x1="1.984" y1="-5.426" x2="1.365" y2="-2.905" xlink:href="#linear-gradient-64"/>
    <linearGradient id="linear-gradient-84" x1="1.895" y1="-11.122" x2="1.374" y2="-6.852" xlink:href="#linear-gradient-64"/>
    <linearGradient id="linear-gradient-85" x1="11.53" y1="-170.707" x2="7.22" y2="-103.807" xlink:href="#linear-gradient-64"/>
    <linearGradient id="linear-gradient-86" x1="520.644" y1="0.238" x2="519.809" y2="0.678" xlink:href="#linear-gradient-64"/>
    <linearGradient id="linear-gradient-87" x1="-795.217" y1="-562.465" x2="-795.217" y2="-559.178" xlink:href="#linear-gradient-37"/>
    <linearGradient id="linear-gradient-88" x1="1.238" y1="-0.158" x2="0.841" y2="0.27" xlink:href="#linear-gradient-64"/>
    <linearGradient id="linear-gradient-89" x1="-748.023" y1="-645.942" x2="-748.023" y2="-643.195" xlink:href="#linear-gradient-37"/>
    <linearGradient id="linear-gradient-90" x1="176.253" y1="8.224" x2="176.177" y2="9.525" xlink:href="#linear-gradient-37"/>
    <linearGradient id="linear-gradient-91" x1="-574.211" y1="-110.613" x2="-575.912" y2="-109.169" xlink:href="#linear-gradient-35"/>
    <linearGradient id="linear-gradient-92" x1="670.253" y1="0.326" x2="667.717" y2="2.95" xlink:href="#linear-gradient-76"/>
    <linearGradient id="linear-gradient-93" x1="0.929" y1="-1.827" x2="0.598" y2="0.037" xlink:href="#linear-gradient-64"/>
    <linearGradient id="linear-gradient-94" x1="1.032" y1="-0.076" x2="-0.551" y2="1.971" xlink:href="#linear-gradient-64"/>
    <linearGradient id="linear-gradient-95" x1="-1620.534" y1="-199.011" x2="-1621.141" y2="-200.523" xlink:href="#linear-gradient-64"/>
    <linearGradient id="linear-gradient-96" x1="0.819" y1="-0.098" x2="-0.133" y2="2.18" xlink:href="#linear-gradient-35"/>
    <linearGradient id="linear-gradient-97" x1="-6625.03" y1="-651.739" x2="-6627.51" y2="-656.686" xlink:href="#linear-gradient-64"/>
    <linearGradient id="linear-gradient-98" x1="0.692" y1="-14.475" x2="0.566" y2="-4.637" xlink:href="#linear-gradient-35"/>
    <linearGradient id="linear-gradient-99" x1="0.67" y1="0.833" x2="0.334" y2="0.22" xlink:href="#linear-gradient-35"/>
  </defs>
  <g id="Grupo_85010" data-name="Grupo 85010" transform="translate(-1100.654 -710.637)">
    <path id="Trazado_114580" data-name="Trazado 114580" d="M1394.5,758.643c-4.867-2.307-11.2-3.839-12.741-9-.839-2.8.119-5.779.287-8.7.5-8.678-6.505-16.571-14.813-19.126s-17.426-.658-25.324,2.974-14.908,8.9-22.275,13.512a152.188,152.188,0,0,1-64.151,22.212c-12.044-.222-22.06-10.133-31.833-17.724a104.541,104.541,0,0,0-45.322-20.219c-11.956-2.161-24.917-2.053-35.5,3.915s-17.774,19.056-13.967,30.6c4.795,14.537,24.538,22.823,23.636,38.1-.4,6.768-5.073,12.52-10.189,16.97s-10.952,8.2-15.089,13.566-6.227,13.115-2.76,18.941c4,6.722,14.252,9.383,15.252,17.14.857,6.651-5.92,11.712-7.852,18.133-2.139,7.11,2.251,14.886,8.437,18.99s13.778,5.359,21.124,6.435c63.736,9.336,129.291,12.5,192.148-1.588,6.309-1.414,12.687-3.043,18.222-6.384s10.194-8.671,11.275-15.045c1.382-8.148-3.157-16.163-3.314-24.426-.241-12.734,9.551-23.043,17.23-33.2,7.631-10.1,13.809-21.862,14.409-34.5S1405.933,764.064,1394.5,758.643Zm-138.066,1.875,1.5-.085C1257.428,760.479,1256.929,760.506,1256.432,760.518Z" fill="url(#linear-gradient)"/>
    <g id="Grupo_84960" data-name="Grupo 84960">
      <g id="Grupo_84957" data-name="Grupo 84957">
        <path id="Trazado_114581" data-name="Trazado 114581" d="M1107.563,845.114a18.431,18.431,0,1,1,29.6-21.976v0a19.763,19.763,0,0,0,14.179,7.912,23.469,23.469,0,0,1,16.892,9.424h0a22.061,22.061,0,0,0,17.346,8.909,26.709,26.709,0,1,1-21.841,42.622q-.705-.951-1.314-1.941a27.575,27.575,0,0,0-17.86-12.539,23.583,23.583,0,0,1-17.6-15.806,15.453,15.453,0,0,0-10.1-9.994A18.371,18.371,0,0,1,1107.563,845.114Z" fill="#91faf6"/>
        <path id="Trazado_114582" data-name="Trazado 114582" d="M1202.164,884.6a.372.372,0,0,1-.332.018c-48.6-20.975-79.911-49.015-80.221-49.3a.372.372,0,0,1,.5-.553c.309.28,31.533,28.242,80.016,49.165a.373.373,0,0,1,.038.666Z" fill="#bdfbfa"/>
        <path id="Trazado_114583" data-name="Trazado 114583" d="M1135.517,845.875a.372.372,0,0,1-.54-.433c1.557-5.107-2.734-16.2-2.777-16.307a.372.372,0,1,1,.693-.271c.182.465,4.428,11.442,2.8,16.8A.371.371,0,0,1,1135.517,845.875Z" fill="#bdfbfa"/>
        <path id="Trazado_114584" data-name="Trazado 114584" d="M1135.227,846.091a.391.391,0,0,1-.078.033c-.319.095-7.888,2.319-14.34,1.223a.372.372,0,1,1,.124-.734c6.278,1.066,13.926-1.18,14-1.2a.373.373,0,0,1,.291.681Z" fill="#bdfbfa"/>
        <path id="Trazado_114585" data-name="Trazado 114585" d="M1158.536,861.518a.372.372,0,0,1-.554-.372c1.134-8.7-4.143-18.717-4.2-18.817a.366.366,0,0,1,.154-.5.371.371,0,0,1,.5.154c.055.1,5.444,10.329,4.278,19.264A.369.369,0,0,1,1158.536,861.518Z" fill="#bdfbfa"/>
        <path id="Trazado_114586" data-name="Trazado 114586" d="M1157.727,862.254c-2.149,1.225-8.4,4.122-17.781,2.921a.372.372,0,1,1,.094-.738c11.217,1.435,18.009-3.251,18.076-3.3a.372.372,0,0,1,.43.608C1158.494,861.782,1158.217,861.975,1157.727,862.254Z" fill="#bdfbfa"/>
        <path id="Trazado_114587" data-name="Trazado 114587" d="M1186.282,879.808a31.108,31.108,0,0,1-16.512,4.186.373.373,0,1,1,.037-.745,30.658,30.658,0,0,0,17.965-5.257.373.373,0,0,1,.445.6A22.277,22.277,0,0,1,1186.282,879.808Z" fill="url(#linear-gradient-2)"/>
        <path id="Trazado_114588" data-name="Trazado 114588" d="M1188.371,878.34a.373.373,0,0,1-.549-.4c.018-.081,1.662-8.213-4.035-17.968a.373.373,0,0,1,.133-.51h0a.372.372,0,0,1,.506.135c5.852,10.02,4.2,18.159,4.121,18.5A.37.37,0,0,1,1188.371,878.34Z" fill="url(#linear-gradient-3)"/>
      </g>
      <g id="Grupo_84958" data-name="Grupo 84958">
        <path id="Trazado_114589" data-name="Trazado 114589" d="M1108.867,897.623a15.009,15.009,0,0,1,13.6-26.762h0a16.075,16.075,0,0,0,13.2.613,19.1,19.1,0,0,1,15.724.729h0a17.947,17.947,0,0,0,15.868.188,21.737,21.737,0,1,1-.462,38.986q-.858-.437-1.661-.936a22.419,22.419,0,0,0-17.558-2.647,19.17,19.17,0,0,1-18.55-5.123,12.57,12.57,0,0,0-10.983-3.612A14.938,14.938,0,0,1,1108.867,897.623Z" fill="#bdfbfa"/>
        <path id="Trazado_114590" data-name="Trazado 114590" d="M1192.046,892.169a.379.379,0,0,1-.173.054c-43.026,2.376-76.013-6.682-76.341-6.773a.373.373,0,1,1,.2-.718c.327.091,33.2,9.116,76.1,6.747a.373.373,0,0,1,.214.69Z" fill="url(#linear-gradient)"/>
        <path id="Trazado_114591" data-name="Trazado 114591" d="M1129.452,888.171a.368.368,0,0,1-.132.049.372.372,0,0,1-.429-.306c-.714-4.264-7.841-10.766-7.913-10.831a.372.372,0,0,1,.5-.552c.3.273,7.392,6.744,8.148,11.26A.375.375,0,0,1,1129.452,888.171Z" fill="url(#linear-gradient)"/>
        <path id="Trazado_114592" data-name="Trazado 114592" d="M1124.3,892.2a21.917,21.917,0,0,1-4.952,2.308.373.373,0,1,1-.216-.713c4.949-1.5,9.691-5.9,9.739-5.947a.373.373,0,1,1,.509.544A34.391,34.391,0,0,1,1124.3,892.2Z" fill="url(#linear-gradient)"/>
        <path id="Trazado_114593" data-name="Trazado 114593" d="M1151.894,891.205a.354.354,0,0,1-.073.034.372.372,0,0,1-.473-.23c-2.319-6.725-9.779-12.1-9.854-12.15a.373.373,0,1,1,.432-.607c.314.223,7.729,5.56,10.126,12.514A.373.373,0,0,1,1151.894,891.205Z" fill="url(#linear-gradient)"/>
        <path id="Trazado_114594" data-name="Trazado 114594" d="M1145.052,898.051a27.358,27.358,0,0,1-5.3,2.488.372.372,0,1,1-.245-.7c8.684-3.026,11.9-8.879,11.935-8.938a.373.373,0,0,1,.657.353A20.065,20.065,0,0,1,1145.052,898.051Z" fill="url(#linear-gradient)"/>
        <path id="Trazado_114595" data-name="Trazado 114595" d="M1170.941,902.042a21.781,21.781,0,0,1-2.629,1.371.373.373,0,1,1-.3-.683,24.964,24.964,0,0,0,11.149-10.325.372.372,0,0,1,.664.337A26.274,26.274,0,0,1,1170.941,902.042Z" fill="url(#linear-gradient)"/>
        <path id="Trazado_114596" data-name="Trazado 114596" d="M1179.73,892.622a.353.353,0,0,1-.1.042.373.373,0,0,1-.454-.267c-.016-.066-1.763-6.563-9.424-11.584a.372.372,0,1,1,.408-.623c7.918,5.188,9.668,11.745,9.738,12.022A.374.374,0,0,1,1179.73,892.622Z" fill="url(#linear-gradient)"/>
      </g>
      <g id="Grupo_84959" data-name="Grupo 84959">
        <path id="Trazado_114597" data-name="Trazado 114597" d="M1154.869,732.225a26.668,26.668,0,0,0-38.015,4.236,27.994,27.994,0,0,0,4.332,38.786,27.483,27.483,0,0,1,11.727,20.312c.95,11.256,6.58,22.583,12.151,27.128,7.861,6.414,15.6,8.852,15.432,19.093-.2,11.99,1.639,31.3,11.555,39.393a38.624,38.624,0,0,0,55.056-6.135,40.544,40.544,0,0,0-6.273-56.173,15.755,15.755,0,0,0-1.5-.907,41.427,41.427,0,0,1-20.2-27.78c-2.048-9.9-7.026-19.058-11.1-22.381a42.5,42.5,0,0,0-10.367-5.138,23.058,23.058,0,0,1-14.194-15.219C1161.5,740.71,1157.719,734.55,1154.869,732.225Z" fill="#bdfbfa"/>
        <path id="Trazado_114598" data-name="Trazado 114598" d="M1207.784,876.01l-.03.013a.424.424,0,0,1-.552-.249c-28.281-73.7-67.738-121.978-68.134-122.457a.44.44,0,0,1,.051-.612.421.421,0,0,1,.6.054c.4.48,39.941,48.86,68.276,122.7A.437.437,0,0,1,1207.784,876.01Z" fill="url(#linear-gradient)"/>
        <path id="Trazado_114599" data-name="Trazado 114599" d="M1154.32,774.169a.606.606,0,0,1-.075.028c-7.89,2.129-23.736-4.823-24.407-5.12a.44.44,0,0,1-.223-.572.422.422,0,0,1,.56-.225c.161.071,16.244,7.128,23.849,5.076a.427.427,0,0,1,.522.309A.437.437,0,0,1,1154.32,774.169Z" fill="url(#linear-gradient)"/>
        <path id="Trazado_114600" data-name="Trazado 114600" d="M1154.65,773.746a.416.416,0,0,1-.32.019.438.438,0,0,1-.269-.552c.037-.113,3.718-11.449,2.461-20.927a.426.426,0,1,1,.845-.113c1.284,9.682-2.459,21.206-2.5,21.321A.423.423,0,0,1,1154.65,773.746Z" fill="url(#linear-gradient-13)"/>
        <path id="Trazado_114601" data-name="Trazado 114601" d="M1176.112,809.471a.428.428,0,0,1-.144.04c-13.118,1.236-27.811-7.378-27.957-7.465a.44.44,0,0,1-.156-.594.422.422,0,0,1,.582-.157c.145.086,14.606,8.561,27.449,7.35a.436.436,0,0,1,.226.826Z" fill="url(#linear-gradient)"/>
        <path id="Trazado_114602" data-name="Trazado 114602" d="M1176.476,809.454a.419.419,0,0,1-.443-.047.441.441,0,0,1-.082-.61c.073-.1,7.309-10.022,5.756-26.93a.426.426,0,1,1,.849-.077c1.586,17.265-5.851,27.436-5.926,27.536A.416.416,0,0,1,1176.476,809.454Z" fill="url(#linear-gradient)"/>
        <path id="Trazado_114603" data-name="Trazado 114603" d="M1199.708,854.761a.422.422,0,0,1-.451-.054.441.441,0,0,1-.068-.611c.089-.113,8.886-11.541,8.624-26.648a.428.428,0,0,1,.419-.44.433.433,0,0,1,.434.429c.267,15.428-8.719,27.088-8.81,27.2A.424.424,0,0,1,1199.708,854.761Z" fill="url(#linear-gradient)"/>
        <path id="Trazado_114604" data-name="Trazado 114604" d="M1199.3,855.033a.444.444,0,0,1-.11.035c-.123.023-12.473,2.1-26.832-7.185a.442.442,0,0,1-.133-.6.421.421,0,0,1,.588-.134c14.082,9.11,26.106,7.085,26.226,7.064a.429.429,0,0,1,.495.353A.435.435,0,0,1,1199.3,855.033Z" fill="url(#linear-gradient)"/>
      </g>
    </g>
    <g id="Grupo_84964" data-name="Grupo 84964">
      <g id="Grupo_84961" data-name="Grupo 84961">
        <path id="Trazado_114605" data-name="Trazado 114605" d="M1367.634,764.132a20.566,20.566,0,0,1,29.025-5.267,21.589,21.589,0,0,1,5.368,29.616,21.2,21.2,0,0,0-4.179,17.6c1.785,8.527.127,18.141-2.985,22.729-4.392,6.477-9.576,9.989-7.185,17.518,2.8,8.815,5.7,23.492.164,31.661a29.788,29.788,0,0,1-42.038,7.629,31.269,31.269,0,0,1-7.774-42.893,12.113,12.113,0,0,1,.906-1,31.949,31.949,0,0,0,8.789-24.989c-.674-7.767.981-15.635,3.257-18.99a32.813,32.813,0,0,1,6.525-6.087,17.786,17.786,0,0,0,7.127-14.381C1364.611,771.866,1366.042,766.48,1367.634,764.132Z" fill="#bdfbfa"/>
        <path id="Trazado_114606" data-name="Trazado 114606" d="M1360.3,882.068l.025,0a.328.328,0,0,0,.353-.306c4.616-60.706,23.107-105.1,23.293-105.538a.339.339,0,0,0-.172-.441.324.324,0,0,0-.432.173c-.187.442-18.72,44.927-23.345,105.75A.338.338,0,0,0,1360.3,882.068Z" fill="url(#linear-gradient)"/>
        <path id="Trazado_114607" data-name="Trazado 114607" d="M1377.305,795a.319.319,0,0,0,.062,0c6.3-.17,16.473-8.807,16.9-9.174a.34.34,0,0,0,.039-.473.326.326,0,0,0-.464-.042c-.1.088-10.428,8.855-16.5,9.019a.33.33,0,0,0-.318.344A.335.335,0,0,0,1377.305,795Z" fill="url(#linear-gradient)"/>
        <path id="Trazado_114608" data-name="Trazado 114608" d="M1376.968,794.765a.326.326,0,0,0,.241-.057.339.339,0,0,0,.077-.467c-.053-.075-5.277-7.639-6.442-14.92a.329.329,0,1,0-.65.1c1.19,7.437,6.5,15.125,6.556,15.2A.331.331,0,0,0,1376.968,794.765Z" fill="url(#linear-gradient)"/>
        <path id="Trazado_114609" data-name="Trazado 114609" d="M1369,825.9a.319.319,0,0,0,.115,0c9.967-1.985,18.92-11.6,19.01-11.692a.34.34,0,0,0-.016-.474.325.325,0,0,0-.465.013c-.088.095-8.9,9.552-18.659,11.495a.331.331,0,0,0-.257.393A.335.335,0,0,0,1369,825.9Z" fill="url(#linear-gradient)"/>
        <path id="Trazado_114610" data-name="Trazado 114610" d="M1368.729,825.972a.325.325,0,0,0,.317-.133.342.342,0,0,0-.074-.469c-.076-.056-7.616-5.79-10.2-18.628a.329.329,0,1,0-.644.131c2.641,13.108,10.384,18.981,10.462,19.038A.314.314,0,0,0,1368.729,825.972Z" fill="url(#linear-gradient)"/>
        <path id="Trazado_114611" data-name="Trazado 114611" d="M1361.57,864.582a.325.325,0,0,0,.322-.139.34.34,0,0,0-.085-.467c-.09-.064-9.115-6.565-12.259-17.785a.33.33,0,0,0-.407-.233.333.333,0,0,0-.226.413c3.211,11.459,12.427,18.089,12.52,18.155A.323.323,0,0,0,1361.57,864.582Z" fill="url(#linear-gradient)"/>
        <path id="Trazado_114612" data-name="Trazado 114612" d="M1361.935,864.692a.293.293,0,0,0,.089,0c.1-.011,9.681-1.2,18.239-11.237a.339.339,0,0,0-.034-.473.322.322,0,0,0-.463.031c-8.394,9.842-17.726,11-17.819,11.013a.33.33,0,0,0-.288.37A.335.335,0,0,0,1361.935,864.692Z" fill="url(#linear-gradient)"/>
      </g>
      <g id="Grupo_84962" data-name="Grupo 84962">
        <path id="Trazado_114613" data-name="Trazado 114613" d="M1416.757,843.776a14.215,14.215,0,1,0-26.724-9.7h0a15.241,15.241,0,0,1-8.729,8.979,18.105,18.105,0,0,0-10.4,10.695v0a17.013,17.013,0,0,1-10.849,10.414,20.6,20.6,0,1,0,25.555,26.67q.311-.858.542-1.725a21.267,21.267,0,0,1,10.427-13.211,18.185,18.185,0,0,0,9.511-15.566,11.919,11.919,0,0,1,5.256-9.617A14.162,14.162,0,0,0,1416.757,843.776Z" fill="#91faf6"/>
        <path id="Trazado_114614" data-name="Trazado 114614" d="M1355.577,893.848a.285.285,0,0,0,.249-.059c31.28-26.236,48.22-53.872,48.387-54.148a.287.287,0,1,0-.49-.3c-.168.275-17.063,27.834-48.265,54.005a.287.287,0,0,0-.036.4A.277.277,0,0,0,1355.577,893.848Z" fill="#bdfbfa"/>
        <path id="Trazado_114615" data-name="Trazado 114615" d="M1396.269,850.514a.287.287,0,0,0,.3-.439c-2.278-3.43-1.558-12.572-1.55-12.664a.287.287,0,1,0-.572-.046c-.032.383-.745,9.433,1.644,13.028A.283.283,0,0,0,1396.269,850.514Z" fill="#bdfbfa"/>
        <path id="Trazado_114616" data-name="Trazado 114616" d="M1396.532,850.609a.275.275,0,0,0,.065.008c.257,0,6.341-.029,10.866-2.265a.287.287,0,1,0-.254-.515c-4.4,2.175-10.551,2.205-10.612,2.205a.287.287,0,0,0-.065.567Z" fill="#bdfbfa"/>
        <path id="Trazado_114617" data-name="Trazado 114617" d="M1382.717,867.158a.278.278,0,0,0,.181-.018.286.286,0,0,0,.145-.379c-2.759-6.175-1.073-14.746-1.055-14.832a.283.283,0,0,0-.225-.338.286.286,0,0,0-.338.225c-.018.087-1.741,8.835,1.094,15.179A.284.284,0,0,0,1382.717,867.158Z" fill="#bdfbfa"/>
        <path id="Trazado_114618" data-name="Trazado 114618" d="M1383.477,867.523a22.154,22.154,0,0,0,13.783-1.769.287.287,0,1,0-.232-.525c-7.971,3.538-14.025,1.576-14.085,1.555a.287.287,0,1,0-.184.544C1382.806,867.344,1383.053,867.425,1383.477,867.523Z" fill="#bdfbfa"/>
        <path id="Trazado_114619" data-name="Trazado 114619" d="M1366.255,886.8a23.988,23.988,0,0,0,13.126-.555.287.287,0,1,0-.193-.541,23.651,23.651,0,0,1-14.436.083.288.288,0,0,0-.2.541A16.986,16.986,0,0,0,1366.255,886.8Z" fill="url(#linear-gradient)"/>
        <path id="Trazado_114620" data-name="Trazado 114620" d="M1364.387,886.179a.291.291,0,0,0,.2-.028.288.288,0,0,0,.113-.39c-.03-.056-3.042-5.7-.987-14.169a.287.287,0,0,0-.211-.347h0a.286.286,0,0,0-.344.212c-2.11,8.7.912,14.344,1.042,14.58A.286.286,0,0,0,1364.387,886.179Z" fill="#bdfbfa"/>
      </g>
      <g id="Grupo_84963" data-name="Grupo 84963">
        <path id="Trazado_114621" data-name="Trazado 114621" d="M1423.817,882.217a12.247,12.247,0,0,0,.426-17.256,12.1,12.1,0,0,0-17.172-.429h0a12.964,12.964,0,0,1-10.091,3.552,15.408,15.408,0,0,0-12.023,4.231h0a14.479,14.479,0,0,1-12.259,3.843,17.5,17.5,0,0,0-14.857,4.657,17.737,17.737,0,0,0-.618,24.991,17.53,17.53,0,0,0,24.87.621q.564-.54,1.071-1.117a18.111,18.111,0,0,1,13-6.152,15.523,15.523,0,0,0,13.2-8.312,10.17,10.17,0,0,1,7.678-5.373A12.06,12.06,0,0,0,1423.817,882.217Z" fill="#bdfbfa"/>
        <path id="Trazado_114622" data-name="Trazado 114622" d="M1358.058,897.343a.292.292,0,0,0,.147,0c33.912-8.171,57.39-22.913,57.623-23.061a.3.3,0,0,0-.322-.512c-.233.147-23.632,14.837-57.441,22.984a.3.3,0,0,0-.007.587Z" fill="url(#linear-gradient)"/>
        <path id="Trazado_114623" data-name="Trazado 114623" d="M1405.665,879.647a.291.291,0,0,0,.114.008.3.3,0,0,0,.262-.338c-.435-3.489,3.584-10.215,3.625-10.283a.3.3,0,0,0-.1-.416.3.3,0,0,0-.414.1c-.171.283-4.168,6.977-3.707,10.672A.3.3,0,0,0,1405.665,879.647Z" fill="url(#linear-gradient-3)"/>
        <path id="Trazado_114624" data-name="Trazado 114624" d="M1410.593,881.583a17.663,17.663,0,0,0,4.375.645.3.3,0,0,0,0-.606c-4.185-.016-8.883-2.342-8.93-2.365a.3.3,0,0,0-.269.542A27.741,27.741,0,0,0,1410.593,881.583Z" fill="url(#linear-gradient)"/>
        <path id="Trazado_114625" data-name="Trazado 114625" d="M1388.967,887.239a.287.287,0,0,0,.065.01.3.3,0,0,0,.314-.29c.239-5.78,4.778-11.7,4.824-11.762a.306.306,0,0,0-.053-.426.3.3,0,0,0-.423.053c-.192.248-4.7,6.133-4.951,12.11A.3.3,0,0,0,1388.967,887.239Z" fill="url(#linear-gradient-29)"/>
        <path id="Trazado_114626" data-name="Trazado 114626" d="M1395.86,890.98a22.117,22.117,0,0,0,4.683.705.3.3,0,0,0,.027-.606c-7.435-.334-11.288-4.145-11.326-4.183a.3.3,0,0,0-.426,0,.3.3,0,0,0,0,.428A16.209,16.209,0,0,0,1395.86,890.98Z" fill="url(#linear-gradient)"/>
        <path id="Trazado_114627" data-name="Trazado 114627" d="M1376.712,900.119a17.094,17.094,0,0,0,2.356.456.3.3,0,0,0,.072-.6,20.163,20.163,0,0,1-11.038-5.448.3.3,0,0,0-.426-.01.3.3,0,0,0-.01.428A21.237,21.237,0,0,0,1376.712,900.119Z" fill="url(#linear-gradient)"/>
        <path id="Trazado_114628" data-name="Trazado 114628" d="M1367.713,894.827a.289.289,0,0,0,.089.01.3.3,0,0,0,.289-.315c0-.054-.154-5.524,4.623-11.22a.3.3,0,0,0-.036-.427.3.3,0,0,0-.425.036c-4.937,5.887-4.773,11.4-4.764,11.635A.3.3,0,0,0,1367.713,894.827Z" fill="url(#linear-gradient)"/>
      </g>
    </g>
    <g id="Grupo_84966" data-name="Grupo 84966">
      <path id="Trazado_114629" data-name="Trazado 114629" d="M1317.871,915.636h69.168a3.994,3.994,0,0,0,3.994-3.994v-103.6a3.993,3.993,0,0,0-3.983-3.993l-69.722-.188a3.994,3.994,0,0,0-4,4.015l.553,103.787A3.994,3.994,0,0,0,1317.871,915.636Z" fill="url(#linear-gradient)"/>
      <path id="Trazado_114630" data-name="Trazado 114630" d="M1321.26,808.974l61.848.381a4.053,4.053,0,0,1,4.028,4.071l-.432,92.984a4.052,4.052,0,0,1-3.978,4.033l-60.094,1.1a4.051,4.051,0,0,1-4.125-3.995l-1.324-94.461A4.053,4.053,0,0,1,1321.26,808.974Z" fill="#91faf6"/>
      <rect id="Rectángulo_15343" data-name="Rectángulo 15343" width="50.078" height="2.851" rx="1.212" transform="translate(1323.775 812.971)" fill="#7de9f4"/>
      <path id="Trazado_114631" data-name="Trazado 114631" d="M1329.092,819.547h0a1.211,1.211,0,0,0,1.188,1.146l41.676.76a1.212,1.212,0,0,0,1.234-1.212v-.1A1.212,1.212,0,0,0,1372,818.93l-41.676-.661A1.212,1.212,0,0,0,1329.092,819.547Z" fill="#7de9f4"/>
      <g id="Grupo_84965" data-name="Grupo 84965">
        <path id="Trazado_114632" data-name="Trazado 114632" d="M1324.837,908.083a3.182,3.182,0,0,1-3.173-3.118l-1.353-76.049a3.18,3.18,0,0,1,3.113-3.231l56.27-1.095h.063a3.175,3.175,0,0,1,3.173,3.115l1.451,76.468a3.174,3.174,0,0,1-3.137,3.234l-56.368.677Zm54.92-82.9h-.051l-56.271,1.1a2.587,2.587,0,0,0-2.533,2.629l1.353,76.049a2.59,2.59,0,0,0,2.583,2.538h.031l56.368-.676a2.585,2.585,0,0,0,2.553-2.633l-1.451-76.468a2.582,2.582,0,0,0-2.582-2.535Z" fill="#bdfbfa"/>
      </g>
      <path id="Trazado_114633" data-name="Trazado 114633" d="M1382.726,832.832h-61.389a.3.3,0,0,1,0-.591h61.389a.3.3,0,1,1,0,.591Z" fill="#bdfbfa"/>
    </g>
    <g id="Grupo_84968" data-name="Grupo 84968">
      <path id="Trazado_114634" data-name="Trazado 114634" d="M1148.807,915.636h91.3c2.911,0,5.271-.9,5.271-2.009v-52.12c0-1.108-2.351-2.006-5.257-2.009l-92.03-.094c-2.928,0-5.3.9-5.285,2.02l.73,52.213C1143.551,914.743,1145.907,915.636,1148.807,915.636Z" fill="url(#linear-gradient)"/>
      <path id="Trazado_114635" data-name="Trazado 114635" d="M1153.281,861.975l81.637.192c2.951.007,5.329.923,5.316,2.048l-.57,46.779c-.014,1.108-2.345,2.009-5.251,2.029l-79.32.552c-2.963.021-5.405-.881-5.446-2.01l-1.747-47.522C1147.858,862.9,1150.285,861.968,1153.281,861.975Z" fill="#91faf6"/>
      <path id="Trazado_114636" data-name="Trazado 114636" d="M1156.6,864.6v.215c0,.337.716.61,1.6.61h62.9c.884,0,1.6-.273,1.6-.61V864.6c0-.337-.716-.61-1.6-.61h-62.9C1157.317,863.986,1156.6,864.259,1156.6,864.6Z" fill="#bdfbfa"/>
      <path id="Trazado_114637" data-name="Trazado 114637" d="M1163.619,867.294h0c.045.32.73.571,1.568.577l55.01.382c.9.006,1.629-.268,1.629-.61v-.049c0-.333-.7-.6-1.575-.61l-55.009-.333C1164.314,866.646,1163.568,866.941,1163.619,867.294Z" fill="#7de9f4"/>
      <g id="Grupo_84967" data-name="Grupo 84967">
        <path id="Trazado_114638" data-name="Trazado 114638" d="M1158.007,911.983c-1.956,0-4.046-.594-4.1-1.7l-1.785-38.26h0a1,1,0,0,1,.3-.735,5.649,5.649,0,0,1,3.714-1.048l74.274-.551c1.977-.016,4.115.576,4.171,1.7l1.914,38.47a1,1,0,0,1-.3.738,5.68,5.68,0,0,1-3.744,1.049l-74.4.34Zm-5.293-39.992,1.785,38.26c.022.48,1.364,1.141,3.5,1.141h.047l74.4-.34a5.179,5.179,0,0,0,3.317-.865.42.42,0,0,0,.143-.3L1234,871.415c-.024-.481-1.364-1.14-3.5-1.14h-.078l-74.274.551a5.157,5.157,0,0,0-3.289.865.426.426,0,0,0-.144.3Z" fill="#bdfbfa"/>
      </g>
      <path id="Trazado_114639" data-name="Trazado 114639" d="M1234.414,874.125h-81.031a.3.3,0,1,1,0-.591h81.031a.3.3,0,0,1,0,.591Z" fill="#bdfbfa"/>
    </g>
    <g id="Grupo_84972" data-name="Grupo 84972">
      <path id="Trazado_114640" data-name="Trazado 114640" d="M1254.6,873.889l-3.864,34.657h44.832l-5.839-34.657Z" fill="url(#linear-gradient-35)"/>
      <path id="Trazado_114641" data-name="Trazado 114641" d="M1179.286,788.5v79.372a12.041,12.041,0,0,0,11.731,12.037c28.991.748,130.386,2.56,157.983,2.154a8.861,8.861,0,0,0,8.723-8.608c.532-18.439,1.4-62.779-1.8-83.365a9.118,9.118,0,0,0-8.718-7.717c-24.29-.777-131.776-3.244-159.36-2.625A8.753,8.753,0,0,0,1179.286,788.5Z" fill="url(#linear-gradient-36)"/>
      <path id="Trazado_114642" data-name="Trazado 114642" d="M1184.267,788.116v75.409a6.976,6.976,0,0,0,6.872,6.976l153.891,1.9a6.789,6.789,0,0,0,6.891-6.763l.257-74.736a4.965,4.965,0,0,0-4.844-4.982l-157.556-3.183A5.38,5.38,0,0,0,1184.267,788.116Z" fill="url(#linear-gradient-37)"/>
      <path id="Trazado_114643" data-name="Trazado 114643" d="M1353.079,875.427h0l-168.813-2.876a.148.148,0,0,1,0-.3h0l168.813,2.877a.148.148,0,0,1,0,.295Z" fill="#fff" opacity="0.65"/>
      <path id="Trazado_114644" data-name="Trazado 114644" d="M1270.338,878.94a1.9,1.9,0,1,1,1.905-1.9A1.906,1.906,0,0,1,1270.338,878.94Zm0-3.513a1.609,1.609,0,1,0,1.609,1.609A1.61,1.61,0,0,0,1270.338,875.427Z" fill="#fff" opacity="0.65"/>
      <g id="Grupo_84969" data-name="Grupo 84969" opacity="0.26">
        <path id="Trazado_114645" data-name="Trazado 114645" d="M1336.4,807.427l-141.11,1.708a3.824,3.824,0,0,0-3.778,3.8l-.369,57.567,149.371,1.9.4-60.486A4.461,4.461,0,0,0,1336.4,807.427Z" fill="#91faf6"/>
      </g>
      <g id="Grupo_84970" data-name="Grupo 84970">
        <rect id="Rectángulo_15344" data-name="Rectángulo 15344" width="6.809" height="27.112" transform="translate(1199.578 842.099)" fill="#bdfbfa"/>
        <rect id="Rectángulo_15345" data-name="Rectángulo 15345" width="6.809" height="17.794" transform="translate(1210.955 851.417)" fill="#bdfbfa"/>
        <rect id="Rectángulo_15346" data-name="Rectángulo 15346" width="6.809" height="40.823" transform="translate(1222.332 828.388)" fill="#bdfbfa"/>
        <rect id="Rectángulo_15347" data-name="Rectángulo 15347" width="6.809" height="9.807" transform="translate(1233.709 859.404)" fill="#bdfbfa"/>
        <rect id="Rectángulo_15348" data-name="Rectángulo 15348" width="6.809" height="35.365" transform="translate(1245.087 833.846)" fill="#bdfbfa"/>
        <rect id="Rectángulo_15349" data-name="Rectángulo 15349" width="6.809" height="29.242" transform="translate(1256.464 839.969)" fill="#bdfbfa"/>
        <rect id="Rectángulo_15350" data-name="Rectángulo 15350" width="6.809" height="22.586" transform="translate(1267.841 846.625)" fill="#bdfbfa"/>
        <rect id="Rectángulo_15351" data-name="Rectángulo 15351" width="6.809" height="49.076" transform="translate(1279.219 820.135)" fill="#bdfbfa"/>
        <rect id="Rectángulo_15352" data-name="Rectángulo 15352" width="6.809" height="43.885" transform="translate(1290.596 825.326)" fill="#bdfbfa"/>
        <rect id="Rectángulo_15353" data-name="Rectángulo 15353" width="6.809" height="36.031" transform="translate(1301.973 833.18)" fill="#bdfbfa"/>
        <rect id="Rectángulo_15354" data-name="Rectángulo 15354" width="6.809" height="8.897" transform="translate(1313.351 860.314)" fill="#bdfbfa"/>
        <rect id="Rectángulo_15355" data-name="Rectángulo 15355" width="6.809" height="26.18" transform="translate(1324.728 843.031)" fill="#bdfbfa"/>
      </g>
      <path id="Trazado_114646" data-name="Trazado 114646" d="M1243.6,906.528a.147.147,0,0,1-.139-.1,94.018,94.018,0,0,0-15.072-27.081,73.171,73.171,0,0,0-8.921-9.546.148.148,0,1,1,.19-.226,73.425,73.425,0,0,1,8.957,9.581,94.291,94.291,0,0,1,15.124,27.175.147.147,0,0,1-.09.188A.14.14,0,0,1,1243.6,906.528Z" fill="#fff"/>
      <path id="Trazado_114647" data-name="Trazado 114647" d="M1303.169,903.835a.141.141,0,0,1-.045-.007.15.15,0,0,1-.1-.186c6.266-19.629,4.491-42.6,4.473-42.833a.148.148,0,0,1,.294-.024c.019.23,1.8,23.263-4.485,42.947A.148.148,0,0,1,1303.169,903.835Z" fill="#fff"/>
      <path id="Trazado_114648" data-name="Trazado 114648" d="M1283.072,912.077c-2.435-19.749,1.606-38.892,25.066-56.216C1308.138,855.861,1320.769,903.108,1283.072,912.077Z" fill="#7de9f4"/>
      <path id="Trazado_114649" data-name="Trazado 114649" d="M1246.487,913.15c-17.823-8.847-31.573-22.765-33.107-51.889C1213.38,861.261,1259.769,876.749,1246.487,913.15Z" fill="#7de9f4"/>
      <path id="Trazado_114650" data-name="Trazado 114650" d="M1244.686,912.431c-12.527,1.156-24.546-1.769-35.039-16.93C1209.647,895.5,1239.749,888.435,1244.686,912.431Z" fill="#bdfbfa"/>
      <path id="Trazado_114651" data-name="Trazado 114651" d="M1237.578,908.338a.148.148,0,0,1-.112-.052c-7.091-8.359-22.941-11.054-23.1-11.08a.148.148,0,0,1-.122-.169.146.146,0,0,1,.17-.122,59.282,59.282,0,0,1,8.916,2.385c4.484,1.576,10.616,4.381,14.361,8.795a.148.148,0,0,1-.017.208A.145.145,0,0,1,1237.578,908.338Z" fill="url(#linear-gradient)"/>
      <path id="Trazado_114652" data-name="Trazado 114652" d="M1305.222,915.636h-65.615c-1.783,0-3.122-1.269-2.777-2.632l.842-3.33a2.715,2.715,0,0,1,2.663-1.777l63.256-1.974a2.8,2.8,0,0,1,2.875,1.724l1.518,5.3C1308.378,914.328,1307.033,915.636,1305.222,915.636Z" fill="url(#linear-gradient-39)"/>
      <path id="Trazado_114653" data-name="Trazado 114653" d="M1274.928,908.733a.148.148,0,0,1,0-.3l2.711-.039a.154.154,0,0,1,.15.145.148.148,0,0,1-.146.15l-2.71.04Z" fill="#fff"/>
      <path id="Trazado_114654" data-name="Trazado 114654" d="M1239.259,913.734l-.023,0a.147.147,0,0,1-.123-.169l.387-2.422a2.636,2.636,0,0,1,2.568-2.223l28.75-.421a.152.152,0,0,1,.15.146.148.148,0,0,1-.146.15l-28.749.42a2.34,2.34,0,0,0-2.281,1.975l-.387,2.422A.148.148,0,0,1,1239.259,913.734Z" fill="#fff"/>
      <g id="Grupo_84971" data-name="Grupo 84971" opacity="0.26">
        <path id="Trazado_114655" data-name="Trazado 114655" d="M1337.932,791.619l-142.394-2.206a3.024,3.024,0,0,0-3.071,2.953l-.285,11.912a3.027,3.027,0,0,0,3.074,3.1l142.678-2.3a3.025,3.025,0,0,0,2.977-3.025v-7.4A3.025,3.025,0,0,0,1337.932,791.619Z" fill="#91faf6"/>
      </g>
    </g>
    <g id="Grupo_84973" data-name="Grupo 84973">
      <path id="Trazado_114656" data-name="Trazado 114656" d="M1274.06,795.65h-16.318l4.426,25.218a1.648,1.648,0,0,0,1.041,1.264,7.131,7.131,0,0,0,5.266.135,1.92,1.92,0,0,0,1.17-1.453Z" fill="url(#linear-gradient-40)"/>
      <path id="Trazado_114657" data-name="Trazado 114657" d="M1295.661,760.193l-22.048-1.35-37.375,1.35v1.556a3.919,3.919,0,0,0,.644,2.152l20.86,31.749a26.7,26.7,0,0,0,16.415,0l20.86-31.749a3.918,3.918,0,0,0,.644-2.152Z" fill="url(#linear-gradient-41)"/>
      <path id="Trazado_114658" data-name="Trazado 114658" d="M1295.661,760.193c-18.981,2.267-38.852,2.091-59.423,0v-2.029a1.961,1.961,0,0,1,1.908-1.96l55.5-1.52a1.96,1.96,0,0,1,2.015,1.96Z" fill="url(#linear-gradient-42)"/>
      <path id="Trazado_114659" data-name="Trazado 114659" d="M1258.791,793.956a.3.3,0,0,1-.25-.138L1240.674,765.5a1.054,1.054,0,0,1,.994-1.613c5.244.512,23.618,2.016,39.864-.161a.3.3,0,1,1,.078.586c-16.308,2.185-34.739.677-40,.162a.465.465,0,0,0-.438.711L1259.04,793.5a.3.3,0,0,1-.249.453Z" fill="#fff" opacity="0.61"/>
      <path id="Trazado_114660" data-name="Trazado 114660" d="M1266.037,821.785a6.6,6.6,0,0,1-1.94-.295,1.109,1.109,0,0,1-.779-.9l-2.91-22.016a.3.3,0,0,1,.585-.077l2.91,22.015a.519.519,0,0,0,.37.415,5.706,5.706,0,0,0,3.7-.085.3.3,0,1,1,.212.551A5.952,5.952,0,0,1,1266.037,821.785Z" fill="#fff" opacity="0.61"/>
    </g>
    <g id="Grupo_84976" data-name="Grupo 84976">
      <circle id="Elipse_4562" data-name="Elipse 4562" cx="17.651" cy="17.651" r="17.651" transform="translate(1198.016 743.252) rotate(-67.5)" fill="url(#linear-gradient-43)"/>
      <path id="Trazado_114661" data-name="Trazado 114661" d="M1204.807,732.983h-.008a.149.149,0,0,1-.14-.156,16.555,16.555,0,0,1,.24-2.065.147.147,0,1,1,.29.053,16.147,16.147,0,0,0-.234,2.028A.149.149,0,0,1,1204.807,732.983Z" fill="url(#linear-gradient-44)"/>
      <path id="Trazado_114662" data-name="Trazado 114662" d="M1206.523,726.515a.143.143,0,0,1-.066-.016.147.147,0,0,1-.065-.2,16.372,16.372,0,0,1,14.687-9.043,16.6,16.6,0,0,1,2.966.267.147.147,0,0,1-.054.29,16.368,16.368,0,0,0-2.912-.262,16.08,16.08,0,0,0-14.424,8.881A.149.149,0,0,1,1206.523,726.515Z" fill="url(#linear-gradient-45)"/>
      <circle id="Elipse_4563" data-name="Elipse 4563" cx="14.94" cy="14.94" r="14.94" transform="translate(1206.524 719.145)" fill="url(#linear-gradient-46)"/>
      <g id="Grupo_84974" data-name="Grupo 84974" opacity="0.73">
        <path id="Trazado_114663" data-name="Trazado 114663" d="M1226.037,728.439c0,2.53-2.051,5.261-4.58,5.261s-4.581-2.731-4.581-5.261a4.588,4.588,0,0,1,9.161,0Z" fill="#fff"/>
      </g>
      <g id="Grupo_84975" data-name="Grupo 84975" opacity="0.73">
        <path id="Trazado_114664" data-name="Trazado 114664" d="M1215.773,743.439h11.181a2.707,2.707,0,0,0,2.578-1.882l.6-1.88a2.7,2.7,0,0,0-1.633-3.364,20.838,20.838,0,0,0-14.076.153,2.7,2.7,0,0,0-1.727,3.267l.464,1.708A2.706,2.706,0,0,0,1215.773,743.439Z" fill="#fff"/>
      </g>
    </g>
    <g id="Grupo_84979" data-name="Grupo 84979">
      <circle id="Elipse_4564" data-name="Elipse 4564" cx="17.651" cy="17.651" r="17.651" transform="translate(1244.667 720.576) rotate(-13.283)" fill="url(#linear-gradient-47)"/>
      <path id="Trazado_114665" data-name="Trazado 114665" d="M1249.63,732.983h-.008a.149.149,0,0,1-.14-.156,16.763,16.763,0,0,1,.239-2.065.148.148,0,0,1,.291.053,16.332,16.332,0,0,0-.235,2.028A.147.147,0,0,1,1249.63,732.983Z" fill="url(#linear-gradient-48)"/>
      <path id="Trazado_114666" data-name="Trazado 114666" d="M1251.346,726.515a.143.143,0,0,1-.066-.016.147.147,0,0,1-.065-.2,16.372,16.372,0,0,1,14.686-9.043,16.6,16.6,0,0,1,2.967.267.147.147,0,0,1,.118.172.145.145,0,0,1-.172.118,16.371,16.371,0,0,0-2.913-.262,16.079,16.079,0,0,0-14.423,8.881A.149.149,0,0,1,1251.346,726.515Z" fill="url(#linear-gradient-49)"/>
      <circle id="Elipse_4565" data-name="Elipse 4565" cx="14.94" cy="14.94" r="14.94" transform="translate(1249.146 746.438) rotate(-80.783)" fill="url(#linear-gradient-50)"/>
      <g id="Grupo_84977" data-name="Grupo 84977" opacity="0.73">
        <path id="Trazado_114667" data-name="Trazado 114667" d="M1270.86,728.439c0,2.53-2.051,5.261-4.58,5.261s-4.581-2.731-4.581-5.261a4.588,4.588,0,0,1,9.161,0Z" fill="#fff"/>
      </g>
      <g id="Grupo_84978" data-name="Grupo 84978" opacity="0.73">
        <path id="Trazado_114668" data-name="Trazado 114668" d="M1260.6,743.439h11.181a2.707,2.707,0,0,0,2.578-1.882l.6-1.88a2.7,2.7,0,0,0-1.633-3.364,20.838,20.838,0,0,0-14.076.153,2.7,2.7,0,0,0-1.727,3.267l.463,1.708A2.708,2.708,0,0,0,1260.6,743.439Z" fill="#fff"/>
      </g>
    </g>
    <g id="Grupo_84982" data-name="Grupo 84982">
      <circle id="Elipse_4566" data-name="Elipse 4566" cx="17.651" cy="17.651" r="17.651" transform="translate(1289.49 720.576) rotate(-13.283)" fill="url(#linear-gradient-51)"/>
      <path id="Trazado_114669" data-name="Trazado 114669" d="M1294.453,732.983h-.008a.149.149,0,0,1-.14-.155,16.613,16.613,0,0,1,.239-2.066.148.148,0,1,1,.291.053,16.211,16.211,0,0,0-.234,2.028A.149.149,0,0,1,1294.453,732.983Z" fill="url(#linear-gradient-52)"/>
      <path id="Trazado_114670" data-name="Trazado 114670" d="M1296.169,726.515a.143.143,0,0,1-.066-.016.147.147,0,0,1-.065-.2,16.372,16.372,0,0,1,14.686-9.043,16.583,16.583,0,0,1,2.966.267.147.147,0,0,1,.119.172.145.145,0,0,1-.172.118,16.371,16.371,0,0,0-2.913-.262,16.079,16.079,0,0,0-14.423,8.881A.149.149,0,0,1,1296.169,726.515Z" fill="url(#linear-gradient-53)"/>
      <circle id="Elipse_4567" data-name="Elipse 4567" cx="14.94" cy="14.94" r="14.94" transform="translate(1293.614 745.929) rotate(-79.099)" fill="url(#linear-gradient-54)"/>
      <g id="Grupo_84980" data-name="Grupo 84980" opacity="0.73">
        <path id="Trazado_114671" data-name="Trazado 114671" d="M1315.683,728.439c0,2.53-2.051,5.261-4.58,5.261s-4.581-2.731-4.581-5.261a4.588,4.588,0,0,1,9.161,0Z" fill="#fff"/>
      </g>
      <g id="Grupo_84981" data-name="Grupo 84981" opacity="0.73">
        <path id="Trazado_114672" data-name="Trazado 114672" d="M1305.418,743.439H1316.6a2.707,2.707,0,0,0,2.578-1.882l.6-1.88a2.7,2.7,0,0,0-1.633-3.364,20.838,20.838,0,0,0-14.076.153,2.7,2.7,0,0,0-1.727,3.267l.463,1.708A2.708,2.708,0,0,0,1305.418,743.439Z" fill="#fff"/>
      </g>
    </g>
    <g id="Grupo_84985" data-name="Grupo 84985">
      <circle id="Elipse_4568" data-name="Elipse 4568" cx="21.44" cy="21.44" r="21.44" transform="translate(1242.647 866.869) rotate(-82.982)" fill="url(#linear-gradient-55)"/>
      <path id="Trazado_114673" data-name="Trazado 114673" d="M1246.782,847.307h-.008a.148.148,0,0,1-.14-.155,20.141,20.141,0,0,1,.29-2.5.148.148,0,1,1,.291.052,19.589,19.589,0,0,0-.286,2.468A.148.148,0,0,1,1246.782,847.307Z" fill="url(#linear-gradient-56)"/>
      <path id="Trazado_114674" data-name="Trazado 114674" d="M1248.866,839.451a.156.156,0,0,1-.066-.016.148.148,0,0,1-.065-.2,19.855,19.855,0,0,1,17.811-10.966,20.1,20.1,0,0,1,3.6.324.147.147,0,0,1-.053.29,19.878,19.878,0,0,0-3.544-.319,19.563,19.563,0,0,0-17.548,10.8A.148.148,0,0,1,1248.866,839.451Z" fill="url(#linear-gradient-57)"/>
      <circle id="Elipse_4569" data-name="Elipse 4569" cx="18.146" cy="18.146" r="18.146" transform="matrix(0.122, -0.993, 0.993, 0.122, 1246.785, 864.469)" fill="url(#linear-gradient-58)"/>
      <g id="Grupo_84983" data-name="Grupo 84983" opacity="0.73">
        <path id="Trazado_114675" data-name="Trazado 114675" d="M1272.569,841.819c0,3.073-2.491,6.39-5.564,6.39s-5.563-3.317-5.563-6.39a5.573,5.573,0,0,1,11.127,0Z" fill="#fff"/>
      </g>
      <g id="Grupo_84984" data-name="Grupo 84984" opacity="0.73">
        <path id="Trazado_114676" data-name="Trazado 114676" d="M1260.1,860.039h13.581a3.286,3.286,0,0,0,3.131-2.286l.731-2.284a3.284,3.284,0,0,0-1.984-4.086c-5.527-2.021-11.242-1.762-17.1.186a3.275,3.275,0,0,0-2.1,3.969l.563,2.074A3.288,3.288,0,0,0,1260.1,860.039Z" fill="#fff"/>
      </g>
    </g>
    <g id="Grupo_84995" data-name="Grupo 84995">
      <g id="Grupo_84988" data-name="Grupo 84988">
        <path id="Trazado_114677" data-name="Trazado 114677" d="M1306.411,806.288a9.332,9.332,0,1,0,9.332,9.332A9.332,9.332,0,0,0,1306.411,806.288Zm0,14.649a5.316,5.316,0,1,1,5.317-5.317A5.317,5.317,0,0,1,1306.411,820.937Z" fill="#fff" opacity="0.57"/>
        <g id="Grupo_84987" data-name="Grupo 84987">
          <path id="Trazado_114678" data-name="Trazado 114678" d="M1306.411,806.288a9.332,9.332,0,1,0,9.332,9.332A9.332,9.332,0,0,0,1306.411,806.288Zm0,14.649a5.316,5.316,0,1,1,5.317-5.317A5.317,5.317,0,0,1,1306.411,820.937Z" fill="#bdfbfa"/>
          <g id="Grupo_84986" data-name="Grupo 84986" clip-path="url(#clip-path)">
            <rect id="Rectángulo_15356" data-name="Rectángulo 15356" width="27.72" height="11.731" transform="translate(1293.379 813.568)" fill="url(#linear-gradient-59)"/>
          </g>
        </g>
      </g>
      <g id="Grupo_84991" data-name="Grupo 84991">
        <path id="Trazado_114680" data-name="Trazado 114680" d="M1329.16,806.288a9.332,9.332,0,1,0,9.332,9.332A9.332,9.332,0,0,0,1329.16,806.288Zm0,14.649a5.316,5.316,0,1,1,5.316-5.317A5.316,5.316,0,0,1,1329.16,820.937Z" fill="#fff" opacity="0.57"/>
        <g id="Grupo_84990" data-name="Grupo 84990">
          <path id="Trazado_114681" data-name="Trazado 114681" d="M1329.16,806.288a9.332,9.332,0,1,0,9.332,9.332A9.332,9.332,0,0,0,1329.16,806.288Zm0,14.649a5.316,5.316,0,1,1,5.316-5.317A5.316,5.316,0,0,1,1329.16,820.937Z" fill="#bdfbfa"/>
          <g id="Grupo_84989" data-name="Grupo 84989" clip-path="url(#clip-path-2)">
            <rect id="Rectángulo_15357" data-name="Rectángulo 15357" width="27.72" height="16.266" transform="translate(1316.128 809.034)" fill="url(#linear-gradient-60)"/>
          </g>
        </g>
      </g>
      <g id="Grupo_84994" data-name="Grupo 84994">
        <g id="Grupo_84993" data-name="Grupo 84993">
          <path id="Trazado_114683" data-name="Trazado 114683" d="M1351.908,806.288a9.332,9.332,0,1,0,9.332,9.332A9.332,9.332,0,0,0,1351.908,806.288Zm0,14.649a5.316,5.316,0,1,1,5.317-5.317A5.316,5.316,0,0,1,1351.908,820.937Z" fill="#bdfbfa"/>
          <g id="Grupo_84992" data-name="Grupo 84992" clip-path="url(#clip-path-3)">
            <rect id="Rectángulo_15358" data-name="Rectángulo 15358" width="27.72" height="5.866" transform="translate(1338.876 819.434)" fill="url(#linear-gradient-60)"/>
          </g>
        </g>
      </g>
    </g>
    <g id="Grupo_85004" data-name="Grupo 85004">
      <g id="Grupo_85001" data-name="Grupo 85001">
        <g id="Grupo_84996" data-name="Grupo 84996">
          <path id="Trazado_114685" data-name="Trazado 114685" d="M1165.525,915.229c-1.452.125-3.971.329-5.957.417a5.753,5.753,0,0,1-2.277-.223c0,.044,0,.087,0,.126a.41.41,0,0,0,.39.388,70.092,70.092,0,0,0,7.8.008.293.293,0,0,0,.238-.44A2.358,2.358,0,0,0,1165.525,915.229Z" fill="url(#linear-gradient-62)"/>
          <path id="Trazado_114686" data-name="Trazado 114686" d="M1159.568,915.646c1.986-.088,4.505-.292,5.957-.417-1.427-1.751-5.957-2.931-5.957-2.931h-1.279a5.363,5.363,0,0,0-1,3.125A5.753,5.753,0,0,0,1159.568,915.646Z" fill="url(#linear-gradient-63)"/>
          <path id="Trazado_114687" data-name="Trazado 114687" d="M1158.073,910.209l.12,2.369a.54.54,0,0,0,.462.509,2.108,2.108,0,0,0,.961-.079.642.642,0,0,0,.43-.492l.414-2.307Z" fill="url(#linear-gradient-64)"/>
        </g>
        <g id="Grupo_84998" data-name="Grupo 84998">
          <g id="Grupo_84997" data-name="Grupo 84997">
            <path id="Trazado_114688" data-name="Trazado 114688" d="M1141.456,915.628a1.148,1.148,0,0,1-1.033-.765l0,.01a.819.819,0,0,0,.552.933,3.612,3.612,0,0,0,1.526.239,1.52,1.52,0,0,0,1.145-.528l0-.005A3.844,3.844,0,0,1,1141.456,915.628Z" fill="url(#linear-gradient-65)"/>
            <path id="Trazado_114689" data-name="Trazado 114689" d="M1144.424,910.194h-1.055c-1.607-.033-2.616,3.357-2.946,4.669a1.148,1.148,0,0,0,1.033.765,3.844,3.844,0,0,0,2.19-.116,10.091,10.091,0,0,0,1.506-3.792A1.332,1.332,0,0,0,1144.424,910.194Z" fill="url(#linear-gradient-66)"/>
          </g>
          <path id="Trazado_114690" data-name="Trazado 114690" d="M1143.505,907.995l-.586,2.33a.632.632,0,0,0,.329.717,2.248,2.248,0,0,0,1.213.294.529.529,0,0,0,.431-.352l.86-2.452Z" fill="url(#linear-gradient-67)"/>
        </g>
        <path id="Trazado_114691" data-name="Trazado 114691" d="M1142.806,908.669c.729.646,3.1.732,3.1.732,8.54-20.5,12.033-23.409,12.033-23.409-1.233,7.736-.2,24.864-.2,24.864a5.122,5.122,0,0,0,3.226,0,132.079,132.079,0,0,1,4.361-32.419c-5.771-.13-8.841-2.105-9.843-2.9C1150.672,883.3,1142.806,908.669,1142.806,908.669Z" fill="url(#linear-gradient-68)"/>
        <path id="Trazado_114692" data-name="Trazado 114692" d="M1156.95,851.968c-1.093,5.449-.7,15.2-.444,19.651a8.813,8.813,0,0,1-1.506,4.167.371.371,0,0,0,.149.522,25.737,25.737,0,0,0,9.821,2.722.661.661,0,0,0,.666-.494,129.091,129.091,0,0,1,7.436-21.054C1168.661,850.437,1156.95,851.968,1156.95,851.968Z" fill="url(#linear-gradient-69)"/>
        <path id="Trazado_114693" data-name="Trazado 114693" d="M1158.522,885.507a.27.27,0,0,1-.142-.04.274.274,0,0,1-.092-.376,8.59,8.59,0,0,1,3.387-2.94.273.273,0,1,1,.237.493,8.166,8.166,0,0,0-3.156,2.732A.275.275,0,0,1,1158.522,885.507Z" fill="url(#linear-gradient-70)"/>
        <g id="Grupo_84999" data-name="Grupo 84999">
          <path id="Trazado_114694" data-name="Trazado 114694" d="M1150.1,867.607a18.746,18.746,0,0,0,3.462,8.249l.788-.642a24.359,24.359,0,0,1-.393-7.884A9.444,9.444,0,0,0,1150.1,867.607Z" fill="url(#linear-gradient-71)"/>
          <path id="Trazado_114695" data-name="Trazado 114695" d="M1158.17,858.691l-1.22-6.723s-8.154,6.232-6.853,15.639a9.444,9.444,0,0,1,3.857-.277A13.2,13.2,0,0,1,1158.17,858.691Z" fill="url(#linear-gradient-72)"/>
        </g>
        <g id="Grupo_85000" data-name="Grupo 85000">
          <path id="Trazado_114696" data-name="Trazado 114696" d="M1173.072,857.482l-3.147,6.778c.509,4.092,2.707,5.861,5.077,6.539a14.407,14.407,0,0,1,1.057-4.413C1173.031,863.259,1173.072,857.482,1173.072,857.482Z" fill="url(#linear-gradient-73)"/>
          <path id="Trazado_114697" data-name="Trazado 114697" d="M1176.059,866.386A14.407,14.407,0,0,0,1175,870.8c6.324,2.454,8-2.3,8-2.3l-1.169-.206A6.626,6.626,0,0,1,1176.059,866.386Z" fill="url(#linear-gradient-74)"/>
        </g>
        <path id="Trazado_114698" data-name="Trazado 114698" d="M1170.173,849.114l-1.52,5.585a1.085,1.085,0,0,1-1.453.723,21.967,21.967,0,0,1-2.189-1,1.464,1.464,0,0,1-.517-2.1l3.159-4.71Z" fill="url(#linear-gradient-75)"/>
      </g>
      <path id="Trazado_114699" data-name="Trazado 114699" d="M1185.9,864.757l-38.931,14.17a2.98,2.98,0,0,0-1.694,4.035l.118.26a2.772,2.772,0,0,0,3.686,1.368l37.8-17.488Z" fill="url(#linear-gradient-76)"/>
      <g id="Grupo_85002" data-name="Grupo 85002" opacity="0.26">
        <ellipse id="Elipse_4570" data-name="Elipse 4570" cx="19.218" cy="18.872" rx="19.218" ry="18.872" transform="translate(1184.573 837.362)" fill="#bdfbfa"/>
      </g>
      <path id="Trazado_114700" data-name="Trazado 114700" d="M1203.792,835.235a21,21,0,1,0,21.385,21A21.194,21.194,0,0,0,1203.792,835.235Zm0,38.913a17.917,17.917,0,1,1,18.243-17.914A18.081,18.081,0,0,1,1203.792,874.148Z" fill="url(#linear-gradient-77)"/>
      <path id="Trazado_114701" data-name="Trazado 114701" d="M1184.033,858.765a.074.074,0,0,1-.074-.064c-.063-.5-.107-1-.132-1.5a.074.074,0,0,1,.07-.078.071.071,0,0,1,.077.07c.025.5.069,1,.132,1.489a.074.074,0,0,1-.064.083Zm.147-5.871-.014,0a.073.073,0,0,1-.059-.085,19.261,19.261,0,0,1,1.149-3.934,19.685,19.685,0,0,1,7.235-8.832,20.3,20.3,0,0,1,22.034-.369.074.074,0,1,1-.078.125,20.042,20.042,0,0,0-10.655-3.045,19.769,19.769,0,0,0-18.4,12.177h0a19.119,19.119,0,0,0-1.141,3.9A.074.074,0,0,1,1184.18,852.894Z" fill="url(#linear-gradient-78)"/>
      <g id="Grupo_85003" data-name="Grupo 85003">
        <path id="Trazado_114702" data-name="Trazado 114702" d="M1173.5,844.871c.014.1-1.267,6.373-1.267,6.373l-3.569-.807.33-6.131S1173.265,843.265,1173.5,844.871Z" fill="url(#linear-gradient-79)"/>
        <path id="Trazado_114703" data-name="Trazado 114703" d="M1169.794,845.672l-.427,3.214a.466.466,0,0,0,0,.123c.036.252.224,1.109,1.089.864a4.083,4.083,0,0,1,2-.262.453.453,0,0,1,.311.524,19.65,19.65,0,0,1-.821,2.925.452.452,0,0,1-.549.267,14.555,14.555,0,0,1-3.146-1.287.454.454,0,0,1-.22-.408c.034-.811.129-3.277.049-3.968-.075-.649-.871-1.038-1.217-1.177a.443.443,0,0,1-.248-.249,1.174,1.174,0,0,1,.79-1.711.453.453,0,0,0,.287-.586,1.176,1.176,0,0,1,.659-1.626,1.659,1.659,0,0,1,1.979.477.454.454,0,0,0,.578.068.357.357,0,0,1,.407.014.446.446,0,0,0,.632-.191,1.352,1.352,0,0,1,1.571-.783c1.6.274,1.78,2.046,1.358,3.085s-2.139.643-3,.119a1.936,1.936,0,0,0-1.874.242A.447.447,0,0,0,1169.794,845.672Z" fill="url(#linear-gradient-80)"/>
        <path id="Trazado_114704" data-name="Trazado 114704" d="M1167.94,848.835s.658-1.841-.018-2.292-1.676-.216-1.455,1.117C1166.741,849.319,1167.94,848.835,1167.94,848.835Z" fill="url(#linear-gradient-81)"/>
      </g>
      <path id="Trazado_114705" data-name="Trazado 114705" d="M1154.022,875.1l3.68-.3,1.594,1.469s-.377.521-1.556.222a16.827,16.827,0,0,0-2.793-.373s-1.628.733-1.648-.64Z" fill="url(#linear-gradient-82)"/>
      <path id="Trazado_114706" data-name="Trazado 114706" d="M1182.53,869.365c.319.249,1.409-.27,2.076-.629a.766.766,0,0,0,.371-.907c-.16-.507-.428-1.16-.757-1.243C1183.673,866.45,1181.219,868.341,1182.53,869.365Z" fill="url(#linear-gradient-83)"/>
      <path id="Trazado_114707" data-name="Trazado 114707" d="M1147.734,883.975a.068.068,0,0,1-.024,0c-1.192-.412-1.816-1.092-1.857-2.023a2.247,2.247,0,0,1,1.466-2.163l4.675-1.823a.074.074,0,0,1,.053.138l-4.674,1.823a2.1,2.1,0,0,0-1.372,2.019c.037.864.628,1.5,1.757,1.889a.074.074,0,0,1-.024.144Z" fill="url(#linear-gradient-84)"/>
      <path id="Trazado_114708" data-name="Trazado 114708" d="M1153.461,877.543a.074.074,0,0,1-.069-.047.073.073,0,0,1,.042-.095l.606-.237a.074.074,0,0,1,.1.042.075.075,0,0,1-.042.1l-.606.236A.065.065,0,0,1,1153.461,877.543Z" fill="url(#linear-gradient-85)"/>
    </g>
    <g id="Grupo_85009" data-name="Grupo 85009">
      <path id="Trazado_114709" data-name="Trazado 114709" d="M1365.5,796.587c-.024-.009-12.695-22.2-14.407-24.287a1.327,1.327,0,0,0-1.185-.476l-3.537.421-4.155,8.989,6.922-4.031c-.685,4.737,8.207,11.776,11.257,14.345a.7.7,0,0,1,.055,1.02l-1.217,1.275a13.978,13.978,0,0,0,6.908,3.928Z" fill="url(#linear-gradient-86)"/>
      <path id="Trazado_114710" data-name="Trazado 114710" d="M1359.934,793.155a1.792,1.792,0,0,0-1.04.943.791.791,0,0,0,.3.912c1.279.917,5.5,3.876,7.447,4.456a.22.22,0,0,0,.276-.259,7.014,7.014,0,0,0-1.465-2.679l.094.189a.271.271,0,0,1-.375.357A20.845,20.845,0,0,1,1359.934,793.155Z" fill="url(#linear-gradient-87)"/>
      <path id="Trazado_114711" data-name="Trazado 114711" d="M1360.561,802.034c-.021-.014-1.922-4.594-1.943-4.608a80.674,80.674,0,0,0-7.25-22.093,1.329,1.329,0,0,0-1.064-.706l-3.549-.3-5.888,7.962,7.594-2.547c-1.629,4.5,5.654,13.194,8.121,16.326a.7.7,0,0,1-.152,1.011l-1.45,1a13.976,13.976,0,0,0,5.97,5.246Z" fill="url(#linear-gradient-88)"/>
      <path id="Trazado_114712" data-name="Trazado 114712" d="M1355.808,797.546a1.8,1.8,0,0,0-1.209.713.793.793,0,0,0,.107.954c1.067,1.157,4.6,4.909,6.392,5.871a.22.22,0,0,0,.322-.2,7.013,7.013,0,0,0-.892-2.92l.053.2a.271.271,0,0,1-.439.274A20.851,20.851,0,0,1,1355.808,797.546Z" fill="url(#linear-gradient-89)"/>
      <g id="Grupo_85005" data-name="Grupo 85005">
        <path id="Trazado_114713" data-name="Trazado 114713" d="M1330.143,772.647s-3.21,4.775-3.474,6.953.888,2.932,4.248,3.209c10,.827,14.929-2.17,14.929-2.17.684-4.361,1.171-5.471,6.883-7.842,0,0-7.225.574-8.679.009S1330.143,772.647,1330.143,772.647Z" fill="url(#linear-gradient-90)"/>
      </g>
      <g id="Grupo_85007" data-name="Grupo 85007">
        <path id="Trazado_114714" data-name="Trazado 114714" d="M1342.945,745.9s-2.236-2.646-4.613.6c-.431.588-2.084.1-2.69,1.333a1.561,1.561,0,0,1-1.686.868c-1.735-.32-4.57-.347-5.97,2.372-1.068,2.074-.243,3.289.825,3.981a1.752,1.752,0,0,1,.59,2.346c-.455.773-.541,1.819.634,3.078,2.633,2.822,7.845-1.79,7.845-1.79l4.138-9.779Z" fill="url(#linear-gradient-91)"/>
        <path id="Trazado_114715" data-name="Trazado 114715" d="M1338.825,772.015a73.234,73.234,0,0,0,5.579-5.918,5,5,0,0,0,.847-4.5,62.169,62.169,0,0,0-2.469-6.218c-.209-.7-4.4-.671-4.4-.671s-8.248,5.354-11.489,14.422l3.639,1.133a42.546,42.546,0,0,1,4.282-5.91s-3.682,4.864-3.812,6.855Z" fill="url(#linear-gradient-92)"/>
        <path id="Trazado_114716" data-name="Trazado 114716" d="M1345.948,773.42l-2.809-3.056-3.244.873a18.745,18.745,0,0,1-5.947,0l-2.165-.586-4.891-1.523-.769,2.171a1.307,1.307,0,0,0,.478,1.5,8.591,8.591,0,0,0,1.235.77c.645.282,14.84.089,14.84.089Z" fill="url(#linear-gradient-93)"/>
        <path id="Trazado_114717" data-name="Trazado 114717" d="M1341.262,749.666l-2.817,5.239c.186,1.144,3.066,1.176,3.511.493a.676.676,0,0,0,.088-.231l1.686-3.5c.072-.342-.864-1.492-1.172-1.656l-1.119-.6C1341.007,749.186,1342.807,749.168,1341.262,749.666Z" fill="url(#linear-gradient-94)"/>
        <g id="Grupo_85006" data-name="Grupo 85006">
          <path id="Trazado_114718" data-name="Trazado 114718" d="M1346.964,748.437a6.2,6.2,0,0,1-1.073,4.02c-1.391,2.251-2.777,2.149-3.481,1.347a4.952,4.952,0,0,1-1.163-4.384C1341.631,747.175,1346.483,746.18,1346.964,748.437Z" fill="url(#linear-gradient-95)"/>
          <path id="Trazado_114719" data-name="Trazado 114719" d="M1342.931,749.664s2.253-2.959,3.982-.38l-.029.891s2.249-.1,2.005-2.178-2.08-3.489-4.625-2.781-4.033,1.515-4.32,3.282,1.155,1.479,1.155,1.479.552-1.219,1.217-1.3.425.882.425.882Z" fill="url(#linear-gradient-96)"/>
          <path id="Trazado_114720" data-name="Trazado 114720" d="M1342.414,749.585s1.167-1.514.105-1.829-1.022,1.484-.953,2.153Z" fill="url(#linear-gradient-97)"/>
        </g>
      </g>
      <g id="Grupo_85008" data-name="Grupo 85008">
        <path id="Trazado_114721" data-name="Trazado 114721" d="M1336.65,774.629h.03l12.92-.014a.579.579,0,0,0,0-1.157l-12.921.015a.578.578,0,0,0-.028,1.155Z" fill="url(#linear-gradient-98)"/>
        <path id="Trazado_114722" data-name="Trazado 114722" d="M1361.215,762.9h-10.76a2.051,2.051,0,0,0-1.855,1.176l-4.975,10.549H1357a1.247,1.247,0,0,0,1.159-.789l3.857-9.761A.859.859,0,0,0,1361.215,762.9Z" fill="url(#linear-gradient-99)"/>
        <path id="Trazado_114723" data-name="Trazado 114723" d="M1353.634,768.307c-.233.724-.06,1.428.385,1.571s1-.327,1.229-1.052.061-1.428-.384-1.571S1353.868,767.582,1353.634,768.307Z" fill="#7de9f4"/>
      </g>
    </g>
    <path id="Trazado_114724" data-name="Trazado 114724" d="M1291.456,848.262a.3.3,0,0,1-.2-.514c.111-.1.223-.2.335-.3a.3.3,0,0,1,.39.444q-.165.144-.328.293A.3.3,0,0,1,1291.456,848.262Zm1.122-.965a.293.293,0,0,1-.229-.109.3.3,0,0,1,.042-.416q.174-.141.349-.281a.3.3,0,1,1,.367.463c-.115.091-.229.183-.343.276A.292.292,0,0,1,1292.578,847.3Zm1.168-.907a.3.3,0,0,1-.175-.533q.18-.133.362-.264a.3.3,0,0,1,.344.481c-.119.085-.238.171-.356.258A.292.292,0,0,1,1293.746,846.39Zm1.211-.848a.3.3,0,0,1-.164-.542c.125-.082.249-.164.375-.245a.3.3,0,0,1,.32.5c-.123.079-.246.159-.368.241A.3.3,0,0,1,1294.957,845.542Zm1.249-.789a.3.3,0,0,1-.152-.549l.386-.227a.3.3,0,0,1,.3.512q-.19.109-.378.222A.291.291,0,0,1,1296.206,844.753Zm1.284-.729a.3.3,0,0,1-.14-.556l.394-.209a.3.3,0,0,1,.274.524c-.13.068-.259.136-.388.206A.3.3,0,0,1,1297.49,844.024Zm1.314-.672a.3.3,0,0,1-.129-.561q.2-.1.4-.192a.3.3,0,0,1,.251.535q-.2.093-.4.189A.3.3,0,0,1,1298.8,843.352Zm1.341-.615a.3.3,0,0,1-.118-.566c.137-.059.273-.118.411-.175a.3.3,0,0,1,.228.545c-.135.056-.269.114-.4.172A.307.307,0,0,1,1300.145,842.737Zm1.365-.56a.3.3,0,0,1-.107-.571l.416-.159a.3.3,0,1,1,.208.554c-.138.051-.274.1-.41.156A.292.292,0,0,1,1301.51,842.177Zm1.384-.507a.3.3,0,0,1-.1-.575c.14-.049.281-.1.422-.143a.3.3,0,1,1,.186.56c-.138.046-.277.093-.415.141A.3.3,0,0,1,1302.894,841.67Zm1.4-.457a.3.3,0,0,1-.086-.578c.141-.044.284-.087.426-.129a.3.3,0,1,1,.167.567c-.14.041-.28.084-.42.127A.329.329,0,0,1,1304.3,841.213Zm1.417-.409a.3.3,0,0,1-.077-.581c.143-.038.286-.077.43-.114a.3.3,0,1,1,.149.572c-.142.037-.283.074-.425.113A.333.333,0,0,1,1305.713,840.8Zm1.429-.363a.3.3,0,0,1-.067-.583l.433-.1a.3.3,0,1,1,.131.576l-.428.1A.325.325,0,0,1,1307.142,840.441Zm1.441-.319a.3.3,0,0,1-.06-.585l.436-.088a.3.3,0,0,1,.115.58c-.144.028-.288.057-.431.087A.323.323,0,0,1,1308.583,840.122Zm39.886-.088h-.12a.3.3,0,1,1,0-.591h.443a.3.3,0,0,1,0,.591Zm-1.154-.006h0l-.445-.006a.3.3,0,0,1-.291-.3.3.3,0,0,1,.3-.291l.442.006a.3.3,0,0,1,0,.591Zm2.511,0a.3.3,0,0,1,0-.591l.441-.008h.006a.3.3,0,0,1,.006.591l-.445.008Zm-3.988-.023h-.007l-.444-.011a.3.3,0,0,1-.288-.3.292.292,0,0,1,.3-.288l.442.012a.3.3,0,0,1-.007.591Zm5.464-.011a.3.3,0,0,1-.009-.591l.441-.015a.3.3,0,1,1,.022.59q-.222.009-.444.015Zm-6.941-.033h-.01l-.444-.017a.3.3,0,0,1,.022-.59l.442.016a.3.3,0,0,1-.01.591Zm8.417-.028a.3.3,0,0,1-.015-.591l.441-.024a.3.3,0,0,1,.312.278.3.3,0,0,1-.278.312c-.148.009-.3.017-.445.024Zm-9.893-.031h-.013l-.444-.021a.3.3,0,0,1-.281-.309.3.3,0,0,1,.309-.281l.442.02a.3.3,0,0,1-.013.591Zm-32.854-.055a.3.3,0,0,1-.051-.586c.146-.026.292-.052.439-.076a.3.3,0,1,1,.1.582c-.145.024-.289.05-.434.075A.306.306,0,0,1,1310.031,839.844Zm44.221-.005a.3.3,0,0,1-.021-.59c.147-.01.293-.022.44-.033a.3.3,0,1,1,.046.589c-.148.011-.3.023-.443.033Zm-12.842-.012h-.016l-.443-.024a.3.3,0,0,1,.031-.59l.443.024a.3.3,0,0,1-.015.59Zm-1.475-.081h-.018l-.443-.026a.3.3,0,0,1-.277-.313.291.291,0,0,1,.312-.277l.443.026a.3.3,0,0,1-.017.591Zm15.789-.029a.3.3,0,0,1-.028-.59l.439-.043a.293.293,0,0,1,.324.264.3.3,0,0,1-.264.324l-.443.043Zm-17.264-.061h-.019l-.442-.028a.3.3,0,0,1,.037-.59l.443.028a.3.3,0,0,1-.019.59Zm-26.973-.051a.3.3,0,0,1-.044-.588l.441-.064a.3.3,0,1,1,.083.585c-.145.02-.29.042-.436.064A.324.324,0,0,1,1311.487,839.6Zm25.5-.044h-.02l-.442-.029a.3.3,0,0,1,.039-.59l.442.029a.3.3,0,0,1-.019.59Zm20.207,0a.3.3,0,0,1-.035-.589l.438-.054a.3.3,0,1,1,.073.587l-.441.054Zm-21.681-.1h-.02l-.442-.029a.3.3,0,0,1,.039-.59l.443.03a.3.3,0,0,1-.02.59Zm-22.563-.061a.3.3,0,0,1-.036-.589l.441-.054a.3.3,0,0,1,.07.587l-.438.054Zm45.707-.037a.3.3,0,0,1-.042-.587c.146-.022.291-.043.436-.066a.3.3,0,0,1,.09.584q-.22.035-.441.066A.3.3,0,0,1,1358.656,839.366Zm-24.618,0h-.02l-.441-.029a.3.3,0,1,1,.038-.59l.443.029a.3.3,0,0,1-.02.59Zm-1.474-.1h-.019l-.442-.029a.3.3,0,1,1,.038-.589l.442.028a.3.3,0,0,1-.019.59Zm-18.148-.033a.3.3,0,0,1-.03-.589l.443-.044a.3.3,0,0,1,.057.588l-.44.043Zm16.674-.059h-.018l-.442-.026a.3.3,0,0,1,.035-.59l.443.027a.3.3,0,0,1-.018.59Zm29.025-.043a.3.3,0,0,1-.05-.586l.434-.077a.3.3,0,1,1,.1.581l-.438.078A.293.293,0,0,1,1360.115,839.134Zm-44.228-.032a.3.3,0,0,1-.023-.59l.443-.035a.3.3,0,0,1,.044.59l-.44.034Zm13.729-.01h-.017l-.441-.024a.3.3,0,0,1-.28-.31.3.3,0,0,1,.311-.28l.443.024a.3.3,0,0,1-.016.591Zm-1.475-.077h-.014l-.442-.021a.3.3,0,0,1-.282-.308.3.3,0,0,1,.309-.282l.443.021a.3.3,0,0,1-.014.59Zm-10.78-.017a.3.3,0,0,1-.018-.59l.444-.025a.3.3,0,0,1,.033.59l-.442.025Zm9.305-.047h-.012l-.442-.016a.3.3,0,0,1,.022-.591l.443.017a.3.3,0,0,1-.011.591Zm-7.829-.027a.3.3,0,0,1-.012-.59l.445-.017a.292.292,0,0,1,.306.285.3.3,0,0,1-.286.3l-.441.017Zm6.353-.024h-.009l-.441-.012a.3.3,0,0,1,.014-.591l.444.012a.3.3,0,0,1-.008.591Zm-4.875-.022a.3.3,0,0,1-.007-.591l.446-.009a.3.3,0,0,1,.3.29.3.3,0,0,1-.29.3l-.442.009Zm3.4-.011h0c-.147,0-.3-.005-.442-.006a.3.3,0,0,1-.292-.3.291.291,0,0,1,.3-.292l.445.006a.3.3,0,0,1-.005.591Zm37.853-.006a.3.3,0,0,1-.058-.585c.144-.029.288-.059.431-.09a.3.3,0,0,1,.123.578l-.436.091A.3.3,0,0,1,1361.566,838.861Zm-39.773,0a.3.3,0,0,1,0-.591h.445a.3.3,0,1,1,0,.591h-.443Zm41.216-.312a.3.3,0,0,1-.067-.583q.214-.049.429-.1a.3.3,0,1,1,.139.574c-.144.035-.288.07-.433.1A.262.262,0,0,1,1363.009,838.545Zm1.434-.357a.3.3,0,0,1-.076-.581l.426-.115a.3.3,0,1,1,.156.57l-.431.116A.275.275,0,0,1,1364.443,838.188Zm1.422-.4a.3.3,0,0,1-.084-.578l.422-.127a.3.3,0,1,1,.173.565l-.427.128A.3.3,0,0,1,1365.865,837.789Zm1.41-.439a.3.3,0,0,1-.092-.576l.418-.139a.3.3,0,1,1,.189.56q-.211.072-.423.141A.3.3,0,0,1,1367.275,837.35Zm1.4-.478a.3.3,0,0,1-.1-.574l.415-.151a.3.3,0,0,1,.2.555l-.419.152A.293.293,0,0,1,1368.672,836.872Zm1.383-.519a.3.3,0,0,1-.107-.57l.409-.163a.3.3,0,0,1,.22.549l-.414.164A.3.3,0,0,1,1370.055,836.353Zm1.368-.557a.3.3,0,0,1-.115-.567c.135-.058.27-.115.4-.174a.3.3,0,0,1,.236.542l-.41.176A.31.31,0,0,1,1371.423,835.8Zm1.352-.6a.3.3,0,0,1-.123-.564l.4-.185a.3.3,0,1,1,.25.535l-.4.187A.3.3,0,0,1,1372.775,835.2Zm1.334-.633a.3.3,0,0,1-.13-.56l.394-.2a.3.3,0,1,1,.266.527l-.4.2A.3.3,0,0,1,1374.109,834.568Zm1.317-.67a.295.295,0,0,1-.138-.556l.389-.207a.3.3,0,1,1,.279.52l-.393.209A.3.3,0,0,1,1375.426,833.9Zm1.3-.706a.3.3,0,0,1-.145-.553l.383-.217a.3.3,0,0,1,.294.512l-.388.22A.287.287,0,0,1,1376.723,833.192Zm1.277-.742a.3.3,0,0,1-.152-.549c.125-.075.251-.151.376-.228a.3.3,0,0,1,.309.5l-.381.231A.3.3,0,0,1,1378,832.45Zm1.256-.778a.3.3,0,0,1-.159-.544l.37-.239a.3.3,0,0,1,.322.5q-.186.121-.375.241A.3.3,0,0,1,1379.256,831.672Zm1.233-.812a.3.3,0,0,1-.166-.539l.364-.249a.3.3,0,1,1,.336.486l-.368.251A.292.292,0,0,1,1380.489,830.86Zm1.211-.846a.3.3,0,0,1-.173-.535c.119-.086.238-.172.356-.259a.3.3,0,0,1,.349.477c-.119.087-.239.175-.36.261A.292.292,0,0,1,1381.7,830.014Zm1.186-.88a.3.3,0,0,1-.18-.53c.117-.089.234-.179.349-.269a.3.3,0,1,1,.363.466l-.353.272A.291.291,0,0,1,1382.886,829.134Zm1.161-.913a.3.3,0,0,1-.186-.525q.171-.138.342-.279a.3.3,0,0,1,.375.456q-.172.143-.345.282A.292.292,0,0,1,1384.047,828.221Zm1.135-.945a.3.3,0,0,1-.193-.52c.112-.1.223-.192.333-.289a.3.3,0,0,1,.389.446c-.112.1-.224.195-.337.291A.294.294,0,0,1,1385.182,827.276Zm1.107-.978a.3.3,0,0,1-.2-.514c.109-.1.217-.2.325-.3a.3.3,0,1,1,.4.434q-.164.151-.329.3A.293.293,0,0,1,1386.289,826.3Zm1.079-1.008a.3.3,0,0,1-.205-.509c.106-.1.211-.2.316-.306a.3.3,0,1,1,.414.422l-.32.31A.3.3,0,0,1,1387.368,825.29Zm1.049-1.039a.29.29,0,0,1-.206-.085.3.3,0,0,1-.005-.418c.1-.1.206-.21.308-.315a.3.3,0,1,1,.425.41c-.1.107-.207.213-.311.319A.3.3,0,0,1,1388.417,824.251Zm1.019-1.069a.294.294,0,0,1-.2-.079.3.3,0,0,1-.016-.418q.15-.16.3-.324a.3.3,0,1,1,.437.4c-.1.109-.2.219-.3.328A.3.3,0,0,1,1389.436,823.182Zm.987-1.1a.295.295,0,0,1-.222-.489l.035-.041c.084-.1.169-.194.253-.292a.3.3,0,1,1,.448.384l-.256.3-.035.04A.293.293,0,0,1,1390.423,822.083Zm.954-1.127a.295.295,0,0,1-.228-.482l.278-.342a.3.3,0,1,1,.46.371l-.281.345A.3.3,0,0,1,1391.377,820.956Zm.919-1.155a.292.292,0,0,1-.18-.062.3.3,0,0,1-.054-.414q.135-.174.267-.35a.3.3,0,0,1,.472.356q-.135.179-.271.355A.3.3,0,0,1,1392.3,819.8Zm.883-1.184a.29.29,0,0,1-.172-.056.294.294,0,0,1-.067-.412c.086-.119.171-.238.256-.358a.3.3,0,1,1,.482.341l-.259.363A.3.3,0,0,1,1393.179,818.617Zm.846-1.211a.295.295,0,0,1-.245-.46c.083-.122.164-.244.245-.366a.3.3,0,1,1,.493.326c-.082.124-.165.247-.248.37A.293.293,0,0,1,1394.025,817.406Zm.807-1.237a.291.291,0,0,1-.157-.045.3.3,0,0,1-.093-.407c.079-.125.156-.249.233-.374a.3.3,0,1,1,.5.31c-.078.126-.156.253-.236.378A.3.3,0,0,1,1394.832,816.169Zm.766-1.263a.295.295,0,0,1-.254-.444q.111-.19.22-.381a.3.3,0,0,1,.513.293l-.223.386A.3.3,0,0,1,1395.6,814.906Zm.724-1.287a.3.3,0,0,1-.14-.036.3.3,0,0,1-.119-.4c.07-.129.139-.259.207-.389a.3.3,0,0,1,.523.276l-.21.394A.3.3,0,0,1,1396.322,813.619Zm.68-1.312a.3.3,0,0,1-.264-.427c.065-.131.13-.263.194-.4a.3.3,0,0,1,.532.257c-.065.134-.13.268-.2.4A.294.294,0,0,1,1397,812.307Zm.634-1.335a.295.295,0,0,1-.269-.417q.092-.2.18-.4a.3.3,0,0,1,.541.238c-.061.136-.121.272-.183.408A.294.294,0,0,1,1397.636,810.972Zm.586-1.356a.29.29,0,0,1-.112-.022.3.3,0,0,1-.162-.386q.084-.2.165-.408a.3.3,0,0,1,.549.218c-.055.138-.11.277-.167.414A.3.3,0,0,1,1398.222,809.616Zm.535-1.377a.305.305,0,0,1-.1-.018.3.3,0,0,1-.176-.379q.077-.207.15-.414a.295.295,0,1,1,.556.2c-.049.14-.1.28-.151.42A.3.3,0,0,1,1398.757,808.239Zm.482-1.4a.288.288,0,0,1-.091-.014.3.3,0,0,1-.19-.372c.045-.14.09-.279.133-.419a.3.3,0,1,1,.564.175q-.066.213-.135.426A.3.3,0,0,1,1399.239,806.842Zm.427-1.414a.28.28,0,0,1-.08-.011.3.3,0,0,1-.2-.364c.039-.141.078-.282.116-.424a.3.3,0,0,1,.571.152q-.058.216-.118.432A.3.3,0,0,1,1399.666,805.428Zm.371-1.43a.272.272,0,0,1-.069-.008.3.3,0,0,1-.219-.355c.034-.143.067-.286.1-.428a.3.3,0,1,1,.576.129c-.032.145-.066.29-.1.435A.3.3,0,0,1,1400.037,804Zm.31-1.444a.274.274,0,0,1-.056-.005.3.3,0,0,1-.234-.346c.027-.144.054-.288.08-.432a.3.3,0,0,1,.582.1c-.027.146-.054.293-.082.439A.3.3,0,0,1,1400.347,802.554Zm.249-1.455-.044,0a.3.3,0,0,1-.248-.336c.021-.144.042-.289.061-.434a.3.3,0,0,1,.586.079c-.02.148-.041.295-.063.442A.3.3,0,0,1,1400.6,801.1Zm.185-1.464-.031,0a.3.3,0,0,1-.263-.324c.015-.146.029-.291.043-.437a.3.3,0,0,1,.321-.267.3.3,0,0,1,.267.321c-.013.148-.028.3-.043.444A.3.3,0,0,1,1400.781,799.635Zm.12-1.471h-.017a.3.3,0,0,1-.278-.312c.006-.107.012-.215.017-.322l.005-.115a.3.3,0,0,1,.591.024l-.006.119c-.005.11-.011.219-.017.329A.3.3,0,0,1,1400.9,798.164Zm.051-1.476h0a.3.3,0,0,1-.294-.3c0-.1,0-.2,0-.292v-.146a.3.3,0,0,1,.294-.3h0a.3.3,0,0,1,.3.294v.149c0,.1,0,.2,0,.3A.3.3,0,0,1,1400.952,796.688Zm-.022-1.477a.3.3,0,0,1-.3-.284c-.006-.146-.013-.292-.02-.438a.295.295,0,1,1,.589-.031c.008.148.015.3.021.446a.3.3,0,0,1-.283.307Zm-.094-1.473a.3.3,0,0,1-.294-.27c-.013-.146-.027-.291-.041-.437a.3.3,0,0,1,.587-.06c.015.148.03.3.043.445a.3.3,0,0,1-.269.321Zm-.165-1.468a.3.3,0,0,1-.292-.255c-.02-.145-.041-.29-.063-.434a.3.3,0,1,1,.584-.089c.022.147.044.295.064.443a.3.3,0,0,1-.253.332Zm-.236-1.458a.3.3,0,0,1-.29-.241c-.027-.144-.054-.287-.083-.431a.3.3,0,1,1,.579-.117c.029.147.058.293.085.44a.3.3,0,0,1-.236.344A.264.264,0,0,1,1400.435,790.812Zm-.306-1.445a.294.294,0,0,1-.287-.227q-.051-.213-.1-.426a.3.3,0,0,1,.573-.145c.037.144.072.289.107.434a.3.3,0,0,1-.219.356A.272.272,0,0,1,1400.129,789.367Zm-.376-1.428a.3.3,0,0,1-.284-.214c-.04-.14-.082-.28-.125-.42a.3.3,0,0,1,.565-.173c.043.143.086.286.128.429a.3.3,0,0,1-.2.366A.29.29,0,0,1,1399.753,787.939Zm-.446-1.409a.3.3,0,0,1-.28-.2q-.07-.207-.146-.414a.3.3,0,0,1,.556-.2c.05.141.1.281.149.423a.3.3,0,0,1-.279.391Zm-.516-1.384a.3.3,0,0,1-.275-.185c-.054-.136-.11-.271-.167-.406a.3.3,0,0,1,.545-.229c.058.137.115.276.17.414a.3.3,0,0,1-.164.385A.3.3,0,0,1,1398.791,785.146Zm-.587-1.356a.3.3,0,0,1-.268-.172c-.061-.133-.124-.265-.187-.4a.3.3,0,1,1,.532-.256c.065.134.129.269.191.4a.3.3,0,0,1-.268.42Zm-.655-1.325a.3.3,0,0,1-.262-.157c-.068-.129-.137-.258-.208-.386a.3.3,0,0,1,.518-.285c.072.131.143.263.213.395a.3.3,0,0,1-.123.4A.288.288,0,0,1,1397.549,782.465Zm-.726-1.287a.3.3,0,0,1-.253-.143c-.076-.125-.152-.25-.229-.374a.3.3,0,1,1,.5-.312c.079.126.157.254.234.382a.3.3,0,0,1-.1.4A.291.291,0,0,1,1396.823,781.178Zm-.8-1.245a.294.294,0,0,1-.244-.129c-.082-.121-.165-.242-.25-.361a.3.3,0,1,1,.484-.34q.129.183.255.369a.3.3,0,0,1-.079.41A.292.292,0,0,1,1396.028,779.933Zm-.863-1.2a.3.3,0,0,1-.235-.116c-.089-.116-.178-.231-.269-.346a.3.3,0,1,1,.463-.367c.093.117.184.235.275.354a.3.3,0,0,1-.234.475Zm-.931-1.146a.294.294,0,0,1-.224-.1c-.1-.11-.192-.22-.289-.328a.3.3,0,1,1,.44-.394q.15.167.3.336a.3.3,0,0,1-.223.489Zm-1-1.089a.293.293,0,0,1-.212-.089c-.1-.1-.2-.208-.308-.31a.3.3,0,0,1,.416-.42c.106.1.211.211.316.318a.3.3,0,0,1-.006.418A.293.293,0,0,1,1393.236,776.5Zm-1.062-1.025a.293.293,0,0,1-.2-.076q-.162-.147-.327-.291a.3.3,0,0,1,.39-.445l.334.3a.3.3,0,0,1,.02.417A.291.291,0,0,1,1392.174,775.475Zm-1.123-.956a.3.3,0,0,1-.184-.064q-.171-.137-.345-.27a.3.3,0,0,1,.36-.469c.119.091.237.184.353.277a.3.3,0,0,1-.184.526Zm-1.184-.882a.293.293,0,0,1-.168-.053c-.12-.082-.24-.164-.362-.244a.3.3,0,0,1,.326-.493q.188.123.373.252a.3.3,0,0,1-.169.538Zm-24.076-.61a.3.3,0,0,1-.169-.538q.186-.129.373-.252a.3.3,0,0,1,.325.494c-.121.079-.242.16-.361.243A.291.291,0,0,1,1365.791,773.027Zm22.833-.188a.292.292,0,0,1-.15-.041q-.187-.112-.378-.219a.3.3,0,0,1,.291-.515c.13.074.26.149.388.226a.295.295,0,0,1-.151.549Zm-21.586-.6a.3.3,0,0,1-.148-.551q.2-.112.393-.22a.3.3,0,0,1,.282.519q-.19.1-.38.213A.293.293,0,0,1,1367.038,772.237Zm20.292-.109a.29.29,0,0,1-.133-.032c-.13-.065-.261-.13-.392-.193a.3.3,0,1,1,.257-.532c.134.065.269.131.4.2a.3.3,0,0,1-.134.559Zm-18.985-.575a.3.3,0,0,1-.126-.562c.136-.065.272-.127.409-.188a.3.3,0,0,1,.24.54c-.133.059-.265.119-.4.182A.3.3,0,0,1,1368.345,771.553Zm17.647-.048a.3.3,0,0,1-.116-.023c-.134-.058-.269-.113-.4-.168a.3.3,0,0,1,.221-.548c.139.056.277.114.415.172a.3.3,0,0,1-.116.567Zm-16.288-.53a.3.3,0,0,1-.1-.571c.14-.054.281-.1.423-.155a.3.3,0,1,1,.2.557c-.137.049-.274.1-.409.15A.3.3,0,0,1,1369.7,770.975Zm14.911,0a.285.285,0,0,1-.1-.017q-.205-.072-.414-.141a.3.3,0,0,1,.185-.561c.142.047.284.095.425.145a.3.3,0,0,1-.1.574Zm-1.408-.444a.309.309,0,0,1-.08-.011c-.141-.04-.282-.078-.423-.115a.3.3,0,0,1,.149-.572c.145.038.289.077.434.118a.3.3,0,0,1-.08.58Zm-12.1-.022a.3.3,0,0,1-.083-.579q.216-.063.433-.122a.3.3,0,0,1,.154.571c-.141.038-.281.077-.42.118A.3.3,0,0,1,1371.1,770.505Zm10.67-.332a.331.331,0,0,1-.062-.006q-.213-.047-.429-.087a.3.3,0,0,1,.112-.581c.147.029.294.059.44.09a.3.3,0,0,1-.061.584Zm-9.239-.032a.3.3,0,0,1-.061-.584c.146-.032.293-.062.44-.09a.3.3,0,1,1,.112.58q-.215.042-.428.087A.27.27,0,0,1,1372.534,770.141Zm7.786-.229a.324.324,0,0,1-.044,0c-.144-.022-.289-.041-.433-.06a.3.3,0,0,1,.074-.586c.149.019.3.039.445.061a.3.3,0,0,1-.042.588Zm-6.332-.03a.3.3,0,0,1-.041-.588c.149-.021.3-.04.446-.058a.3.3,0,1,1,.071.586c-.145.018-.289.037-.434.057Zm4.864-.138h-.024c-.146-.011-.291-.022-.437-.031a.3.3,0,0,1,.037-.589c.149.009.3.019.448.032a.295.295,0,0,1-.024.589Zm-3.4-.018a.3.3,0,0,1-.021-.59c.15-.011.3-.02.449-.028a.3.3,0,0,1,.03.59c-.146.008-.291.017-.436.027Zm1.92-.053h-.005l-.346,0h-.093a.3.3,0,0,1,0-.591h.094l.355,0a.3.3,0,0,1,0,.591Z" fill="#f5f3fe"/>
  </g>
</svg>
