<svg xmlns="http://www.w3.org/2000/svg" width="626.374" height="278.481" viewBox="0 0 626.374 278.481">
  <g id="Grupo_86385" data-name="Grupo 86385" transform="translate(6380.756 3560.74)">
    <g id="Grupo_56287" data-name="Grupo 56287" transform="translate(-7657.379 -3604.709)">
      <g id="Grupo_56287-2" data-name="Grupo 56287">
        <rect id="Rectángulo_14460" data-name="Rectángulo 14460" width="151.204" height="47.759" rx="2.708" transform="translate(1580.087 43.969)" fill="#00bad3"/>
      </g>
      <g id="Grupo_56288" data-name="Grupo 56288">
        <path id="Trazado_103089" data-name="Trazado 103089" d="M1618.741,61.2l2.811,8.76,2.8-8.76h3.995V73.79h-3.044V70.85l.294-6.019-3.044,8.959h-2.006l-3.053-8.968.294,6.028v2.94h-3.035V61.2Z" fill="#12263f"/>
        <path id="Trazado_103090" data-name="Trazado 103090" d="M1638.086,68.446h-4.773v3.009h5.638V73.79h-8.674V61.2h8.692v2.343h-5.656V66.2h4.773Z" fill="#12263f"/>
        <path id="Trazado_103091" data-name="Trazado 103091" d="M1640.188,73.79V61.2h4.055a5.964,5.964,0,0,1,3,.757,5.315,5.315,0,0,1,2.08,2.136,6.456,6.456,0,0,1,.756,3.091v.58a6.487,6.487,0,0,1-.73,3.1,5.337,5.337,0,0,1-2.058,2.144,5.843,5.843,0,0,1-2.962.783Zm3.035-10.248v7.913h1.055a2.359,2.359,0,0,0,2.006-.93,4.552,4.552,0,0,0,.7-2.762v-.545a4.518,4.518,0,0,0-.7-2.75,2.4,2.4,0,0,0-2.041-.926Z" fill="#12263f"/>
        <path id="Trazado_103092" data-name="Trazado 103092" d="M1659.445,68.446h-4.773v3.009h5.639V73.79h-8.674V61.2h8.691v2.343h-5.656V66.2h4.773Z" fill="#12263f"/>
        <path id="Trazado_103093" data-name="Trazado 103093" d="M1664.582,71.455h5.284V73.79h-8.319V61.2h3.035Z" fill="#12263f"/>
        <path id="Trazado_103094" data-name="Trazado 103094" d="M1674.182,71.455h5.284V73.79h-8.32V61.2h3.036Z" fill="#12263f"/>
        <path id="Trazado_103095" data-name="Trazado 103095" d="M1683.979,73.79h-3.026V61.2h3.026Z" fill="#12263f"/>
        <path id="Trazado_103096" data-name="Trazado 103096" d="M1696.6,73.79h-3.017l-4.463-7.835V73.79h-3.035V61.2h3.035l4.454,7.835V61.2h3.026Z" fill="#12263f"/>
      </g>
      <g id="Grupo_56292" data-name="Grupo 56292">
        <g id="Grupo_56289" data-name="Grupo 56289">
          <rect id="Rectángulo_14461" data-name="Rectángulo 14461" width="159.433" height="1.999" transform="translate(1508.292 147.312) rotate(-22.758)" fill="#00bad3"/>
        </g>
        <g id="Grupo_56291" data-name="Grupo 56291">
          <g id="Grupo_56290" data-name="Grupo 56290">
            <path id="Trazado_103097" data-name="Trazado 103097" d="M1508.1,143.1l-6.031,7.94,9.892,1.254Z" fill="#00bad3"/>
          </g>
        </g>
      </g>
      <g id="Grupo_56296" data-name="Grupo 56296">
        <g id="Grupo_56293" data-name="Grupo 56293">
          <rect id="Rectángulo_14462" data-name="Rectángulo 14462" width="2" height="165.996" transform="translate(1655.316 87.462) rotate(-68.131)" fill="#00bad3"/>
        </g>
        <g id="Grupo_56295" data-name="Grupo 56295">
          <g id="Grupo_56294" data-name="Grupo 56294">
            <path id="Trazado_103098" data-name="Trazado 103098" d="M1806.527,152.45l9.87-1.411-6.156-7.844Z" fill="#00bad3"/>
          </g>
        </g>
      </g>
      <g id="Grupo_56297" data-name="Grupo 56297">
        <path id="Trazado_116160" data-name="Trazado 116160" d="M2.708,0H148.5A2.708,2.708,0,0,1,151.2,2.708V45.051a2.708,2.708,0,0,1-2.708,2.708H2.708A2.708,2.708,0,0,1,0,45.051V2.708A2.708,2.708,0,0,1,2.708,0Z" transform="translate(1419.377 43.969)" fill="#4dd0e1"/>
      </g>
      <g id="Grupo_56298" data-name="Grupo 56298">
        <path id="Trazado_103099" data-name="Trazado 103099" d="M1486.8,69.527a4.6,4.6,0,0,1-.709,2.322,4.272,4.272,0,0,1-1.821,1.561,6.2,6.2,0,0,1-2.675.553,4.946,4.946,0,0,1-3.91-1.617,6.678,6.678,0,0,1-1.426-4.566v-.623a7.628,7.628,0,0,1,.644-3.238,4.885,4.885,0,0,1,1.855-2.145,5.179,5.179,0,0,1,2.8-.756,5.424,5.424,0,0,1,3.684,1.206,4.765,4.765,0,0,1,1.582,3.325H1483.8a2.259,2.259,0,0,0-.58-1.652,2.383,2.383,0,0,0-1.66-.5,1.814,1.814,0,0,0-1.661.847,5.452,5.452,0,0,0-.553,2.707v.89a6.042,6.042,0,0,0,.505,2.88,1.852,1.852,0,0,0,1.744.865,2.333,2.333,0,0,0,1.6-.493,2.092,2.092,0,0,0,.588-1.565Z" fill="#12263f"/>
        <path id="Trazado_103100" data-name="Trazado 103100" d="M1495.39,71.438h-4.16l-.726,2.352h-3.243l4.618-12.591h2.853l4.653,12.591h-3.26Zm-3.433-2.344h2.706l-1.357-4.366Z" fill="#12263f"/>
        <path id="Trazado_103101" data-name="Trazado 103101" d="M1503.337,71.455h5.284V73.79H1500.3V61.2h3.035Z" fill="#12263f"/>
        <path id="Trazado_103102" data-name="Trazado 103102" d="M1513.136,73.79h-3.027V61.2h3.027Z" fill="#12263f"/>
      </g>
      <g id="Grupo_56302" data-name="Grupo 56302">
        <g id="Grupo_56299" data-name="Grupo 56299">
          <rect id="Rectángulo_14464" data-name="Rectángulo 14464" width="2" height="57.329" transform="translate(1493.979 86.534)" fill="#4dd0e1"/>
        </g>
        <g id="Grupo_56301" data-name="Grupo 56301">
          <g id="Grupo_56300" data-name="Grupo 56300">
            <path id="Trazado_103103" data-name="Trazado 103103" d="M1489.993,142.4l4.986,8.635,4.986-8.635Z" fill="#4dd0e1"/>
          </g>
        </g>
      </g>
      <g id="Grupo_56303" data-name="Grupo 56303">
        <rect id="Rectángulo_14465" data-name="Rectángulo 14465" width="151.204" height="47.759" rx="2.708" transform="translate(1740.796 43.969)" fill="#84ecf4"/>
      </g>
      <g id="Grupo_56304" data-name="Grupo 56304">
        <path id="Trazado_103104" data-name="Trazado 103104" d="M1782.646,73.79V61.2h4.522a6.4,6.4,0,0,1,3.7.891,2.962,2.962,0,0,1,1.267,2.585,3,3,0,0,1-.449,1.669,2.621,2.621,0,0,1-1.324,1.021,2.657,2.657,0,0,1,1.514.968,2.817,2.817,0,0,1,.527,1.73,3.332,3.332,0,0,1-1.171,2.78,5.581,5.581,0,0,1-3.473.947Zm3.035-7.342h1.583a2.251,2.251,0,0,0,1.418-.364,1.293,1.293,0,0,0,.423-1.049,1.36,1.36,0,0,0-.458-1.15,2.453,2.453,0,0,0-1.479-.351h-1.487Zm0,1.989v3.018h1.989a1.891,1.891,0,0,0,1.263-.376,1.316,1.316,0,0,0,.44-1.059,1.4,1.4,0,0,0-1.564-1.583Z" fill="#12263f"/>
        <path id="Trazado_103105" data-name="Trazado 103105" d="M1804.731,67.754a7.428,7.428,0,0,1-.682,3.26,5.049,5.049,0,0,1-1.942,2.184,5.405,5.405,0,0,1-2.867.765,5.489,5.489,0,0,1-2.853-.739,5.049,5.049,0,0,1-1.942-2.115,7.211,7.211,0,0,1-.73-3.156v-.709a7.454,7.454,0,0,1,.679-3.265,5.039,5.039,0,0,1,1.946-2.183,5.757,5.757,0,0,1,5.737-.009,5.129,5.129,0,0,1,1.95,2.166,7.222,7.222,0,0,1,.7,3.222Zm-3.086-.527a5.3,5.3,0,0,0-.627-2.85,2.012,2.012,0,0,0-1.794-.973q-2.284,0-2.413,3.425l-.009.925a5.447,5.447,0,0,0,.614,2.845,2.008,2.008,0,0,0,1.824,1,1.984,1.984,0,0,0,1.774-.978,5.3,5.3,0,0,0,.631-2.81Z" fill="#12263f"/>
        <path id="Trazado_103106" data-name="Trazado 103106" d="M1816.6,72.233a4.869,4.869,0,0,1-2.048,1.254,8.849,8.849,0,0,1-2.958.476,5.277,5.277,0,0,1-3.952-1.513,6.131,6.131,0,0,1-1.583-4.212l-.008-1.09a7.5,7.5,0,0,1,.657-3.247,4.873,4.873,0,0,1,1.881-2.135,5.316,5.316,0,0,1,2.832-.748,5.573,5.573,0,0,1,3.653,1.076,4.566,4.566,0,0,1,1.519,3.213h-2.923A2.4,2.4,0,0,0,1813,63.8a2.177,2.177,0,0,0-1.471-.449,1.979,1.979,0,0,0-1.763.968,5.165,5.165,0,0,0-.631,2.767v.761a5.067,5.067,0,0,0,.643,2.832,2.279,2.279,0,0,0,2.029.947,2.548,2.548,0,0,0,1.763-.527V69.146h-2.109V67.062h5.144Z" fill="#12263f"/>
        <path id="Trazado_103107" data-name="Trazado 103107" d="M1829.031,67.754a7.429,7.429,0,0,1-.682,3.26,5.049,5.049,0,0,1-1.942,2.184,5.407,5.407,0,0,1-2.867.765,5.488,5.488,0,0,1-2.853-.739,5.042,5.042,0,0,1-1.942-2.115,7.209,7.209,0,0,1-.73-3.156v-.709a7.468,7.468,0,0,1,.678-3.265,5.041,5.041,0,0,1,1.947-2.183,5.757,5.757,0,0,1,5.737-.009,5.128,5.128,0,0,1,1.95,2.166,7.237,7.237,0,0,1,.7,3.222Zm-3.087-.527a5.3,5.3,0,0,0-.627-2.85,2.011,2.011,0,0,0-1.794-.973q-2.283,0-2.413,3.425l-.008.925a5.448,5.448,0,0,0,.614,2.845,2.007,2.007,0,0,0,1.824,1,1.982,1.982,0,0,0,1.773-.978,5.288,5.288,0,0,0,.631-2.81Z" fill="#12263f"/>
        <path id="Trazado_103108" data-name="Trazado 103108" d="M1839.746,63.542h-3.779V73.79h-3.035V63.542h-3.71V61.2h10.524Z" fill="#12263f"/>
        <path id="Trazado_103109" data-name="Trazado 103109" d="M1847.14,71.438h-4.16l-.726,2.352h-3.243l4.618-12.591h2.853l4.653,12.591h-3.26Zm-3.433-2.344h2.706l-1.357-4.366Z" fill="#12263f"/>
      </g>
      <g id="Grupo_56308" data-name="Grupo 56308">
        <g id="Grupo_56305" data-name="Grupo 56305">
          <rect id="Rectángulo_14466" data-name="Rectángulo 14466" width="2" height="47.682" transform="translate(1815.397 86.534)" fill="#84ecf4"/>
        </g>
        <g id="Grupo_56307" data-name="Grupo 56307">
          <g id="Grupo_56306" data-name="Grupo 56306">
            <path id="Trazado_103110" data-name="Trazado 103110" d="M1811.411,132.757l4.986,8.635,4.986-8.635Z" fill="#84ecf4"/>
          </g>
        </g>
      </g>
      <g id="Grupo_56309" data-name="Grupo 56309">
        <rect id="Rectángulo_14467" data-name="Rectángulo 14467" width="151.204" height="47.759" rx="2.708" transform="translate(1580.087 159.229)" fill="#feca2e"/>
      </g>
      <g id="Grupo_56310" data-name="Grupo 56310">
        <path id="Trazado_103111" data-name="Trazado 103111" d="M1638.64,176.459h3.026V185.1a4.129,4.129,0,0,1-.558,2.145,3.812,3.812,0,0,1-1.556,1.462,4.768,4.768,0,0,1-2.227.518,4.588,4.588,0,0,1-3.2-1.037,3.769,3.769,0,0,1-1.142-2.941h3.044a2.084,2.084,0,0,0,.3,1.254,1.18,1.18,0,0,0,1,.389,1.13,1.13,0,0,0,.973-.471,2.218,2.218,0,0,0,.342-1.319Z" fill="#12263f"/>
        <path id="Trazado_103112" data-name="Trazado 103112" d="M1653.453,176.459V184.7a4.733,4.733,0,0,1-.6,2.425,3.857,3.857,0,0,1-1.712,1.561,6.039,6.039,0,0,1-2.637.536,5.209,5.209,0,0,1-3.624-1.193,4.259,4.259,0,0,1-1.349-3.269v-8.3h3.053v8.363q.051,2.067,1.92,2.066a1.864,1.864,0,0,0,1.427-.518,2.434,2.434,0,0,0,.484-1.687v-8.224Z" fill="#12263f"/>
        <path id="Trazado_103113" data-name="Trazado 103113" d="M1662.308,186.7h-4.16l-.726,2.352h-3.243l4.618-12.591h2.853l4.653,12.591h-3.26Zm-3.433-2.344h2.706l-1.357-4.366Z" fill="#12263f"/>
        <path id="Trazado_103114" data-name="Trazado 103114" d="M1677.735,189.05h-3.017l-4.463-7.835v7.835h-3.035V176.459h3.035l4.454,7.835v-7.835h3.026Z" fill="#12263f"/>
      </g>
      <g id="Grupo_56314" data-name="Grupo 56314">
        <g id="Grupo_56311" data-name="Grupo 56311">
          <rect id="Rectángulo_14468" data-name="Rectángulo 14468" width="2" height="51.501" transform="translate(1654.688 201.794)" fill="#feca2e"/>
        </g>
        <g id="Grupo_56313" data-name="Grupo 56313">
          <g id="Grupo_56312" data-name="Grupo 56312">
            <path id="Trazado_103115" data-name="Trazado 103115" d="M1650.7,251.836l4.986,8.635,4.986-8.635Z" fill="#feca2e"/>
          </g>
        </g>
      </g>
      <g id="Grupo_56315" data-name="Grupo 56315">
        <rect id="Rectángulo_14469" data-name="Rectángulo 14469" width="151.204" height="47.759" rx="2.708" transform="translate(1419.377 159.229)" fill="#f9df9b"/>
      </g>
      <g id="Grupo_56316" data-name="Grupo 56316">
        <path id="Trazado_103116" data-name="Trazado 103116" d="M1472.318,184.787a4.586,4.586,0,0,1-.709,2.322,4.27,4.27,0,0,1-1.82,1.561,6.192,6.192,0,0,1-2.676.553,4.944,4.944,0,0,1-3.909-1.617,6.678,6.678,0,0,1-1.427-4.566v-.623a7.612,7.612,0,0,1,.645-3.238,4.889,4.889,0,0,1,1.854-2.145,5.183,5.183,0,0,1,2.8-.756,5.432,5.432,0,0,1,3.685,1.206,4.77,4.77,0,0,1,1.582,3.325h-3.027a2.253,2.253,0,0,0-.58-1.652,2.381,2.381,0,0,0-1.66-.5,1.813,1.813,0,0,0-1.66.847,5.453,5.453,0,0,0-.554,2.707v.891a6.026,6.026,0,0,0,.506,2.879,1.851,1.851,0,0,0,1.743.865,2.329,2.329,0,0,0,1.6-.493,2.1,2.1,0,0,0,.588-1.565Z" fill="#12263f"/>
        <path id="Trazado_103117" data-name="Trazado 103117" d="M1480.905,186.7h-4.159l-.726,2.352h-3.244l4.619-12.591h2.853l4.652,12.591h-3.259Zm-3.432-2.344h2.706l-1.358-4.366Z" fill="#12263f"/>
        <path id="Trazado_103118" data-name="Trazado 103118" d="M1490.5,184.6h-1.643v4.453h-3.036V176.459h4.955a5.529,5.529,0,0,1,3.5.994,3.365,3.365,0,0,1,1.263,2.807,4.092,4.092,0,0,1-.531,2.177,3.778,3.778,0,0,1-1.665,1.4l2.629,5.084v.13h-3.252Zm-1.643-2.335h1.919a1.725,1.725,0,0,0,1.3-.455,1.761,1.761,0,0,0,.437-1.27,1.781,1.781,0,0,0-.442-1.279,1.706,1.706,0,0,0-1.3-.464h-1.919Z" fill="#12263f"/>
        <path id="Trazado_103119" data-name="Trazado 103119" d="M1500.406,186.715h5.284v2.335h-8.319V176.459h3.035Z" fill="#12263f"/>
        <path id="Trazado_103120" data-name="Trazado 103120" d="M1517.078,183.014a7.429,7.429,0,0,1-.682,3.26,5.05,5.05,0,0,1-1.942,2.184,5.407,5.407,0,0,1-2.867.765,5.482,5.482,0,0,1-2.854-.739,5.043,5.043,0,0,1-1.941-2.114,7.213,7.213,0,0,1-.73-3.157V182.5a7.463,7.463,0,0,1,.678-3.264,5.038,5.038,0,0,1,1.947-2.184,5.764,5.764,0,0,1,5.737-.009,5.134,5.134,0,0,1,1.95,2.166,7.237,7.237,0,0,1,.7,3.222Zm-3.087-.527a5.3,5.3,0,0,0-.627-2.85,2.01,2.01,0,0,0-1.794-.972q-2.283,0-2.413,3.424l-.009.925a5.448,5.448,0,0,0,.615,2.845,2.007,2.007,0,0,0,1.824,1,1.983,1.983,0,0,0,1.773-.978,5.3,5.3,0,0,0,.631-2.81Z" fill="#12263f"/>
        <path id="Trazado_103121" data-name="Trazado 103121" d="M1525.139,185.7a1.251,1.251,0,0,0-.471-1.038,5.87,5.87,0,0,0-1.656-.77,15.723,15.723,0,0,1-1.938-.77q-2.446-1.2-2.447-3.3a2.958,2.958,0,0,1,.61-1.846,3.952,3.952,0,0,1,1.725-1.245,6.714,6.714,0,0,1,2.508-.445,5.867,5.867,0,0,1,2.434.484,3.846,3.846,0,0,1,1.673,1.379,3.593,3.593,0,0,1,.6,2.045h-3.027a1.524,1.524,0,0,0-.47-1.193,1.838,1.838,0,0,0-1.277-.424,2.074,2.074,0,0,0-1.284.359,1.058,1.058,0,0,0,.048,1.79,6.564,6.564,0,0,0,1.825.813,11.239,11.239,0,0,1,2.145.9,3.607,3.607,0,0,1,2.04,3.244,3.075,3.075,0,0,1-1.245,2.594,5.54,5.54,0,0,1-3.415.942,6.769,6.769,0,0,1-2.773-.549,4.171,4.171,0,0,1-1.867-1.5,3.916,3.916,0,0,1-.627-2.2h3.044a1.933,1.933,0,0,0,.522,1.491,2.478,2.478,0,0,0,1.7.48,1.952,1.952,0,0,0,1.188-.324A1.07,1.07,0,0,0,1525.139,185.7Z" fill="#12263f"/>
      </g>
      <g id="Grupo_56320" data-name="Grupo 56320">
        <g id="Grupo_56317" data-name="Grupo 56317">
          <rect id="Rectángulo_14470" data-name="Rectángulo 14470" width="67.183" height="2" transform="matrix(0.614, -0.789, 0.789, 0.614, 1452.922, 254.193)" fill="#f9df9b"/>
        </g>
        <g id="Grupo_56319" data-name="Grupo 56319">
          <g id="Grupo_56318" data-name="Grupo 56318">
            <path id="Trazado_103122" data-name="Trazado 103122" d="M1450.672,250.594l-1.37,9.876,9.239-3.751Z" fill="#f9df9b"/>
          </g>
        </g>
      </g>
      <g id="Grupo_56324" data-name="Grupo 56324">
        <g id="Grupo_56321" data-name="Grupo 56321">
          <rect id="Rectángulo_14471" data-name="Rectángulo 14471" width="2" height="67.183" transform="matrix(0.789, -0.614, 0.614, 0.789, 1494.19, 202.408)" fill="#f9df9b"/>
        </g>
        <g id="Grupo_56323" data-name="Grupo 56323">
          <g id="Grupo_56322" data-name="Grupo 56322">
            <path id="Trazado_103123" data-name="Trazado 103123" d="M1531.417,256.72l9.238,3.751-1.369-9.877Z" fill="#f9df9b"/>
          </g>
        </g>
      </g>
      <g id="Grupo_56325" data-name="Grupo 56325">
        <rect id="Rectángulo_14472" data-name="Rectángulo 14472" width="151.204" height="47.759" rx="2.708" transform="translate(1740.796 159.229)" fill="#db9f09"/>
      </g>
      <g id="Grupo_56326" data-name="Grupo 56326">
        <path id="Trazado_103124" data-name="Trazado 103124" d="M1793.062,176.459l2.81,8.76,2.8-8.76h3.995V189.05h-3.044v-2.94l.294-6.019-3.044,8.959h-2.006l-3.053-8.967.294,6.027v2.94h-3.035V176.459Z" fill="#12263f"/>
        <path id="Trazado_103125" data-name="Trazado 103125" d="M1811.749,186.7h-4.159l-.727,2.352h-3.243l4.618-12.591h2.854l4.652,12.591h-3.26Zm-3.433-2.344h2.706l-1.357-4.366Z" fill="#12263f"/>
        <path id="Trazado_103126" data-name="Trazado 103126" d="M1821.34,184.6H1819.7v4.453h-3.035V176.459h4.955a5.533,5.533,0,0,1,3.5.994,3.365,3.365,0,0,1,1.263,2.807,4.092,4.092,0,0,1-.531,2.177,3.783,3.783,0,0,1-1.665,1.4l2.628,5.084v.13h-3.251Zm-1.644-2.335h1.92a1.727,1.727,0,0,0,1.3-.455,1.761,1.761,0,0,0,.436-1.27,1.781,1.781,0,0,0-.441-1.279,1.706,1.706,0,0,0-1.3-.464h-1.92Z" fill="#12263f"/>
        <path id="Trazado_103127" data-name="Trazado 103127" d="M1831.448,189.05h-3.026V176.459h3.026Z" fill="#12263f"/>
        <path id="Trazado_103128" data-name="Trazado 103128" d="M1840.71,186.7h-4.159l-.727,2.352h-3.243l4.618-12.591h2.854l4.652,12.591h-3.26Zm-3.433-2.344h2.706l-1.357-4.366Z" fill="#12263f"/>
      </g>
      <g id="Grupo_56330" data-name="Grupo 56330">
        <g id="Grupo_56327" data-name="Grupo 56327">
          <rect id="Rectángulo_14473" data-name="Rectángulo 14473" width="1.999" height="50.241" transform="translate(1815.601 202.399) rotate(-37.228)" fill="#db9f09"/>
        </g>
        <g id="Grupo_56329" data-name="Grupo 56329">
          <g id="Grupo_56328" data-name="Grupo 56328">
            <path id="Trazado_103129" data-name="Trazado 103129" d="M1841.94,243.653l9.194,3.859-1.254-9.892Z" fill="#db9f09"/>
          </g>
        </g>
      </g>
      <g id="Grupo_56331" data-name="Grupo 56331">
        <rect id="Rectángulo_14474" data-name="Rectángulo 14474" width="81.848" height="47.759" rx="2.708" transform="translate(1614.755 274.489)" fill="#4dd0e1"/>
      </g>
      <g id="Grupo_56332" data-name="Grupo 56332">
        <path id="Trazado_103130" data-name="Trazado 103130" d="M1661.015,300.047a4.6,4.6,0,0,1-.709,2.322,4.266,4.266,0,0,1-1.821,1.561,6.188,6.188,0,0,1-2.675.553,4.946,4.946,0,0,1-3.91-1.617,6.675,6.675,0,0,1-1.426-4.565v-.623a7.613,7.613,0,0,1,.644-3.239,4.876,4.876,0,0,1,1.855-2.144,5.169,5.169,0,0,1,2.8-.757,5.43,5.43,0,0,1,3.685,1.206,4.77,4.77,0,0,1,1.582,3.325h-3.026a2.259,2.259,0,0,0-.58-1.651,2.379,2.379,0,0,0-1.661-.5,1.813,1.813,0,0,0-1.66.848,5.448,5.448,0,0,0-.553,2.707v.89a6.028,6.028,0,0,0,.505,2.879,1.852,1.852,0,0,0,1.744.865,2.328,2.328,0,0,0,1.6-.493,2.09,2.09,0,0,0,.588-1.565Z" fill="#12263f"/>
      </g>
      <g id="Grupo_56333" data-name="Grupo 56333">
        <rect id="Rectángulo_14475" data-name="Rectángulo 14475" width="81.848" height="47.759" rx="2.708" transform="translate(1821.15 274.489)" fill="#00ff9d"/>
      </g>
      <g id="Grupo_56334" data-name="Grupo 56334">
        <path id="Trazado_103131" data-name="Trazado 103131" d="M1865.888,298.967h-4.774v3.009h5.639v2.335h-8.674V291.72h8.692v2.343h-5.657v2.655h4.774Z" fill="#12263f"/>
      </g>
      <g id="Grupo_56335" data-name="Grupo 56335">
        <rect id="Rectángulo_14476" data-name="Rectángulo 14476" width="81.848" height="47.759" rx="2.708" transform="translate(1729.796 274.69)" fill="#feca2e"/>
      </g>
      <g id="Grupo_56336" data-name="Grupo 56336">
        <path id="Trazado_103132" data-name="Trazado 103132" d="M1765.957,304.512V291.921h4.056a5.964,5.964,0,0,1,3,.757,5.325,5.325,0,0,1,2.08,2.135,6.463,6.463,0,0,1,.756,3.092v.579a6.49,6.49,0,0,1-.731,3.1,5.348,5.348,0,0,1-2.057,2.144,5.845,5.845,0,0,1-2.962.783Zm3.035-10.247v7.912h1.056a2.361,2.361,0,0,0,2.006-.93,4.552,4.552,0,0,0,.7-2.763v-.545a4.523,4.523,0,0,0-.7-2.75,2.4,2.4,0,0,0-2.041-.924Z" fill="#12263f"/>
      </g>
      <g id="Grupo_56337" data-name="Grupo 56337">
        <rect id="Rectángulo_14477" data-name="Rectángulo 14477" width="81.848" height="47.759" rx="2.708" transform="translate(1499.732 274.489)" fill="#feca2e"/>
      </g>
      <g id="Grupo_56338" data-name="Grupo 56338">
        <path id="Trazado_103133" data-name="Trazado 103133" d="M1535.905,304.311V291.72h4.523a6.412,6.412,0,0,1,3.7.89,2.964,2.964,0,0,1,1.267,2.586,3,3,0,0,1-.45,1.669,2.625,2.625,0,0,1-1.323,1.021,2.659,2.659,0,0,1,1.514.968,2.82,2.82,0,0,1,.527,1.729,3.33,3.33,0,0,1-1.172,2.78,5.576,5.576,0,0,1-3.472.948Zm3.035-7.342h1.583a2.24,2.24,0,0,0,1.418-.365,1.289,1.289,0,0,0,.424-1.049,1.358,1.358,0,0,0-.458-1.149,2.455,2.455,0,0,0-1.479-.351h-1.488Zm0,1.989v3.018h1.99a1.888,1.888,0,0,0,1.262-.376,1.318,1.318,0,0,0,.441-1.06,1.4,1.4,0,0,0-1.565-1.582Z" fill="#12263f"/>
      </g>
      <g id="Grupo_56339" data-name="Grupo 56339">
        <rect id="Rectángulo_14478" data-name="Rectángulo 14478" width="81.848" height="47.759" rx="2.708" transform="translate(1408.379 274.69)" fill="#4dd0e1"/>
      </g>
      <g id="Grupo_56340" data-name="Grupo 56340">
        <path id="Trazado_103134" data-name="Trazado 103134" d="M1451.384,302.159h-4.159l-.727,2.353h-3.243l4.618-12.591h2.854l4.652,12.591h-3.26Zm-3.433-2.343h2.706l-1.357-4.367Z" fill="#12263f"/>
      </g>
      <g id="Grupo_56344" data-name="Grupo 56344">
        <g id="Grupo_56341" data-name="Grupo 56341">
          <rect id="Rectángulo_14479" data-name="Rectángulo 14479" width="2" height="165.996" transform="translate(1494.607 87.462) rotate(-68.131)" fill="#4dd0e1"/>
        </g>
        <g id="Grupo_56343" data-name="Grupo 56343">
          <g id="Grupo_56342" data-name="Grupo 56342">
            <path id="Trazado_103135" data-name="Trazado 103135" d="M1645.818,152.45l9.87-1.411-6.156-7.844Z" fill="#4dd0e1"/>
          </g>
        </g>
      </g>
      <g id="Grupo_56348" data-name="Grupo 56348">
        <g id="Grupo_56345" data-name="Grupo 56345">
          <rect id="Rectángulo_14480" data-name="Rectángulo 14480" width="2" height="297.45" transform="translate(1494.768 87.511) rotate(-77.775)" fill="#4dd0e1"/>
        </g>
        <g id="Grupo_56347" data-name="Grupo 56347">
          <g id="Grupo_56346" data-name="Grupo 56346">
            <path id="Trazado_103136" data-name="Trazado 103136" d="M1783.2,154.084l9.495-3.044-7.383-6.7Z" fill="#4dd0e1"/>
          </g>
        </g>
      </g>
      <g id="Grupo_56352" data-name="Grupo 56352">
        <g id="Grupo_56349" data-name="Grupo 56349">
          <rect id="Rectángulo_14481" data-name="Rectángulo 14481" width="117.521" height="2" transform="translate(1551.519 256.207) rotate(-28.066)" fill="#feca2e"/>
        </g>
        <g id="Grupo_56351" data-name="Grupo 56351">
          <g id="Grupo_56350" data-name="Grupo 56350">
            <path id="Trazado_103137" data-name="Trazado 103137" d="M1550.932,252.007l-5.273,8.462,9.965.337Z" fill="#feca2e"/>
          </g>
        </g>
      </g>
      <g id="Grupo_56356" data-name="Grupo 56356">
        <g id="Grupo_56353" data-name="Grupo 56353">
          <rect id="Rectángulo_14482" data-name="Rectángulo 14482" width="1.999" height="121.957" transform="matrix(0.454, -0.891, 0.891, 0.454, 1655.234, 202.685)" fill="#feca2e"/>
        </g>
        <g id="Grupo_56355" data-name="Grupo 56355">
          <g id="Grupo_56354" data-name="Grupo 56354">
            <path id="Trazado_103138" data-name="Trazado 103138" d="M1760.763,260.989l9.957-.518-5.426-8.365Z" fill="#feca2e"/>
          </g>
        </g>
      </g>
      <g id="Grupo_56360" data-name="Grupo 56360">
        <g id="Grupo_56357" data-name="Grupo 56357">
          <rect id="Rectángulo_14483" data-name="Rectángulo 14483" width="2" height="207.389" transform="translate(1655.415 202.756) rotate(-74.129)" fill="#feca2e"/>
        </g>
        <g id="Grupo_56359" data-name="Grupo 56359">
          <g id="Grupo_56358" data-name="Grupo 56358">
            <path id="Trazado_103139" data-name="Trazado 103139" d="M1852.4,262.905l9.669-2.434-6.942-7.158Z" fill="#feca2e"/>
          </g>
        </g>
      </g>
      <g id="Grupo_56364" data-name="Grupo 56364">
        <g id="Grupo_56361" data-name="Grupo 56361">
          <rect id="Rectángulo_14484" data-name="Rectángulo 14484" width="348.203" height="2" transform="translate(1472.806 258.286) rotate(-9.499)" fill="#db9f09"/>
        </g>
        <g id="Grupo_56363" data-name="Grupo 56363">
          <g id="Grupo_56362" data-name="Grupo 56362">
            <path id="Trazado_103140" data-name="Trazado 103140" d="M1473.589,254.127l-7.693,6.343,9.339,3.492Z" fill="#db9f09"/>
          </g>
        </g>
      </g>
    </g>
    <g id="Grupo_86384" data-name="Grupo 86384">
      <path id="Trazado_116157" data-name="Trazado 116157" d="M-31.627-4.333a4.673,4.673,0,0,1-.721,2.36A4.35,4.35,0,0,1-34.2-.387a6.3,6.3,0,0,1-2.72.563,5.025,5.025,0,0,1-3.973-1.644,6.786,6.786,0,0,1-1.45-4.641v-.633a7.746,7.746,0,0,1,.655-3.292,4.961,4.961,0,0,1,1.885-2.18,5.26,5.26,0,0,1,2.848-.769,5.516,5.516,0,0,1,3.744,1.226A4.844,4.844,0,0,1-31.6-8.376h-3.076a2.292,2.292,0,0,0-.589-1.679,2.422,2.422,0,0,0-1.687-.51,1.843,1.843,0,0,0-1.687.861A5.536,5.536,0,0,0-39.2-6.952v.905a6.126,6.126,0,0,0,.514,2.927,1.882,1.882,0,0,0,1.771.879,2.369,2.369,0,0,0,1.626-.5,2.126,2.126,0,0,0,.6-1.591ZM-26.881,0h-3.076V-12.8h3.076ZM-14.7-12.8v8.376a4.814,4.814,0,0,1-.606,2.465,3.929,3.929,0,0,1-1.74,1.586,6.131,6.131,0,0,1-2.681.545A5.3,5.3,0,0,1-23.41-1.037a4.326,4.326,0,0,1-1.371-3.322V-12.8h3.1v8.5q.053,2.1,1.951,2.1a1.889,1.889,0,0,0,1.45-.527,2.465,2.465,0,0,0,.492-1.714V-12.8ZM-12.775,0V-12.8h4.122a6.064,6.064,0,0,1,3.05.769A5.406,5.406,0,0,1-3.489-9.857,6.554,6.554,0,0,1-2.72-6.715v.589a6.592,6.592,0,0,1-.743,3.151A5.429,5.429,0,0,1-5.555-.8a5.93,5.93,0,0,1-3.01.8ZM-9.69-10.415v8.042h1.072a2.4,2.4,0,0,0,2.039-.945,4.63,4.63,0,0,0,.712-2.808V-6.68a4.592,4.592,0,0,0-.712-2.795,2.442,2.442,0,0,0-2.074-.94ZM5.946-2.391H1.718L.98,0h-3.3L2.377-12.8h2.9L10.006,0H6.693ZM2.457-4.772H5.208L3.828-9.211ZM10.938,0V-12.8H15.06a6.064,6.064,0,0,1,3.05.769,5.406,5.406,0,0,1,2.114,2.171,6.554,6.554,0,0,1,.769,3.142v.589a6.592,6.592,0,0,1-.743,3.151A5.429,5.429,0,0,1,18.158-.8a5.93,5.93,0,0,1-3.01.8Zm3.085-10.415v8.042H15.1a2.4,2.4,0,0,0,2.039-.945,4.63,4.63,0,0,0,.712-2.808V-6.68a4.592,4.592,0,0,0-.712-2.795,2.442,2.442,0,0,0-2.074-.94ZM30.511-5.432H25.66v3.059h5.73V0H22.575V-12.8h8.833v2.382H25.66v2.7h4.852ZM39.248-3.4a1.268,1.268,0,0,0-.479-1.055,5.954,5.954,0,0,0-1.683-.782,16.147,16.147,0,0,1-1.969-.782q-2.487-1.222-2.487-3.357a3.011,3.011,0,0,1,.62-1.876A4.008,4.008,0,0,1,35-12.52a6.823,6.823,0,0,1,2.549-.453,5.969,5.969,0,0,1,2.474.492,3.917,3.917,0,0,1,1.7,1.4A3.661,3.661,0,0,1,42.333-9H39.256a1.547,1.547,0,0,0-.479-1.213,1.867,1.867,0,0,0-1.3-.431,2.106,2.106,0,0,0-1.305.365,1.119,1.119,0,0,0-.479.927,1.127,1.127,0,0,0,.527.892,6.65,6.65,0,0,0,1.854.826,11.36,11.36,0,0,1,2.18.918,3.663,3.663,0,0,1,2.074,3.3A3.125,3.125,0,0,1,41.067-.782,5.629,5.629,0,0,1,37.6.176a6.888,6.888,0,0,1-2.817-.558,4.247,4.247,0,0,1-1.9-1.529,3.985,3.985,0,0,1-.637-2.237h3.094a1.963,1.963,0,0,0,.532,1.516,2.513,2.513,0,0,0,1.727.488,1.985,1.985,0,0,0,1.208-.33A1.088,1.088,0,0,0,39.248-3.4Z" transform="translate(-6316 -3531)" fill="#12263f"/>
      <path id="Trazado_116158" data-name="Trazado 116158" d="M-50.8-3.48l2.549-9.316H-44.8L-49.109,0h-3.375l-4.271-12.8h3.419Zm14.862-1.951h-4.852v3.059h5.73V0h-8.815V-12.8h8.833v2.382h-5.748v2.7h4.852ZM-23.111,0h-3.067l-4.535-7.963V0H-33.8V-12.8h3.085l4.526,7.963V-12.8h3.076Zm1.951,0V-12.8h4.122a6.064,6.064,0,0,1,3.05.769,5.406,5.406,0,0,1,2.114,2.171A6.554,6.554,0,0,1-11.1-6.715v.589a6.592,6.592,0,0,1-.743,3.151A5.429,5.429,0,0,1-13.939-.8a5.93,5.93,0,0,1-3.01.8Zm3.085-10.415v8.042H-17a2.4,2.4,0,0,0,2.039-.945,4.63,4.63,0,0,0,.712-2.808V-6.68a4.592,4.592,0,0,0-.712-2.795,2.442,2.442,0,0,0-2.074-.94ZM-1.586-5.432H-6.438v3.059h5.73V0H-9.523V-12.8H-.69v2.382H-6.438v2.7h4.852ZM.549,0V-12.8H4.671a6.064,6.064,0,0,1,3.05.769A5.406,5.406,0,0,1,9.835-9.857,6.554,6.554,0,0,1,10.6-6.715v.589a6.592,6.592,0,0,1-.743,3.151A5.429,5.429,0,0,1,7.77-.8a5.93,5.93,0,0,1-3.01.8ZM3.634-10.415v8.042H4.707a2.4,2.4,0,0,0,2.039-.945,4.63,4.63,0,0,0,.712-2.808V-6.68a4.592,4.592,0,0,0-.712-2.795,2.442,2.442,0,0,0-2.074-.94Zm19.389,4.28a7.546,7.546,0,0,1-.694,3.313A5.132,5.132,0,0,1,20.355-.6a5.494,5.494,0,0,1-2.914.778,5.572,5.572,0,0,1-2.9-.751,5.123,5.123,0,0,1-1.973-2.149,7.329,7.329,0,0,1-.743-3.208v-.721a7.58,7.58,0,0,1,.69-3.318,5.119,5.119,0,0,1,1.978-2.219,5.533,5.533,0,0,1,2.931-.782,5.479,5.479,0,0,1,2.9.773A5.211,5.211,0,0,1,22.307-10a7.362,7.362,0,0,1,.716,3.274Zm-3.138-.536a5.381,5.381,0,0,0-.637-2.9,2.044,2.044,0,0,0-1.824-.989q-2.32,0-2.452,3.48l-.009.94a5.535,5.535,0,0,0,.624,2.892,2.041,2.041,0,0,0,1.854,1.011,2.016,2.016,0,0,0,1.8-.993,5.383,5.383,0,0,0,.642-2.856Zm9.483,2.145H27.7V0H24.614V-12.8H29.65a5.621,5.621,0,0,1,3.56,1.01,3.421,3.421,0,0,1,1.283,2.853,4.155,4.155,0,0,1-.541,2.213A3.837,3.837,0,0,1,32.26-5.3L34.932-.132V0h-3.3ZM27.7-6.9H29.65a1.751,1.751,0,0,0,1.323-.463,1.788,1.788,0,0,0,.444-1.291,1.809,1.809,0,0,0-.448-1.3,1.735,1.735,0,0,0-1.318-.471H27.7ZM44.292-5.432H39.441v3.059h5.73V0H36.356V-12.8h8.833v2.382H39.441v2.7h4.852ZM53.029-3.4a1.268,1.268,0,0,0-.479-1.055,5.954,5.954,0,0,0-1.683-.782A16.147,16.147,0,0,1,48.9-6.021q-2.487-1.222-2.487-3.357a3.011,3.011,0,0,1,.62-1.876,4.008,4.008,0,0,1,1.753-1.266,6.823,6.823,0,0,1,2.549-.453,5.969,5.969,0,0,1,2.474.492,3.917,3.917,0,0,1,1.7,1.4A3.661,3.661,0,0,1,56.114-9H53.038a1.547,1.547,0,0,0-.479-1.213,1.867,1.867,0,0,0-1.3-.431,2.106,2.106,0,0,0-1.305.365,1.119,1.119,0,0,0-.479.927,1.127,1.127,0,0,0,.527.892,6.65,6.65,0,0,0,1.854.826,11.36,11.36,0,0,1,2.18.918,3.663,3.663,0,0,1,2.074,3.3A3.125,3.125,0,0,1,54.848-.782a5.629,5.629,0,0,1-3.472.958A6.888,6.888,0,0,1,48.56-.382a4.247,4.247,0,0,1-1.9-1.529,3.985,3.985,0,0,1-.637-2.237h3.094a1.963,1.963,0,0,0,.532,1.516,2.513,2.513,0,0,0,1.727.488,1.985,1.985,0,0,0,1.208-.33A1.088,1.088,0,0,0,53.029-3.4Z" transform="translate(-6324 -3415)" fill="#12263f"/>
      <path id="Trazado_116159" data-name="Trazado 116159" d="M-48.867-4.342V0h-3.085V-12.8h5.106a5.948,5.948,0,0,1,2.6.541A4.074,4.074,0,0,1-42.5-10.718a4.2,4.2,0,0,1,.62,2.263,3.7,3.7,0,0,1-1.34,2.993A5.561,5.561,0,0,1-46.9-4.342Zm0-2.382h2.021a1.906,1.906,0,0,0,1.367-.448,1.665,1.665,0,0,0,.47-1.266,2.059,2.059,0,0,0-.483-1.433,1.712,1.712,0,0,0-1.318-.545h-2.057Zm13.386,2.2h-1.67V0h-3.085V-12.8H-35.2a5.621,5.621,0,0,1,3.56,1.01,3.421,3.421,0,0,1,1.283,2.853A4.155,4.155,0,0,1-30.9-6.721,3.837,3.837,0,0,1-32.59-5.3l2.672,5.167V0h-3.3ZM-37.151-6.9H-35.2a1.751,1.751,0,0,0,1.323-.463,1.788,1.788,0,0,0,.444-1.291,1.809,1.809,0,0,0-.448-1.3,1.735,1.735,0,0,0-1.318-.471h-1.951Zm19.494.765a7.546,7.546,0,0,1-.694,3.313A5.132,5.132,0,0,1-20.325-.6a5.494,5.494,0,0,1-2.914.778,5.572,5.572,0,0,1-2.9-.751,5.123,5.123,0,0,1-1.973-2.149,7.329,7.329,0,0,1-.743-3.208v-.721a7.58,7.58,0,0,1,.69-3.318,5.119,5.119,0,0,1,1.978-2.219,5.533,5.533,0,0,1,2.931-.782,5.479,5.479,0,0,1,2.9.773A5.211,5.211,0,0,1-18.374-10a7.362,7.362,0,0,1,.716,3.274Zm-3.138-.536a5.381,5.381,0,0,0-.637-2.9,2.044,2.044,0,0,0-1.824-.989q-2.32,0-2.452,3.48l-.009.94a5.535,5.535,0,0,0,.624,2.892,2.041,2.041,0,0,0,1.854,1.011,2.016,2.016,0,0,0,1.8-.993,5.383,5.383,0,0,0,.642-2.856ZM-16.066,0V-12.8h4.122a6.064,6.064,0,0,1,3.05.769A5.406,5.406,0,0,1-6.781-9.857a6.554,6.554,0,0,1,.769,3.142v.589a6.592,6.592,0,0,1-.743,3.151A5.429,5.429,0,0,1-8.846-.8a5.93,5.93,0,0,1-3.01.8Zm3.085-10.415v8.042h1.072A2.4,2.4,0,0,0-9.87-3.318a4.63,4.63,0,0,0,.712-2.808V-6.68A4.592,4.592,0,0,0-9.87-9.475a2.442,2.442,0,0,0-2.074-.94ZM5.607-12.8v8.376A4.814,4.814,0,0,1,5-1.956,3.929,3.929,0,0,1,3.261-.369,6.131,6.131,0,0,1,.58.176,5.3,5.3,0,0,1-3.1-1.037,4.326,4.326,0,0,1-4.474-4.359V-12.8h3.1v8.5Q-1.318-2.2.58-2.2a1.889,1.889,0,0,0,1.45-.527,2.465,2.465,0,0,0,.492-1.714V-12.8ZM17.886-4.333a4.673,4.673,0,0,1-.721,2.36,4.35,4.35,0,0,1-1.85,1.586,6.3,6.3,0,0,1-2.72.563A5.025,5.025,0,0,1,8.622-1.468a6.786,6.786,0,0,1-1.45-4.641v-.633a7.746,7.746,0,0,1,.655-3.292,4.961,4.961,0,0,1,1.885-2.18,5.26,5.26,0,0,1,2.848-.769A5.516,5.516,0,0,1,16.3-11.755a4.844,4.844,0,0,1,1.608,3.379H14.836a2.292,2.292,0,0,0-.589-1.679,2.422,2.422,0,0,0-1.687-.51,1.843,1.843,0,0,0-1.687.861,5.536,5.536,0,0,0-.562,2.751v.905a6.126,6.126,0,0,0,.514,2.927,1.882,1.882,0,0,0,1.771.879,2.369,2.369,0,0,0,1.626-.5,2.126,2.126,0,0,0,.6-1.591Zm11.25-6.082H25.295V0H22.21V-10.415H18.439V-12.8h10.7Zm11.892,4.28a7.546,7.546,0,0,1-.694,3.313A5.132,5.132,0,0,1,38.36-.6a5.494,5.494,0,0,1-2.914.778,5.572,5.572,0,0,1-2.9-.751,5.123,5.123,0,0,1-1.973-2.149,7.329,7.329,0,0,1-.743-3.208v-.721a7.58,7.58,0,0,1,.69-3.318A5.119,5.119,0,0,1,32.5-12.19a5.533,5.533,0,0,1,2.931-.782,5.479,5.479,0,0,1,2.9.773A5.211,5.211,0,0,1,40.311-10a7.362,7.362,0,0,1,.716,3.274ZM37.89-6.671a5.381,5.381,0,0,0-.637-2.9,2.044,2.044,0,0,0-1.824-.989q-2.32,0-2.452,3.48l-.009.94a5.535,5.535,0,0,0,.624,2.892,2.041,2.041,0,0,0,1.854,1.011,2.016,2.016,0,0,0,1.8-.993,5.383,5.383,0,0,0,.642-2.856ZM49.219-3.4a1.268,1.268,0,0,0-.479-1.055,5.954,5.954,0,0,0-1.683-.782,16.147,16.147,0,0,1-1.969-.782Q42.6-7.242,42.6-9.378a3.011,3.011,0,0,1,.62-1.876,4.008,4.008,0,0,1,1.753-1.266,6.823,6.823,0,0,1,2.549-.453A5.969,5.969,0,0,1,50-12.48a3.917,3.917,0,0,1,1.7,1.4A3.661,3.661,0,0,1,52.3-9H49.228a1.547,1.547,0,0,0-.479-1.213,1.867,1.867,0,0,0-1.3-.431,2.106,2.106,0,0,0-1.305.365,1.119,1.119,0,0,0-.479.927,1.127,1.127,0,0,0,.527.892,6.65,6.65,0,0,0,1.854.826,11.36,11.36,0,0,1,2.18.918,3.663,3.663,0,0,1,2.074,3.3A3.125,3.125,0,0,1,51.038-.782a5.629,5.629,0,0,1-3.472.958A6.888,6.888,0,0,1,44.75-.382a4.247,4.247,0,0,1-1.9-1.529,3.985,3.985,0,0,1-.637-2.237h3.094a1.963,1.963,0,0,0,.532,1.516,2.513,2.513,0,0,0,1.727.488,1.985,1.985,0,0,0,1.208-.33A1.088,1.088,0,0,0,49.219-3.4Z" transform="translate(-6326 -3300)" fill="#12263f"/>
    </g>
  </g>
</svg>
