<svg xmlns="http://www.w3.org/2000/svg" width="92" height="92" viewBox="0 0 92 92">
  <g id="Grupo_86380" data-name="Grupo 86380" transform="translate(-210 -210)">
    <g id="Grupo_86382" data-name="Grupo 86382">
      <circle id="Elipse_5014" data-name="Elipse 5014" cx="46" cy="46" r="46" transform="translate(210 210)" fill="#ffc63b"/>
      <circle id="Elipse_5015" data-name="Elipse 5015" cx="39.292" cy="39.292" r="39.292" transform="translate(216.708 216.708)" fill="#ffd13b"/>
      <path id="Trazado_116113" data-name="Trazado 116113" d="M280.15,246.48H257.9v-4.221h7.9a.781.781,0,0,0,0-1.561h-1.472a.528.528,0,0,0,.528-.528V228.737a.528.528,0,0,0-.528-.529H248.136a.529.529,0,0,0-.528.529V240.17a.528.528,0,0,0,.528.528h-1.472a.781.781,0,0,0,0,1.561h7.9v4.221H231.85a1.917,1.917,0,0,0-1.917,1.917v21.339a1.916,1.916,0,0,0,1.917,1.916H239.8v3.408h-3.346a1.381,1.381,0,0,0-1.381,1.382v9.88a1.381,1.381,0,0,0,1.381,1.382h10.06a1.381,1.381,0,0,0,1.381-1.382v-9.88a1.382,1.382,0,0,0-1.381-1.382h-3.374v-3.408h26.17v3.408h-3.374a1.382,1.382,0,0,0-1.382,1.382v9.88a1.382,1.382,0,0,0,1.382,1.382H276a1.382,1.382,0,0,0,1.382-1.382v-9.88A1.382,1.382,0,0,0,276,275.06h-3.346v-3.408h7.495a1.916,1.916,0,0,0,1.917-1.916V248.4a1.917,1.917,0,0,0-1.917-1.917Z" fill="#382b73"/>
      <path id="Trazado_116114" data-name="Trazado 116114" d="M256.23,231.94a1.67,1.67,0,0,1,1.67,1.67v22.6a1.67,1.67,0,1,1-3.34,0v-22.6A1.669,1.669,0,0,1,256.23,231.94Z" fill="#fff"/>
      <path id="Trazado_116115" data-name="Trazado 116115" d="M243.563,254.539H268.9a3.762,3.762,0,0,1,3.758,3.758v15.31a1.671,1.671,0,0,1-3.341,0V258.3a.418.418,0,0,0-.417-.418H243.563a.418.418,0,0,0-.418.418v15.31a1.67,1.67,0,1,1-3.34,0V258.3A3.762,3.762,0,0,1,243.563,254.539Z" fill="#fff"/>
      <path id="Trazado_116116" data-name="Trazado 116116" d="M241.475,275.277a1.67,1.67,0,0,0,1.67-1.67V258.3a.419.419,0,0,1,.418-.418H268.9a.418.418,0,0,1,.417.418v15.31a1.67,1.67,0,0,0,1.67,1.67V258.3a2.087,2.087,0,0,0-2.087-2.087H243.563a2.087,2.087,0,0,0-2.088,2.087Z" fill="#d1d3d4"/>
      <path id="Trazado_116117" data-name="Trazado 116117" d="M280.15,268.97h-48.3a1.918,1.918,0,0,1-1.917-1.917V248.014a1.917,1.917,0,0,1,1.917-1.917h48.3a1.917,1.917,0,0,1,1.917,1.917v19.039A1.918,1.918,0,0,1,280.15,268.97Z" fill="#e43d91"/>
      <path id="Trazado_116118" data-name="Trazado 116118" d="M280.15,266.67h-48.3a1.918,1.918,0,0,1-1.917-1.917V245.714a1.917,1.917,0,0,1,1.917-1.917h48.3a1.917,1.917,0,0,1,1.917,1.917v19.039A1.918,1.918,0,0,1,280.15,266.67Z" fill="#ef5a9d"/>
      <path id="Trazado_116119" data-name="Trazado 116119" d="M247.174,249.627H235.961a.766.766,0,0,0-.766.767v11.212a.766.766,0,0,0,.766.767h11.213a.766.766,0,0,0,.766-.767V250.394A.766.766,0,0,0,247.174,249.627Z" fill="#e43d91"/>
      <path id="Trazado_116120" data-name="Trazado 116120" d="M276.5,249.627H265.286a.766.766,0,0,0-.766.767v11.212a.766.766,0,0,0,.766.767H276.5a.766.766,0,0,0,.766-.767V250.394A.766.766,0,0,0,276.5,249.627Z" fill="#e43d91"/>
      <path id="Trazado_116121" data-name="Trazado 116121" d="M247.173,261.606H235.961a.766.766,0,0,1-.767-.766V249.627a.766.766,0,0,1,.767-.767h11.212a.766.766,0,0,1,.767.767V260.84A.766.766,0,0,1,247.173,261.606Z" fill="#1caee4"/>
      <path id="Trazado_116122" data-name="Trazado 116122" d="M247.173,260.014H235.961a.768.768,0,0,1-.767-.767v1.593a.767.767,0,0,0,.767.766h11.212a.766.766,0,0,0,.767-.766v-1.593A.767.767,0,0,1,247.173,260.014Z" fill="#009add"/>
      <path id="Trazado_116123" data-name="Trazado 116123" d="M242.957,253.772h-4.7a.959.959,0,1,1,0-1.917h4.7a.959.959,0,0,1,0,1.917Z" fill="#fede3a"/>
      <path id="Trazado_116124" data-name="Trazado 116124" d="M244.881,257.845h-6.628a.959.959,0,1,1,0-1.917h6.628a.959.959,0,1,1,0,1.917Z" fill="#fede3a"/>
      <path id="Trazado_116125" data-name="Trazado 116125" d="M276.5,261.606H265.286a.766.766,0,0,1-.766-.766V249.627a.766.766,0,0,1,.766-.767H276.5a.766.766,0,0,1,.766.767V260.84A.766.766,0,0,1,276.5,261.606Z" fill="#1caee4"/>
      <path id="Trazado_116126" data-name="Trazado 116126" d="M276.5,260.014H265.286a.767.767,0,0,1-.766-.767v1.593a.766.766,0,0,0,.766.766H276.5a.766.766,0,0,0,.766-.766v-1.593A.767.767,0,0,1,276.5,260.014Z" fill="#009add"/>
      <path id="Trazado_116127" data-name="Trazado 116127" d="M272.282,253.772h-4.7a.959.959,0,0,1,0-1.917h4.7a.959.959,0,0,1,0,1.917Z" fill="#fede3a"/>
      <path id="Trazado_116128" data-name="Trazado 116128" d="M274.206,257.845h-6.628a.959.959,0,1,1,0-1.917h6.628a.959.959,0,1,1,0,1.917Z" fill="#fede3a"/>
      <path id="Trazado_116129" data-name="Trazado 116129" d="M262.6,254.857l-.005-.03c-.005-.023-.012-.046-.019-.069h0l-.012-.031-.012-.029-.01-.02a.594.594,0,0,0-.377-.3l-1.414-.366.557-.946a.592.592,0,0,0,.081-.289v-.739a.587.587,0,0,0-.1-.364h0l-.011-.017-.008-.01,0,0a.6.6,0,0,0-.047-.054l-.949-.948a.59.59,0,0,0-.459-.172.577.577,0,0,0-.259.08l-1.486.875q-.075-.033-.153-.063l-.432-1.67a.589.589,0,0,0-.3-.376l-.029-.015-.015-.006-.034-.013h0a.6.6,0,0,0-.069-.02l-.031-.005a.567.567,0,0,0-.093-.007h-1.341a.527.527,0,0,0-.089.007l-.034.006a.438.438,0,0,0-.062.017l-.031.011h0l-.036.015-.019.009a.593.593,0,0,0-.3.377l-.432,1.669c-.051.02-.1.041-.153.064l-1.485-.875a.6.6,0,0,0-.259-.081.6.6,0,0,0-.46.172l-.948.948a.576.576,0,0,0-.047.053l0,.006-.007.009-.012.017h0a.6.6,0,0,0-.1.364v.739a.592.592,0,0,0,.081.289l.557.946-1.415.366a.586.586,0,0,0-.358.268l0,0-.016.03a.6.6,0,0,0-.034.079h0a.59.59,0,0,0-.019.069l-.005.031a.561.561,0,0,0-.008.092v2.1a.591.591,0,0,0,.444.572l1.414.367-.557.945a.6.6,0,0,0-.081.331v.7a.6.6,0,0,0,.173.443l.949.949a.593.593,0,0,0,.718.092l1.486-.876c.05.022.1.043.152.063l.432,1.67a.593.593,0,0,0,.573.443H256.9a.591.591,0,0,0,.573-.443l.433-1.67c.051-.02.1-.041.151-.063l1.487.876a.592.592,0,0,0,.718-.092l.948-.949a.6.6,0,0,0,.173-.443v-.7a.584.584,0,0,0-.082-.33l-.556-.946,1.414-.366a.592.592,0,0,0,.444-.573v-2.1a.584.584,0,0,0-.008-.093Zm-8.469.763a2.1,2.1,0,1,1,2.1,2.1A2.1,2.1,0,0,1,254.126,255.62Z" fill="#e43d91"/>
      <path id="Trazado_116130" data-name="Trazado 116130" d="M261.383,251.28a.065.065,0,0,1,0-.014c0-.007,0-.015,0-.022v-.038a.589.589,0,0,0-.17-.384l-.949-.949a.592.592,0,0,0-.718-.091l-1.486.875c-.05-.022-.1-.043-.152-.062l-.432-1.671a.593.593,0,0,0-.573-.443H255.56a.591.591,0,0,0-.573.443l-.433,1.671c-.051.019-.1.04-.151.062l-1.487-.875a.592.592,0,0,0-.718.091l-.948.949a.584.584,0,0,0-.17.384l0,.038v.765a.6.6,0,0,0,.081.29l.557.945-1.415.366a.593.593,0,0,0-.443.573v2.1a.593.593,0,0,0,.444.573l1.414.366-.556.945a.58.58,0,0,0-.081.3v.735a.587.587,0,0,0,.173.443l.948.949a.592.592,0,0,0,.719.092l1.486-.875.151.062.433,1.67a.592.592,0,0,0,.573.444H256.9a.593.593,0,0,0,.573-.444l.432-1.67.151-.062,1.487.875a.59.59,0,0,0,.718-.092l.949-.949a.59.59,0,0,0,.172-.443v-.7a.075.075,0,0,0,0-.015.075.075,0,0,0,0-.015v-.006a.59.59,0,0,0-.081-.3l-.557-.945,1.415-.366a.593.593,0,0,0,.443-.573v-2.1a.593.593,0,0,0-.443-.573l-1.415-.366.557-.945a.6.6,0,0,0,.081-.29v-.729Zm-5.153,5.686a2.112,2.112,0,1,1,2.112-2.112A2.115,2.115,0,0,1,256.23,256.966Z" fill="#e7ad27"/>
      <path id="Trazado_116131" data-name="Trazado 116131" d="M256.23,250.276a4.577,4.577,0,1,0,4.577,4.578A4.578,4.578,0,0,0,256.23,250.276Zm0,6.681a2.1,2.1,0,1,1,2.1-2.1A2.1,2.1,0,0,1,256.23,256.957Z" fill="#fddd3a"/>
      <path id="Trazado_116132" data-name="Trazado 116132" d="M262.159,253.611l-1.756-.455a.424.424,0,0,0-.049-.01c.01-.014.019-.028.028-.042l.92-1.564a.59.59,0,0,0-.091-.718l-.948-.948a.592.592,0,0,0-.719-.092l-1.563.92-.042.028c0-.017-.006-.033-.01-.049l-.455-1.756a.592.592,0,0,0-.573-.443H255.56a.592.592,0,0,0-.573.443l-.454,1.756a.429.429,0,0,0-.011.049l-.042-.028-1.563-.92a.592.592,0,0,0-.719.092l-.948.948a.592.592,0,0,0-.092.718l.92,1.564.028.042a.47.47,0,0,0-.049.01l-1.756.455a.591.591,0,0,0-.444.572v1.342a.591.591,0,0,0,.444.572l1.756.455a.478.478,0,0,0,.049.01c-.009.014-.019.028-.028.043l-.92,1.563a.59.59,0,0,0,.092.718l.948.948a.592.592,0,0,0,.719.092l1.563-.92c.015-.009.028-.018.042-.028a.386.386,0,0,0,.011.049l.454,1.756a.592.592,0,0,0,.573.443H256.9a.592.592,0,0,0,.573-.443l.455-1.756c0-.016.007-.033.01-.049.013.01.028.019.042.028l1.563.92a.592.592,0,0,0,.719-.092l.948-.948a.59.59,0,0,0,.091-.718l-.92-1.563c-.009-.015-.018-.029-.028-.043a.39.39,0,0,0,.049-.01l1.756-.455a.591.591,0,0,0,.444-.572v-1.342a.591.591,0,0,0-.444-.572Zm-2.706,2.875-1.591,1.592a.591.591,0,0,0-.165.319.579.579,0,0,0-.342-.109H255.1a.576.576,0,0,0-.342.109.591.591,0,0,0-.165-.319l-1.592-1.592a.582.582,0,0,0-.319-.164.59.59,0,0,0,.109-.342v-2.251a.588.588,0,0,0-.109-.342.577.577,0,0,0,.319-.165l1.592-1.591a.278.278,0,0,1,.507-.21h2.25a.278.278,0,0,1,.507.21l1.591,1.591a.279.279,0,0,1,.211.507v2.251a.278.278,0,0,1-.211.506Z" fill="#fddd3a"/>
      <path id="Trazado_116133" data-name="Trazado 116133" d="M256.23,258.685a3.831,3.831,0,1,1,3.831-3.831A3.836,3.836,0,0,1,256.23,258.685Zm0-7.063a3.232,3.232,0,1,0,3.231,3.232,3.235,3.235,0,0,0-3.231-3.232Z" fill="#fff235"/>
      <path id="Trazado_116134" data-name="Trazado 116134" d="M256.23,258.086a3.232,3.232,0,1,1,3.231-3.232A3.235,3.235,0,0,1,256.23,258.086Zm0-5.344a2.112,2.112,0,1,0,2.112,2.112A2.115,2.115,0,0,0,256.23,252.742Z" fill="#f6ca14"/>
      <path id="Trazado_116135" data-name="Trazado 116135" d="M264.323,238.015H248.136a.529.529,0,0,1-.528-.528V226.053a.529.529,0,0,1,.528-.528h16.187a.528.528,0,0,1,.528.528v11.434A.528.528,0,0,1,264.323,238.015Z" fill="#009add"/>
      <circle id="Elipse_5016" data-name="Elipse 5016" cx="0.23" cy="0.23" r="0.23" transform="translate(256 225.828)" fill="#136da0"/>
      <path id="Trazado_116136" data-name="Trazado 116136" d="M265.8,239.576H246.664a.781.781,0,0,1,0-1.561H265.8a.781.781,0,0,1,0,1.561Z" fill="#27c1e6"/>
      <path id="Trazado_116137" data-name="Trazado 116137" d="M266.576,238.8a.877.877,0,0,0-.01-.116.821.821,0,0,0-.04-.157.653.653,0,0,1-.591.485h-19.41a.653.653,0,0,1-.591-.485.755.755,0,0,0-.041.157.878.878,0,0,0-.009.116.78.78,0,0,0,.78.78H265.8A.781.781,0,0,0,266.576,238.8Z" fill="#009add"/>
      <path id="Trazado_116138" data-name="Trazado 116138" d="M257.94,237.551h-3.42a.154.154,0,0,1-.154-.155v-.032a.154.154,0,0,1,.154-.154h3.42a.154.154,0,0,1,.154.154v.032A.154.154,0,0,1,257.94,237.551Z" fill="#1caee4"/>
      <path id="Trazado_116139" data-name="Trazado 116139" d="M263.591,236.685H248.868a.264.264,0,0,1-.264-.264v-9.566a.264.264,0,0,1,.264-.264h14.723a.264.264,0,0,1,.264.264v9.566A.264.264,0,0,1,263.591,236.685Z" fill="#fede3a"/>
      <path id="Trazado_116140" data-name="Trazado 116140" d="M249.786,226.591h-.895a.286.286,0,0,0-.287.286v9.56a.248.248,0,0,0,.248.248h.934Z" fill="#e7ad27"/>
      <path id="Trazado_116141" data-name="Trazado 116141" d="M262.674,226.591h.895a.286.286,0,0,1,.286.286v9.56a.248.248,0,0,1-.247.248h-.934Z" fill="#e7ad27"/>
      <path id="Trazado_116142" data-name="Trazado 116142" d="M263.608,226.591H248.852a.247.247,0,0,0-.248.247v.844h15.251v-.844A.247.247,0,0,0,263.608,226.591Z" fill="#e7ad27"/>
      <path id="Trazado_116143" data-name="Trazado 116143" d="M246.519,285.021h-10.06a1.382,1.382,0,0,1-1.382-1.382v-9.88a1.381,1.381,0,0,1,1.382-1.381h10.06a1.381,1.381,0,0,1,1.382,1.381v9.88a1.384,1.384,0,0,1-1.382,1.382Z" fill="#1caee4"/>
      <g id="Grupo_86380-2" data-name="Grupo 86380">
        <path id="Trazado_116144" data-name="Trazado 116144" d="M241.414,276.219h-3.922a.561.561,0,1,1,0-1.121h3.922a.561.561,0,1,1,0,1.121Z" fill="#fff"/>
        <path id="Trazado_116145" data-name="Trazado 116145" d="M245.486,276.219a.561.561,0,1,1,.56-.561A.561.561,0,0,1,245.486,276.219Z" fill="#fff"/>
        <path id="Trazado_116146" data-name="Trazado 116146" d="M241.414,282.219h-3.922a.561.561,0,1,1,0-1.121h3.922a.561.561,0,1,1,0,1.121Z" fill="#fff"/>
        <path id="Trazado_116147" data-name="Trazado 116147" d="M245.486,282.219a.561.561,0,1,1,.56-.561A.561.561,0,0,1,245.486,282.219Z" fill="#fff"/>
      </g>
      <path id="Trazado_116148" data-name="Trazado 116148" d="M235.077,278.3H247.9v1.12H235.077Z" fill="#009add"/>
      <path id="Trazado_116149" data-name="Trazado 116149" d="M247.876,283.9H235.1a1.382,1.382,0,0,0,1.357,1.121h10.059A1.384,1.384,0,0,0,247.876,283.9Z" fill="#009add"/>
      <path id="Trazado_116150" data-name="Trazado 116150" d="M276,285.021H265.941a1.382,1.382,0,0,1-1.382-1.382v-9.88a1.382,1.382,0,0,1,1.382-1.381H276a1.381,1.381,0,0,1,1.382,1.381v9.88A1.382,1.382,0,0,1,276,285.021Z" fill="#1caee4"/>
      <g id="Grupo_86381" data-name="Grupo 86381">
        <path id="Trazado_116151" data-name="Trazado 116151" d="M270.9,276.219h-3.922a.561.561,0,1,1,0-1.121H270.9a.561.561,0,0,1,0,1.121Z" fill="#fff"/>
        <path id="Trazado_116152" data-name="Trazado 116152" d="M274.968,276.219a.561.561,0,1,1,.561-.561A.561.561,0,0,1,274.968,276.219Z" fill="#fff"/>
        <path id="Trazado_116153" data-name="Trazado 116153" d="M270.9,282.219h-3.922a.561.561,0,1,1,0-1.121H270.9a.561.561,0,0,1,0,1.121Z" fill="#fff"/>
        <path id="Trazado_116154" data-name="Trazado 116154" d="M274.968,282.219a.561.561,0,1,1,.561-.561A.561.561,0,0,1,274.968,282.219Z" fill="#fff"/>
      </g>
      <path id="Trazado_116155" data-name="Trazado 116155" d="M264.559,278.3h12.823v1.12H264.559Z" fill="#009add"/>
      <path id="Trazado_116156" data-name="Trazado 116156" d="M277.357,283.9H264.584a1.382,1.382,0,0,0,1.357,1.121H276A1.382,1.382,0,0,0,277.357,283.9Z" fill="#009add"/>
    </g>
  </g>
</svg>
