<svg xmlns="http://www.w3.org/2000/svg" width="55.616" height="55.282" viewBox="0 0 55.616 55.282">
  <g id="Grupo_56403" data-name="Grupo 56403" transform="translate(-86.692 -87.741)">
    <path id="Trazado_103170" data-name="Trazado 103170" d="M109.958,305.227H88.953a2.23,2.23,0,0,1-2.254-2.2V287.711a2.23,2.23,0,0,1,2.255-2.2h21a2.231,2.231,0,0,1,2.256,2.2v15.316A2.231,2.231,0,0,1,109.958,305.227ZM88.953,287.193a.548.548,0,0,0-.573.518v15.316a.548.548,0,0,0,.573.518h21.005a.549.549,0,0,0,.574-.518V287.711a.549.549,0,0,0-.574-.518Z" transform="translate(-0.006 -165.288)" fill="#4dd0e1"/>
    <path id="Trazado_103171" data-name="Trazado 103171" d="M111.367,372.882H87.533a.841.841,0,1,1,0-1.682h23.834a.841.841,0,1,1,0,1.682Z" transform="translate(0 -236.903)" fill="#4dd0e1"/>
    <path id="Trazado_103172" data-name="Trazado 103172" d="M151.395,400.077h-4.252a.841.841,0,0,1-.841-.841v-3.083a.841.841,0,0,1,.841-.841h4.252a.841.841,0,0,1,.841.841v3.083A.841.841,0,0,1,151.395,400.077Zm-3.411-1.682h2.57v-1.4h-2.57Z" transform="translate(-49.819 -257.054)" fill="#4dd0e1"/>
    <path id="Trazado_103173" data-name="Trazado 103173" d="M145.133,415.767h-7.315a.841.841,0,1,1,0-1.682h7.315a.841.841,0,1,1,0,1.682Z" transform="translate(-42.026 -272.744)" fill="#4dd0e1"/>
    <path id="Trazado_103174" data-name="Trazado 103174" d="M293.215,305.227H272.21a2.231,2.231,0,0,1-2.256-2.2V287.711a2.231,2.231,0,0,1,2.256-2.2h21.005a2.23,2.23,0,0,1,2.254,2.2v15.316A2.23,2.23,0,0,1,293.215,305.227ZM272.21,287.193a.549.549,0,0,0-.574.518v15.316a.549.549,0,0,0,.574.518h21.005a.548.548,0,0,0,.573-.518V287.711a.548.548,0,0,0-.573-.518Z" transform="translate(-153.162 -165.288)" fill="#4dd0e1"/>
    <path id="Trazado_103175" data-name="Trazado 103175" d="M294.629,372.882H270.795a.841.841,0,1,1,0-1.682h23.834a.841.841,0,1,1,0,1.682Z" transform="translate(-153.162 -236.903)" fill="#4dd0e1"/>
    <path id="Trazado_103176" data-name="Trazado 103176" d="M334.664,400.077h-4.252a.841.841,0,0,1-.841-.841v-3.083a.841.841,0,0,1,.841-.841h4.252a.841.841,0,0,1,.841.841v3.083A.841.841,0,0,1,334.664,400.077Zm-3.411-1.682h2.57v-1.4h-2.57Z" transform="translate(-202.988 -257.054)" fill="#4dd0e1"/>
    <path id="Trazado_103177" data-name="Trazado 103177" d="M328.4,415.767h-7.315a.841.841,0,0,1,0-1.682H328.4a.841.841,0,1,1,0,1.682Z" transform="translate(-195.194 -272.744)" fill="#4dd0e1"/>
    <path id="Trazado_103178" data-name="Trazado 103178" d="M190.188,251.175a.841.841,0,0,1-.841-.841V245.2a1.1,1.1,0,0,0-1.1-1.1H162.031a1.1,1.1,0,0,0-1.1,1.1v5.134a.841.841,0,0,1-1.682,0V245.2a2.787,2.787,0,0,1,2.785-2.785h26.212a2.787,2.787,0,0,1,2.785,2.785v5.134A.841.841,0,0,1,190.188,251.175Z" transform="translate(-60.637 -129.27)" fill="#4dd0e1"/>
    <path id="Trazado_103179" data-name="Trazado 103179" d="M251.721,208.381a.841.841,0,0,1-.841-.841v-7.019a.841.841,0,1,1,1.682,0v7.019A.841.841,0,0,1,251.721,208.381Z" transform="translate(-137.221 -93.554)" fill="#4dd0e1"/>
    <path id="Trazado_103180" data-name="Trazado 103180" d="M181.923,144.752H151.748a2.439,2.439,0,0,1-2.435-2.435v-7.935a2.439,2.439,0,0,1,2.435-2.435h30.175a2.439,2.439,0,0,1,2.435,2.435v7.931A2.439,2.439,0,0,1,181.923,144.752Zm-30.175-11.119a.755.755,0,0,0-.753.754v7.931a.755.755,0,0,0,.753.753h30.175a.755.755,0,0,0,.753-.753v-7.935a.755.755,0,0,0-.753-.753Z" transform="translate(-52.336 -36.945)" fill="#4dd0e1"/>
    <path id="Trazado_103181" data-name="Trazado 103181" d="M175.795,108.6a.841.841,0,0,1-.841-.841v-4.925a.841.841,0,0,1,1.682,0v4.925A.841.841,0,0,1,175.795,108.6Z" transform="translate(-73.765 -11.909)" fill="#4dd0e1"/>
    <path id="Trazado_103182" data-name="Trazado 103182" d="M158.11,91.861a.833.833,0,0,1-.594-.247,2.578,2.578,0,0,1,0-3.637.841.841,0,0,1,1.188,1.19.9.9,0,0,0,0,1.259.841.841,0,0,1-.594,1.435Z" transform="translate(-58.564)" fill="#4dd0e1"/>
    <path id="Trazado_103183" data-name="Trazado 103183" d="M190.919,91.861a.841.841,0,0,1-.594-1.435.9.9,0,0,0,0-1.259.841.841,0,0,1,1.188-1.19,2.579,2.579,0,0,1,0,3.637.833.833,0,0,1-.594.247Z" transform="translate(-86.406 0)" fill="#4dd0e1"/>
    <path id="Trazado_103184" data-name="Trazado 103184" d="M327.749,166.369H327.2a.841.841,0,1,1,0-1.682h.546a.841.841,0,1,1,0,1.682Z" transform="translate(-200.306 -64.308)" fill="#4dd0e1"/>
    <path id="Trazado_103185" data-name="Trazado 103185" d="M300.642,166.369h-.547a.841.841,0,1,1,0-1.682h.547a.841.841,0,1,1,0,1.682Z" transform="translate(-177.65 -64.308)" fill="#4dd0e1"/>
  </g>
</svg>
