<svg xmlns="http://www.w3.org/2000/svg" width="48" height="48" viewBox="0 0 48 48">
  <path id="Trazado_103196" data-name="Trazado 103196" d="M270.71,259.91v-2.362a2.325,2.325,0,0,0-2.323-2.322H256.774v-3.1h10.839a5.414,5.414,0,0,0,.774-10.774v-.065a6.191,6.191,0,0,0-9.152-5.439,8.5,8.5,0,0,0-15.622,4.665c0,.278.019.554.046.829a5.416,5.416,0,0,0,.728,10.784h10.839v3.1H242.839a2.325,2.325,0,0,0-2.323,2.322v.775h-6.193A2.325,2.325,0,0,0,232,260.645v1.549a2.318,2.318,0,0,0,1.719,2.232,2.268,2.268,0,0,0,0,1.728A2.319,2.319,0,0,0,232,268.387v1.548a2.319,2.319,0,0,0,1.719,2.233,2.268,2.268,0,0,0,0,1.728A2.319,2.319,0,0,0,232,276.129v1.548A2.326,2.326,0,0,0,234.323,280h13.935a2.325,2.325,0,0,0,2.323-2.323v-1.548a2.319,2.319,0,0,0-1.719-2.233,2.281,2.281,0,0,0,0-1.728,2.319,2.319,0,0,0,1.719-2.233v-1.548a2.319,2.319,0,0,0-1.719-2.233,2.281,2.281,0,0,0,0-1.728,2.319,2.319,0,0,0,1.719-2.232v-1.549a2.325,2.325,0,0,0-2.323-2.322h-6.193v-.775a.775.775,0,0,1,.774-.774h25.548a.775.775,0,0,1,.774.774v2.362a10.065,10.065,0,1,0,1.549,0Zm-30.194-13.2a3.871,3.871,0,1,1,7.742,0h1.548a5.422,5.422,0,0,0-4.591-5.349,6.957,6.957,0,0,1,12.768-4.6A6.166,6.166,0,0,0,256,241.29h1.548a4.646,4.646,0,1,1,9.237.667l-.066.882h.894a3.871,3.871,0,1,1,0,7.742H244.387A3.876,3.876,0,0,1,240.516,246.71Zm6.968,18.58a.775.775,0,0,1-.774.775H235.871a.775.775,0,0,1,0-1.549H246.71A.775.775,0,0,1,247.484,265.29Zm0,7.742a.775.775,0,0,1-.774.774H235.871a.774.774,0,1,1,0-1.548H246.71A.775.775,0,0,1,247.484,273.032Zm1.548,4.645a.775.775,0,0,1-.774.775H234.323a.776.776,0,0,1-.775-.775v-1.548a.775.775,0,0,1,.775-.774h13.935a.775.775,0,0,1,.774.774Zm0-7.742a.775.775,0,0,1-.774.775H234.323a.776.776,0,0,1-.775-.775v-1.548a.775.775,0,0,1,.775-.774h13.935a.775.775,0,0,1,.774.774Zm0-9.29v1.549a.775.775,0,0,1-.774.774H234.323a.775.775,0,0,1-.775-.774v-1.549a.775.775,0,0,1,.775-.774h13.935A.775.775,0,0,1,249.032,260.645Zm20.9.774A8.512,8.512,0,0,1,277,274.685a6.912,6.912,0,0,0-4-3.591,4.647,4.647,0,1,0-6.132,0,6.916,6.916,0,0,0-4,3.591,8.51,8.51,0,0,1,7.064-13.265Zm-3.1,6.194a3.1,3.1,0,1,1,3.1,3.1A3.1,3.1,0,0,1,266.839,267.613Zm-2.826,8.429a5.379,5.379,0,0,1,5.148-3.784h1.549a5.38,5.38,0,0,1,5.148,3.784,8.482,8.482,0,0,1-11.845,0Z" transform="translate(-232 -232)" fill="#4dd0e1"/>
</svg>
