<svg xmlns="http://www.w3.org/2000/svg" xmlns:xlink="http://www.w3.org/1999/xlink" width="230" height="158.228" viewBox="0 0 230 158.228">
  <defs>
    <linearGradient id="linear-gradient" y1="0.5" x2="1" y2="0.5" gradientUnits="objectBoundingBox">
      <stop offset="0" stop-color="#daf2fe"/>
      <stop offset="1" stop-color="#e9f7fd"/>
    </linearGradient>
    <linearGradient id="linear-gradient-2" x1="0" y1="0.5" y2="0.5" xlink:href="#linear-gradient"/>
    <linearGradient id="linear-gradient-4" x1="2.154" y1="-0.053" x2="-1.621" y2="1.53" gradientUnits="objectBoundingBox">
      <stop offset="0" stop-color="#feca62"/>
      <stop offset="1" stop-color="#ffbb8e"/>
    </linearGradient>
    <linearGradient id="linear-gradient-5" x1="1.188" y1="0.1" x2="-0.718" y2="1.257" xlink:href="#linear-gradient-4"/>
    <linearGradient id="linear-gradient-6" x1="1.904" y1="0.096" x2="-11.506" y2="3.952" xlink:href="#linear-gradient-4"/>
    <linearGradient id="linear-gradient-7" x1="0.883" y1="-0.949" x2="0.743" y2="-0.421" gradientUnits="objectBoundingBox">
      <stop offset="0" stop-color="#000c5d"/>
      <stop offset="1" stop-color="#0f2191"/>
    </linearGradient>
    <linearGradient id="linear-gradient-8" x1="0.259" y1="3.96" x2="-0.068" y2="8.628" gradientUnits="objectBoundingBox">
      <stop offset="0" stop-color="#4067e2"/>
      <stop offset="1" stop-color="#4f7aff"/>
    </linearGradient>
    <linearGradient id="linear-gradient-9" x1="0.605" y1="-30.206" x2="0.547" y2="-12.943" xlink:href="#linear-gradient-8"/>
    <linearGradient id="linear-gradient-10" x1="0.623" y1="-36.542" x2="0.565" y2="-19.278" xlink:href="#linear-gradient-8"/>
    <linearGradient id="linear-gradient-11" x1="0.334" y1="2.862" x2="0.008" y2="7.48" xlink:href="#linear-gradient-8"/>
    <linearGradient id="linear-gradient-12" x1="0.634" y1="-43.58" x2="0.576" y2="-24.284" xlink:href="#linear-gradient-8"/>
    <linearGradient id="linear-gradient-13" x1="0.653" y1="-40.498" x2="0.595" y2="-25.062" xlink:href="#linear-gradient-8"/>
    <linearGradient id="linear-gradient-14" x1="0.409" y1="1.808" x2="0.082" y2="6.477" xlink:href="#linear-gradient-8"/>
    <linearGradient id="linear-gradient-15" x1="0.664" y1="-60.364" x2="0.606" y2="-38.631" xlink:href="#linear-gradient-8"/>
    <linearGradient id="linear-gradient-16" x1="0.683" y1="-65.708" x2="0.625" y2="-44.875" xlink:href="#linear-gradient-8"/>
    <linearGradient id="linear-gradient-17" x1="0.484" y1="0.73" x2="0.157" y2="5.384" xlink:href="#linear-gradient-8"/>
    <linearGradient id="linear-gradient-18" x1="0.694" y1="-59.779" x2="0.636" y2="-41.614" xlink:href="#linear-gradient-8"/>
    <linearGradient id="linear-gradient-19" x1="0.713" y1="-76.001" x2="0.655" y2="-55.285" xlink:href="#linear-gradient-8"/>
    <linearGradient id="linear-gradient-20" x1="0.531" y1="0.127" x2="0.328" y2="1.542" xlink:href="#linear-gradient-8"/>
    <linearGradient id="linear-gradient-21" x1="0.535" y1="1.186" x2="0.488" y2="0.068" gradientUnits="objectBoundingBox">
      <stop offset="0" stop-color="#feca62"/>
      <stop offset="1" stop-color="#ffec8e"/>
    </linearGradient>
    <linearGradient id="linear-gradient-22" x1="0.464" y1="0.304" x2="0.798" y2="2.219" gradientUnits="objectBoundingBox">
      <stop offset="0" stop-color="#e1aa3d"/>
      <stop offset="1" stop-color="#e9b15a"/>
    </linearGradient>
    <linearGradient id="linear-gradient-23" x1="0.465" y1="0.307" x2="0.799" y2="2.221" xlink:href="#linear-gradient-22"/>
    <linearGradient id="linear-gradient-26" x1="0" y1="0.5" y2="0.5" xlink:href="#linear-gradient"/>
    <linearGradient id="linear-gradient-28" x1="0" y1="0.5" y2="0.5" xlink:href="#linear-gradient"/>
    <linearGradient id="linear-gradient-34" x1="0" y1="0.5" y2="0.5" xlink:href="#linear-gradient"/>
    <linearGradient id="linear-gradient-36" x1="0" y1="0.5" y2="0.5" xlink:href="#linear-gradient"/>
    <linearGradient id="linear-gradient-37" x1="0.644" y1="0.03" x2="-0.464" y2="3.648" gradientUnits="objectBoundingBox">
      <stop offset="0" stop-color="#fee362"/>
      <stop offset="1" stop-color="#ffeb8e"/>
    </linearGradient>
    <linearGradient id="linear-gradient-38" x1="0" y1="0.5" x2="1" y2="0.5" xlink:href="#linear-gradient-37"/>
    <linearGradient id="linear-gradient-40" y1="0.5" x2="1" y2="0.5" gradientUnits="objectBoundingBox">
      <stop offset="0" stop-color="#fff29c"/>
      <stop offset="1" stop-color="#fff39b"/>
    </linearGradient>
    <linearGradient id="linear-gradient-41" x1="0" y1="0.5" x2="1" y2="0.5" xlink:href="#linear-gradient-40"/>
    <linearGradient id="linear-gradient-42" y1="0.5" x2="1" y2="0.5" gradientUnits="objectBoundingBox">
      <stop offset="0" stop-color="#ffbb8e"/>
      <stop offset="1" stop-color="#fed8b1"/>
    </linearGradient>
    <linearGradient id="linear-gradient-43" x1="1.403" y1="-3.183" x2="0.782" y2="-0.633" xlink:href="#linear-gradient-7"/>
    <linearGradient id="linear-gradient-44" x1="0.5" y1="-0.433" x2="0.5" y2="-0.031" xlink:href="#linear-gradient-42"/>
    <linearGradient id="linear-gradient-45" x1="0.706" y1="-2.128" x2="0.493" y2="0.651" xlink:href="#linear-gradient-7"/>
    <linearGradient id="linear-gradient-46" x1="1.372" y1="-11.425" x2="0.889" y2="-4.697" xlink:href="#linear-gradient-7"/>
    <linearGradient id="linear-gradient-47" x1="0.769" y1="-1.446" x2="0.62" y2="-0.29" xlink:href="#linear-gradient-7"/>
    <linearGradient id="linear-gradient-48" x1="0.402" y1="-0.563" x2="0.646" y2="2.077" xlink:href="#linear-gradient-42"/>
    <linearGradient id="linear-gradient-49" x1="0.844" y1="-0.212" x2="0.383" y2="0.925" xlink:href="#linear-gradient-42"/>
    <linearGradient id="linear-gradient-50" x1="0" y1="0.5" x2="1" y2="0.5" xlink:href="#linear-gradient-7"/>
    <linearGradient id="linear-gradient-51" x1="1.554" y1="-1.831" x2="-0.125" y2="1.829" xlink:href="#linear-gradient-42"/>
    <linearGradient id="linear-gradient-52" x1="1.041" y1="-2.635" x2="0.668" y2="-0.351" xlink:href="#linear-gradient-42"/>
    <linearGradient id="linear-gradient-54" y1="0.5" x2="1" y2="0.5" gradientUnits="objectBoundingBox">
      <stop offset="0" stop-color="#fe8462"/>
      <stop offset="1" stop-color="#ff8ea5"/>
    </linearGradient>
    <linearGradient id="linear-gradient-55" x1="0" y1="0.5" x2="1" y2="0.5" xlink:href="#linear-gradient-54"/>
    <linearGradient id="linear-gradient-56" x1="3.948" y1="-5.906" x2="-2.808" y2="6.644" gradientUnits="objectBoundingBox">
      <stop offset="0" stop-color="#ff8ea5"/>
      <stop offset="1" stop-color="#feb3b1"/>
    </linearGradient>
    <linearGradient id="linear-gradient-57" x1="207.638" y1="22.248" x2="207.803" y2="-0.445" xlink:href="#linear-gradient-8"/>
    <linearGradient id="linear-gradient-58" x1="213.301" y1="0.5" x2="214.3" y2="0.5" xlink:href="#linear-gradient-7"/>
    <linearGradient id="linear-gradient-59" x1="735.725" y1="0.5" x2="736.725" y2="0.5" xlink:href="#linear-gradient-42"/>
    <linearGradient id="linear-gradient-60" x1="540.99" y1="14.456" x2="541.422" y2="-1.232" xlink:href="#linear-gradient-8"/>
    <linearGradient id="linear-gradient-61" x1="368.544" y1="0.5" x2="369.544" y2="0.5" xlink:href="#linear-gradient-7"/>
    <linearGradient id="linear-gradient-62" x1="615.878" y1="0.5" x2="616.878" y2="0.5" xlink:href="#linear-gradient-42"/>
    <linearGradient id="linear-gradient-63" x1="0.668" y1="0.497" x2="1.312" y2="-0.545" xlink:href="#linear-gradient-8"/>
    <linearGradient id="linear-gradient-64" x1="90.961" y1="4.647" x2="89.273" y2="5.761" gradientUnits="objectBoundingBox">
      <stop offset="0" stop-color="#fe9462"/>
      <stop offset="1" stop-color="#ff908e"/>
    </linearGradient>
    <linearGradient id="linear-gradient-65" x1="0.938" y1="-3.294" x2="0.703" y2="-1.255" xlink:href="#linear-gradient-7"/>
    <linearGradient id="linear-gradient-66" x1="414.675" y1="0.1" x2="412.286" y2="1.142" xlink:href="#linear-gradient-42"/>
    <linearGradient id="linear-gradient-67" x1="200.642" y1="7.703" x2="196.918" y2="9.64" xlink:href="#linear-gradient-64"/>
    <linearGradient id="linear-gradient-68" x1="267.29" y1="9.503" x2="262.302" y2="11.777" xlink:href="#linear-gradient-64"/>
    <linearGradient id="linear-gradient-69" x1="219.66" y1="0.5" x2="220.66" y2="0.5" xlink:href="#linear-gradient-42"/>
    <linearGradient id="linear-gradient-70" x1="0.723" y1="0.245" x2="-0.34" y2="1.867" xlink:href="#linear-gradient-42"/>
    <linearGradient id="linear-gradient-71" x1="41.945" y1="0.5" x2="42.945" y2="0.5" xlink:href="#linear-gradient-7"/>
    <linearGradient id="linear-gradient-72" x1="41.067" y1="0.5" x2="42.067" y2="0.5" xlink:href="#linear-gradient-7"/>
    <linearGradient id="linear-gradient-73" x1="293.981" y1="-1.222" x2="292.288" y2="3.818" xlink:href="#linear-gradient-42"/>
    <linearGradient id="linear-gradient-74" x1="613.329" y1="0.5" x2="614.329" y2="0.5" xlink:href="#linear-gradient-42"/>
    <linearGradient id="linear-gradient-75" x1="0.821" y1="0.35" x2="-0.291" y2="1.106" xlink:href="#linear-gradient-42"/>
    <linearGradient id="linear-gradient-76" x1="0.281" y1="0.154" x2="1.01" y2="1.105" xlink:href="#linear-gradient-7"/>
    <linearGradient id="linear-gradient-77" x1="2.74" y1="-0.685" x2="-1.811" y2="1.784" xlink:href="#linear-gradient-42"/>
    <linearGradient id="linear-gradient-80" x1="0" y1="0.5" y2="0.5" xlink:href="#linear-gradient"/>
    <linearGradient id="linear-gradient-82" x1="0" y1="0.5" y2="0.5" xlink:href="#linear-gradient"/>
    <linearGradient id="linear-gradient-83" x1="-0.001" y1="0.5" x2="1.001" y2="0.5" xlink:href="#linear-gradient"/>
    <linearGradient id="linear-gradient-85" x1="0" y1="0.5" y2="0.5" xlink:href="#linear-gradient"/>
  </defs>
  <g id="Grupo_84483" data-name="Grupo 84483" transform="translate(-1086.685 -724.76)">
    <path id="Trazado_113212" data-name="Trazado 113212" d="M1145.563,883.744s-20.417-2.6-30.112-.57-33.71-8.987-25.751-26.282,16.971-28.012,6.559-37.469-13.686-27.468-2.951-37.59,13.967.293,22.52-3.435-2.308-23.172,21.855-28.667,42.936,11.108,53.922,9.233,27.877-13.371,39.733-12.887,10.385,17.407,26.116,16.42,28.081-2.691,38.271,11.715,7.74,32.679-1.975,39.9-7.82,16.931,10.094,17.488,15.9,20.7,1.278,35.566-27.159,15.033-41.761,16.007S1145.563,883.744,1145.563,883.744Z" transform="translate(0 -4.449)" fill="url(#linear-gradient)"/>
    <g id="Grupo_84418" data-name="Grupo 84418" transform="translate(1143.099 735.02)">
      <path id="Trazado_113213" data-name="Trazado 113213" d="M1161.921,833.9,1158,741.82a3.924,3.924,0,0,1,4.047-4.089c13.639.443,56.447,1.828,70.98,2.252a3.99,3.99,0,0,1,3.873,3.9c.342,15.87,1.731,76.452,3.157,85.217Z" transform="translate(-1157.992 -737.728)" fill="#7dc4f4"/>
      <path id="Trazado_113214" data-name="Trazado 113214" d="M1166.039,831.87l-3.392-82.171a2.278,2.278,0,0,1,2.342-2.373c10.679.309,53.341,1.594,66.761,2.784a2.244,2.244,0,0,1,2.041,2.12l3.911,75.188Z" transform="translate(-1158.964 -739.733)" fill="#91defa"/>
      <g id="Grupo_84417" data-name="Grupo 84417" transform="translate(8.466 14.528)" opacity="0.38">
        <path id="Trazado_113215" data-name="Trazado 113215" d="M1172.959,766.278l-2.433-.037a.9.9,0,0,0-.9,1.046l.154.9a.894.894,0,0,0,.877.744l2.314.013a.9.9,0,0,0,.9-.932l-.036-.876A.9.9,0,0,0,1172.959,766.278Z" transform="translate(-1168.886 -758.212)" fill="#fff"/>
        <path id="Trazado_113216" data-name="Trazado 113216" d="M1173.523,774.93l-1.6-.018a.9.9,0,0,0-.9,1l.095.816a.9.9,0,0,0,.881.793l1.534.013a.9.9,0,0,0,.9-.931l-.032-.812A.9.9,0,0,0,1173.523,774.93Z" transform="translate(-1169.18 -760.023)" fill="#fff"/>
        <path id="Trazado_113217" data-name="Trazado 113217" d="M1172.462,756.189l-2.843-.1a.894.894,0,0,0-.918,1.009l.169,1.309a.894.894,0,0,0,.877.78l2.723.032a.9.9,0,0,0,.905-.931l-.05-1.244A.9.9,0,0,0,1172.462,756.189Z" transform="translate(-1168.693 -756.092)" fill="#fff"/>
        <path id="Trazado_113218" data-name="Trazado 113218" d="M1179.709,777.592l50.984.452a.9.9,0,0,0,.9-.9v-.68a.9.9,0,0,0-.885-.9L1179.695,775a.894.894,0,0,0-.9.931l.032.8A.9.9,0,0,0,1179.709,777.592Z" transform="translate(-1170.802 -760.041)" fill="#fff"/>
        <path id="Trazado_113219" data-name="Trazado 113219" d="M1178.043,757.341l.046,1.144a.9.9,0,0,0,.885.859l51.562.612a.9.9,0,0,0,.906-.895h0a.9.9,0,0,0-.865-.895l-51.608-1.756A.9.9,0,0,0,1178.043,757.341Z" transform="translate(-1170.646 -756.159)" fill="#fff"/>
        <path id="Trazado_113220" data-name="Trazado 113220" d="M1179.367,769l51.258.267a.9.9,0,0,0,.9-.9v-.3a.9.9,0,0,0-.881-.9l-51.291-.8a.9.9,0,0,0-.908.931l.033.828A.9.9,0,0,0,1179.367,769Z" transform="translate(-1170.73 -758.241)" fill="#fff"/>
      </g>
    </g>
    <g id="Grupo_84419" data-name="Grupo 84419" transform="translate(1094.593 724.76)">
      <path id="Trazado_113221" data-name="Trazado 113221" d="M1135.331,915.4a.554.554,0,0,0,.547-.645c-.569-3.366-3.9-18.753-17.327-18.876a30.047,30.047,0,0,0-21.626,8.344.829.829,0,0,0,.362,1.386,10.817,10.817,0,0,1,6.062,4.051c2.616,3.8,9.395,3.2,13.62-2.018,4.184-5.169,14.609-8.266,17.817,7.312a.558.558,0,0,0,.544.446Z" transform="translate(-1096.681 -760.5)" fill="#bde9fb"/>
      <path id="Trazado_113222" data-name="Trazado 113222" d="M1110.7,824.391a.664.664,0,0,0-1.243.105c-1.457,5.419-4.466,21.595,8.832,29.25,16.113,9.276,16.5,5.081,18.511,21.414,1.729,14.058,2.32,22.606,2.45,24.715a.548.548,0,0,0,.548.514h0a.548.548,0,0,0,.549-.567c-.152-4.426-1.26-33.674-4.423-47.98C1130.3,826.4,1117.121,838.512,1110.7,824.391Z" transform="translate(-1099.066 -745.489)" fill="#91defa"/>
      <path id="Trazado_113223" data-name="Trazado 113223" d="M1122.224,773.5a.514.514,0,0,0-1.014.016c-.428,2.888-1.245,6.574-2.774,8.98-2.838,4.466-7.993,20.728,6.161,28.836s17.635,12.4,17.53,27.968c-.1,14.229.76,44.6.908,49.715a.762.762,0,0,0,.763.74h0a.763.763,0,0,0,.764-.76c.019-6.66.112-55.067-1.1-66.8C1141.538,803.609,1125.865,794.088,1122.224,773.5Z" transform="translate(-1100.536 -734.851)" fill="#bde9fb"/>
      <path id="Trazado_113224" data-name="Trazado 113224" d="M1174.575,725.388a.658.658,0,0,0-1.232-.29,27.465,27.465,0,0,1-12.187,10.968c-10.617,5.154-29.672,15.814-18.309,39.1,11.813,24.212,7.62,41.124,8.434,49.591.754,7.841,1.547,48.241,1.661,54.173a.742.742,0,0,0,.744.727h0a.743.743,0,0,0,.743-.762c-.164-6.543-1.333-53.189-1.354-60.658-.023-8.034-2.01-35.529,5.171-45.555C1165.192,762.986,1175.68,750.541,1174.575,725.388Z" transform="translate(-1105.593 -724.76)" fill="#bde9fb"/>
      <path id="Trazado_113225" data-name="Trazado 113225" d="M1123.959,789.032l-.013.033-.033.1c-.029.087-.07.218-.117.392a11.345,11.345,0,0,0-.3,1.53,13.046,13.046,0,0,0-.075,2.419c.01.233.038.473.062.72l.052.375c.015.127.037.254.062.383a12.546,12.546,0,0,0,.39,1.6l.133.415.154.417c.048.141.109.279.169.42s.114.284.183.422l.2.423c.066.143.147.28.222.422.145.286.321.56.489.843a16.235,16.235,0,0,0,1.189,1.644c.436.541.922,1.052,1.433,1.574,1.02,1.02,2.153,2.012,3.319,3s2.363,1.99,3.5,3.056c.574.529,1.126,1.085,1.666,1.646s1.049,1.15,1.525,1.756a24.852,24.852,0,0,1,2.491,3.775,26.92,26.92,0,0,1,1.687,3.875l.161.474c.053.157.108.312.152.469l.271.924c.047.151.085.3.122.454l.112.448c.07.3.152.584.206.872l.174.842c.027.138.058.273.081.407l.066.4c.085.526.18,1.024.234,1.5s.126.911.166,1.32l.108,1.124c.037.339.053.643.07.907l.043.672.036.559a.111.111,0,0,1-.221.016v0l-.041-.556-.051-.668c-.02-.263-.039-.566-.079-.9l-.12-1.118c-.045-.406-.116-.842-.18-1.311s-.158-.962-.248-1.483l-.071-.4c-.024-.134-.056-.267-.085-.4l-.182-.833c-.056-.285-.14-.57-.214-.862l-.114-.442c-.038-.149-.076-.3-.123-.449l-.275-.914c-.043-.155-.1-.308-.153-.463l-.162-.468a26.625,26.625,0,0,0-1.688-3.815,24.683,24.683,0,0,0-2.476-3.7c-.471-.6-.985-1.165-1.509-1.729s-1.081-1.1-1.651-1.623c-1.134-1.055-2.328-2.047-3.5-3.037s-2.311-1.979-3.355-3.02a18.512,18.512,0,0,1-2.666-3.293c-.171-.292-.35-.574-.5-.868-.076-.146-.158-.288-.226-.435l-.206-.436a13.209,13.209,0,0,1-.643-1.728,12.953,12.953,0,0,1-.378-1.653c-.023-.133-.044-.264-.059-.395s-.033-.258-.047-.385c-.021-.255-.046-.5-.053-.741s-.013-.471-.016-.7.007-.44.024-.647c.022-.415.069-.793.118-1.134a10.932,10.932,0,0,1,.344-1.559c.054-.177.1-.312.134-.4l.039-.1.014-.034a.117.117,0,0,1,.219.084Z" transform="translate(-1102.192 -738.151)" fill="#fff" opacity="0.47"/>
      <path id="Trazado_113226" data-name="Trazado 113226" d="M1111.631,828.227a4.385,4.385,0,0,0,.078.506,9.949,9.949,0,0,0,.394,1.4c.107.294.238.616.4.957.084.169.165.348.263.526l.146.275.159.279a12.994,12.994,0,0,0,.761,1.158c.14.2.3.392.458.594l.252.3.128.15.135.147.275.3.293.293c.1.1.2.2.3.294l.313.293.331.286.167.145.175.139.352.282.368.271c.245.186.506.355.765.534.129.091.267.17.4.257s.269.172.408.253l.422.244.213.123.218.116.889.466a40.571,40.571,0,0,1,3.623,2.113,32.937,32.937,0,0,1,3.457,2.616,27.947,27.947,0,0,1,3.034,3.1,25.579,25.579,0,0,1,2.417,3.435,27.4,27.4,0,0,1,1.744,3.517,31.412,31.412,0,0,1,1.143,3.322c.139.525.28,1.028.384,1.513.055.241.113.475.16.706l.131.67c.091.433.15.842.212,1.218s.11.724.15,1.038.082.594.1.839l.06.622.051.517a.076.076,0,0,1-.15.017v0l-.062-.514-.073-.619c-.026-.244-.075-.521-.12-.833l-.073-.492c-.024-.172-.061-.351-.093-.539-.068-.373-.133-.779-.23-1.207l-.141-.665c-.05-.227-.112-.459-.169-.7-.111-.48-.257-.976-.4-1.5a33.641,33.641,0,0,0-1.169-3.278,26.628,26.628,0,0,0-7.165-9.873,32.488,32.488,0,0,0-3.421-2.574,39.94,39.94,0,0,0-3.593-2.081l-.226-.116-.222-.117-.446-.238-.222-.119-.216-.126-.429-.25c-.142-.084-.278-.174-.415-.26s-.277-.17-.408-.263c-.263-.184-.531-.357-.778-.551l-.372-.282-.357-.292-.176-.144-.169-.149-.335-.3a15.394,15.394,0,0,1-1.191-1.225l-.135-.154-.127-.157-.251-.309c-.157-.211-.316-.411-.455-.619a13.114,13.114,0,0,1-.752-1.2,11.674,11.674,0,0,1-.915-2.11,9.2,9.2,0,0,1-.345-1.44,4.515,4.515,0,0,1-.056-.524v0a.065.065,0,0,1,.129-.006Z" transform="translate(-1099.777 -746.358)" fill="#fff" opacity="0.47"/>
      <path id="Trazado_113227" data-name="Trazado 113227" d="M1104.062,902.956s.088-.07.254-.2.414-.305.738-.521.72-.475,1.185-.754,1-.575,1.595-.88,1.248-.619,1.955-.913,1.464-.582,2.262-.833a24.269,24.269,0,0,1,2.5-.653,23.22,23.22,0,0,1,2.638-.378,20.324,20.324,0,0,1,2.667-.047,17.2,17.2,0,0,1,2.566.309,18.1,18.1,0,0,1,2.333.626,17.211,17.211,0,0,1,2,.825c.3.142.582.3.851.443l.385.223c.125.072.246.143.36.218.229.145.445.278.638.413s.373.251.528.369l.417.309.3.24.25.2a.067.067,0,0,1-.082.105v0l-.256-.187-.307-.225c-.124-.085-.265-.183-.425-.291s-.339-.226-.534-.351-.411-.254-.642-.39c-.115-.07-.236-.137-.361-.2l-.387-.21c-.27-.132-.549-.28-.852-.411a17.044,17.044,0,0,0-1.979-.775,17.722,17.722,0,0,0-2.3-.573,19.471,19.471,0,0,0-5.132-.215,22.619,22.619,0,0,0-2.589.387c-.845.181-1.672.389-2.457.637s-1.54.511-2.24.794-1.359.566-1.955.852-1.135.566-1.606.822-.879.491-1.209.691-.586.364-.759.476-.263.176-.263.176a.067.067,0,0,1-.08-.107Z" transform="translate(-1098.218 -760.893)" fill="#fff" opacity="0.47"/>
      <path id="Trazado_113228" data-name="Trazado 113228" d="M1172.1,734.494l-.106.138c-.07.091-.176.226-.316.4s-.312.386-.519.634-.447.529-.722.84L1170,737l-.483.533c-.333.373-.707.764-1.105,1.184-.806.829-1.722,1.76-2.77,2.725-.516.491-1.074.98-1.647,1.492-.289.252-.589.5-.89.76l-.456.388c-.153.131-.313.256-.472.384l-.966.779c-.33.258-.67.511-1.011.771l-.514.391c-.173.131-.353.255-.53.383l-1.077.771-.543.384c-.183.128-.367.258-.544.392l-.539.4-.532.42-.267.211-.26.22c-.173.148-.35.293-.522.445-.339.308-.684.612-1.009.939s-.646.661-.967,1c-.154.173-.3.351-.456.527-.075.088-.154.175-.227.265l-.216.275a18.768,18.768,0,0,0-1.58,2.313l-.344.611-.313.628-.155.314-.139.322-.275.643-.241.656-.119.328-.1.333-.2.665c-.06.223-.114.449-.17.672a25.385,25.385,0,0,0-.709,5.373,35.867,35.867,0,0,0,.236,5.084l.066.6c.021.2.055.395.081.589l.167,1.152.2,1.108.095.539c.034.177.072.352.107.526.144.694.275,1.36.432,1.987s.286,1.226.441,1.782l.215.808c.069.26.134.512.206.75l.385,1.316c.111.4.226.75.323,1.057l.245.778.2.65h0a.053.053,0,0,1-.1.032l-.219-.645-.264-.774c-.1-.305-.226-.655-.347-1.051l-.408-1.312c-.077-.238-.146-.489-.22-.748l-.229-.807c-.164-.554-.312-1.151-.472-1.779s-.312-1.293-.468-1.988c-.038-.173-.08-.349-.117-.526l-.1-.54-.211-1.112-.18-1.157c-.029-.2-.065-.392-.088-.593l-.073-.6a36.251,36.251,0,0,1-.29-5.132,25.028,25.028,0,0,1,.672-5.467c.057-.229.111-.458.172-.687l.206-.68.1-.34.121-.335.244-.672.28-.66.141-.33.157-.322c.106-.214.21-.43.318-.644l.351-.627a19.242,19.242,0,0,1,1.609-2.373l.22-.282c.074-.092.154-.181.231-.272.155-.18.308-.362.465-.54.325-.345.642-.7.983-1.021s.681-.646,1.025-.96c.173-.155.353-.3.528-.453l.265-.225.27-.216.539-.428.548-.411c.181-.138.365-.268.547-.4l.547-.388,1.072-.762c.177-.127.354-.249.527-.377l.513-.387c.339-.257.678-.508,1.007-.763l.966-.765c.158-.127.319-.248.472-.377l.458-.381c.3-.253.6-.5.894-.746.574-.5,1.141-.976,1.661-1.456.263-.238.522-.468.771-.7l.725-.679c.238-.218.463-.437.683-.65s.435-.418.639-.62c.817-.812,1.524-1.526,2.088-2.131s1-1.088,1.3-1.419.446-.513.446-.513a.052.052,0,0,1,.081.066Z" transform="translate(-1107.243 -726.776)" fill="#fff" opacity="0.33"/>
    </g>
    <g id="Grupo_84427" data-name="Grupo 84427" transform="translate(1090.098 830.913)">
      <g id="Grupo_84423" data-name="Grupo 84423" transform="translate(0)">
        <g id="Grupo_84422" data-name="Grupo 84422">
          <g id="Grupo_84420" data-name="Grupo 84420">
            <path id="Trazado_113229" data-name="Trazado 113229" d="M1117.531,870.615a.208.208,0,0,0-.141-.2l-2.387-.805a10.971,10.971,0,0,0-1.38-3.275l1.088-2.271a.206.206,0,0,0-.042-.237l-2.15-2.123a.208.208,0,0,0-.237-.038l-2.256,1.118a10.935,10.935,0,0,0-3.293-1.338l-.837-2.376a.206.206,0,0,0-.2-.138l-3.021.02a.206.206,0,0,0-.195.141l-.805,2.387a10.963,10.963,0,0,0-3.276,1.381l-2.271-1.087a.2.2,0,0,0-.236.041l-2.122,2.15a.208.208,0,0,0-.039.237l1.118,2.255a10.963,10.963,0,0,0-1.338,3.294l-2.376.837a.207.207,0,0,0-.138.2l.02,3.021a.209.209,0,0,0,.141.2l2.387.805a10.986,10.986,0,0,0,1.38,3.275l-1.087,2.271a.206.206,0,0,0,.041.237l2.15,2.123a.209.209,0,0,0,.237.038l2.255-1.118a10.956,10.956,0,0,0,3.294,1.338l.837,2.376a.206.206,0,0,0,.2.138l3.021-.02a.208.208,0,0,0,.195-.141l.805-2.387a10.957,10.957,0,0,0,3.275-1.381l2.271,1.087a.2.2,0,0,0,.236-.041l2.123-2.15a.207.207,0,0,0,.038-.237l-1.117-2.256a10.967,10.967,0,0,0,1.337-3.294l2.376-.837a.206.206,0,0,0,.139-.2Z" transform="translate(-1090.999 -858.937)" fill="#91defa"/>
          </g>
          <g id="Grupo_84421" data-name="Grupo 84421" transform="translate(10.436 10.434)">
            <path id="Trazado_113230" data-name="Trazado 113230" d="M1107.025,877.807a2.84,2.84,0,1,1,1.444-5.288h0a2.84,2.84,0,0,1-1.444,5.288Zm.009-5.366a2.549,2.549,0,0,0-.638.082,2.524,2.524,0,1,0,1.915.267h0A2.513,2.513,0,0,0,1107.034,872.441Z" transform="translate(-1104.19 -872.125)" fill="#bde9fb"/>
          </g>
          <path id="Trazado_113231" data-name="Trazado 113231" d="M1105.733,881.2a7.447,7.447,0,0,1-.048-14.893h.051a7.4,7.4,0,0,1,5.23,2.147,7.518,7.518,0,0,1,1,1.227l-.263.172a7.193,7.193,0,0,0-.963-1.175,7.131,7.131,0,1,0,1.919,6.77l.307.075a7.444,7.444,0,0,1-7.237,5.676Z" transform="translate(-1092.522 -860.477)" fill="#bde9fb"/>
        </g>
      </g>
      <g id="Grupo_84426" data-name="Grupo 84426" transform="translate(27.639 16.148)">
        <g id="Grupo_84425" data-name="Grupo 84425">
          <g id="Grupo_84424" data-name="Grupo 84424">
            <path id="Trazado_113232" data-name="Trazado 113232" d="M1140.945,885.954a.116.116,0,0,0-.079-.11l-1.351-.456a6.2,6.2,0,0,0-.781-1.853l.615-1.285a.116.116,0,0,0-.023-.134l-1.217-1.2a.118.118,0,0,0-.135-.021l-1.276.632a6.207,6.207,0,0,0-1.863-.757l-.474-1.344a.116.116,0,0,0-.111-.077l-1.71.011a.116.116,0,0,0-.11.08l-.456,1.35a6.193,6.193,0,0,0-1.854.782l-1.284-.615a.117.117,0,0,0-.134.024l-1.2,1.216a.118.118,0,0,0-.021.135l.632,1.276a6.216,6.216,0,0,0-.757,1.863l-1.344.474a.118.118,0,0,0-.078.111l.012,1.71a.116.116,0,0,0,.079.11l1.35.456a6.193,6.193,0,0,0,.782,1.854l-.615,1.284a.119.119,0,0,0,.023.135l1.217,1.2a.117.117,0,0,0,.134.022l1.276-.633a6.186,6.186,0,0,0,1.863.757l.474,1.344a.117.117,0,0,0,.111.078l1.71-.011a.118.118,0,0,0,.11-.08l.456-1.35a6.213,6.213,0,0,0,1.854-.781l1.284.615a.116.116,0,0,0,.134-.023l1.2-1.217a.118.118,0,0,0,.021-.134l-.632-1.276a6.206,6.206,0,0,0,.757-1.863l1.344-.473a.119.119,0,0,0,.078-.112Z" transform="translate(-1125.935 -879.348)" fill="#bde9fb"/>
          </g>
          <path id="Trazado_113233" data-name="Trazado 113233" d="M1134.984,890.074a1.675,1.675,0,1,1,.852-3.119h0a1.675,1.675,0,0,1,.6,2.294A1.68,1.68,0,0,1,1134.984,890.074Zm.005-3.036a1.381,1.381,0,0,0-.344.044,1.36,1.36,0,1,0,1.031.144h0A1.352,1.352,0,0,0,1134.989,887.038Z" transform="translate(-1127.476 -880.888)" fill="url(#linear-gradient-2)"/>
          <path id="Trazado_113234" data-name="Trazado 113234" d="M1134.253,891.995a4.277,4.277,0,0,1-4.282-4.252v-.028a4.282,4.282,0,0,1,4.254-4.282h.028a4.252,4.252,0,0,1,3.007,1.234h0l.021.02a4.318,4.318,0,0,1,.519.627l.006.01.005.009,0,0,.025.037-.264.172a4.057,4.057,0,0,0-.535-.654h0l-.07-.066a3.93,3.93,0,0,0-2.738-1.077h-.006a3.966,3.966,0,0,0-3.941,3.967v.026a3.967,3.967,0,0,0,7.821.916l.306.074a4.279,4.279,0,0,1-4.16,3.264Z" transform="translate(-1126.778 -880.201)" fill="url(#linear-gradient)"/>
        </g>
      </g>
    </g>
    <g id="Grupo_84430" data-name="Grupo 84430" transform="translate(1184.015 752.325)">
      <path id="Trazado_113235" data-name="Trazado 113235" d="M1282.356,879.647l19.566-111.6a3.686,3.686,0,0,0-3.418-4.187c-12.8-.808-52.957-3.348-66.588-4.255a3.75,3.75,0,0,0-3.972,3.3c-1.742,14.812-16.114,97.172-18.234,105.242Z" transform="translate(-1209.71 -759.601)" fill="#bde9fb"/>
      <path id="Trazado_113236" data-name="Trazado 113236" d="M1280.683,877.65l18.179-102.372a2.139,2.139,0,0,0-1.977-2.428c-10.017-.669-50.032-3.29-62.69-3.379a2.109,2.109,0,0,0-2.1,1.8l-18.04,95.795Z" transform="translate(-1210.617 -761.663)" fill="#91defa"/>
      <g id="Grupo_84428" data-name="Grupo 84428" transform="translate(22.265 10.976)" opacity="0.4">
        <path id="Trazado_113237" data-name="Trazado 113237" d="M1242.221,782.831l-2.28-.162a.841.841,0,0,0-.9.934l.1.854a.842.842,0,0,0,.785.744l2.17.131a.841.841,0,0,0,.892-.827l.012-.823A.84.84,0,0,0,1242.221,782.831Z" transform="translate(-1238.101 -775.395)" fill="#fff"/>
        <path id="Trazado_113238" data-name="Trazado 113238" d="M1240.247,791.364l-1.5-.1a.842.842,0,0,0-.9.89l.047.771a.841.841,0,0,0,.786.79l1.438.093a.841.841,0,0,0,.895-.827l.012-.763A.84.84,0,0,0,1240.247,791.364Z" transform="translate(-1237.853 -777.19)" fill="#fff"/>
        <path id="Trazado_113239" data-name="Trazado 113239" d="M1245.523,773.718l-2.661-.239a.841.841,0,0,0-.915.9l.091,1.237a.841.841,0,0,0,.782.778l2.553.172a.841.841,0,0,0,.9-.827l.017-1.17A.84.84,0,0,0,1245.523,773.718Z" transform="translate(-1238.708 -773.476)" fill="#fff"/>
        <path id="Trazado_113240" data-name="Trazado 113240" d="M1245.908,794.182l47.806,3.08a.841.841,0,0,0,.894-.793l.036-.638a.841.841,0,0,0-.784-.886l-47.829-3.2a.841.841,0,0,0-.9.827l-.012.753A.841.841,0,0,0,1245.908,794.182Z" transform="translate(-1239.371 -777.292)" fill="#fff"/>
        <path id="Trazado_113241" data-name="Trazado 113241" d="M1250.695,775.089l-.016,1.075a.841.841,0,0,0,.784.853l48.339,3.26a.841.841,0,0,0,.9-.793h0a.841.841,0,0,0-.765-.884l-48.322-4.335A.842.842,0,0,0,1250.695,775.089Z" transform="translate(-1240.532 -773.64)" fill="#fff"/>
        <path id="Trazado_113242" data-name="Trazado 113242" d="M1248.088,785.715l48.072,2.921a.842.842,0,0,0,.891-.793l.016-.281a.842.842,0,0,0-.781-.886l-48.075-3.419a.841.841,0,0,0-.9.827l-.012.778A.841.841,0,0,0,1248.088,785.715Z" transform="translate(-1239.826 -775.518)" fill="#fff"/>
      </g>
      <g id="Grupo_84429" data-name="Grupo 84429" transform="translate(18.03 38.883)" opacity="0.4">
        <path id="Trazado_113243" data-name="Trazado 113243" d="M1236.867,818.1l-2.279-.162a.841.841,0,0,0-.9.934l.1.854a.84.84,0,0,0,.785.744l2.169.132a.841.841,0,0,0,.892-.827l.013-.824A.841.841,0,0,0,1236.867,818.1Z" transform="translate(-1232.748 -810.669)" fill="#fff"/>
        <path id="Trazado_113244" data-name="Trazado 113244" d="M1234.893,826.638l-1.5-.1a.841.841,0,0,0-.9.889l.046.771a.841.841,0,0,0,.786.789l1.438.093a.841.841,0,0,0,.9-.827l.012-.763A.842.842,0,0,0,1234.893,826.638Z" transform="translate(-1232.5 -812.465)" fill="#fff"/>
        <path id="Trazado_113245" data-name="Trazado 113245" d="M1240.17,808.992l-2.662-.239a.842.842,0,0,0-.914.9l.091,1.237a.841.841,0,0,0,.782.778l2.553.172a.841.841,0,0,0,.9-.826l.017-1.171A.841.841,0,0,0,1240.17,808.992Z" transform="translate(-1233.355 -808.75)" fill="#fff"/>
        <path id="Trazado_113246" data-name="Trazado 113246" d="M1240.555,829.457l47.805,3.079a.841.841,0,0,0,.894-.793l.036-.638a.842.842,0,0,0-.784-.886l-47.829-3.2a.841.841,0,0,0-.9.827l-.012.753A.842.842,0,0,0,1240.555,829.457Z" transform="translate(-1234.018 -812.566)" fill="#fff"/>
        <path id="Trazado_113247" data-name="Trazado 113247" d="M1245.341,810.363l-.016,1.076a.842.842,0,0,0,.785.852l48.339,3.26a.841.841,0,0,0,.9-.793h0a.841.841,0,0,0-.765-.885l-48.323-4.335A.84.84,0,0,0,1245.341,810.363Z" transform="translate(-1235.179 -808.914)" fill="#fff"/>
        <path id="Trazado_113248" data-name="Trazado 113248" d="M1242.734,820.989l48.071,2.921a.841.841,0,0,0,.892-.793l.015-.281a.841.841,0,0,0-.78-.885l-48.075-3.42a.842.842,0,0,0-.9.827l-.012.779A.842.842,0,0,0,1242.734,820.989Z" transform="translate(-1234.472 -810.792)" fill="#fff"/>
      </g>
    </g>
    <g id="Grupo_84431" data-name="Grupo 84431" transform="translate(1256.506 750.341)">
      <path id="Trazado_113249" data-name="Trazado 113249" d="M1344.625,771.058a.345.345,0,0,1-.337-.339c-.035-1.9-.626-11.324-8.927-13.293-9.24-2.193-13.469,7.2-13.469,7.2s-11.433-4.386-13.626,7.361c-7.17,1.721-9.032,11.083-4.369,15.658a4.007,4.007,0,0,0,2.771,1.147l44.9.4a2.956,2.956,0,0,0,2.861-2.114C1355.828,782.354,1357.666,771.363,1344.625,771.058Z" transform="translate(-1301.338 -757.095)" fill="#7dc4f4"/>
      <path id="Trazado_113250" data-name="Trazado 113250" d="M1343.945,771.557a.346.346,0,0,1-.337-.339c-.036-1.82-.623-10.559-8.441-12.392-8.737-2.047-12.737,6.728-12.737,6.728s-10.811-4.095-12.885,6.874c-6.714,1.592-8.505,10.183-4.256,14.5a4.011,4.011,0,0,0,2.821,1.2l42.265.377a2.956,2.956,0,0,0,2.862-2.123C1354.556,781.882,1356.12,771.848,1343.945,771.557Z" transform="translate(-1301.685 -757.392)" fill="#91defa"/>
    </g>
    <g id="Grupo_84432" data-name="Grupo 84432" transform="translate(1277.523 834.203)">
      <path id="Trazado_113251" data-name="Trazado 113251" d="M1329.311,905.514a.843.843,0,0,1-.679-.654c-.635-2.982-3.051-17.275,6.731-26.041,10.2-9.142,17.653-9.746,19.646-15.472a.364.364,0,0,1,.7.033c1.14,5.131,3.957,22.866-9.612,29.7-13.463,6.784-15.581,9.9-15.806,11.718a.838.838,0,0,1-.982.714Z" transform="translate(-1327.904 -863.096)" fill="#91defa"/>
      <path id="Trazado_113252" data-name="Trazado 113252" d="M1354.59,869.488s-.044.176-.149.5-.267.786-.516,1.363a21.041,21.041,0,0,1-1.007,2.031,20.062,20.062,0,0,1-1.633,2.452,19.25,19.25,0,0,1-2.381,2.555l-.353.309c-.119.1-.245.2-.368.3s-.246.2-.376.3l-.392.29c-.067.048-.131.1-.2.146l-.2.138-.413.278c-.139.091-.284.176-.428.263s-.286.179-.436.259l-.449.244-.225.123-.233.112-.467.226c-.156.078-.319.139-.479.21l-.483.2-.5.184-.986.361-.248.09-.24.1-.48.2c-.161.063-.316.146-.475.218s-.318.147-.475.226a17.763,17.763,0,0,0-1.82,1.061c-.3.188-.578.4-.861.609-.144.1-.275.218-.413.327s-.275.218-.406.334c-.259.237-.528.46-.77.711-.123.123-.249.244-.37.369l-.351.384c-.058.064-.117.127-.174.192l-.165.2-.33.4-.309.411-.154.2c-.051.069-.1.141-.145.211l-.286.42c-.093.141-.179.286-.268.427-.183.282-.341.576-.5.864-.084.142-.155.291-.229.438l-.221.438c-.132.3-.273.587-.394.882s-.246.585-.346.88-.214.582-.3.874a25.338,25.338,0,0,0-.82,3.331c-.191,1.047-.311,2.019-.381,2.883-.043.432-.058.838-.084,1.212s-.026.72-.038,1.032l-.01.831c-.005.242,0,.449,0,.615l.006.513v0a.068.068,0,0,1-.136,0l-.024-.514c-.019-.335-.031-.827-.041-1.453,0-.313,0-.66.012-1.038s.021-.786.053-1.222c.048-.873.143-1.856.31-2.921a25.718,25.718,0,0,1,.78-3.392c.085-.3.189-.593.293-.894s.224-.6.339-.9.258-.6.389-.907l.219-.45c.074-.151.145-.3.228-.452.162-.3.32-.6.5-.893.09-.147.175-.3.27-.442l.291-.434c.049-.072.1-.146.147-.217l.156-.212.315-.425.336-.411.169-.206c.058-.067.119-.132.178-.2l.358-.4c.123-.13.252-.255.378-.383.248-.261.523-.495.788-.74a16.617,16.617,0,0,1,1.726-1.316,18.413,18.413,0,0,1,1.872-1.1c.161-.082.325-.155.488-.233s.322-.159.49-.226l.5-.209.249-.1.248-.091.987-.361.483-.176.471-.2c.156-.067.315-.127.466-.2l.456-.218.226-.108.221-.119.437-.235a18.579,18.579,0,0,0,3.113-2.185,19.362,19.362,0,0,0,2.38-2.451c.339-.407.642-.817.924-1.21.137-.2.272-.393.4-.585s.248-.378.358-.564a20.946,20.946,0,0,0,1.077-1.964c.266-.562.453-1.013.574-1.324s.172-.48.172-.48a.056.056,0,0,1,.108.03Z" transform="translate(-1328.27 -864.416)" fill="#fff" opacity="0.47"/>
    </g>
    <g id="Grupo_84433" data-name="Grupo 84433" transform="translate(1233.321 765.851)">
      <path id="Trazado_113253" data-name="Trazado 113253" d="M1311.465,777.047a.514.514,0,0,1,1,.168c-.01,2.92.244,6.687,1.395,9.3,2.135,4.841,4.791,21.693-10.42,27.584s-19.3,9.611-21.53,25.019c-2.041,14.083-7.447,43.976-8.362,49.015a.763.763,0,0,1-.866.617h0a.763.763,0,0,1-.641-.867c.981-6.586,8.156-54.459,11.117-65.874C1287.849,803.918,1304.774,796.857,1311.465,777.047Z" transform="translate(-1272.032 -776.699)" fill="#bde9fb"/>
      <path id="Trazado_113254" data-name="Trazado 113254" d="M1312.672,792.324l.008.036.024.108c.019.094.045.234.071.417a10.866,10.866,0,0,1,.106,1.594c0,.343-.013.725-.053,1.138-.015.207-.046.421-.074.643s-.07.451-.12.686-.1.476-.164.725c-.032.123-.069.247-.1.373s-.074.254-.117.381a13.438,13.438,0,0,1-1.517,3.189l-.269.4c-.089.135-.191.262-.288.4-.191.268-.41.521-.623.784a18.514,18.514,0,0,1-3.13,2.856c-1.189.872-2.464,1.681-3.771,2.482s-2.634,1.6-3.914,2.477c-.642.431-1.265.891-1.876,1.358s-1.2.964-1.751,1.483a24.715,24.715,0,0,0-3,3.29,26.6,26.6,0,0,0-2.241,3.518l-.231.438c-.076.145-.154.288-.221.435l-.409.862c-.069.14-.129.283-.189.425l-.18.42c-.116.279-.242.547-.34.821l-.3.8c-.048.13-.1.257-.145.385l-.13.381c-.168.5-.34.975-.468,1.43s-.269.874-.374,1.269l-.286,1.087c-.091.328-.155.623-.214.881l-.149.653-.125.544v0a.109.109,0,0,1-.132.082.111.111,0,0,1-.084-.131l.119-.547.143-.657c.057-.259.119-.557.206-.886s.176-.7.276-1.1.233-.823.362-1.28.293-.937.456-1.445l.126-.384c.043-.13.094-.259.141-.391l.3-.806c.1-.276.221-.549.335-.832l.177-.426c.059-.143.12-.289.188-.43l.407-.873c.066-.149.145-.294.221-.441l.231-.445a27,27,0,0,1,2.248-3.578,24.9,24.9,0,0,1,3.029-3.358c.563-.528,1.163-1.021,1.772-1.507s1.247-.941,1.894-1.377c1.289-.884,2.622-1.692,3.923-2.5s2.57-1.612,3.731-2.467c.584-.439,1.141-.872,1.654-1.341a16.417,16.417,0,0,0,1.423-1.446c.208-.255.423-.5.61-.761.094-.129.195-.252.282-.384l.263-.388c.089-.127.163-.262.245-.391s.16-.258.229-.39l.214-.389.195-.39a12.6,12.6,0,0,0,.626-1.525c.044-.123.085-.246.119-.37l.107-.362c.061-.24.124-.474.169-.7a13,13,0,0,0,.289-2.4,11.286,11.286,0,0,0-.066-1.558c-.02-.179-.04-.315-.056-.405l-.019-.1-.006-.035v0a.117.117,0,0,1,.229-.05Z" transform="translate(-1274.924 -779.943)" fill="#fff" opacity="0.47"/>
    </g>
    <g id="Grupo_84435" data-name="Grupo 84435" transform="translate(1233.199 795.291)">
      <g id="Grupo_84434" data-name="Grupo 84434" transform="translate(0)">
        <path id="Trazado_113255" data-name="Trazado 113255" d="M1327.057,819.617l3.1.194a2.88,2.88,0,0,1,2.7,2.917l-1.082,73.62a3.022,3.022,0,0,1-3.086,2.977l-21.3-.455Z" transform="translate(-1279.294 -815.103)" fill="url(#linear-gradient-4)"/>
        <path id="Trazado_113256" data-name="Trazado 113256" d="M1285.222,819.193l39.328-1.9a1.4,1.4,0,0,1,1.462,1.438l-2.426,75.862a2.916,2.916,0,0,1-3.032,2.82l-27.642-1.112Z" transform="translate(-1274.665 -814.616)" fill="#7dc4f4"/>
        <path id="Trazado_113257" data-name="Trazado 113257" d="M1287.876,820.543l34.589-4.414a1.467,1.467,0,0,1,1.652,1.487l-1.683,76.515a2.027,2.027,0,0,1-1.967,1.982l-25.448.744Z" transform="translate(-1275.219 -814.372)" fill="#bde9fb"/>
        <path id="Trazado_113258" data-name="Trazado 113258" d="M1275.443,816.278l37.923-2.361a3.283,3.283,0,0,1,3.487,3.277V895.33a2.869,2.869,0,0,1-2.869,2.869h-34.964a3.1,3.1,0,0,1-3.1-2.938l-4.037-74.984A3.8,3.8,0,0,1,1275.443,816.278Z" transform="translate(-1271.878 -813.911)" fill="url(#linear-gradient-5)"/>
        <rect id="Rect치ngulo_14953" data-name="Rect치ngulo 14953" width="5.895" height="23.317" rx="2.948" transform="translate(42.028 7.461)" fill="url(#linear-gradient-6)"/>
      </g>
    </g>
    <g id="Grupo_84444" data-name="Grupo 84444" transform="translate(1139.8 775.406)">
      <rect id="Rect치ngulo_14954" data-name="Rect치ngulo 14954" width="102.428" height="85.935" transform="translate(6.937 11.37)" fill="url(#linear-gradient-7)"/>
      <g id="Grupo_84437" data-name="Grupo 84437" transform="translate(0.318)">
        <path id="Trazado_113259" data-name="Trazado 113259" d="M1266.943,788.776l-110.025.693a2.585,2.585,0,0,0-2.694,2.44v16.42a2.5,2.5,0,0,0,2.6,2.35l110.118.693a2.724,2.724,0,0,0,2.947-2.475V791.251A2.724,2.724,0,0,0,1266.943,788.776Z" transform="translate(-1154.224 -788.776)" fill="url(#linear-gradient-8)"/>
        <g id="Grupo_84436" data-name="Grupo 84436" transform="translate(0.001)">
          <path id="Trazado_113260" data-name="Trazado 113260" d="M1266.958,788.776l-110.132.694a2.5,2.5,0,0,0-2.6,2.349l115.693-.568A2.737,2.737,0,0,0,1266.958,788.776Z" transform="translate(-1154.225 -788.776)" fill="url(#linear-gradient-9)"/>
          <path id="Trazado_113261" data-name="Trazado 113261" d="M1156.826,815.841l110.132.693a2.738,2.738,0,0,0,2.96-2.475l-115.693-.568A2.5,2.5,0,0,0,1156.826,815.841Z" transform="translate(-1154.225 -793.938)" fill="url(#linear-gradient-10)"/>
        </g>
      </g>
      <g id="Grupo_84439" data-name="Grupo 84439" transform="translate(0 27.154)">
        <path id="Trazado_113262" data-name="Trazado 113262" d="M1266.947,823.326l-110.108-.228a2.683,2.683,0,0,0-2.815,2.49l-.2,16.949a2.554,2.554,0,0,0,2.662,2.437l110.456.966a2.668,2.668,0,0,0,2.866-2.474V825.82A2.7,2.7,0,0,0,1266.947,823.326Z" transform="translate(-1153.822 -823.098)" fill="url(#linear-gradient-11)"/>
        <g id="Grupo_84438" data-name="Grupo 84438" transform="translate(0.002)">
          <path id="Trazado_113263" data-name="Trazado 113263" d="M1267.016,823.326,1156.8,823.1a2.586,2.586,0,0,0-2.714,2.4l115.8.325A2.709,2.709,0,0,0,1267.016,823.326Z" transform="translate(-1153.878 -823.098)" fill="url(#linear-gradient-12)"/>
          <path id="Trazado_113264" data-name="Trazado 113264" d="M1156.485,850.106l110.47.966a2.681,2.681,0,0,0,2.879-2.474l-116.01-.929A2.553,2.553,0,0,0,1156.485,850.106Z" transform="translate(-1153.824 -828.23)" fill="url(#linear-gradient-13)"/>
        </g>
      </g>
      <g id="Grupo_84441" data-name="Grupo 84441" transform="translate(0.318 54.863)">
        <path id="Trazado_113265" data-name="Trazado 113265" d="M1267.144,858.122H1157.106a2.728,2.728,0,0,0-2.882,2.564v17.55a2.63,2.63,0,0,0,2.775,2.473h110.144a2.6,2.6,0,0,0,2.746-2.473V860.59A2.6,2.6,0,0,0,1267.144,858.122Z" transform="translate(-1154.224 -858.122)" fill="url(#linear-gradient-14)"/>
        <g id="Grupo_84440" data-name="Grupo 84440" transform="translate(0.001)">
          <path id="Trazado_113266" data-name="Trazado 113266" d="M1267.144,858.122H1157a2.594,2.594,0,0,0-2.775,2.417h115.693A2.593,2.593,0,0,0,1267.144,858.122Z" transform="translate(-1154.225 -858.122)" fill="url(#linear-gradient-15)"/>
          <path id="Trazado_113267" data-name="Trazado 113267" d="M1157,886.006h110.144a2.607,2.607,0,0,0,2.775-2.521H1154.225A2.607,2.607,0,0,0,1157,886.006Z" transform="translate(-1154.225 -863.419)" fill="url(#linear-gradient-16)"/>
        </g>
      </g>
      <g id="Grupo_84443" data-name="Grupo 84443" transform="translate(0.318 82.278)">
        <path id="Trazado_113268" data-name="Trazado 113268" d="M1267.26,893.206l-110.1-.43a2.766,2.766,0,0,0-2.935,2.579V912.9a2.675,2.675,0,0,0,2.825,2.493l110.15.043a2.605,2.605,0,0,0,2.733-2.446l.049-17.328A2.6,2.6,0,0,0,1267.26,893.206Z" transform="translate(-1154.224 -892.775)" fill="url(#linear-gradient-17)"/>
        <g id="Grupo_84442" data-name="Grupo 84442" transform="translate(0.001)">
          <path id="Trazado_113269" data-name="Trazado 113269" d="M1267.26,893.206l-110.209-.431a2.664,2.664,0,0,0-2.826,2.483l115.756.408A2.6,2.6,0,0,0,1267.26,893.206Z" transform="translate(-1154.225 -892.775)" fill="url(#linear-gradient-18)"/>
          <path id="Trazado_113270" data-name="Trazado 113270" d="M1157.049,920.712l110.15.043a2.6,2.6,0,0,0,2.733-2.446l-115.707-.089A2.675,2.675,0,0,0,1157.049,920.712Z" transform="translate(-1154.225 -898.089)" fill="url(#linear-gradient-19)"/>
        </g>
      </g>
    </g>
    <g id="Grupo_84446" data-name="Grupo 84446" transform="translate(1104.952 754.416)">
      <path id="Trazado_113271" data-name="Trazado 113271" d="M1130.583,805.211c-.018-.224-.246-.417-.633-.572.42-.232.653-.48.633-.724-.059-.737-2.394-1.151-5.215-.923s-5.059,1.009-5,1.747c.018.223.246.417.633.572-.42.232-.653.48-.633.724.018.224.246.418.633.573-.42.232-.653.48-.633.724.018.223.246.417.633.572-.42.232-.653.48-.633.724.026.326.5.589,1.259.761a6.622,6.622,0,0,0,.02.8c.11,1.358,1.639,2.424,3.66,2.424s3.771-1.453,3.791-2.816a6.932,6.932,0,0,0-.04-.889c.968-.323,1.556-.718,1.525-1.1-.018-.223-.246-.417-.633-.572.42-.232.653-.48.633-.724-.018-.224-.246-.418-.633-.573C1130.37,805.7,1130.6,805.454,1130.583,805.211Z" transform="translate(-1111.987 -770.742)" fill="url(#linear-gradient-20)"/>
      <g id="Grupo_84445" data-name="Grupo 84445" transform="translate(9.133 33.964)">
        <path id="Trazado_113272" data-name="Trazado 113272" d="M1124.433,811.268a12.138,12.138,0,0,1-2.237-.184.068.068,0,0,1,.025-.133,14.581,14.581,0,0,0,3.727.118,16.036,16.036,0,0,0,3.126-.539.069.069,0,0,1,.085.047.068.068,0,0,1-.047.084,16.186,16.186,0,0,1-3.153.544C1125.434,811.247,1124.922,811.268,1124.433,811.268Z" transform="translate(-1121.49 -806.293)" fill="#91defa"/>
        <path id="Trazado_113273" data-name="Trazado 113273" d="M1124.318,809.535a10.642,10.642,0,0,1-2.748-.3.068.068,0,0,1-.047-.084.068.068,0,0,1,.084-.047,15.678,15.678,0,0,0,8.306-.66.068.068,0,1,1,.057.123,13.371,13.371,0,0,1-4.141.9C1125.313,809.514,1124.8,809.535,1124.318,809.535Z" transform="translate(-1121.361 -805.857)" fill="#91defa"/>
        <path id="Trazado_113274" data-name="Trazado 113274" d="M1124.261,807.9a9.906,9.906,0,0,1-2.9-.348.068.068,0,1,1,.042-.129,12.376,12.376,0,0,0,4.369.279,13.224,13.224,0,0,0,4.095-.891.068.068,0,1,1,.057.123,13.357,13.357,0,0,1-4.141.9C1125.262,807.876,1124.749,807.9,1124.261,807.9Z" transform="translate(-1121.319 -805.515)" fill="#91defa"/>
        <path id="Trazado_113275" data-name="Trazado 113275" d="M1124.392,806.26a11.628,11.628,0,0,1-2.44-.222.068.068,0,1,1,.029-.132,14.1,14.1,0,0,0,3.916.157,13.342,13.342,0,0,0,4.074-.881.068.068,0,0,1,.055.124,13.449,13.449,0,0,1-4.119.893C1125.39,806.24,1124.879,806.26,1124.392,806.26Z" transform="translate(-1121.44 -805.175)" fill="#91defa"/>
      </g>
      <path id="Trazado_113276" data-name="Trazado 113276" d="M1116.262,790.17a9.535,9.535,0,0,0-1.709-3.335,22.088,22.088,0,0,1-4.756-12.3c-.49-8.545,7.088-12.824,14-12.242s13.739,5.729,12.991,13.679a18.356,18.356,0,0,1-5.235,10.732,11.3,11.3,0,0,0-2.717,4.815c-.613,2.209-2.068,4.961-5.528,5.129C1118.834,796.868,1116.975,792.7,1116.262,790.17Z" transform="translate(-1109.774 -762.245)" fill="url(#linear-gradient-21)"/>
      <path id="Trazado_113277" data-name="Trazado 113277" d="M1128.33,799.3l2.42-15.738c.05-.325.21-.544.358-.487s.226.365.176.69l0,.028-2.756,15.592c-.021.117-.081.191-.133.165S1128.312,799.408,1128.33,799.3Z" transform="translate(-1113.649 -766.593)" fill="url(#linear-gradient-22)"/>
      <path id="Trazado_113278" data-name="Trazado 113278" d="M1124.373,799.453l-2.42-15.738c-.05-.325-.21-.544-.358-.487s-.226.365-.177.69l0,.028,2.756,15.592c.021.117.081.191.133.165S1124.39,799.566,1124.373,799.453Z" transform="translate(-1112.203 -766.625)" fill="url(#linear-gradient-23)"/>
      <path id="Trazado_113279" data-name="Trazado 113279" d="M1129.494,781.477a.254.254,0,0,0-.318-.082l-1.347.63-.468-1.333a.286.286,0,0,0-.164-.165.333.333,0,0,0-.414.127l0,0-1.108,2.02-1.028-2.876,0,0a.331.331,0,0,0-.156-.176.4.4,0,0,0-.509.1l-1.549,2.132a.187.187,0,0,0,.055.27.258.258,0,0,0,.329-.036l1.364-1.521,1.228,2.736v0a.218.218,0,0,0,.109.106.257.257,0,0,0,.321-.083l1.185-1.9.446.962,0,.009.011.021a.253.253,0,0,0,.317.082l1.6-.748A.19.19,0,0,0,1129.494,781.477Z" transform="translate(-1112.41 -765.864)" fill="#fff" opacity="0.6"/>
      <path id="Trazado_113280" data-name="Trazado 113280" d="M1137.332,789.872a.153.153,0,0,1-.093-.032.157.157,0,0,1-.033-.22,18.081,18.081,0,0,0,1.132-1.719.157.157,0,1,1,.273.157,18.207,18.207,0,0,1-1.152,1.749A.156.156,0,0,1,1137.332,789.872Z" transform="translate(-1115.497 -767.587)" fill="#fff" opacity="0.6"/>
      <path id="Trazado_113281" data-name="Trazado 113281" d="M1139.849,783.073a.161.161,0,0,1-.062-.013.157.157,0,0,1-.082-.207,14.523,14.523,0,0,0,.328-11,.157.157,0,0,1,.286-.13,14.84,14.84,0,0,1-.325,11.259A.157.157,0,0,1,1139.849,783.073Z" transform="translate(-1116.023 -764.205)" fill="#fff" opacity="0.6"/>
    </g>
    <g id="Grupo_84458" data-name="Grupo 84458" transform="translate(1117.195 790.739)">
      <g id="Grupo_84447" data-name="Grupo 84447" transform="translate(3.281 3.281)">
        <path id="Trazado_113282" data-name="Trazado 113282" d="M1129.957,827.8a.157.157,0,0,1-.121-.056l-.4-.485a.158.158,0,0,1,.242-.2l.4.485a.157.157,0,0,1-.121.258Z" transform="translate(-1129.396 -815.374)" fill="url(#linear-gradient)"/>
        <path id="Trazado_113283" data-name="Trazado 113283" d="M1156.9,860.176a.158.158,0,0,1-.122-.057l-.782-.941a.158.158,0,1,1,.242-.2l.783.941a.158.158,0,0,1-.021.221A.156.156,0,0,1,1156.9,860.176Zm-1.566-1.882a.155.155,0,0,1-.121-.057l-.783-.941a.158.158,0,1,1,.242-.2l.783.941a.157.157,0,0,1-.021.222A.156.156,0,0,1,1155.329,858.294Zm-1.566-1.882a.155.155,0,0,1-.121-.057l-.783-.941a.158.158,0,1,1,.242-.2l.783.941a.158.158,0,0,1-.02.222A.16.16,0,0,1,1153.763,856.412Zm-1.566-1.882a.159.159,0,0,1-.122-.057l-.782-.941a.157.157,0,1,1,.242-.2l.783.941a.158.158,0,0,1-.121.259Zm-1.567-1.882a.158.158,0,0,1-.121-.057l-.783-.942a.157.157,0,0,1,.242-.2l.783.941a.158.158,0,0,1-.021.222A.156.156,0,0,1,1150.631,852.648Zm-1.567-1.882a.158.158,0,0,1-.121-.057l-.783-.941a.157.157,0,0,1,.242-.2l.783.941a.158.158,0,0,1-.02.222A.16.16,0,0,1,1149.064,850.765Zm-1.566-1.882a.159.159,0,0,1-.122-.057l-.783-.941a.158.158,0,0,1,.243-.2l.783.941a.158.158,0,0,1-.12.259ZM1145.932,847a.156.156,0,0,1-.121-.056l-.783-.941a.158.158,0,0,1,.242-.2l.783.941a.157.157,0,0,1-.121.258Zm-1.566-1.882a.156.156,0,0,1-.121-.056l-.783-.942a.158.158,0,0,1,.242-.2l.783.941a.157.157,0,0,1-.121.258Zm-1.566-1.882a.157.157,0,0,1-.121-.057l-.783-.941a.158.158,0,0,1,.243-.2l.782.941a.157.157,0,0,1-.121.258Zm-1.566-1.882a.158.158,0,0,1-.122-.057l-.782-.941a.158.158,0,1,1,.242-.2l.783.941a.157.157,0,0,1-.021.222A.156.156,0,0,1,1141.234,841.354Zm-1.567-1.882a.155.155,0,0,1-.121-.057l-.783-.941a.158.158,0,1,1,.242-.2l.783.941a.158.158,0,0,1-.021.222A.156.156,0,0,1,1139.667,839.472Zm-1.566-1.882a.156.156,0,0,1-.121-.057l-.783-.941a.158.158,0,1,1,.243-.2l.783.941a.158.158,0,0,1-.02.222A.16.16,0,0,1,1138.1,837.59Zm-1.566-1.882a.161.161,0,0,1-.122-.057l-.782-.941a.157.157,0,1,1,.242-.2l.783.941a.158.158,0,0,1-.021.222A.156.156,0,0,1,1136.535,835.708Zm-1.567-1.882a.158.158,0,0,1-.121-.057l-.783-.941a.157.157,0,0,1,.242-.2l.783.941a.158.158,0,0,1-.021.222A.156.156,0,0,1,1134.969,833.825Zm-1.567-1.882a.158.158,0,0,1-.121-.057l-.783-.941a.158.158,0,0,1,.243-.2l.782.941a.157.157,0,0,1-.121.259Zm-1.566-1.882a.16.16,0,0,1-.122-.057l-.782-.941a.158.158,0,0,1,.242-.2l.783.942a.158.158,0,0,1-.121.259Z" transform="translate(-1129.709 -815.751)" fill="url(#linear-gradient)"/>
        <path id="Trazado_113284" data-name="Trazado 113284" d="M1165.111,870.049a.157.157,0,0,1-.121-.057l-.4-.484a.158.158,0,1,1,.243-.2l.307.37.385-.288a.157.157,0,1,1,.188.252l-.5.377A.155.155,0,0,1,1165.111,870.049Z" transform="translate(-1136.738 -824.198)" fill="url(#linear-gradient-26)"/>
        <path id="Trazado_113285" data-name="Trazado 113285" d="M1167.151,862.868a.158.158,0,0,1-.095-.284l1.025-.766a.158.158,0,0,1,.189.252l-1.024.766A.157.157,0,0,1,1167.151,862.868Zm2.049-1.532a.158.158,0,0,1-.094-.284l1.025-.766a.157.157,0,1,1,.188.252l-1.025.766A.155.155,0,0,1,1169.2,861.337Zm2.049-1.532a.158.158,0,0,1-.094-.284l1.025-.766a.158.158,0,1,1,.189.252l-1.024.766A.158.158,0,0,1,1171.25,859.8Zm2.05-1.532a.157.157,0,0,1-.094-.284l1.025-.766a.157.157,0,1,1,.188.252l-1.025.766A.157.157,0,0,1,1173.3,858.273Zm2.049-1.532a.158.158,0,0,1-.094-.284l1.024-.766a.158.158,0,1,1,.189.252l-1.024.766A.158.158,0,0,1,1175.348,856.742Zm2.05-1.532a.157.157,0,0,1-.094-.283l1.025-.766a.157.157,0,0,1,.221.032.159.159,0,0,1-.032.221l-1.025.766A.161.161,0,0,1,1177.4,855.209Zm2.049-1.532a.157.157,0,0,1-.094-.283l1.025-.767a.158.158,0,0,1,.189.252l-1.025.767A.162.162,0,0,1,1179.447,853.678Zm2.05-1.532a.158.158,0,0,1-.094-.284l1.024-.766a.158.158,0,1,1,.189.252l-1.025.766A.156.156,0,0,1,1181.5,852.146Zm2.049-1.532a.158.158,0,0,1-.094-.284l1.025-.766a.158.158,0,0,1,.189.252l-1.025.766A.157.157,0,0,1,1183.546,850.614Zm2.05-1.532a.158.158,0,0,1-.094-.284l1.025-.766a.157.157,0,1,1,.188.252l-1.025.766A.156.156,0,0,1,1185.6,849.083Zm2.049-1.532a.158.158,0,0,1-.094-.284l1.025-.766a.158.158,0,0,1,.189.252l-1.025.766A.158.158,0,0,1,1187.645,847.551Zm2.05-1.532a.157.157,0,0,1-.094-.283l1.025-.766a.157.157,0,1,1,.188.252l-1.025.766A.156.156,0,0,1,1189.695,846.018Zm2.049-1.532a.157.157,0,0,1-.094-.283l1.025-.766a.158.158,0,1,1,.189.252l-1.025.766A.158.158,0,0,1,1191.744,844.487Zm2.05-1.532a.157.157,0,0,1-.095-.283l1.025-.767a.157.157,0,1,1,.188.252l-1.024.767A.162.162,0,0,1,1193.794,842.955Zm2.049-1.532a.158.158,0,0,1-.094-.284l1.025-.766a.158.158,0,1,1,.189.252l-1.025.766A.153.153,0,0,1,1195.843,841.424Z" transform="translate(-1137.248 -818.16)" fill="url(#linear-gradient)"/>
        <path id="Trazado_113286" data-name="Trazado 113286" d="M1206.008,839.59a.158.158,0,0,1-.095-.284l.505-.377a.157.157,0,0,1,.161-.016l.57.271a.158.158,0,0,1-.135.285l-.483-.23-.429.32A.156.156,0,0,1,1206.008,839.59Z" transform="translate(-1145.364 -817.859)" fill="url(#linear-gradient-28)"/>
        <path id="Trazado_113287" data-name="Trazado 113287" d="M1232.249,851.385a.161.161,0,0,1-.068-.015l-1.117-.532a.157.157,0,1,1,.135-.284l1.118.531a.158.158,0,0,1-.068.3Zm-2.236-1.062a.161.161,0,0,1-.067-.015l-1.118-.532a.158.158,0,0,1,.135-.285l1.118.532a.158.158,0,0,1-.068.3Zm-2.235-1.062a.155.155,0,0,1-.067-.016l-1.118-.531a.158.158,0,0,1,.135-.285l1.118.532a.158.158,0,0,1-.068.3Zm-2.235-1.063a.16.16,0,0,1-.068-.015l-1.117-.532a.157.157,0,1,1,.135-.284l1.117.531a.157.157,0,0,1-.067.3Zm-2.236-1.062a.156.156,0,0,1-.067-.015l-1.118-.532a.158.158,0,0,1,.135-.285l1.118.532a.158.158,0,0,1-.068.3Zm-2.235-1.063a.15.15,0,0,1-.068-.016l-1.117-.531a.158.158,0,1,1,.135-.285l1.117.532a.157.157,0,0,1-.067.3Zm-2.236-1.063a.16.16,0,0,1-.067-.015l-1.118-.532a.157.157,0,1,1,.135-.284l1.118.531a.158.158,0,0,1,.074.211A.156.156,0,0,1,1218.837,845.008Zm-2.235-1.062a.153.153,0,0,1-.067-.015l-1.118-.532a.158.158,0,0,1,.135-.285l1.118.532a.158.158,0,0,1-.068.3Zm-2.235-1.062a.152.152,0,0,1-.068-.016l-1.118-.531a.158.158,0,0,1,.136-.285l1.117.532a.158.158,0,0,1-.067.3Zm-2.236-1.063a.155.155,0,0,1-.067-.015l-1.118-.531a.158.158,0,0,1,.135-.285l1.118.531a.159.159,0,0,1,.074.21A.157.157,0,0,1,1212.131,841.82Zm-2.235-1.062a.161.161,0,0,1-.068-.015l-1.117-.532a.158.158,0,1,1,.135-.285l1.117.532a.157.157,0,0,1-.067.3Z" transform="translate(-1145.943 -818.07)" fill="url(#linear-gradient)"/>
        <path id="Trazado_113288" data-name="Trazado 113288" d="M1240.427,855.211a.154.154,0,0,1-.067-.015l-.57-.271a.158.158,0,0,1,.135-.285l.453.215.3-.4a.158.158,0,1,1,.253.188l-.375.506A.157.157,0,0,1,1240.427,855.211Z" transform="translate(-1152.434 -821.094)" fill="url(#linear-gradient)"/>
        <path id="Trazado_113289" data-name="Trazado 113289" d="M1241.97,845.408a.158.158,0,0,1-.126-.252l.728-.984a.158.158,0,1,1,.253.188l-.728.984A.157.157,0,0,1,1241.97,845.408Zm1.455-1.968a.158.158,0,0,1-.126-.252l.728-.983a.157.157,0,0,1,.253.187l-.728.984A.156.156,0,0,1,1243.425,843.439Zm1.455-1.968a.153.153,0,0,1-.093-.032.156.156,0,0,1-.033-.22l.727-.984a.158.158,0,0,1,.254.188l-.728.984A.156.156,0,0,1,1244.88,841.472Zm1.455-1.968a.158.158,0,0,1-.127-.252l.727-.984a.158.158,0,0,1,.254.188l-.728.984A.157.157,0,0,1,1246.335,839.5Zm1.455-1.968a.152.152,0,0,1-.094-.031.156.156,0,0,1-.033-.22l.727-.984a.158.158,0,1,1,.254.188l-.728.984A.158.158,0,0,1,1247.79,837.535Zm1.455-1.968a.158.158,0,0,1-.127-.252l.727-.984a.158.158,0,0,1,.253.188l-.727.984A.157.157,0,0,1,1249.245,835.568Zm1.455-1.968a.154.154,0,0,1-.094-.031.157.157,0,0,1-.033-.22l.727-.984a.157.157,0,1,1,.253.188l-.727.983A.156.156,0,0,1,1250.7,833.6Zm1.455-1.968a.157.157,0,0,1-.127-.252l.727-.984a.158.158,0,0,1,.253.188l-.727.984A.156.156,0,0,1,1252.155,831.631Zm1.455-1.968a.159.159,0,0,1-.094-.031.157.157,0,0,1-.032-.22l.727-.984a.157.157,0,1,1,.253.188l-.727.983A.157.157,0,0,1,1253.61,829.663Zm1.454-1.968a.155.155,0,0,1-.093-.032.158.158,0,0,1-.033-.22l.728-.984a.158.158,0,1,1,.253.188l-.727.984A.158.158,0,0,1,1255.064,827.7Zm1.455-1.968a.158.158,0,0,1-.126-.252l.728-.983a.157.157,0,0,1,.253.187l-.727.984A.158.158,0,0,1,1256.519,825.727Zm1.455-1.968a.153.153,0,0,1-.093-.031.158.158,0,0,1-.033-.22l.728-.984a.157.157,0,1,1,.253.188l-.727.984A.157.157,0,0,1,1257.974,823.759Zm1.455-1.968a.158.158,0,0,1-.126-.252l.728-.983a.157.157,0,0,1,.253.187l-.727.984A.159.159,0,0,1,1259.428,821.791Zm1.455-1.968a.152.152,0,0,1-.093-.031.157.157,0,0,1-.033-.22l.728-.984a.158.158,0,1,1,.253.188l-.728.984A.156.156,0,0,1,1260.883,819.823Zm1.455-1.968a.158.158,0,0,1-.127-.252l.728-.984a.158.158,0,0,1,.253.188l-.728.984A.157.157,0,0,1,1262.338,817.855Zm1.455-1.968a.151.151,0,0,1-.093-.031.157.157,0,0,1-.033-.22l.727-.984a.158.158,0,0,1,.254.188l-.728.983A.156.156,0,0,1,1263.793,815.887Z" transform="translate(-1152.875 -812.781)" fill="url(#linear-gradient)"/>
        <path id="Trazado_113290" data-name="Trazado 113290" d="M1271.394,813.526a.158.158,0,0,1-.127-.252l.375-.507a.157.157,0,0,1,.226-.028l.488.4a.158.158,0,0,1-.2.244l-.36-.294-.277.374A.157.157,0,0,1,1271.394,813.526Z" transform="translate(-1159.021 -812.388)" fill="url(#linear-gradient-2)"/>
        <path id="Trazado_113291" data-name="Trazado 113291" d="M1311.269,845.161a.159.159,0,0,1-.1-.036l-.963-.786a.158.158,0,1,1,.2-.245l.963.786a.158.158,0,0,1-.1.28Zm-1.927-1.572a.154.154,0,0,1-.1-.036l-.963-.786a.157.157,0,1,1,.2-.244l.963.786a.157.157,0,0,1-.1.279Zm-1.926-1.571a.158.158,0,0,1-.1-.036l-.963-.786a.157.157,0,1,1,.2-.245l.964.786a.158.158,0,0,1,.022.222A.156.156,0,0,1,1307.416,842.017Zm-1.927-1.571a.157.157,0,0,1-.1-.036l-.964-.786a.158.158,0,0,1,.2-.244l.964.786a.157.157,0,0,1,.022.222A.155.155,0,0,1,1305.49,840.446Zm-1.926-1.572a.153.153,0,0,1-.1-.036l-.964-.786a.157.157,0,1,1,.2-.244l.964.786a.157.157,0,0,1-.1.279Zm-1.927-1.571a.157.157,0,0,1-.1-.036l-.964-.786a.158.158,0,0,1,.2-.244l.964.786a.158.158,0,0,1-.1.28Zm-1.927-1.572a.156.156,0,0,1-.1-.035l-.963-.786a.157.157,0,1,1,.2-.244l.963.786a.157.157,0,0,1-.1.279Zm-1.927-1.571a.156.156,0,0,1-.1-.036l-.964-.786a.158.158,0,0,1,.2-.245l.963.786a.158.158,0,0,1-.1.28Zm-1.926-1.571a.159.159,0,0,1-.1-.036l-.963-.786a.157.157,0,0,1,.2-.244l.963.786a.157.157,0,0,1,.023.222A.16.16,0,0,1,1295.857,832.589Zm-1.926-1.572a.159.159,0,0,1-.1-.036l-.963-.786a.158.158,0,1,1,.2-.245l.963.786a.157.157,0,0,1-.1.279ZM1292,829.445a.158.158,0,0,1-.1-.036l-.963-.786a.158.158,0,1,1,.2-.244l.963.786a.157.157,0,0,1,.022.221A.155.155,0,0,1,1292,829.445Zm-1.927-1.572a.154.154,0,0,1-.1-.036l-.963-.786a.157.157,0,1,1,.2-.244l.964.786a.157.157,0,0,1-.1.279Zm-1.926-1.571a.159.159,0,0,1-.1-.036l-.964-.786a.158.158,0,0,1,.2-.244l.964.786a.158.158,0,0,1,.022.222A.157.157,0,0,1,1288.151,826.3Zm-1.926-1.571a.157.157,0,0,1-.1-.036l-.964-.786a.158.158,0,0,1,.2-.245l.964.786a.158.158,0,0,1-.1.28Zm-1.927-1.572a.152.152,0,0,1-.1-.036l-.964-.786a.158.158,0,0,1,.2-.244l.964.786a.157.157,0,0,1-.1.279Zm-1.927-1.571a.157.157,0,0,1-.1-.036l-.964-.786a.158.158,0,0,1,.2-.245l.964.786a.158.158,0,0,1-.1.28Zm-1.927-1.572a.152.152,0,0,1-.1-.036l-.964-.786a.157.157,0,0,1,.2-.244l.963.786a.157.157,0,0,1,.023.222A.16.16,0,0,1,1280.444,820.016Zm-1.926-1.571a.157.157,0,0,1-.1-.036l-.964-.786a.158.158,0,1,1,.2-.244l.963.786a.158.158,0,0,1-.1.28Zm-1.927-1.572a.158.158,0,0,1-.1-.035l-.963-.786a.157.157,0,1,1,.2-.244l.963.786a.157.157,0,0,1-.1.279Zm-1.926-1.571a.16.16,0,0,1-.1-.036l-.963-.786a.158.158,0,1,1,.2-.244l.963.786a.157.157,0,0,1-.1.279Z" transform="translate(-1159.503 -812.7)" fill="url(#linear-gradient)"/>
        <path id="Trazado_113292" data-name="Trazado 113292" d="M1322.892,854.61a.161.161,0,0,1-.1-.036l-.488-.4a.157.157,0,1,1,.2-.244l.355.29.257-.38a.157.157,0,1,1,.26.177l-.354.521a.161.161,0,0,1-.108.068Z" transform="translate(-1169.675 -820.966)" fill="url(#linear-gradient-34)"/>
        <path id="Trazado_113293" data-name="Trazado 113293" d="M1324.362,844.8a.152.152,0,0,1-.088-.028.157.157,0,0,1-.042-.218l.706-1.042a.158.158,0,1,1,.261.177l-.707,1.041A.157.157,0,0,1,1324.362,844.8Zm1.414-2.083a.157.157,0,0,1-.13-.246l.706-1.041a.158.158,0,0,1,.261.176l-.707,1.042A.16.16,0,0,1,1325.775,842.715Zm1.413-2.083a.157.157,0,0,1-.13-.246l.706-1.041a.158.158,0,0,1,.261.176l-.706,1.042A.157.157,0,0,1,1327.188,840.632Zm1.413-2.083a.157.157,0,0,1-.13-.246l.706-1.041a.158.158,0,0,1,.261.177l-.706,1.042A.157.157,0,0,1,1328.6,838.549Zm1.413-2.083a.161.161,0,0,1-.089-.027.158.158,0,0,1-.042-.219l.707-1.041a.157.157,0,1,1,.26.177l-.707,1.041A.156.156,0,0,1,1330.014,836.466Zm1.413-2.082a.158.158,0,0,1-.13-.246L1332,833.1a.157.157,0,1,1,.26.177l-.706,1.041A.157.157,0,0,1,1331.427,834.384Zm1.413-2.083a.152.152,0,0,1-.088-.028.157.157,0,0,1-.042-.218l.706-1.042a.157.157,0,1,1,.26.177l-.707,1.041A.157.157,0,0,1,1332.84,832.3Zm1.413-2.083a.157.157,0,0,1-.13-.246l.707-1.042a.158.158,0,0,1,.261.177l-.707,1.042A.161.161,0,0,1,1334.253,830.218Zm1.414-2.083a.157.157,0,0,1-.131-.246l.707-1.041a.158.158,0,0,1,.261.176l-.706,1.042A.16.16,0,0,1,1335.667,828.135Zm1.413-2.083a.157.157,0,0,1-.13-.246l.707-1.041a.158.158,0,0,1,.261.176l-.706,1.042A.157.157,0,0,1,1337.08,826.052Zm1.413-2.083a.157.157,0,0,1-.131-.246l.707-1.041a.158.158,0,0,1,.261.177l-.706,1.041A.157.157,0,0,1,1338.493,823.968Zm1.413-2.082a.162.162,0,0,1-.089-.028.157.157,0,0,1-.042-.218l.707-1.042a.157.157,0,1,1,.26.177l-.706,1.041A.157.157,0,0,1,1339.906,821.886Zm1.413-2.083a.152.152,0,0,1-.088-.028.157.157,0,0,1-.042-.218l.706-1.042a.157.157,0,1,1,.26.177l-.707,1.041A.156.156,0,0,1,1341.319,819.8Zm1.413-2.083a.151.151,0,0,1-.088-.028.157.157,0,0,1-.042-.218l.707-1.042a.158.158,0,1,1,.261.177l-.707,1.041A.157.157,0,0,1,1342.732,817.72Zm1.414-2.083a.157.157,0,0,1-.13-.246l.706-1.041a.158.158,0,0,1,.261.176l-.707,1.042A.16.16,0,0,1,1344.146,815.637Z" transform="translate(-1170.083 -812.717)" fill="url(#linear-gradient)"/>
        <path id="Trazado_113294" data-name="Trazado 113294" d="M1351.154,813.141a.157.157,0,0,1-.131-.246l.354-.521a.158.158,0,0,1,.261.176l-.354.522A.157.157,0,0,1,1351.154,813.141Z" transform="translate(-1175.679 -812.305)" fill="url(#linear-gradient-36)"/>
      </g>
      <g id="Grupo_84448" data-name="Grupo 84448" transform="translate(0 12.603)">
        <circle id="Elipse_4456" data-name="Elipse 4456" cx="3.438" cy="3.438" r="3.438" fill="#faf291"/>
        <path id="Trazado_113295" data-name="Trazado 113295" d="M1127.585,828.968a2.659,2.659,0,0,1,3.626-2.483,2.663,2.663,0,1,0-3.444,3.445A2.644,2.644,0,0,1,1127.585,828.968Z" transform="translate(-1125.419 -824.233)" fill="#fbf5bd"/>
      </g>
      <g id="Grupo_84450" data-name="Grupo 84450" transform="translate(26.529 43.85)">
        <circle id="Elipse_4457" data-name="Elipse 4457" cx="4.467" cy="4.467" r="4.467" transform="translate(0 8.818) rotate(-80.783)" fill="#faf291"/>
        <g id="Grupo_84449" data-name="Grupo 84449" transform="translate(1.495 1.37)" opacity="0.38">
          <path id="Trazado_113296" data-name="Trazado 113296" d="M1162.648,870.754a3.456,3.456,0,0,1,4.71-3.225,3.46,3.46,0,1,0-4.475,4.475A3.451,3.451,0,0,1,1162.648,870.754Z" transform="translate(-1160.671 -865.316)" fill="#fff"/>
        </g>
      </g>
      <g id="Grupo_84451" data-name="Grupo 84451" transform="translate(60.08 20.128)">
        <circle id="Elipse_4458" data-name="Elipse 4458" cx="3.438" cy="3.438" r="3.438" transform="matrix(0.316, -0.949, 0.949, 0.316, 0, 6.524)" fill="url(#linear-gradient-37)"/>
        <path id="Trazado_113297" data-name="Trazado 113297" d="M1204.678,839.631a2.661,2.661,0,0,1,3.626-2.484,2.664,2.664,0,1,0-3.445,3.445A2.656,2.656,0,0,1,1204.678,839.631Z" transform="translate(-1201.601 -833.984)" fill="#fff" opacity="0.6"/>
      </g>
      <g id="Grupo_84452" data-name="Grupo 84452" transform="translate(87.481 32.974)">
        <circle id="Elipse_4459" data-name="Elipse 4459" cx="3.438" cy="3.438" r="3.438" transform="matrix(0.109, -0.994, 0.994, 0.109, 0, 6.836)" fill="url(#linear-gradient-38)"/>
        <path id="Trazado_113298" data-name="Trazado 113298" d="M1238.609,855.166a2.659,2.659,0,0,1,3.626-2.483,2.664,2.664,0,1,0-3.444,3.445A2.645,2.645,0,0,1,1238.609,855.166Z" transform="translate(-1236.088 -850.076)" fill="#fff" opacity="0.44"/>
      </g>
      <g id="Grupo_84453" data-name="Grupo 84453" transform="translate(112.59 0.316)">
        <circle id="Elipse_4460" data-name="Elipse 4460" cx="3.438" cy="3.438" r="3.438" fill="url(#linear-gradient-38)"/>
        <path id="Trazado_113299" data-name="Trazado 113299" d="M1269.9,813.437a2.661,2.661,0,0,1,3.626-2.483,2.664,2.664,0,1,0-3.445,3.445A2.655,2.655,0,0,1,1269.9,813.437Z" transform="translate(-1267.733 -808.702)" fill="#fff" opacity="0.44"/>
      </g>
      <g id="Grupo_84455" data-name="Grupo 84455" transform="translate(175.671)">
        <circle id="Elipse_4461" data-name="Elipse 4461" cx="3.438" cy="3.438" r="3.438" fill="#faf291"/>
        <g id="Grupo_84454" data-name="Grupo 84454" transform="translate(0.644 0.549)" opacity="0.38">
          <path id="Trazado_113300" data-name="Trazado 113300" d="M1349.633,813.038a2.661,2.661,0,0,1,3.626-2.483,2.664,2.664,0,1,0-3.444,3.445A2.638,2.638,0,0,1,1349.633,813.038Z" transform="translate(-1348.111 -808.851)" fill="url(#linear-gradient-40)"/>
        </g>
      </g>
      <g id="Grupo_84457" data-name="Grupo 84457" transform="translate(152.469 32.738)">
        <circle id="Elipse_4462" data-name="Elipse 4462" cx="3.438" cy="3.438" r="3.438" transform="translate(0 6.751) rotate(-79.034)" fill="#faf291"/>
        <g id="Grupo_84456" data-name="Grupo 84456" transform="translate(1.235 1.14)" opacity="0.38">
          <path id="Trazado_113301" data-name="Trazado 113301" d="M1321.053,855.166a2.659,2.659,0,0,1,3.626-2.483,2.663,2.663,0,1,0-3.444,3.445A2.661,2.661,0,0,1,1321.053,855.166Z" transform="translate(-1319.531 -850.979)" fill="url(#linear-gradient-41)"/>
        </g>
      </g>
    </g>
    <g id="Grupo_84465" data-name="Grupo 84465" transform="translate(1220.212 824.669)">
      <g id="Grupo_84459" data-name="Grupo 84459" transform="translate(34.237 37.744)">
        <rect id="Rect치ngulo_14955" data-name="Rect치ngulo 14955" width="1.322" height="14.295" transform="translate(6.389 3.203)" fill="#7dc4f4"/>
        <path id="Trazado_113302" data-name="Trazado 113302" d="M1311.909,920.992h-11.578v-.477a.383.383,0,0,1,.383-.383h10.812a.382.382,0,0,1,.383.383Z" transform="translate(-1299.07 -903.218)" fill="#7dc4f4"/>
        <rect id="Rect치ngulo_14956" data-name="Rect치ngulo 14956" width="14.557" height="4.129" rx="1.797" fill="#7dc4f4"/>
      </g>
      <g id="Grupo_84460" data-name="Grupo 84460" transform="translate(14.456 28.731)">
        <path id="Trazado_113303" data-name="Trazado 113303" d="M1294.081,890.753a11.506,11.506,0,0,0-4.172,1.781,1.1,1.1,0,0,0-.486,1.052,46.657,46.657,0,0,0,4.937,15.5,1.663,1.663,0,0,1,.16,1.144l-.622,2.9-1.155,1.083h2.976l1.981-5.361-.847-.268a1.6,1.6,0,0,1-1.119-1.5l-.1-5.751a6.545,6.545,0,0,0-1.571-4.331l4.752-.231Z" transform="translate(-1277.009 -888.069)" fill="url(#linear-gradient-42)"/>
        <path id="Trazado_113304" data-name="Trazado 113304" d="M1292.147,919.434c-.271.354,2.917.823,4.527.047,0,0,2.233-3.885,2.233-5.885,0,0-.177-.407-1.488-.315,0,0-.749,4.6-1.541,5.114a3.157,3.157,0,0,1-2.214.052A4.671,4.671,0,0,0,1292.147,919.434Z" transform="translate(-1277.576 -892.771)" fill="url(#linear-gradient-43)"/>
        <path id="Trazado_113305" data-name="Trazado 113305" d="M1295.3,897.277c-.025-.043-5.115-.612-5.115-.612a11.78,11.78,0,0,1-.354,3.679c-.521,2.131-8,11.362-8,11.362l.784,2.485a12.613,12.613,0,0,1-7.153.43l4.857-2.915s4.546-15.49,7.331-18.254l5.1-1.765Z" transform="translate(-1274.095 -888.264)" fill="url(#linear-gradient-44)"/>
        <path id="Trazado_113306" data-name="Trazado 113306" d="M1309.946,887.36s2.934,4.362,3.174,6.353-.8,2.8-3.881,2.932-11.293.131-11.293.131l-7.013-5.992s5.111-1.824,6.439-2.339S1309.946,887.36,1309.946,887.36Z" transform="translate(-1277.326 -887.36)" fill="url(#linear-gradient-45)"/>
        <path id="Trazado_113307" data-name="Trazado 113307" d="M1281.959,919.074a1.434,1.434,0,0,1,.274,1.726s-6.684,1.185-8.5.648c0,0,.377-.861,2.42-1.839l-.15.116a.244.244,0,0,0,.161.438A18.8,18.8,0,0,0,1281.959,919.074Z" transform="translate(-1273.734 -893.984)" fill="url(#linear-gradient-46)"/>
      </g>
      <g id="Grupo_84461" data-name="Grupo 84461" transform="translate(32.185)">
        <path id="Trazado_113308" data-name="Trazado 113308" d="M1303.339,882.455a66.926,66.926,0,0,1-5.1-5.407,4.57,4.57,0,0,1-.775-4.113,57.031,57.031,0,0,1,2.256-5.682c.191-.638,4.021-.612,4.021-.612s7.536,4.892,10.5,13.176l-3.326,1.036a38.865,38.865,0,0,0-3.911-5.4s3.364,4.444,3.483,6.264Z" transform="translate(-1296.381 -854.302)" fill="url(#linear-gradient-47)"/>
        <path id="Trazado_113309" data-name="Trazado 113309" d="M1299.785,862.765c.039.133,1.039,3.447,1.118,3.516a5.59,5.59,0,0,0,3.187-.5l-1.688-3.534Z" transform="translate(-1296.905 -853.384)" fill="url(#linear-gradient-48)"/>
        <path id="Trazado_113310" data-name="Trazado 113310" d="M1300.906,854.076a6.752,6.752,0,0,0-3.032,3.369c-1.227,2.608-.31,3.812.84,3.977a5.388,5.388,0,0,0,4.693-1.544C1305.228,858.193,1303.251,853.172,1300.906,854.076Z" transform="translate(-1296.384 -851.655)" fill="url(#linear-gradient-49)"/>
        <path id="Trazado_113311" data-name="Trazado 113311" d="M1302.633,857.875s1.362-3.815-2.021-3.86l-.8.556s-1.241-2.115.8-3.125a4.332,4.332,0,0,1,5.943,2.634c.867,2.745.359,4.517-1.083,5.829s-2.036-.176-2.036-.176.786-1.228.466-1.885-1.057.136-1.057.136Z" transform="translate(-1296.833 -851.044)" fill="url(#linear-gradient-50)"/>
        <path id="Trazado_113312" data-name="Trazado 113312" d="M1303.955,859.854s.688-1.965,1.606-1.183-.746,1.816-1.4,2.15Z" transform="translate(-1297.775 -852.599)" fill="url(#linear-gradient-51)"/>
        <path id="Trazado_113313" data-name="Trazado 113313" d="M1296.144,886.175l2.51-2.419,3.472,1.466a17.121,17.121,0,0,0,5.433,0l1.977-.535,4.47-1.392.7,1.984a1.194,1.194,0,0,1-.437,1.372,7.923,7.923,0,0,1-1.129.7c-.588.257-14.509-.178-14.509-.178Z" transform="translate(-1296.144 -857.78)" fill="url(#linear-gradient-52)"/>
        <path id="Trazado_113314" data-name="Trazado 113314" d="M1308.043,855.061a.774.774,0,0,1,.462-1.291c1.983-.309,5.006.006,6.276,4.252,1.43,4.781,2.361,7.172,3.316,7.591a.777.777,0,0,1,.043,1.427,3.292,3.292,0,0,1-2.071.073C1308.762,865.506,1310.593,857.666,1308.043,855.061Z" transform="translate(-1298.585 -851.595)" fill="url(#linear-gradient-50)"/>
      </g>
      <g id="Grupo_84462" data-name="Grupo 84462" transform="translate(13.036 16.318)">
        <path id="Trazado_113315" data-name="Trazado 113315" d="M1304.124,888.028a.239.239,0,0,1-.034,0l-14.557-.016a.652.652,0,1,1,0-1.3l14.557.016a.652.652,0,0,1,.032,1.3Z" transform="translate(-1275.478 -874.811)" fill="url(#linear-gradient-54)"/>
        <path id="Trazado_113316" data-name="Trazado 113316" d="M1272.908,871.67h12.123a2.313,2.313,0,0,1,2.09,1.325l5.6,11.885H1277.66a1.4,1.4,0,0,1-1.305-.888l-4.347-11A.969.969,0,0,1,1272.908,871.67Z" transform="translate(-1271.939 -871.67)" fill="url(#linear-gradient-55)"/>
        <path id="Trazado_113317" data-name="Trazado 113317" d="M1283.449,879.051c.263.817.069,1.609-.433,1.771s-1.122-.369-1.385-1.185-.069-1.609.433-1.771S1283.186,878.236,1283.449,879.051Z" transform="translate(-1273.939 -872.958)" fill="url(#linear-gradient-56)"/>
      </g>
      <g id="Grupo_84464" data-name="Grupo 84464" transform="translate(0 29.397)">
        <g id="Grupo_84463" data-name="Grupo 84463" transform="translate(3.563 1.134)">
          <path id="Trazado_113318" data-name="Trazado 113318" d="M1260.5,917.32a.513.513,0,0,1-.21-.045.55.55,0,0,1-.279-.716l11.18-26.593a.529.529,0,0,1,.7-.286.55.55,0,0,1,.279.717l-11.18,26.593A.533.533,0,0,1,1260.5,917.32Z" transform="translate(-1259.966 -889.636)" fill="#91defa"/>
          <path id="Trazado_113319" data-name="Trazado 113319" d="M1273.468,917.32a.532.532,0,0,1-.49-.33L1261.8,890.4a.551.551,0,0,1,.279-.717.529.529,0,0,1,.7.286l11.18,26.593a.55.55,0,0,1-.279.716A.514.514,0,0,1,1273.468,917.32Z" transform="translate(-1260.339 -889.636)" fill="#91defa"/>
          <path id="Trazado_113320" data-name="Trazado 113320" d="M1316.149,917.32a.513.513,0,0,1-.21-.045.55.55,0,0,1-.279-.716l11.18-26.593a.529.529,0,0,1,.7-.286.551.551,0,0,1,.279.717l-11.18,26.593A.534.534,0,0,1,1316.149,917.32Z" transform="translate(-1271.589 -889.636)" fill="#91defa"/>
          <path id="Trazado_113321" data-name="Trazado 113321" d="M1329.118,917.32a.532.532,0,0,1-.49-.33l-11.18-26.593a.551.551,0,0,1,.278-.717.53.53,0,0,1,.7.286l11.18,26.593a.55.55,0,0,1-.279.716A.513.513,0,0,1,1329.118,917.32Z" transform="translate(-1271.963 -889.636)" fill="#91defa"/>
        </g>
        <path id="Trazado_113322" data-name="Trazado 113322" d="M1317.49,888.872a.538.538,0,0,0-.127-.466.618.618,0,0,0-.463-.2h-60.747a.7.7,0,0,0-.582.3.613.613,0,0,0-.045.621l.658,1.336a.928.928,0,0,0,.837.5h59.462a.688.688,0,0,0,.685-.53Z" transform="translate(-1255.462 -888.202)" fill="#bde9fb"/>
      </g>
    </g>
    <g id="Grupo_84477" data-name="Grupo 84477" transform="translate(1115.009 798.067)">
      <g id="Grupo_84476" data-name="Grupo 84476">
        <g id="Grupo_84475" data-name="Grupo 84475">
          <g id="Grupo_84471" data-name="Grupo 84471" transform="translate(0 13.002)">
            <g id="Grupo_84466" data-name="Grupo 84466" transform="translate(17.75 65.783)">
              <path id="Trazado_113323" data-name="Trazado 113323" d="M1153.576,923.672c-1.525.132-4.172.346-6.259.438a6.019,6.019,0,0,1-2.393-.234c0,.047,0,.092,0,.133a.432.432,0,0,0,.411.407,73.335,73.335,0,0,0,8.2.008.307.307,0,0,0,.25-.461A2.487,2.487,0,0,0,1153.576,923.672Z" transform="translate(-1144.922 -918.397)" fill="url(#linear-gradient-57)"/>
              <path id="Trazado_113324" data-name="Trazado 113324" d="M1147.316,923.3c2.087-.092,4.734-.305,6.26-.438-1.5-1.84-6.26-3.08-6.26-3.08h-1.344a5.641,5.641,0,0,0-1.049,3.283A6.017,6.017,0,0,0,1147.316,923.3Z" transform="translate(-1144.922 -917.584)" fill="url(#linear-gradient-58)"/>
              <path id="Trazado_113325" data-name="Trazado 113325" d="M1145.962,917.005l.126,2.489a.569.569,0,0,0,.486.535,2.209,2.209,0,0,0,1.01-.083.674.674,0,0,0,.453-.517l.435-2.423Z" transform="translate(-1145.14 -917.005)" fill="url(#linear-gradient-59)"/>
            </g>
            <g id="Grupo_84468" data-name="Grupo 84468" transform="translate(0 63.457)">
              <g id="Grupo_84467" data-name="Grupo 84467" transform="translate(0 2.311)">
                <path id="Trazado_113326" data-name="Trazado 113326" d="M1123.6,923.99a1.208,1.208,0,0,1-1.086-.8l0,.01a.86.86,0,0,0,.579.98,3.788,3.788,0,0,0,1.6.251,1.6,1.6,0,0,0,1.2-.555l0,0A4.039,4.039,0,0,1,1123.6,923.99Z" transform="translate(-1122.487 -918.28)" fill="url(#linear-gradient-60)"/>
                <path id="Trazado_113327" data-name="Trazado 113327" d="M1126.723,916.985h-1.108c-1.689-.035-2.749,3.527-3.1,4.906a1.208,1.208,0,0,0,1.086.8,4.04,4.04,0,0,0,2.3-.122,10.584,10.584,0,0,0,1.582-3.985A1.4,1.4,0,0,0,1126.723,916.985Z" transform="translate(-1122.493 -916.985)" fill="url(#linear-gradient-61)"/>
              </g>
              <path id="Trazado_113328" data-name="Trazado 113328" d="M1126.444,914.064l-.616,2.448a.665.665,0,0,0,.346.753,2.361,2.361,0,0,0,1.275.308.557.557,0,0,0,.453-.37l.9-2.576Z" transform="translate(-1123.181 -914.064)" fill="url(#linear-gradient-62)"/>
            </g>
            <path id="Trazado_113329" data-name="Trazado 113329" d="M1125.684,905.767c.766.68,3.257.77,3.257.77,8.974-21.539,12.645-24.6,12.645-24.6-1.3,8.13-.209,26.128-.209,26.128a5.39,5.39,0,0,0,3.39,0A138.713,138.713,0,0,1,1149.35,874c-6.065-.137-9.291-2.212-10.344-3.045C1133.95,879.105,1125.684,905.767,1125.684,905.767Z" transform="translate(-1123.154 -841.603)" fill="url(#linear-gradient-63)"/>
            <path id="Trazado_113330" data-name="Trazado 113330" d="M1143.914,839.606c-1.148,5.727-.736,15.976-.466,20.651.076,1.314-.842,3.135-1.583,4.378a.39.39,0,0,0,.157.548,27.038,27.038,0,0,0,10.321,2.862.7.7,0,0,0,.7-.52,135.655,135.655,0,0,1,7.814-22.124C1156.221,838,1143.914,839.606,1143.914,839.606Z" transform="translate(-1126.522 -835.025)" fill="url(#linear-gradient-64)"/>
            <path id="Trazado_113331" data-name="Trazado 113331" d="M1146.482,883.256a.289.289,0,0,1-.245-.437,9.017,9.017,0,0,1,3.558-3.089.287.287,0,1,1,.25.517,8.607,8.607,0,0,0-3.317,2.87A.287.287,0,0,1,1146.482,883.256Z" transform="translate(-1127.438 -843.43)" fill="url(#linear-gradient-65)"/>
            <g id="Grupo_84469" data-name="Grupo 84469" transform="translate(10.043 4.581)">
              <path id="Trazado_113332" data-name="Trazado 113332" d="M1135.368,860.314a19.7,19.7,0,0,0,3.638,8.669l.828-.676a25.572,25.572,0,0,1-.412-8.285A9.931,9.931,0,0,0,1135.368,860.314Z" transform="translate(-1135.22 -843.879)" fill="url(#linear-gradient-66)"/>
              <path id="Trazado_113333" data-name="Trazado 113333" d="M1143.812,846.711l-1.282-7.066s-8.567,6.549-7.2,16.435a9.931,9.931,0,0,1,4.054-.292A13.865,13.865,0,0,1,1143.812,846.711Z" transform="translate(-1135.182 -839.645)" fill="url(#linear-gradient-67)"/>
            </g>
            <g id="Grupo_84470" data-name="Grupo 84470" transform="translate(31.027 10.376)">
              <path id="Trazado_113334" data-name="Trazado 113334" d="M1165.012,846.97l-3.307,7.122c.535,4.3,2.844,6.159,5.336,6.873a15.118,15.118,0,0,1,1.11-4.638C1164.969,853.04,1165.012,846.97,1165.012,846.97Z" transform="translate(-1161.705 -846.97)" fill="url(#linear-gradient-68)"/>
              <path id="Trazado_113335" data-name="Trazado 113335" d="M1169.559,858.8a15.118,15.118,0,0,0-1.11,4.638c6.645,2.578,8.4-2.422,8.4-2.422l-1.228-.217A6.963,6.963,0,0,1,1169.559,858.8Z" transform="translate(-1163.114 -849.44)" fill="url(#linear-gradient-69)"/>
            </g>
            <path id="Trazado_113336" data-name="Trazado 113336" d="M1160.389,835.437l-1.6,5.869a1.142,1.142,0,0,1-1.527.76,23.137,23.137,0,0,1-2.3-1.051,1.538,1.538,0,0,1-.543-2.211l3.32-4.949Z" transform="translate(-1129.102 -833.855)" fill="url(#linear-gradient-70)"/>
          </g>
          <path id="Trazado_113337" data-name="Trazado 113337" d="M1171.575,856.633l-40.911,14.89a3.132,3.132,0,0,0-1.78,4.241l.124.273a2.911,2.911,0,0,0,3.873,1.437l39.724-18.376Z" transform="translate(-1123.764 -825.61)" fill="url(#linear-gradient-71)"/>
          <g id="Grupo_84472" data-name="Grupo 84472" transform="translate(46.42 2.236)" opacity="0.31">
            <ellipse id="Elipse_4463" data-name="Elipse 4463" cx="20.195" cy="19.831" rx="20.195" ry="19.831" fill="#bde9fb"/>
          </g>
          <path id="Trazado_113338" data-name="Trazado 113338" d="M1200.755,817.42a22.07,22.07,0,1,0,22.472,22.067A22.273,22.273,0,0,0,1200.755,817.42Zm0,40.892a18.828,18.828,0,1,1,19.171-18.825A19,19,0,0,1,1200.755,858.312Z" transform="translate(-1134.14 -817.42)" fill="url(#linear-gradient-72)"/>
          <g id="Grupo_84473" data-name="Grupo 84473" transform="translate(45.66 1.464)">
            <path id="Trazado_113339" data-name="Trazado 113339" d="M1180.392,842.508a.053.053,0,0,1-.052-.046c-.067-.519-.113-1.049-.139-1.574a.053.053,0,0,1,.05-.055.051.051,0,0,1,.055.05c.026.523.073,1.05.138,1.566a.052.052,0,0,1-.045.059Zm.154-6.17h-.009a.052.052,0,0,1-.042-.061,20.153,20.153,0,0,1,1.207-4.129,20.655,20.655,0,0,1,7.593-9.27,21.315,21.315,0,0,1,23.127-.388.053.053,0,0,1,.017.073.053.053,0,0,1-.073.017,21.086,21.086,0,0,0-11.21-3.2,20.8,20.8,0,0,0-19.358,12.811h0a20.181,20.181,0,0,0-1.2,4.108A.052.052,0,0,1,1180.547,836.338Z" transform="translate(-1180.201 -819.271)" fill="#91defa"/>
          </g>
          <path id="Trazado_113340" data-name="Trazado 113340" d="M1140.381,870.29l3.867-.315,1.675,1.544s-.4.548-1.635.233a17.754,17.754,0,0,0-2.935-.392s-1.71.771-1.732-.672Z" transform="translate(-1126.065 -828.397)" fill="url(#linear-gradient-73)"/>
          <path id="Trazado_113341" data-name="Trazado 113341" d="M1178.341,861.981c.335.261,1.481-.284,2.182-.661a.807.807,0,0,0,.39-.953c-.169-.532-.45-1.219-.8-1.305C1179.542,858.917,1176.963,860.9,1178.341,861.981Z" transform="translate(-1134.069 -826.116)" fill="url(#linear-gradient-74)"/>
          <path id="Trazado_113342" data-name="Trazado 113342" d="M1131.713,880.472a.047.047,0,0,1-.017,0c-1.241-.43-1.892-1.137-1.934-2.1a2.337,2.337,0,0,1,1.525-2.249l4.912-1.915a.053.053,0,0,1,.038.1l-4.912,1.915a2.229,2.229,0,0,0-1.457,2.146c.04.919.667,1.595,1.863,2.009a.052.052,0,0,1,.032.066A.054.054,0,0,1,1131.713,880.472Z" transform="translate(-1124.006 -829.279)" fill="#91defa"/>
          <path id="Trazado_113343" data-name="Trazado 113343" d="M1139.822,873.491a.054.054,0,0,1-.049-.033.053.053,0,0,1,.03-.068l.637-.248a.053.053,0,0,1,.038.1l-.637.248A.054.054,0,0,1,1139.822,873.491Z" transform="translate(-1126.097 -829.057)" fill="#91defa"/>
          <g id="Grupo_84474" data-name="Grupo 84474" transform="translate(23.961 5.508)">
            <path id="Trazado_113344" data-name="Trazado 113344" d="M1161.071,828.573a19.458,19.458,0,0,1,1.41,4.629c.089,1.593.432,2.627-1.41,2.948a3.917,3.917,0,0,1-4.235-2.184s-1.318-2.445-1.022-3.447S1161.071,828.573,1161.071,828.573Z" transform="translate(-1153.399 -825.257)" fill="url(#linear-gradient-75)"/>
            <path id="Trazado_113345" data-name="Trazado 113345" d="M1156.839,831.949h.233s-.96-1.968-.116-2.314,4.183-1.027,4.9-2.212a2.2,2.2,0,0,0-.852-3.032.124.124,0,0,0-.157.059l-.077.146a.125.125,0,0,1-.231-.024h0a.125.125,0,0,0-.225-.035,3.373,3.373,0,0,1-2.419,1.226c-2.274.42-3.776,1.34-3.813,2.911a.125.125,0,0,1-.194.1c-.168-.1-.436-.15-.8.151-.624.525-.369,1.887,1,3.006a.125.125,0,0,1-.006.2c-.248.161-.618.546.34,1.058a2.554,2.554,0,0,0,1.779.411.126.126,0,0,0,.095-.129l-.086-1.392a.125.125,0,0,1,.125-.133Z" transform="translate(-1152.773 -824.381)" fill="url(#linear-gradient-76)"/>
            <path id="Trazado_113346" data-name="Trazado 113346" d="M1157.547,833.921s-.5-1.939-1.373-1.4.451,2.173,1.15,2.245Z" transform="translate(-1153.424 -826.062)" fill="url(#linear-gradient-77)"/>
          </g>
        </g>
      </g>
      <path id="Trazado_113347" data-name="Trazado 113347" d="M1190.082,839.395l7.646,5.952,14.68-12.033,3.787,4.324-18.467,19.322L1185.9,844Z" transform="translate(-1135.73 -820.74)" fill="#fff" opacity="0.7"/>
    </g>
    <g id="Grupo_84482" data-name="Grupo 84482" transform="translate(1271.293 755.89)">
      <g id="Grupo_84478" data-name="Grupo 84478" transform="translate(5.572 5.253)">
        <path id="Trazado_113348" data-name="Trazado 113348" d="M1331.224,773.61l4.121,6.245h-2.062l1.02,9.14h-5.709l1.087-8.988-2.609-.3Z" transform="translate(-1327.072 -771.345)" fill="url(#linear-gradient)"/>
        <path id="Trazado_113349" data-name="Trazado 113349" d="M1343.41,786.341l-4.121-6.349h2.062l-1.019-9.245h5.709l-1.087,9.144,2.609.329Z" transform="translate(-1329.623 -770.747)" fill="url(#linear-gradient)"/>
      </g>
      <g id="Grupo_84481" data-name="Grupo 84481">
        <g id="Grupo_84479" data-name="Grupo 84479" opacity="0.64">
          <path id="Trazado_113350" data-name="Trazado 113350" d="M1320.913,788.384a.157.157,0,0,1-.151-.113c-.04-.135-.078-.271-.114-.409a.157.157,0,0,1,.3-.08c.036.135.073.267.112.4a.158.158,0,0,1-.107.2A.146.146,0,0,1,1320.913,788.384Z" transform="translate(-1320.157 -769.028)" fill="url(#linear-gradient-80)"/>
          <path id="Trazado_113351" data-name="Trazado 113351" d="M1320.391,781.758a.158.158,0,0,1-.155-.131c-.045-.271-.084-.547-.115-.82a.158.158,0,0,1,.139-.174.156.156,0,0,1,.174.139c.03.267.068.538.112.8a.159.159,0,0,1-.129.182Zm-.2-2.139a.158.158,0,0,1-.157-.154c0-.109,0-.218,0-.328,0-.166,0-.335.009-.5a.158.158,0,0,1,.315.01c-.005.163-.009.328-.009.491,0,.108,0,.214,0,.32a.159.159,0,0,1-.154.161Zm.107-2.146h-.019a.158.158,0,0,1-.138-.176c.033-.273.075-.548.123-.818a.157.157,0,1,1,.31.055c-.047.264-.087.534-.119.8A.158.158,0,0,1,1320.3,777.473Zm.413-2.109a.156.156,0,0,1-.042-.005.158.158,0,0,1-.111-.193c.073-.265.153-.532.24-.793a.158.158,0,0,1,.3.1c-.085.255-.164.516-.234.775A.158.158,0,0,1,1320.71,775.364Zm.713-2.027a.161.161,0,0,1-.062-.013.158.158,0,0,1-.082-.207c.11-.253.229-.505.353-.751a.158.158,0,0,1,.281.142c-.122.241-.237.487-.346.735A.157.157,0,0,1,1321.423,773.337Zm1-1.9a.16.16,0,0,1-.083-.024.158.158,0,0,1-.051-.217c.146-.233.3-.466.457-.692a.158.158,0,0,1,.22-.038.156.156,0,0,1,.038.219c-.155.221-.305.449-.448.677A.155.155,0,0,1,1322.425,771.434Zm1.266-1.737a.158.158,0,0,1-.12-.26c.178-.21.363-.418.552-.618a.158.158,0,1,1,.229.217c-.185.2-.367.4-.541.6A.155.155,0,0,1,1323.69,769.7Zm1.5-1.537a.157.157,0,0,1-.1-.275c.206-.182.419-.361.635-.532a.158.158,0,0,1,.2.248c-.211.167-.421.343-.622.521A.16.16,0,0,1,1325.193,768.159Zm1.707-1.305a.158.158,0,0,1-.086-.29c.229-.151.467-.3.7-.435a.158.158,0,1,1,.158.273c-.232.135-.464.278-.689.426A.156.156,0,0,1,1326.9,766.854Zm15.114-.7a.157.157,0,0,1-.074-.019c-.236-.126-.481-.248-.725-.361a.157.157,0,1,1,.132-.286c.25.115.5.24.742.368a.158.158,0,0,1-.074.3Zm-13.237-.35a.157.157,0,0,1-.067-.3c.248-.116.5-.227.759-.329a.158.158,0,0,1,.117.293c-.25.1-.5.208-.743.322A.166.166,0,0,1,1328.777,765.807Zm11.271-.519a.155.155,0,0,1-.053-.009c-.253-.09-.513-.175-.771-.251a.157.157,0,1,1,.089-.3c.264.078.529.164.788.256a.158.158,0,0,1-.053.306Zm-9.264-.244a.158.158,0,0,1-.045-.309c.263-.079.532-.151.8-.216a.158.158,0,0,1,.074.307c-.262.063-.525.134-.782.21A.144.144,0,0,1,1330.784,765.044Zm7.193-.329a.142.142,0,0,1-.031,0c-.264-.053-.533-.1-.8-.137a.158.158,0,0,1,.045-.313c.272.04.547.086.816.14a.158.158,0,0,1-.031.313Zm-5.1-.136a.157.157,0,0,1-.022-.313c.271-.04.548-.072.822-.1a.157.157,0,1,1,.028.313c-.268.025-.54.056-.806.095A.109.109,0,0,1,1332.881,764.579Zm2.963-.134h-.009c-.268-.014-.539-.021-.807-.021a.16.16,0,0,1-.159-.158.156.156,0,0,1,.155-.157h0c.274,0,.551.008.823.022a.158.158,0,0,1-.008.315Z" transform="translate(-1320.029 -764.108)" fill="url(#linear-gradient)"/>
          <path id="Trazado_113352" data-name="Trazado 113352" d="M1349.583,767.712a.152.152,0,0,1-.089-.028c-.114-.078-.229-.156-.345-.232a.158.158,0,0,1,.173-.264c.118.078.236.157.351.237a.157.157,0,0,1-.09.287Z" transform="translate(-1326.096 -764.746)" fill="url(#linear-gradient-82)"/>
        </g>
        <g id="Grupo_84480" data-name="Grupo 84480" transform="translate(5.828 11.893)" opacity="0.64">
          <path id="Trazado_113353" data-name="Trazado 113353" d="M1357.449,779.869a.158.158,0,0,1-.155-.13q-.035-.205-.077-.408a.157.157,0,1,1,.308-.063q.043.208.078.418a.157.157,0,0,1-.128.182Z" transform="translate(-1333.624 -779.141)" fill="url(#linear-gradient-83)"/>
          <path id="Trazado_113354" data-name="Trazado 113354" d="M1336.717,797.749h0c-.255,0-.513-.017-.768-.034l-.1-.007a.157.157,0,1,1,.023-.314l.1.007c.25.017.5.028.753.032a.158.158,0,0,1,0,.316Zm1.393-.04a.158.158,0,0,1-.012-.315c.281-.021.565-.051.844-.087a.157.157,0,1,1,.041.312c-.285.038-.574.068-.861.09Zm-3.635-.17-.026,0c-.284-.048-.571-.105-.851-.17a.157.157,0,1,1,.07-.307c.275.063.554.119.832.166a.158.158,0,0,1-.026.313Zm5.859-.168a.157.157,0,0,1-.036-.311c.275-.064.552-.136.821-.215a.157.157,0,0,1,.089.3c-.275.081-.558.155-.839.22A.187.187,0,0,1,1340.334,797.371Zm-8.042-.377a.156.156,0,0,1-.05-.008c-.274-.091-.548-.191-.815-.3a.158.158,0,0,1,.116-.293c.262.1.53.2.8.291a.158.158,0,0,1-.05.307Zm10.189-.3a.158.158,0,0,1-.058-.3c.262-.105.524-.218.778-.337a.157.157,0,1,1,.134.285c-.259.122-.527.238-.8.345A.165.165,0,0,1,1342.481,796.7Zm-12.265-.574a.156.156,0,0,1-.071-.017c-.256-.131-.512-.271-.76-.418a.158.158,0,1,1,.16-.271c.243.142.494.28.744.408a.158.158,0,0,1-.072.3Zm14.284-.416a.158.158,0,0,1-.08-.294c.244-.143.485-.3.718-.451a.158.158,0,1,1,.176.262c-.239.16-.486.315-.734.46A.154.154,0,0,1,1344.5,795.709Zm1.848-1.283a.156.156,0,0,1-.123-.059.158.158,0,0,1,.023-.222c.218-.177.434-.364.643-.554a.157.157,0,0,1,.212.233c-.213.194-.434.385-.657.566A.157.157,0,0,1,1346.348,794.426Zm1.634-1.547a.157.157,0,0,1-.116-.263c.191-.21.376-.427.553-.645a.158.158,0,0,1,.245.2c-.18.223-.37.445-.565.658A.157.157,0,0,1,1347.982,792.879Zm1.384-1.775a.157.157,0,0,1-.131-.244c.157-.236.308-.479.449-.721a.158.158,0,0,1,.272.159c-.145.248-.3.5-.459.737A.156.156,0,0,1,1349.365,791.1Zm1.1-1.964a.163.163,0,0,1-.066-.014.158.158,0,0,1-.077-.21c.119-.256.231-.518.335-.781a.158.158,0,1,1,.294.116c-.106.268-.221.537-.343.8A.155.155,0,0,1,1350.465,789.14Zm.788-2.108a.169.169,0,0,1-.044-.006.158.158,0,0,1-.108-.2c.078-.27.149-.547.212-.821a.158.158,0,1,1,.308.07c-.064.281-.137.563-.217.839A.158.158,0,0,1,1351.253,787.032Zm.459-2.2-.021,0a.158.158,0,0,1-.136-.176c.036-.279.065-.563.086-.844a.157.157,0,1,1,.314.023c-.021.286-.05.577-.087.862A.158.158,0,0,1,1351.712,784.829Zm.123-2.247a.157.157,0,0,1-.157-.154c-.006-.282-.02-.567-.042-.848a.159.159,0,0,1,.146-.169.156.156,0,0,1,.169.145c.022.287.036.578.042.866a.158.158,0,0,1-.154.161Z" transform="translate(-1327.795 -779.615)" fill="url(#linear-gradient)"/>
          <path id="Trazado_113355" data-name="Trazado 113355" d="M1327.891,798.369a.155.155,0,0,1-.093-.03c-.115-.083-.228-.167-.34-.253a.157.157,0,1,1,.191-.25c.11.084.222.167.334.248a.158.158,0,0,1,.035.221A.156.156,0,0,1,1327.891,798.369Z" transform="translate(-1327.396 -783.039)" fill="url(#linear-gradient-85)"/>
        </g>
      </g>
    </g>
  </g>
</svg>
