<svg xmlns="http://www.w3.org/2000/svg" width="48.002" height="48" viewBox="0 0 48.002 48">
  <g id="Grupo_56404" data-name="Grupo 56404" transform="translate(-232.002 -232.004)">
    <path id="Trazado_103186" data-name="Trazado 103186" d="M256.5,261.936l.384,1.5q.789-.2,1.533-.443l-.476-1.473c-.465.15-.947.289-1.441.415Z" fill="#4dd0e1"/>
    <path id="Trazado_103187" data-name="Trazado 103187" d="M250.528,262.865l.111,1.544q.792-.057,1.571-.141l-.168-1.54Q251.29,262.81,250.528,262.865Z" fill="#4dd0e1"/>
    <path id="Trazado_103188" data-name="Trazado 103188" d="M253.544,262.532l.233,1.531q.794-.12,1.561-.274l-.3-1.518c-.486.1-.984.184-1.489.261Z" fill="#4dd0e1"/>
    <path id="Trazado_103189" data-name="Trazado 103189" d="M253.544,274.919l.233,1.531q.794-.12,1.561-.274l-.3-1.518c-.486.1-.984.184-1.489.261Z" fill="#4dd0e1"/>
    <path id="Trazado_103190" data-name="Trazado 103190" d="M250.528,275.252l.111,1.544c.528-.037,1.051-.085,1.571-.141l-.168-1.539Q251.29,275.2,250.528,275.252Z" fill="#4dd0e1"/>
    <path id="Trazado_103191" data-name="Trazado 103191" d="M256.5,274.324l.384,1.5q.789-.2,1.533-.443l-.476-1.473c-.465.15-.947.289-1.441.416Z" fill="#4dd0e1"/>
    <path id="Trazado_103192" data-name="Trazado 103192" d="M242.8,270.461q.777.086,1.57.142l.111-1.545q-.762-.054-1.513-.136Z" fill="#4dd0e1"/>
    <path id="Trazado_103193" data-name="Trazado 103193" d="M236.59,269.188q.743.24,1.533.442l.384-1.5q-.741-.191-1.441-.417Z" fill="#4dd0e1"/>
    <path id="Trazado_103194" data-name="Trazado 103194" d="M239.674,269.982q.767.153,1.561.274l.233-1.531q-.758-.115-1.49-.261Z" fill="#4dd0e1"/>
    <path id="Trazado_103195" data-name="Trazado 103195" d="M277.681,259.875a2.32,2.32,0,0,0-2.181,1.548h-2.465a.776.776,0,0,1-.774-.774v-6.194a.776.776,0,0,1,.774-.774h.548a6.358,6.358,0,0,0,6.418-6,6.186,6.186,0,0,0-5.416-6.332v-.052a9.276,9.276,0,0,0-16.85-5.369,6.959,6.959,0,0,0-10.2,5.373c-.044,0-.088,0-.133,0a6.185,6.185,0,0,0-5.774,8.182c-5.878.918-9.622,3.13-9.622,5.753V273.81c0,4.023,7.979,6.194,15.485,6.194s15.484-2.171,15.484-6.194V255.229a3.05,3.05,0,0,0-.454-1.548h2.776a.775.775,0,0,1,.774.774v12.388a2.326,2.326,0,0,0,2.323,2.322h.917a2.323,2.323,0,1,0,0-1.548h-.917a.776.776,0,0,1-.774-.774V254.455a2.325,2.325,0,0,0-2.323-2.322h-5.419V249.81a.775.775,0,0,1,.774-.774h7.885a2.323,2.323,0,1,0,0-1.549h-1.691v-3.239a2.323,2.323,0,1,0-1.549,0v3.239h-4.645a2.326,2.326,0,0,0-2.323,2.323v2.323H247.487a4.647,4.647,0,0,1-4.646-4.711,4.735,4.735,0,0,1,4.579-4.579,4.647,4.647,0,0,1,4.712,4.644h1.548a6.188,6.188,0,0,0-4.615-5.987,5.419,5.419,0,0,1,10.809.568h1.548A6.947,6.947,0,0,0,259,236.8a7.731,7.731,0,0,1,14.031,4.491c0,.238-.015.474-.036.707l-.036.841h.847a4.646,4.646,0,0,1,4.642,4.789,4.8,4.8,0,0,1-4.869,4.5h-.548a2.325,2.325,0,0,0-2.322,2.322v6.194a2.325,2.325,0,0,0,2.322,2.322H275.5a2.319,2.319,0,1,0,2.181-3.1Zm-6.194,7.742a.774.774,0,1,1-.774.774A.775.775,0,0,1,271.487,267.617Zm-5.42-26.323a.774.774,0,1,1-.774.774A.775.775,0,0,1,266.067,241.294Zm4.646,6.193a.774.774,0,1,1-.774.775A.776.776,0,0,1,270.713,247.487Zm-23.226,30.969c-8.213,0-13.936-2.448-13.936-4.646v-3.375c2.681,2.207,8.432,3.375,13.936,3.375s11.254-1.168,13.935-3.375v3.375C261.422,276.008,255.7,278.456,247.487,278.456Zm0-6.194c-8.213,0-13.936-2.448-13.936-4.645v-3.376c2.681,2.207,8.432,3.376,13.936,3.376s11.254-1.169,13.935-3.376v3.376C261.422,269.814,255.7,272.262,247.487,272.262Zm0-6.194c-8.213,0-13.936-2.448-13.936-4.645v-3.375c2.681,2.207,8.432,3.375,13.936,3.375s11.254-1.168,13.935-3.375v3.375C261.422,263.62,255.7,266.068,247.487,266.068Zm9.247-10.839c-.555.594-3.883,1.549-9.247,1.549s-8.693-.955-9.248-1.549c.555-.593,3.883-1.548,9.248-1.548S256.179,254.636,256.734,255.229Zm-13.657-3.393a6.189,6.189,0,0,0,.535.479c-3.13.288-6.964,1.025-6.964,2.914,0,3.011,9.729,3.1,10.839,3.1s10.838-.086,10.838-3.1a1.873,1.873,0,0,0-1.143-1.548H260.5a2.231,2.231,0,0,1,.919,1.548c0,2.2-5.723,4.646-13.935,4.646s-13.936-2.448-13.936-4.646c0-1.544,3.023-3.483,8.792-4.293a6.209,6.209,0,0,0,.734.9Zm34.6,11.135a.774.774,0,1,1,.774-.774A.775.775,0,0,1,277.681,262.971Z" fill="#4dd0e1"/>
  </g>
</svg>
