<svg xmlns="http://www.w3.org/2000/svg" xmlns:xlink="http://www.w3.org/1999/xlink" width="150.339" height="150.309" viewBox="0 0 150.339 150.309">
  <defs>
    <linearGradient id="linear-gradient" y1="0.5" x2="1" y2="0.5" gradientUnits="objectBoundingBox">
      <stop offset="0.004" stop-color="#376be3"/>
      <stop offset="1" stop-color="#1338f6"/>
    </linearGradient>
    <linearGradient id="linear-gradient-2" x1="0.505" y1="0.379" x2="0.42" y2="5.719" gradientUnits="objectBoundingBox">
      <stop offset="0" stop-color="#0c3d7e"/>
      <stop offset="0.996" stop-color="#12426b"/>
    </linearGradient>
    <linearGradient id="linear-gradient-4" x1="4.732" y1="3.41" x2="4.034" y2="5.524" gradientUnits="objectBoundingBox">
      <stop offset="0" stop-color="#e3e7ef"/>
      <stop offset="1" stop-color="#fafbfd"/>
    </linearGradient>
    <linearGradient id="linear-gradient-5" x1="4.974" y1="14.745" x2="5.147" y2="18.741" gradientUnits="objectBoundingBox">
      <stop offset="0" stop-color="#2a87ff"/>
      <stop offset="1" stop-color="#6fdefb"/>
    </linearGradient>
    <linearGradient id="linear-gradient-6" x1="0.548" y1="0.543" x2="-0.659" y2="1.216" gradientUnits="objectBoundingBox">
      <stop offset="0" stop-color="#ffd8c3"/>
      <stop offset="0.996" stop-color="#f39756"/>
    </linearGradient>
    <linearGradient id="linear-gradient-7" x1="0.28" y1="0.548" x2="-1.288" y2="1.481" xlink:href="#linear-gradient-6"/>
    <linearGradient id="linear-gradient-8" x1="-0.113" y1="-0.802" x2="1.065" y2="1.421" gradientUnits="objectBoundingBox">
      <stop offset="0" stop-color="#85ff8b"/>
      <stop offset="1" stop-color="#c7fb6f"/>
    </linearGradient>
    <linearGradient id="linear-gradient-9" x1="0.5" y1="1.152" x2="0.5" y2="-0.027" xlink:href="#linear-gradient-6"/>
    <linearGradient id="linear-gradient-10" x1="0.5" y1="0.734" x2="0.5" y2="-0.116" xlink:href="#linear-gradient-6"/>
    <linearGradient id="linear-gradient-11" x1="-15.435" y1="-31.939" x2="-14.515" y2="-30.031" xlink:href="#linear-gradient-8"/>
    <linearGradient id="linear-gradient-12" y1="0.5" x2="1" y2="0.5" gradientUnits="objectBoundingBox">
      <stop offset="0" stop-color="#443e19"/>
      <stop offset="1" stop-color="#7b8939"/>
    </linearGradient>
    <linearGradient id="linear-gradient-13" x1="-0.032" y1="0.129" x2="0.689" y2="0.731" xlink:href="#linear-gradient-12"/>
    <linearGradient id="linear-gradient-14" x1="0.252" y1="0.047" x2="0.972" y2="0.677" xlink:href="#linear-gradient-12"/>
    <linearGradient id="linear-gradient-15" x1="-0.325" y1="-0.38" x2="0.89" y2="0.962" xlink:href="#linear-gradient-8"/>
    <linearGradient id="linear-gradient-16" x1="-0.37" y1="-0.615" x2="0.817" y2="1.106" xlink:href="#linear-gradient-8"/>
    <linearGradient id="linear-gradient-17" x1="0.86" y1="0.292" x2="0.114" y2="1.156" xlink:href="#linear-gradient-6"/>
    <linearGradient id="linear-gradient-18" y1="0.5" x2="1" y2="0.5" gradientUnits="objectBoundingBox">
      <stop offset="0" stop-color="#443e19"/>
      <stop offset="1" stop-color="#767239"/>
    </linearGradient>
    <linearGradient id="linear-gradient-19" x1="-290.449" y1="-414.463" x2="-293.882" y2="-408.743" xlink:href="#linear-gradient-6"/>
    <linearGradient id="linear-gradient-20" x1="0.157" y1="-1.351" x2="0.692" y2="1.091" gradientUnits="objectBoundingBox">
      <stop offset="0.004" stop-color="#e0e38d"/>
      <stop offset="1" stop-color="#f6d071"/>
    </linearGradient>
  </defs>
  <g id="Grupo_83592" data-name="Grupo 83592" transform="translate(232.302 -1736.289)">
    <path id="Trazado_112742" data-name="Trazado 112742" d="M-154.793,1736.324c-38.486-1.169-71.823,27.549-76.86,65.232-5.507,41.2,24.8,78.269,62.1,84.206,46.388,7.385,91.381-35.338,87.341-81.686C-85.259,1769.156-115.671,1737.512-154.793,1736.324Z" fill="#f4f7fa"/>
    <g id="Grupo_83600" data-name="Grupo 83600" transform="translate(-222.272 1737.21)">
      <g id="Grupo_83594" data-name="Grupo 83594">
        <path id="Trazado_112743" data-name="Trazado 112743" d="M-121.676,1740.357l-89.615-2.839a7.22,7.22,0,0,0-7.665,7.068v127.656a7.182,7.182,0,0,0,7.665,7.034l89.615-3.239a7.269,7.269,0,0,0,6.973-7.2V1747.526A7.23,7.23,0,0,0-121.676,1740.357Z" transform="translate(218.956 -1737.515)" fill="url(#linear-gradient)"/>
        <path id="Trazado_112744" data-name="Trazado 112744" d="M-215.691,1873.685V1744.657a4.163,4.163,0,0,1,4.416-4.076l91.138,2.786a4.168,4.168,0,0,1,4.023,4.134v122.9a4.191,4.191,0,0,1-4.023,4.152l-91.138,3.193A4.142,4.142,0,0,1-215.691,1873.685Z" transform="translate(218.145 -1738.276)" fill="#fff" opacity="0.74" style="mix-blend-mode: soft-light;isolation: isolate"/>
        <path id="Trazado_112745" data-name="Trazado 112745" d="M-121.676,1740.358l-89.615-2.839a7.22,7.22,0,0,0-7.665,7.068v5.244l104.252,2.679v-4.984A7.228,7.228,0,0,0-121.676,1740.358Z" transform="translate(218.956 -1737.515)" fill="url(#linear-gradient-2)"/>
        <path id="Trazado_112746" data-name="Trazado 112746" d="M-202.461,1745.689a2.355,2.355,0,0,1-2.488,2.309,2.522,2.522,0,0,1-2.494-2.451,2.356,2.356,0,0,1,2.494-2.309A2.524,2.524,0,0,1-202.461,1745.689Z" transform="translate(216.095 -1738.936)" fill="#fff"/>
        <path id="Trazado_112747" data-name="Trazado 112747" d="M-190.881,1746.023a2.34,2.34,0,0,1-2.468,2.3,2.508,2.508,0,0,1-2.473-2.441,2.341,2.341,0,0,1,2.473-2.3A2.506,2.506,0,0,1-190.881,1746.023Z" transform="translate(213.208 -1739.022)" fill="#fff"/>
        <path id="Trazado_112748" data-name="Trazado 112748" d="M-179.4,1746.353a2.325,2.325,0,0,1-2.447,2.291,2.49,2.49,0,0,1-2.453-2.43,2.325,2.325,0,0,1,2.453-2.29A2.491,2.491,0,0,1-179.4,1746.353Z" transform="translate(210.345 -1739.107)" fill="#fff"/>
        <path id="Trazado_112749" data-name="Trazado 112749" d="M-119.887,1856.256l-87.179,1.79v-74.57l87.179,1.322Z" transform="translate(216.002 -1748.934)" fill="url(#linear-gradient)"/>
        <path id="Trazado_112750" data-name="Trazado 112750" d="M-119.887,1890.29l-87.179,2.155v-3.719l87.179-2Z" transform="translate(216.002 -1774.587)" fill="#fff" opacity="0.42"/>
        <path id="Trazado_112751" data-name="Trazado 112751" d="M-119.887,1901.923l-87.179,2.536v-3.719l87.179-2.381Z" transform="translate(216.002 -1777.478)" fill="#fff" opacity="0.42"/>
        <g id="Grupo_83592-2" data-name="Grupo 83592" transform="translate(8.936 25.796)" opacity="0.42">
          <path id="Trazado_112752" data-name="Trazado 112752" d="M-140.148,1773.134l-66.918-1.3v3.719l66.918,1.176Z" transform="translate(207.066 -1771.839)" fill="#fff"/>
          <path id="Trazado_112753" data-name="Trazado 112753" d="M-100.972,1773.892v3.577l7.445.131v-3.564Z" transform="translate(180.706 -1772.349)" fill="#fff"/>
        </g>
        <g id="Grupo_83593" data-name="Grupo 83593" opacity="0.15">
          <path id="Trazado_112754" data-name="Trazado 112754" d="M-145.268,1816.294c-14.421-17.5-32.5-18.42-42.554-36.995-7.277-13.439-6.245-28.525-3.016-41.134l-20.453-.648a7.22,7.22,0,0,0-7.665,7.068v127.656a7.182,7.182,0,0,0,7.665,7.034l80.552-2.911C-128.254,1844.018-136.891,1826.459-145.268,1816.294Z" transform="translate(218.956 -1737.515)" fill="#fff"/>
        </g>
      </g>
      <g id="Grupo_83599" data-name="Grupo 83599" transform="translate(13.739 39.107)">
        <path id="Trazado_112755" data-name="Trazado 112755" d="M-140.351,1789.909l-27.183-.359a4.4,4.4,0,0,0-4.536,4.335v7.438a4.5,4.5,0,0,0,4.536,4.418l27.183.144a4.329,4.329,0,0,0,4.4-4.294v-7.308A4.426,4.426,0,0,0-140.351,1789.909Z" transform="translate(193.568 -1789.55)" fill="#fff"/>
        <g id="Grupo_83595" data-name="Grupo 83595" transform="translate(0 27.36)">
          <path id="Trazado_112756" data-name="Trazado 112756" d="M-178.875,1825.964l-19.406,0a2.345,2.345,0,0,0-2.394,2.293v8.466a2.328,2.328,0,0,0,2.394,2.278l19.406-.124a2.323,2.323,0,0,0,2.343-2.281v-8.368A2.305,2.305,0,0,0-178.875,1825.964Z" transform="translate(200.675 -1825.957)" fill="#fff"/>
          <path id="Trazado_112757" data-name="Trazado 112757" d="M-142.335,1825.96l-18.892,0a2.3,2.3,0,0,0-2.331,2.262v8.353a2.28,2.28,0,0,0,2.331,2.247l18.892-.12a2.277,2.277,0,0,0,2.282-2.251V1828.2A2.258,2.258,0,0,0-142.335,1825.96Z" transform="translate(191.453 -1825.956)" fill="#fff"/>
          <path id="Trazado_112758" data-name="Trazado 112758" d="M-106.752,1825.955l-18.4,0a2.251,2.251,0,0,0-2.269,2.232v8.243a2.233,2.233,0,0,0,2.269,2.218l18.4-.117a2.233,2.233,0,0,0,2.223-2.222v-8.15A2.215,2.215,0,0,0-106.752,1825.955Z" transform="translate(182.474 -1825.955)" fill="#fff"/>
        </g>
        <g id="Grupo_83596" data-name="Grupo 83596" transform="translate(11.704 17.256)">
          <rect id="Rectángulo_14828" data-name="Rectángulo 14828" width="0.853" height="8.874" transform="translate(27.585 0.025)" fill="#fff" opacity="0.51"/>
          <path id="Trazado_112759" data-name="Trazado 112759" d="M-184.226,1821.4h-.876v-2.277a2.263,2.263,0,0,1,2.309-2.218l19.049.05a1.382,1.382,0,0,0,1.4-1.361v-3.08l.857,0v3.078a2.227,2.227,0,0,1-2.261,2.194l-19.049-.043a1.405,1.405,0,0,0-1.432,1.376Z" transform="translate(185.102 -1812.511)" fill="#fff" opacity="0.51"/>
          <path id="Trazado_112760" data-name="Trazado 112760" d="M-119.12,1821.438h-.831v-2.218a1.357,1.357,0,0,0-1.361-1.347l-18.461-.041a2.222,2.222,0,0,1-2.237-2.194v-3.065l.849,0v3.064a1.38,1.38,0,0,0,1.388,1.362l18.461.049a2.187,2.187,0,0,1,2.192,2.17Z" transform="translate(174.395 -1812.526)" fill="#fff" opacity="0.51"/>
        </g>
        <g id="Grupo_83597" data-name="Grupo 83597" transform="translate(0 51.295)">
          <path id="Trazado_112761" data-name="Trazado 112761" d="M-178.875,1858.668l-19.406.234a2.38,2.38,0,0,0-2.394,2.322v8.467a2.3,2.3,0,0,0,2.394,2.249l19.406-.356a2.357,2.357,0,0,0,2.343-2.309v-8.368A2.273,2.273,0,0,0-178.875,1858.668Z" transform="translate(200.675 -1858.019)" fill="#fff"/>
          <path id="Trazado_112762" data-name="Trazado 112762" d="M-142.335,1858.231l-18.892.227a2.331,2.331,0,0,0-2.331,2.29v8.353a2.248,2.248,0,0,0,2.331,2.219l18.892-.346a2.31,2.31,0,0,0,2.282-2.278v-8.258A2.226,2.226,0,0,0-142.335,1858.231Z" transform="translate(191.453 -1857.91)" fill="#fff"/>
          <path id="Trazado_112763" data-name="Trazado 112763" d="M-106.752,1857.8l-18.4.222a2.284,2.284,0,0,0-2.269,2.259v8.243a2.2,2.2,0,0,0,2.269,2.191l18.4-.337a2.265,2.265,0,0,0,2.223-2.248v-8.15A2.183,2.183,0,0,0-106.752,1857.8Z" transform="translate(182.474 -1857.804)" fill="#fff"/>
        </g>
        <g id="Grupo_83598" data-name="Grupo 83598" transform="translate(11.704 41.609)">
          <path id="Trazado_112764" data-name="Trazado 112764" d="M-147.544,1853.833l-.853.01v-8.876l.853-.006Z" transform="translate(175.982 -1844.926)" fill="#fff" opacity="0.51"/>
          <path id="Trazado_112765" data-name="Trazado 112765" d="M-184.226,1854.16l-.876.01v-2.278a2.3,2.3,0,0,1,2.309-2.245l19.049-.177a1.4,1.4,0,0,0,1.4-1.378v-3.079l.857-.007v3.078a2.259,2.259,0,0,1-2.261,2.22l-19.049.185a1.425,1.425,0,0,0-1.432,1.393Z" transform="translate(185.102 -1844.937)" fill="#fff" opacity="0.51"/>
          <path id="Trazado_112766" data-name="Trazado 112766" d="M-119.12,1853.514l-.831.009v-2.218a1.339,1.339,0,0,0-1.361-1.331l-18.461.179a2.19,2.19,0,0,1-2.237-2.167v-3.065l.849-.006v3.064a1.36,1.36,0,0,0,1.388,1.345l18.461-.171a2.156,2.156,0,0,1,2.192,2.144Z" transform="translate(174.395 -1844.915)" fill="#fff" opacity="0.51"/>
        </g>
      </g>
    </g>
    <g id="Grupo_83607" data-name="Grupo 83607" transform="translate(-158.282 1760.252)">
      <g id="Grupo_83603" data-name="Grupo 83603" transform="translate(0)">
        <path id="Trazado_112767" data-name="Trazado 112767" d="M-63.558,1773.532l-55.155-5.341a4.067,4.067,0,0,0-4.164,2.821l-10.81,38.385a2.613,2.613,0,0,0,2.47,3.466l56.979,3.229a3.92,3.92,0,0,0,3.817-2.926l9.07-36.371A2.522,2.522,0,0,0-63.558,1773.532Z" transform="translate(133.811 -1768.175)" fill="#d8dee8"/>
        <path id="Trazado_112768" data-name="Trazado 112768" d="M-62.87,1773.713l-55.155-5.341a4.066,4.066,0,0,0-4.163,2.821L-133,1809.579a2.613,2.613,0,0,0,2.47,3.466l56.98,3.229a3.919,3.919,0,0,0,3.816-2.927l9.07-36.371A2.522,2.522,0,0,0-62.87,1773.713Z" transform="translate(133.64 -1768.219)" fill="url(#linear-gradient-4)"/>
        <path id="Trazado_112769" data-name="Trazado 112769" d="M-59.466,1773.713l-55.155-5.341a4.066,4.066,0,0,0-4.163,2.821l-.636,2.258,61.627,5.667.534-2.141A2.522,2.522,0,0,0-59.466,1773.713Z" transform="translate(130.235 -1768.219)" fill="url(#linear-gradient-5)"/>
        <path id="Trazado_112770" data-name="Trazado 112770" d="M-111.4,1772.086a1.325,1.325,0,0,1-1.354.924.861.861,0,0,1-.785-1.126,1.326,1.326,0,0,1,1.357-.923A.862.862,0,0,1-111.4,1772.086Z" transform="translate(128.782 -1768.865)" fill="#fff"/>
        <path id="Trazado_112771" data-name="Trazado 112771" d="M-106.419,1772.556a1.318,1.318,0,0,1-1.345.922.859.859,0,0,1-.78-1.122,1.317,1.317,0,0,1,1.347-.921A.859.859,0,0,1-106.419,1772.556Z" transform="translate(127.542 -1768.983)" fill="#fff"/>
        <path id="Trazado_112772" data-name="Trazado 112772" d="M-101.475,1773.023a1.307,1.307,0,0,1-1.335.919.857.857,0,0,1-.776-1.118,1.307,1.307,0,0,1,1.337-.918A.857.857,0,0,1-101.475,1773.023Z" transform="translate(126.31 -1769.1)" fill="#fff"/>
        <path id="Trazado_112773" data-name="Trazado 112773" d="M-68.194,1807.352l-55.323-3.853,4.252-15.206,54.714,4.559Z" transform="translate(131.253 -1773.173)" fill="#d8dee8"/>
        <path id="Trazado_112774" data-name="Trazado 112774" d="M-69.48,1816.81l-55.479-3.671.462-1.651,55.413,3.748Z" transform="translate(131.611 -1778.936)" fill="#fff"/>
        <path id="Trazado_112775" data-name="Trazado 112775" d="M-70.828,1822.02l-55.643-3.48.463-1.657,55.576,3.558Z" transform="translate(131.987 -1780.276)" fill="#fff"/>
        <g id="Grupo_83601" data-name="Grupo 83601" transform="translate(12.6 11.317)">
          <path id="Trazado_112776" data-name="Trazado 112776" d="M-87.507,1785.757l-29.087-2.523-.452,1.615,29.122,2.484Z" transform="translate(117.046 -1783.233)" fill="#fff"/>
          <path id="Trazado_112777" data-name="Trazado 112777" d="M-48.191,1789.166l-.391,1.545,3.173.271.387-1.541Z" transform="translate(100.035 -1784.707)" fill="#fff"/>
        </g>
        <g id="Grupo_83602" data-name="Grupo 83602" transform="translate(0.517 0.136)" opacity="0.5" style="mix-blend-mode: soft-light;isolation: isolate">
          <path id="Trazado_112778" data-name="Trazado 112778" d="M-89.948,1792.022c-4.177-9.462-16.191-7.41-20.571-17.695a17.108,17.108,0,0,1-1.284-5.353l-6.222-.6a4.066,4.066,0,0,0-4.163,2.821L-133,1809.579a2.613,2.613,0,0,0,2.47,3.466l43.144,2.444a28.5,28.5,0,0,1-1.959-6.275C-91.007,1800.46-87.4,1797.8-89.948,1792.022Z" transform="translate(133.123 -1768.355)" fill="#fff"/>
        </g>
      </g>
      <g id="Grupo_83606" data-name="Grupo 83606" transform="translate(4.621 18.145)">
        <path id="Trazado_112779" data-name="Trazado 112779" d="M-125.624,1798.609l-1.432-1.433a3.648,3.648,0,0,1-.358-3.359c.716-1.97,1.7-1.432,1.7-1.432l-.268,1.388a2.714,2.714,0,0,0,.671,2.015,7.254,7.254,0,0,1,.9,2.373Z" transform="translate(127.662 -1792.318)" fill="url(#linear-gradient-6)"/>
        <path id="Trazado_112780" data-name="Trazado 112780" d="M-45.657,1806.755l1.612-1.463.717-2.657s1.97.776.9,3.283c-.686.836-2.373,2.09-3.09,3.314S-45.657,1806.755-45.657,1806.755Z" transform="translate(107.342 -1794.882)" fill="url(#linear-gradient-7)"/>
        <path id="Trazado_112781" data-name="Trazado 112781" d="M-68.2,1825.782s7.733-4.776,9.613-6.478a84.044,84.044,0,0,0,7.568-9.4c.448-.806-1.388-2.418-1.388-2.418s-8.986,11.225-20.271,7.911C-70.883,1819.423-68.2,1825.782-68.2,1825.782Z" transform="translate(113.999 -1796.085)" fill="url(#linear-gradient-8)"/>
        <path id="Trazado_112782" data-name="Trazado 112782" d="M-65.226,1919.483s1.418,3.568,1.045,5.15a16,16,0,0,0,2.508-.224,17.3,17.3,0,0,1-.731-2.433,23.909,23.909,0,0,1-.15-2.851Z" transform="translate(112.149 -1823.824)" fill="url(#linear-gradient-9)"/>
        <path id="Trazado_112783" data-name="Trazado 112783" d="M-87.527,1930.7a1.124,1.124,0,0,1,.268.655,1.064,1.064,0,0,1-.08.439c-.242.637-.622.72-1.031,1.4-.25.413-.2.537-.433.723a1.505,1.505,0,0,1-.985.263,17.468,17.468,0,0,1-2.278-.128q.763-.984,1.626-2,.379-.442.756-.864l1.5-.506Z" transform="translate(118.818 -1826.695)" fill="#4f3e26"/>
        <path id="Trazado_112784" data-name="Trazado 112784" d="M-88.622,1921.038s-.855,4.463.233,5.713c.927,1.25-.448.358-.448.358l-1.642,1.432-.985,1.7s.907-4.368.665-6.1-.363-2.9-.363-2.9Z" transform="translate(118.668 -1824.3)" fill="url(#linear-gradient-10)"/>
        <path id="Trazado_112785" data-name="Trazado 112785" d="M-93.018,1813.172c-4.164-.7-10.126,1.405-17.017-2.239a36.989,36.989,0,0,1-13.12-12.27l-3.043,1.505c1.723,2.974,5.782,9.348,11.161,13.785,6.771,5.586,13.4,5.912,17,10.474C-96.337,1822.745-90.987,1813.515-93.018,1813.172Z" transform="translate(127.298 -1793.894)" fill="url(#linear-gradient-11)"/>
        <path id="Trazado_112786" data-name="Trazado 112786" d="M-92.733,1855.79s-2.3,2.055-2.3,10.521,1.088,26.847,1.088,26.847l1.742,13.161a11.5,11.5,0,0,0,3.015-.3c1.088-4.959,2.862-13.346,2.016-20.361-.363-7.618,3.023-17.173,3.023-17.173s2.9,9.675,4.958,14.512,5.97,19.992,6.333,21.081a5.962,5.962,0,0,0,3.433-.418s-1.542-16.309-2.993-22.476-1.33-21.043-3.749-25.276C-81.607,1853.734-92.733,1855.79-92.733,1855.79Z" transform="translate(119.554 -1807.87)" fill="url(#linear-gradient-12)"/>
        <path id="Trazado_112787" data-name="Trazado 112787" d="M-92.733,1855.79s-2.3,2.055-2.3,10.521,1.088,26.847,1.088,26.847l1.742,13.161a11.5,11.5,0,0,0,3.015-.3c1.088-4.959,2.862-13.346,2.016-20.361-.363-7.618,3.023-17.173,3.023-17.173s2.9,9.675,4.958,14.512,5.97,19.992,6.333,21.081a5.962,5.962,0,0,0,3.433-.418s-1.542-16.309-2.993-22.476-1.33-21.043-3.749-25.276C-81.607,1853.734-92.733,1855.79-92.733,1855.79Z" transform="translate(119.554 -1807.87)" fill="url(#linear-gradient-13)"/>
        <path id="Trazado_112788" data-name="Trazado 112788" d="M-80.8,1871.3c.717,4.657,2.149,7.165,5.732,10.389,2.866,2.149.717,6.807,1.792,10.389.358,1.075,1.432,2.149,1.791,3.224,1.333,2.667.088,5.927.692,8.751a3.839,3.839,0,0,0,1.368-.392s-1.542-16.309-2.993-22.476-1.33-21.043-3.749-25.276c-5.442-2.177-16.568-.121-16.568-.121s-2.3,2.055-2.3,10.521c0,.687.008,1.44.02,2.242a8.712,8.712,0,0,0,10.274.24,1.423,1.423,0,0,1,.575-.26l.016-.045.013.042C-82.764,1868.28-81.107,1870.059-80.8,1871.3Z" transform="translate(119.554 -1807.87)" opacity="0.25" fill="url(#linear-gradient-14)" style="mix-blend-mode: multiply;isolation: isolate"/>
        <g id="Grupo_83604" data-name="Grupo 83604" transform="translate(47.269 99.518)">
          <path id="Trazado_112789" data-name="Trazado 112789" d="M-64.44,1928.256s-.354,0-.324.456-.159,2.027,1.637,2.1a5.5,5.5,0,0,0,2.133-.127,14.782,14.782,0,0,0-.471-1.5l-.574-.737-1.547-.161Z" transform="translate(64.765 -1925.611)" fill="#4f3e26"/>
          <path id="Trazado_112790" data-name="Trazado 112790" d="M-60.437,1928.958a5.708,5.708,0,0,0-.464-1.457c-.317-.714-.057-.981-.36-1.631a1.927,1.927,0,0,0-.428-.649,1.854,1.854,0,0,0-1.269-.484,1.293,1.293,0,0,0-.6.141,1.385,1.385,0,0,0-.537.567,6.212,6.212,0,0,0-.433,1.284,3.151,3.151,0,0,0-.113.437,3.126,3.126,0,0,0-.047.392,8.406,8.406,0,0,1,2.666.353,1.5,1.5,0,0,1,.574,1.222c0,.471.236.692.471.678A.773.773,0,0,0-60.437,1928.958Z" transform="translate(64.745 -1924.737)" fill="#8c6844"/>
        </g>
        <path id="Trazado_112791" data-name="Trazado 112791" d="M-89.066,1927.8c.405.006.7.328.926,1.1s1.3,1.462.044,1.3-2.164,1.612-2.612,2.269-1.65,1.24-1.62.6.56-.942.709-1.6S-89.989,1927.791-89.066,1927.8Z" transform="translate(118.883 -1825.981)" fill="#8c6844"/>
        <path id="Trazado_112792" data-name="Trazado 112792" d="M-81.227,1817.578c-2.03-.059-7.2-.624-9.613,1.792-2.471,2.469.032,5.434-.414,9.5-.3,2.758-.193,4.385-.717,8.9a28.056,28.056,0,0,1-.573,3.2c-.69,2.941-1.89,8.723-2.536,10.168a24.1,24.1,0,0,0,13.746,2.019,21.459,21.459,0,0,0,6.853-2.258,31.87,31.87,0,0,1-.73-14.282,51.388,51.388,0,0,1,4.879-13.751c.939-1.926-1.29-.847-2.716-2.537C-75.235,1817.732-79.179,1817.639-81.227,1817.578Z" transform="translate(119.566 -1798.569)" fill="url(#linear-gradient-15)"/>
        <path id="Trazado_112793" data-name="Trazado 112793" d="M-90.256,1831.427a7.59,7.59,0,0,0-.537-4.255,6.546,6.546,0,0,0-1.433-1.971c-1.8-1.653-4.124-1.544-6.776-1.734a41.245,41.245,0,0,1-8.147-1.44c5.095,3.195,9.839,4.182,12.948,7.212-.006.25-.023.505-.051.764-.3,2.758-.193,4.384-.717,8.9a28.062,28.062,0,0,1-.573,3.2c-.69,2.941-1.89,8.723-2.535,10.167a24.09,24.09,0,0,0,13.746,2.019,21.465,21.465,0,0,0,6.853-2.258,24.371,24.371,0,0,1-1.009-4.908,20.621,20.621,0,0,1-9.261-2.167c-1.968-1-2.951-1.5-3.538-2.6C-92.412,1840.239-91.044,1838.271-90.256,1831.427Z" transform="translate(122.565 -1799.7)" opacity="0.25" fill="url(#linear-gradient-16)" style="mix-blend-mode: multiply;isolation: isolate"/>
        <g id="Grupo_83605" data-name="Grupo 83605" transform="translate(35.497 9.443)">
          <path id="Trazado_112794" data-name="Trazado 112794" d="M-79.3,1810.793a4.462,4.462,0,0,1,1.692-2.755c1.119-.889,1.347-.979,1.731-1.052l.525-.079.058,0a5.244,5.244,0,0,1,1.395.5c.535.377.141,3.04-1.48,6.352l-.192.842c1.413.249,1.763.5,1.774.707.024.44-1.523,1-2.957,1.039-1.8.046-3.707-.728-3.671-1.3.015-.234.354-.522,1.659-.8l.613-.861A3.926,3.926,0,0,1-79.3,1810.793Z" transform="translate(80.429 -1805.386)" fill="url(#linear-gradient-17)"/>
          <path id="Trazado_112795" data-name="Trazado 112795" d="M-75.021,1805.394a2.438,2.438,0,0,0-.536,2.2c.1.413.229.457.21.727-.051.759-1.435,1.09-1.357,1.472.055.274.775.174.9.516.135.376-.655.7-1,1.645-.053.147-.374,1.042.038,1.568.386.491,1.247.374,2.219.248a7.768,7.768,0,0,0,2.066-.555,5.127,5.127,0,0,0,2.1-1.415,4.308,4.308,0,0,0,.956-2.83,4.454,4.454,0,0,0-3.538-4.036A2.46,2.46,0,0,0-75.021,1805.394Z" transform="translate(79.569 -1804.882)" fill="url(#linear-gradient-18)"/>
          <path id="Trazado_112796" data-name="Trazado 112796" d="M-76.251,1811.281c.408-.244.718.28.527.739a.906.906,0,0,1-1.23.472C-77.345,1812.219-76.8,1811.61-76.251,1811.281Z" transform="translate(79.598 -1806.457)" fill="url(#linear-gradient-19)"/>
        </g>
        <path id="Trazado_112797" data-name="Trazado 112797" d="M-81.445,1817.52l.994-.306s.26,1.346,3.457,1.514a4.778,4.778,0,0,0,2.921-.994l.764.352a5.408,5.408,0,0,1-3.946,1.958A4.755,4.755,0,0,1-81.445,1817.52Z" transform="translate(116.179 -1798.504)" fill="url(#linear-gradient-20)"/>
      </g>
    </g>
    <path id="Trazado_112798" data-name="Trazado 112798" d="M-160.123,1773.54s20.159-30.481,49.9-20.59l-1.073-5.167,10.429,13.162-13.792.354,2.99-3.435S-131.093,1749.272-160.123,1773.54Z" transform="translate(-17.934 -2.856)" fill="#fff" opacity="0.69"/>
  </g>
</svg>
