<svg xmlns="http://www.w3.org/2000/svg" width="48" height="48" viewBox="0 0 48 48">
  <g id="Grupo_56405" data-name="Grupo 56405" transform="translate(-232 -232)">
    <path id="Trazado_103197" data-name="Trazado 103197" d="M265.017,261.933l.384,1.5q.789-.2,1.534-.443l-.477-1.473q-.7.225-1.441.416Z" fill="#4dd0e1"/>
    <path id="Trazado_103198" data-name="Trazado 103198" d="M259.042,262.861l.111,1.544q.792-.057,1.57-.141l-.168-1.539Q259.8,262.806,259.042,262.861Z" fill="#4dd0e1"/>
    <path id="Trazado_103199" data-name="Trazado 103199" d="M262.057,262.528l.233,1.531q.793-.12,1.561-.274l-.3-1.518c-.487.1-.985.184-1.49.261Z" fill="#4dd0e1"/>
    <path id="Trazado_103200" data-name="Trazado 103200" d="M259.042,275.248l.111,1.545q.792-.057,1.57-.142l-.168-1.539Q259.8,275.193,259.042,275.248Z" fill="#4dd0e1"/>
    <path id="Trazado_103201" data-name="Trazado 103201" d="M262.057,274.915l.233,1.531q.793-.12,1.561-.274l-.3-1.518c-.487.1-.985.184-1.49.261Z" fill="#4dd0e1"/>
    <path id="Trazado_103202" data-name="Trazado 103202" d="M265.017,274.32l.384,1.5q.789-.2,1.534-.443l-.477-1.473c-.465.15-.946.29-1.441.416Z" fill="#4dd0e1"/>
    <path id="Trazado_103203" data-name="Trazado 103203" d="M253,269.054c-.508-.036-1.014-.082-1.514-.136l-.168,1.539q.778.086,1.571.142Z" fill="#4dd0e1"/>
    <path id="Trazado_103204" data-name="Trazado 103204" d="M249.981,268.722q-.756-.115-1.489-.261l-.3,1.518q.767.153,1.56.274Z" fill="#4dd0e1"/>
    <path id="Trazado_103205" data-name="Trazado 103205" d="M247.021,268.126q-.742-.191-1.441-.416l-.477,1.473q.744.24,1.534.443Z" fill="#4dd0e1"/>
    <path id="Trazado_103206" data-name="Trazado 103206" d="M256,258.323c1.109,0,10.839-.087,10.839-3.1s-9.73-3.1-10.839-3.1-10.839.087-10.839,3.1S254.891,258.323,256,258.323Zm0-4.646c5.364,0,8.693.955,9.248,1.549-.555.594-3.884,1.548-9.248,1.548s-8.693-.954-9.248-1.548C247.307,254.632,250.636,253.677,256,253.677Z" fill="#4dd0e1"/>
    <path id="Trazado_103207" data-name="Trazado 103207" d="M271.484,255.226c0-2.756-3.745-4.642-8.516-5.557V232h-8.837l-5.1,5.1v12.57c-4.771.915-8.516,2.8-8.516,5.557v2.322h-7.742v13.936h7.742v2.322c0,4.023,7.978,6.194,15.484,6.194s15.484-2.171,15.484-6.194v-2.322h7.742V257.548h-7.742Zm-29.419,9.011c2.681,2.208,8.432,3.376,13.935,3.376s11.254-1.168,13.935-3.376v3.376c0,2.2-5.722,4.645-13.935,4.645s-13.935-2.448-13.935-4.645ZM256,266.065c-8.213,0-13.935-2.448-13.935-4.646v-3.375c2.681,2.207,8.432,3.375,13.935,3.375s11.254-1.168,13.935-3.375v3.375C269.935,263.617,264.213,266.065,256,266.065Zm-2.323-31.422v2h-2Zm-3.1,3.551h4.645v-4.646h6.193v15.864a38.828,38.828,0,0,0-10.838,0ZM256,250.581c8.213,0,13.935,2.448,13.935,4.645s-5.722,4.645-13.935,4.645-13.935-2.448-13.935-4.645,5.722-4.645,13.935-4.645Zm-21.677,19.354V259.1h6.193v10.838ZM256,278.452c-8.213,0-13.935-2.448-13.935-4.646v-3.375c2.681,2.207,8.432,3.375,13.935,3.375s11.254-1.168,13.935-3.375v3.375C269.935,276,264.213,278.452,256,278.452ZM277.677,259.1v10.838h-6.193V259.1Z" fill="#4dd0e1"/>
    <path id="Trazado_103208" data-name="Trazado 103208" d="M245.935,232H237.1l-5.1,5.1v11.933h13.935Zm-9.29,2.643v2h-2Zm7.742,12.841H233.548v-9.29h4.646v-4.646h6.193Z" fill="#4dd0e1"/>
    <path id="Trazado_103209" data-name="Trazado 103209" d="M239.742,235.1h3.1v1.548h-3.1Z" fill="#4dd0e1"/>
    <path id="Trazado_103210" data-name="Trazado 103210" d="M239.742,238.194h3.1v1.548h-3.1Z" fill="#4dd0e1"/>
    <path id="Trazado_103211" data-name="Trazado 103211" d="M235.1,241.29h7.742v1.549H235.1Z" fill="#4dd0e1"/>
    <path id="Trazado_103212" data-name="Trazado 103212" d="M235.1,244.387h7.742v1.548H235.1Z" fill="#4dd0e1"/>
    <path id="Trazado_103213" data-name="Trazado 103213" d="M256.774,235.1h3.1v1.548h-3.1Z" fill="#4dd0e1"/>
    <path id="Trazado_103214" data-name="Trazado 103214" d="M256.774,238.194h3.1v1.548h-3.1Z" fill="#4dd0e1"/>
    <path id="Trazado_103215" data-name="Trazado 103215" d="M252.129,241.29h7.742v1.549h-7.742Z" fill="#4dd0e1"/>
    <path id="Trazado_103216" data-name="Trazado 103216" d="M252.129,244.387h7.742v1.548h-7.742Z" fill="#4dd0e1"/>
    <path id="Trazado_103217" data-name="Trazado 103217" d="M271.163,232l-5.1,5.1v11.933H280V232Zm-.453,2.643v2h-2Zm7.742,12.841H267.613v-9.29h4.645v-4.646h6.194Z" fill="#4dd0e1"/>
    <path id="Trazado_103218" data-name="Trazado 103218" d="M273.806,235.1h3.1v1.548h-3.1Z" fill="#4dd0e1"/>
    <path id="Trazado_103219" data-name="Trazado 103219" d="M273.806,238.194h3.1v1.548h-3.1Z" fill="#4dd0e1"/>
    <path id="Trazado_103220" data-name="Trazado 103220" d="M269.161,241.29H276.9v1.549h-7.742Z" fill="#4dd0e1"/>
    <path id="Trazado_103221" data-name="Trazado 103221" d="M269.161,244.387H276.9v1.548h-7.742Z" fill="#4dd0e1"/>
    <path id="Trazado_103222" data-name="Trazado 103222" d="M273.032,260.645h3.1v1.549h-3.1Z" fill="#4dd0e1"/>
    <path id="Trazado_103223" data-name="Trazado 103223" d="M273.032,263.742h3.1v1.548h-3.1Z" fill="#4dd0e1"/>
    <path id="Trazado_103224" data-name="Trazado 103224" d="M273.032,266.839h3.1v1.548h-3.1Z" fill="#4dd0e1"/>
    <path id="Trazado_103225" data-name="Trazado 103225" d="M235.871,260.645h3.1v1.549h-3.1Z" fill="#4dd0e1"/>
    <path id="Trazado_103226" data-name="Trazado 103226" d="M235.871,263.742h3.1v1.548h-3.1Z" fill="#4dd0e1"/>
    <path id="Trazado_103227" data-name="Trazado 103227" d="M235.871,266.839h3.1v1.548h-3.1Z" fill="#4dd0e1"/>
  </g>
</svg>
