<svg xmlns="http://www.w3.org/2000/svg" width="194.434" height="194.435" viewBox="0 0 194.434 194.435">
  <g id="Grupo_86259" data-name="Grupo 86259" transform="translate(-16 -16)">
    <g id="Grupo_86258" data-name="Grupo 86258" transform="translate(16 16)">
      <path id="Trazado_116050" data-name="Trazado 116050" d="M97.217,0A97.217,97.217,0,1,1,0,97.217,97.217,97.217,0,0,1,97.217,0Z" transform="translate(0)" fill="#ffc63b"/>
      <circle id="Elipse_4963" data-name="Elipse 4963" cx="82.927" cy="82.927" r="82.927" transform="translate(14.055 14.524)" fill="#ffd13b"/>
      <g id="Grupo_86256" data-name="Grupo 86256" transform="translate(47.887 50.499)">
        <path id="Trazado_115997" data-name="Trazado 115997" d="M243.605,336.332a1.988,1.988,0,1,0,0-3.976h-4.188v-1.7a3.049,3.049,0,0,0-3.049-3.049H210.405a3.048,3.048,0,0,0-3.048,3.049v1.7H203.17a1.988,1.988,0,0,0,0,3.976h4.188v5.317H203.17a1.988,1.988,0,0,0,0,3.976h4.188v5.317H203.17a1.988,1.988,0,1,0,0,3.976h4.188v1.7a3.049,3.049,0,0,0,3.048,3.049h1.674v4.188a1.988,1.988,0,0,0,3.976,0v-4.188h5.317v4.188a1.988,1.988,0,0,0,3.976,0v-4.188h5.344v4.188a1.988,1.988,0,0,0,3.976,0v-4.188h1.7a3.049,3.049,0,0,0,3.049-3.049v-1.7h4.188a1.988,1.988,0,1,0,0-3.976h-4.188v-5.317h4.188a1.988,1.988,0,1,0,0-3.976h-4.188v-5.317Z" transform="translate(-174.057 -251.882)" fill="#382b73"/>
        <path id="Trazado_115998" data-name="Trazado 115998" d="M228.152,314.35v4.188h3.975V314.35a1.988,1.988,0,1,0-3.975,0Z" transform="translate(-190.102 -242.813)" fill="#382b73"/>
        <path id="Trazado_115999" data-name="Trazado 115999" d="M255.068,314.35a1.988,1.988,0,0,0-3.976,0v4.188h3.975V314.35Z" transform="translate(-203.75 -242.813)" fill="#382b73"/>
        <path id="Trazado_116000" data-name="Trazado 116000" d="M276.02,312.362a1.988,1.988,0,0,0-1.988,1.988v4.188h3.976V314.35a1.988,1.988,0,0,0-1.988-1.988Z" transform="translate(-217.397 -242.813)" fill="#382b73"/>
        <path id="Trazado_116001" data-name="Trazado 116001" d="M178.233,203.435a1.206,1.206,0,0,0,2.059-.853V146.7a6.033,6.033,0,0,0-6.032-6.033H140.25a6.032,6.032,0,0,0-6.032,6.033v37.694a6.033,6.033,0,0,0,6.032,6.033h24.973Z" transform="translate(-134.218 -140.666)" fill="#382b73"/>
        <path id="Trazado_116002" data-name="Trazado 116002" d="M304.08,140.666H270.07a6.032,6.032,0,0,0-6.032,6.033v55.883a1.206,1.206,0,0,0,2.059.853l13.009-13.009H304.08a6.033,6.033,0,0,0,6.033-6.033V146.7a6.034,6.034,0,0,0-6.033-6.033Z" transform="translate(-211.452 -140.666)" fill="#382b73"/>
      </g>
      <path id="Trazado_116003" data-name="Trazado 116003" d="M299.762,329.309h-4.188v-3.975h4.188a1.988,1.988,0,1,1,0,3.975Z" transform="translate(-182.327 -200.032)" fill="#fff"/>
      <path id="Trazado_116004" data-name="Trazado 116004" d="M299.762,328.782h-4.188v1.988h4.188a1.988,1.988,0,0,0,1.722-2.982A1.988,1.988,0,0,1,299.762,328.782Z" transform="translate(-182.327 -201.492)" fill="#d1d3d4"/>
      <path id="Trazado_116005" data-name="Trazado 116005" d="M299.762,352.249h-4.188v-3.975h4.188a1.988,1.988,0,1,1,0,3.975Z" transform="translate(-182.327 -213.679)" fill="#fff"/>
      <path id="Trazado_116006" data-name="Trazado 116006" d="M299.762,351.722h-4.188v1.988h4.188a1.988,1.988,0,0,0,1.722-2.982A1.988,1.988,0,0,1,299.762,351.722Z" transform="translate(-182.327 -215.139)" fill="#d1d3d4"/>
      <path id="Trazado_116007" data-name="Trazado 116007" d="M299.762,375.189h-4.188v-3.975h4.188a1.988,1.988,0,1,1,0,3.975Z" transform="translate(-182.327 -227.327)" fill="#fff"/>
      <path id="Trazado_116008" data-name="Trazado 116008" d="M299.762,374.662h-4.188v1.988h4.188a1.988,1.988,0,0,0,1.722-2.982A1.988,1.988,0,0,1,299.762,374.662Z" transform="translate(-182.327 -228.787)" fill="#d1d3d4"/>
      <path id="Trazado_116009" data-name="Trazado 116009" d="M203.168,329.309h4.188v-3.975h-4.188a1.988,1.988,0,1,0,0,3.975Z" transform="translate(-126.169 -200.032)" fill="#fff"/>
      <path id="Trazado_116010" data-name="Trazado 116010" d="M203.168,328.782h4.188v1.988h-4.188a1.988,1.988,0,0,1-1.722-2.982A1.988,1.988,0,0,0,203.168,328.782Z" transform="translate(-126.169 -201.492)" fill="#d1d3d4"/>
      <path id="Trazado_116011" data-name="Trazado 116011" d="M203.168,352.249h4.188v-3.975h-4.188a1.988,1.988,0,1,0,0,3.975Z" transform="translate(-126.169 -213.679)" fill="#fff"/>
      <path id="Trazado_116012" data-name="Trazado 116012" d="M203.168,351.722h4.188v1.988h-4.188a1.988,1.988,0,0,1-1.722-2.982A1.988,1.988,0,0,0,203.168,351.722Z" transform="translate(-126.169 -215.139)" fill="#d1d3d4"/>
      <path id="Trazado_116013" data-name="Trazado 116013" d="M203.168,375.189h4.188v-3.975h-4.188a1.988,1.988,0,1,0,0,3.975Z" transform="translate(-126.169 -227.327)" fill="#fff"/>
      <path id="Trazado_116014" data-name="Trazado 116014" d="M203.168,374.662h4.188v1.988h-4.188a1.988,1.988,0,0,1-1.722-2.982A1.988,1.988,0,0,0,203.168,374.662Z" transform="translate(-126.169 -228.787)" fill="#d1d3d4"/>
      <g id="Grupo_86257" data-name="Grupo 86257" transform="translate(81.188 114.377)">
        <path id="Trazado_116015" data-name="Trazado 116015" d="M232.129,300.35v4.188h-3.975V300.35a1.988,1.988,0,1,1,3.975,0Z" transform="translate(-223.404 -298.362)" fill="#fff"/>
        <path id="Trazado_116016" data-name="Trazado 116016" d="M255.069,300.35v4.188h-3.975V300.35a1.988,1.988,0,1,1,3.975,0Z" transform="translate(-237.052 -298.362)" fill="#fff"/>
        <path id="Trazado_116017" data-name="Trazado 116017" d="M278.007,300.35v4.188h-3.975V300.35a1.988,1.988,0,1,1,3.975,0Z" transform="translate(-250.698 -298.362)" fill="#fff"/>
        <path id="Trazado_116018" data-name="Trazado 116018" d="M232.061,396.942v-4.188h-3.975v4.188a1.988,1.988,0,1,0,3.975,0Z" transform="translate(-223.364 -354.518)" fill="#fff"/>
        <path id="Trazado_116019" data-name="Trazado 116019" d="M255,396.942v-4.188h-3.975v4.188a1.988,1.988,0,1,0,3.975,0Z" transform="translate(-237.01 -354.518)" fill="#fff"/>
        <path id="Trazado_116020" data-name="Trazado 116020" d="M278.007,396.942v-4.188h-3.975v4.188a1.988,1.988,0,1,0,3.975,0Z" transform="translate(-250.698 -354.518)" fill="#fff"/>
        <path id="Trazado_116021" data-name="Trazado 116021" d="M245.439,345.667H219.476a3.048,3.048,0,0,1-3.048-3.049V316.655a3.049,3.049,0,0,1,3.048-3.049h25.963a3.049,3.049,0,0,1,3.049,3.049v25.963A3.049,3.049,0,0,1,245.439,345.667Z" transform="translate(-216.428 -307.431)" fill="#fff"/>
      </g>
      <path id="Trazado_116022" data-name="Trazado 116022" d="M248.158,346.864H224.252a1.524,1.524,0,0,1-1.524-1.524V321.434a1.524,1.524,0,0,1,1.524-1.524h23.906a1.524,1.524,0,0,1,1.524,1.524V345.34A1.523,1.523,0,0,1,248.158,346.864Z" transform="translate(-138.989 -196.805)" fill="#ef5a9d"/>
      <path id="Trazado_116023" data-name="Trazado 116023" d="M248.16,319.91H224.254a1.524,1.524,0,0,0-1.524,1.524v1.524a1.524,1.524,0,0,1,1.524-1.524H248.16a1.524,1.524,0,0,1,1.524,1.524v-1.524A1.524,1.524,0,0,0,248.16,319.91Z" transform="translate(-138.99 -196.805)" fill="#e43d91"/>
      <path id="Trazado_116024" data-name="Trazado 116024" d="M252.066,354.855H241.6a1.006,1.006,0,0,1-.8-1.61l5.234-6.978a1.006,1.006,0,0,1,1.61,0l5.233,6.978A1.006,1.006,0,0,1,252.066,354.855Z" transform="translate(-149.617 -212.246)" fill="#e43d91"/>
      <path id="Trazado_116025" data-name="Trazado 116025" d="M252.067,351.075H241.6a1.006,1.006,0,0,1-.8-1.61l5.234-6.978a1.006,1.006,0,0,1,1.61,0l5.234,6.978a1.007,1.007,0,0,1-.805,1.61Z" transform="translate(-149.617 -209.997)" fill="#fede3a"/>
      <path id="Trazado_116026" data-name="Trazado 116026" d="M251.876,357.028H241.791l-.995,1.327a1.006,1.006,0,0,0,.8,1.61h10.466a1.006,1.006,0,0,0,.8-1.61Z" transform="translate(-149.617 -218.887)" fill="#f7cb15"/>
      <path id="Trazado_116027" data-name="Trazado 116027" d="M228.084,392.754h3.975v2.465h-3.975Z" transform="translate(-142.175 -240.142)" fill="#d1d3d4"/>
      <path id="Trazado_116028" data-name="Trazado 116028" d="M251.024,392.754H255v2.465h-3.975Z" transform="translate(-155.823 -240.142)" fill="#d1d3d4"/>
      <path id="Trazado_116029" data-name="Trazado 116029" d="M273.964,392.754h3.975v2.465h-3.975Z" transform="translate(-169.47 -240.142)" fill="#d1d3d4"/>
      <path id="Trazado_116030" data-name="Trazado 116030" d="M228.084,307.522h3.975v2.465h-3.975Z" transform="translate(-142.175 -189.435)" fill="#d1d3d4"/>
      <path id="Trazado_116031" data-name="Trazado 116031" d="M251.024,307.522H255v2.465h-3.975Z" transform="translate(-155.823 -189.435)" fill="#d1d3d4"/>
      <path id="Trazado_116032" data-name="Trazado 116032" d="M273.964,307.522h3.975v2.465h-3.975Z" transform="translate(-169.47 -189.435)" fill="#d1d3d4"/>
      <path id="Trazado_116033" data-name="Trazado 116033" d="M174.26,135.762H140.25a6.033,6.033,0,0,0-6.032,6.033V175.8a6.033,6.033,0,0,0,6.032,6.033h24.973l13.01,13.009a1.206,1.206,0,0,0,2.059-.853v-52.2a6.033,6.033,0,0,0-6.033-6.032Z" transform="translate(-86.331 -87.25)" fill="#e43d91"/>
      <path id="Trazado_116034" data-name="Trazado 116034" d="M174.26,126.666H140.25a6.033,6.033,0,0,0-6.032,6.033v34.01a6.033,6.033,0,0,0,6.032,6.033h26.18l11.8,11.8a1.206,1.206,0,0,0,2.059-.853V132.7a6.032,6.032,0,0,0-6.032-6.033Z" transform="translate(-86.331 -81.838)" fill="#ef5a9d"/>
      <path id="Trazado_116035" data-name="Trazado 116035" d="M304.08,135.762H270.07a6.032,6.032,0,0,0-6.032,6.033v52.2a1.206,1.206,0,0,0,2.059.853l13.01-13.009h24.973a6.033,6.033,0,0,0,6.033-6.033V141.8a6.035,6.035,0,0,0-6.034-6.033Z" transform="translate(-163.565 -87.25)" fill="#009add"/>
      <path id="Trazado_116036" data-name="Trazado 116036" d="M304.08,126.666H270.07a6.032,6.032,0,0,0-6.032,6.033v50.993a1.206,1.206,0,0,0,2.059.853l11.8-11.8h26.18a6.033,6.033,0,0,0,6.033-6.033V132.7a6.034,6.034,0,0,0-6.033-6.033Z" transform="translate(-163.565 -81.838)" fill="#1caee4"/>
      <path id="Trazado_116037" data-name="Trazado 116037" d="M183.075,150.968a3.583,3.583,0,0,0-3.583,3.583v12.98a3.6,3.6,0,0,0,.092.809c.013.058.028.115.044.172.024.085.051.169.082.251a3.584,3.584,0,0,0,3.273,2.35h.092a3.583,3.583,0,0,0,3.583-3.583v-12.98A3.582,3.582,0,0,0,183.075,150.968Z" transform="translate(-113.266 -96.296)" fill="#e43d91"/>
      <path id="Trazado_116038" data-name="Trazado 116038" d="M183.075,206.288a3.583,3.583,0,0,0-3.582,3.508c0,.025,0,.05,0,.075a3.6,3.6,0,0,0,.092.809c.013.058.028.115.044.172.024.085.051.169.082.251a3.584,3.584,0,0,0,3.273,2.35l.092,0a3.583,3.583,0,0,0,3.583-3.583c0-.025,0-.05,0-.075A3.583,3.583,0,0,0,183.075,206.288Z" transform="translate(-113.266 -129.208)" fill="#e43d91"/>
      <path id="Trazado_116039" data-name="Trazado 116039" d="M183.075,166.977a3.583,3.583,0,0,0,3.583-3.583v-12.98a3.583,3.583,0,1,0-7.167,0v12.98A3.584,3.584,0,0,0,183.075,166.977Z" transform="translate(-113.266 -93.835)" fill="#fede3a"/>
      <path id="Trazado_116040" data-name="Trazado 116040" d="M183.075,185.717a3.583,3.583,0,0,0,3.583-3.583V184.4a3.583,3.583,0,1,1-7.167,0v-2.263A3.583,3.583,0,0,0,183.075,185.717Z" transform="translate(-113.266 -114.838)" fill="#f7cb15"/>
      <path id="Trazado_116041" data-name="Trazado 116041" d="M183.075,209.319a3.583,3.583,0,1,0-3.583-3.583A3.583,3.583,0,0,0,183.075,209.319Z" transform="translate(-113.266 -126.747)" fill="#fede3a"/>
      <path id="Trazado_116042" data-name="Trazado 116042" d="M183.075,210.656a3.571,3.571,0,0,0,3.383-2.451,3.538,3.538,0,0,1,.2,1.132,3.583,3.583,0,0,1-7.167,0,3.546,3.546,0,0,1,.2-1.132,3.571,3.571,0,0,0,3.383,2.451Z" transform="translate(-113.266 -130.348)" fill="#f7cb15"/>
      <path id="Trazado_116043" data-name="Trazado 116043" d="M315.335,172.384a3.286,3.286,0,0,1,.912,2.309A3.2,3.2,0,0,1,315.3,177a3.273,3.273,0,0,1-2.392.951,3.209,3.209,0,0,1-3.318-3.258,3.331,3.331,0,0,1,.865-2.277,3.2,3.2,0,0,1,2.452-1.032,3.251,3.251,0,0,1,2.424,1Zm4.1-23.884a8.12,8.12,0,0,0-6.013-2.288,8.689,8.689,0,0,0-6.031,2.183,7.739,7.739,0,0,0-2.532,5.9,1.911,1.911,0,0,0,1.912,1.935h2.04a1.912,1.912,0,0,0,1.912-1.88,2.305,2.305,0,0,1,.686-1.813,2.817,2.817,0,0,1,2.014-.661,2.2,2.2,0,0,1,1.781.616,2.915,2.915,0,0,1,.627,2.062,4.406,4.406,0,0,1-.173,1.31,3.657,3.657,0,0,1-.5,1.008,19.2,19.2,0,0,1-1.961,2.1,11.393,11.393,0,0,0-2.636,3.531,10.762,10.762,0,0,0-.7,3.956,1.911,1.911,0,0,0,1.912,1.945h2.041a1.912,1.912,0,0,0,1.912-1.912,4.022,4.022,0,0,1,1.319-3.32,16.611,16.611,0,0,0,3.592-4.3,9.354,9.354,0,0,0,1.055-4.349,8.21,8.21,0,0,0-2.261-6.013Z" transform="translate(-187.852 -93.467)" fill="#009add"/>
      <path id="Trazado_116044" data-name="Trazado 116044" d="M315.335,167.664a3.285,3.285,0,0,1,.912,2.309,3.2,3.2,0,0,1-.944,2.307,3.273,3.273,0,0,1-2.392.951,3.209,3.209,0,0,1-3.318-3.258,3.331,3.331,0,0,1,.865-2.277,3.2,3.2,0,0,1,2.452-1.032,3.251,3.251,0,0,1,2.424,1Zm4.1-23.884a8.12,8.12,0,0,0-6.013-2.288,8.689,8.689,0,0,0-6.031,2.183,7.739,7.739,0,0,0-2.532,5.9,1.912,1.912,0,0,0,1.912,1.935h2.04a1.912,1.912,0,0,0,1.912-1.88,2.307,2.307,0,0,1,.686-1.814,2.816,2.816,0,0,1,2.014-.661,2.2,2.2,0,0,1,1.781.616,2.916,2.916,0,0,1,.627,2.063,4.406,4.406,0,0,1-.173,1.31,3.657,3.657,0,0,1-.5,1.008,19.2,19.2,0,0,1-1.961,2.1,11.394,11.394,0,0,0-2.636,3.531,10.759,10.759,0,0,0-.7,3.956,1.912,1.912,0,0,0,1.912,1.945h2.041a1.912,1.912,0,0,0,1.912-1.912,4.021,4.021,0,0,1,1.319-3.32,16.611,16.611,0,0,0,3.592-4.3,9.356,9.356,0,0,0,1.055-4.349,8.21,8.21,0,0,0-2.261-6.013Z" transform="translate(-187.852 -90.659)" fill="#fede3a"/>
      <path id="Trazado_116045" data-name="Trazado 116045" d="M310.726,155.39a2.307,2.307,0,0,1,.686-1.814,2.816,2.816,0,0,1,2.014-.661,2.2,2.2,0,0,1,1.781.616,2.356,2.356,0,0,1,.547,1.209,4.919,4.919,0,0,0,.08-.88,2.916,2.916,0,0,0-.627-2.062,2.2,2.2,0,0,0-1.781-.616,2.821,2.821,0,0,0-2.014.661,2.305,2.305,0,0,0-.686,1.813,1.912,1.912,0,0,1-1.912,1.88h-2.04a1.883,1.883,0,0,1-1.822-1.362,9.586,9.586,0,0,0-.09,1.16,1.911,1.911,0,0,0,1.912,1.935h2.04a1.911,1.911,0,0,0,1.912-1.879Z" transform="translate(-187.852 -96.424)" fill="#e7ad27"/>
      <path id="Trazado_116046" data-name="Trazado 116046" d="M328,163.166a16.6,16.6,0,0,1-3.592,4.3,4.021,4.021,0,0,0-1.319,3.32,1.912,1.912,0,0,1-1.912,1.912h-2.041a1.886,1.886,0,0,1-1.843-1.436c-.036.388-.062.793-.069,1.224a1.912,1.912,0,0,0,1.912,1.945h2.041a1.912,1.912,0,0,0,1.912-1.912,4.021,4.021,0,0,1,1.319-3.32A16.61,16.61,0,0,0,328,164.9a9.355,9.355,0,0,0,1.055-4.349c0-.335-.016-.659-.045-.976A9.32,9.32,0,0,1,328,163.166Z" transform="translate(-195.204 -101.416)" fill="#e7ad27"/>
      <path id="Trazado_116047" data-name="Trazado 116047" d="M322.25,211.093a3.273,3.273,0,0,1-2.392.951,3.227,3.227,0,0,1-2.425-.985,3.19,3.19,0,0,1-.772-1.412,3.48,3.48,0,0,0-.121.872,3.209,3.209,0,0,0,3.318,3.258,3.273,3.273,0,0,0,2.392-.951,3.2,3.2,0,0,0,.944-2.307,3.4,3.4,0,0,0-.124-.872,3.16,3.16,0,0,1-.82,1.447Z" transform="translate(-194.8 -131.206)" fill="#e7ad27"/>
    </g>
  </g>
</svg>
