<svg xmlns="http://www.w3.org/2000/svg" width="92" height="92" viewBox="0 0 92 92">
  <g id="Grupo_86140" data-name="Grupo 86140" transform="translate(-16 -16)">
    <path id="Trazado_116048" data-name="Trazado 116048" d="M46,0A46,46,0,1,1,0,46,46,46,0,0,1,46,0Z" transform="translate(16 16)" fill="#ffc63b"/>
    <path id="Trazado_116049" data-name="Trazado 116049" d="M39,0A39,39,0,1,1,0,39,39,39,0,0,1,39,0Z" transform="translate(23 23)" fill="#ffd13b"/>
    <path id="Trazado_115659" data-name="Trazado 115659" d="M169.588,164H157.681a1.635,1.635,0,0,0-1.636,1.636v26.169a1.635,1.635,0,0,0,1.636,1.636h4.133v6.465a.384.384,0,0,1-.383.383h-11.76a9.169,9.169,0,0,0-3.262-1.216v-5.633h4.42a1.636,1.636,0,0,0,1.636-1.636V165.636A1.636,1.636,0,0,0,150.829,164H138.922a1.635,1.635,0,0,0-1.636,1.636v26.169a1.635,1.635,0,0,0,1.636,1.636h4.42v5.633a9.169,9.169,0,0,0-3.262,1.216h-11.76a.384.384,0,0,1-.383-.383v-6.465h4.133a1.635,1.635,0,0,0,1.636-1.636V165.636A1.636,1.636,0,0,0,132.069,164H120.162a1.636,1.636,0,0,0-1.636,1.636v26.169a1.635,1.635,0,0,0,1.636,1.636h4.708v6.465a3.454,3.454,0,0,0,3.45,3.45H137a9.227,9.227,0,1,0,15.742,0h8.685a3.454,3.454,0,0,0,3.45-3.45v-6.465h4.708a1.636,1.636,0,0,0,1.636-1.636V165.636A1.636,1.636,0,0,0,169.588,164Z" transform="translate(-82.875 -119.633)" fill="#382b73"/>
    <path id="Trazado_115660" data-name="Trazado 115660" d="M188.184,275.039H155.072a3.454,3.454,0,0,1-3.45-3.45V257.533a1.533,1.533,0,1,1,3.067,0v14.056a.384.384,0,0,0,.383.383h33.111a.384.384,0,0,0,.383-.383V257.533a1.533,1.533,0,1,1,3.067,0v14.056a3.454,3.454,0,0,1-3.45,3.45Z" transform="translate(-109.628 -194)" fill="#fff"/>
    <path id="Trazado_115661" data-name="Trazado 115661" d="M196.567,256a1.533,1.533,0,0,0-1.533,1.533v14.056a.384.384,0,0,1-.383.383H161.539a.384.384,0,0,1-.383-.383V257.533A1.533,1.533,0,0,0,159.622,256v15.589a1.917,1.917,0,0,0,1.917,1.917H194.65a1.917,1.917,0,0,0,1.917-1.917Z" transform="translate(-116.094 -194)" fill="#d1d3d4"/>
    <path id="Trazado_115662" data-name="Trazado 115662" d="M249.533,275.039A1.533,1.533,0,0,1,248,273.506V257.533a1.533,1.533,0,1,1,3.067,0v15.972a1.533,1.533,0,0,1-1.533,1.533Z" transform="translate(-187.533 -194)" fill="#fff"/>
    <circle id="Elipse_4931" data-name="Elipse 4931" cx="9.227" cy="9.227" r="9.227" transform="translate(52.773 76.63)" fill="#ef5a9d"/>
    <path id="Trazado_115663" data-name="Trazado 115663" d="M230.618,370.76a1.7,1.7,0,0,1-1.2-.5l-3.332-3.331a1.7,1.7,0,1,1,2.41-2.41l2.127,2.126,4.309-4.31a1.7,1.7,0,0,1,2.41,2.41l-5.514,5.515a1.7,1.7,0,0,1-1.2.5Z" transform="translate(-169.413 -279.551)" fill="#e43d91"/>
    <path id="Trazado_115664" data-name="Trazado 115664" d="M230.618,366.985a1.7,1.7,0,0,1-1.2-.5l-3.332-3.331a1.7,1.7,0,0,1,2.41-2.41l2.127,2.126,4.309-4.309a1.7,1.7,0,0,1,2.41,2.41l-5.514,5.515a1.7,1.7,0,0,1-1.2.5Z" transform="translate(-169.413 -276.5)" fill="#fff335"/>
    <path id="Trazado_115665" data-name="Trazado 115665" d="M237.346,361.019l-5.514,5.515a1.7,1.7,0,0,1-2.41,0l-3.332-3.331c-.018-.018-.03-.038-.046-.057a1.7,1.7,0,0,0,.046,2.353l3.332,3.331a1.7,1.7,0,0,0,2.41,0l5.514-5.515a1.7,1.7,0,0,0,.046-2.353C237.376,360.98,237.364,361,237.346,361.019Z" transform="translate(-169.422 -278.844)" fill="#f7cb15"/>
    <path id="Trazado_115666" data-name="Trazado 115666" d="M132.069,179.441H120.162a1.636,1.636,0,0,1-1.636-1.636V151.636A1.636,1.636,0,0,1,120.162,150h11.907a1.635,1.635,0,0,1,1.636,1.636v26.169a1.636,1.636,0,0,1-1.636,1.636Z" transform="translate(-82.875 -108.317)" fill="#1caee4"/>
    <path id="Trazado_115667" data-name="Trazado 115667" d="M132.069,269.02H120.162a1.636,1.636,0,0,1-1.636-1.636v5.306a1.636,1.636,0,0,0,1.636,1.636h11.907a1.635,1.635,0,0,0,1.636-1.636v-5.306a1.635,1.635,0,0,1-1.636,1.636Z" transform="translate(-82.875 -203.202)" fill="#009add"/>
    <g id="Grupo_86141" data-name="Grupo 86141" transform="translate(37.846 44.945)">
      <path id="Trazado_115668" data-name="Trazado 115668" d="M135.284,168.346h-4.643a.663.663,0,1,1,0-1.326h4.643a.663.663,0,1,1,0,1.326Z" transform="translate(-129.978 -167.02)" fill="#fff"/>
      <path id="Trazado_115669" data-name="Trazado 115669" d="M180.011,168.346a.663.663,0,1,1,.663-.663A.663.663,0,0,1,180.011,168.346Z" transform="translate(-169.885 -167.02)" fill="#fff"/>
      <path id="Trazado_115670" data-name="Trazado 115670" d="M135.284,205.4h-4.643a.663.663,0,1,1,0-1.326h4.643a.663.663,0,1,1,0,1.326Z" transform="translate(-129.978 -196.975)" fill="#fff"/>
      <path id="Trazado_115671" data-name="Trazado 115671" d="M180.011,205.4a.663.663,0,1,1,.663-.663A.663.663,0,0,1,180.011,205.4Z" transform="translate(-169.885 -196.975)" fill="#fff"/>
    </g>
    <path id="Trazado_115672" data-name="Trazado 115672" d="M118.528,186.774h15.178V188.1H118.528Z" transform="translate(-82.877 -138.042)" fill="#009add"/>
    <path id="Trazado_115673" data-name="Trazado 115673" d="M118.528,221.38h15.178v1.327H118.528Z" transform="translate(-82.877 -166.016)" fill="#009add"/>
    <path id="Trazado_115674" data-name="Trazado 115674" d="M229.947,179.441H218.04a1.636,1.636,0,0,1-1.636-1.636V151.636A1.636,1.636,0,0,1,218.04,150h11.907a1.636,1.636,0,0,1,1.636,1.636v26.169A1.636,1.636,0,0,1,229.947,179.441Z" transform="translate(-161.993 -108.317)" fill="#1caee4"/>
    <path id="Trazado_115675" data-name="Trazado 115675" d="M229.947,269.02H218.04a1.635,1.635,0,0,1-1.636-1.636v5.306a1.636,1.636,0,0,0,1.636,1.636h11.907a1.636,1.636,0,0,0,1.636-1.636v-5.306A1.636,1.636,0,0,1,229.947,269.02Z" transform="translate(-161.993 -203.202)" fill="#009add"/>
    <g id="Grupo_86142" data-name="Grupo 86142" transform="translate(56.605 44.945)">
      <path id="Trazado_115676" data-name="Trazado 115676" d="M233.16,168.346h-4.643a.663.663,0,0,1,0-1.326h4.643a.663.663,0,1,1,0,1.326Z" transform="translate(-227.854 -167.02)" fill="#fff"/>
      <path id="Trazado_115677" data-name="Trazado 115677" d="M277.889,168.346a.663.663,0,1,1,.663-.663A.663.663,0,0,1,277.889,168.346Z" transform="translate(-267.763 -167.02)" fill="#fff"/>
      <path id="Trazado_115678" data-name="Trazado 115678" d="M233.16,205.4h-4.643a.663.663,0,0,1,0-1.326h4.643a.663.663,0,1,1,0,1.326Z" transform="translate(-227.854 -196.975)" fill="#fff"/>
      <path id="Trazado_115679" data-name="Trazado 115679" d="M277.889,205.4a.663.663,0,1,1,.663-.663A.663.663,0,0,1,277.889,205.4Z" transform="translate(-267.763 -196.975)" fill="#fff"/>
    </g>
    <path id="Trazado_115680" data-name="Trazado 115680" d="M216.4,186.774h15.178V188.1H216.4Z" transform="translate(-161.993 -138.042)" fill="#009add"/>
    <path id="Trazado_115681" data-name="Trazado 115681" d="M216.4,221.38h15.178v1.327H216.4Z" transform="translate(-161.993 -166.016)" fill="#009add"/>
    <path id="Trazado_115682" data-name="Trazado 115682" d="M327.823,179.441H315.916a1.635,1.635,0,0,1-1.636-1.636V151.636A1.636,1.636,0,0,1,315.916,150h11.907a1.636,1.636,0,0,1,1.636,1.636v26.169A1.636,1.636,0,0,1,327.823,179.441Z" transform="translate(-241.11 -108.317)" fill="#1caee4"/>
    <path id="Trazado_115683" data-name="Trazado 115683" d="M327.823,269.02H315.916a1.635,1.635,0,0,1-1.636-1.636v5.306a1.636,1.636,0,0,0,1.636,1.636h11.907a1.635,1.635,0,0,0,1.636-1.636v-5.306A1.635,1.635,0,0,1,327.823,269.02Z" transform="translate(-241.11 -203.202)" fill="#009add"/>
    <path id="Trazado_115684" data-name="Trazado 115684" d="M331.038,168.346H326.4a.663.663,0,0,1,0-1.326h4.643a.663.663,0,1,1,0,1.326Z" transform="translate(-250.367 -122.075)" fill="#fff"/>
    <path id="Trazado_115685" data-name="Trazado 115685" d="M375.765,168.346a.663.663,0,1,1,.663-.663A.663.663,0,0,1,375.765,168.346Z" transform="translate(-290.274 -122.075)" fill="#fff"/>
    <path id="Trazado_115686" data-name="Trazado 115686" d="M331.038,205.4H326.4a.663.663,0,0,1,0-1.326h4.643a.663.663,0,1,1,0,1.326Z" transform="translate(-250.367 -152.03)" fill="#fff"/>
    <path id="Trazado_115687" data-name="Trazado 115687" d="M375.765,205.4a.663.663,0,1,1,.663-.663A.663.663,0,0,1,375.765,205.4Z" transform="translate(-290.274 -152.03)" fill="#fff"/>
    <path id="Trazado_115688" data-name="Trazado 115688" d="M314.282,186.774h15.178V188.1H314.282Z" transform="translate(-241.111 -138.042)" fill="#009add"/>
    <path id="Trazado_115689" data-name="Trazado 115689" d="M314.282,221.38h15.178v1.327H314.282Z" transform="translate(-241.111 -166.016)" fill="#009add"/>
  </g>
</svg>
